<?xml version="1.0" encoding="UTF-8"?><svg id="_レイヤー_2" xmlns="http://www.w3.org/2000/svg" viewBox="0 0 840.02 545.94"><g id="_レイヤー_1-2"><path d="M190.28,264.53c-14.97-.39-28.57-4.99-40.03-14-10.83-8.52-25.04-8.27-36.65.05-44.35,31.78-99.85,3.26-111.15-41.67-5.32-21.17-1.79-40.18,10.66-57.73,3.94-5.56,6.77-11.34,7.19-18.28.38-6.33-1.47-11.74-5.22-16.74-6.47-8.62-11.07-18.12-13.42-28.71C-5.55,54.98,11.42,25.3,37.25,10.4c25.03-14.44,50.02-13.91,74.42,1.97,1.67,1.09,3.27,2.29,4.93,3.4,10.5,7,20.17,6.99,30.61-.18,10.52-7.23,21.59-12.77,34.56-14.49,35.88-4.75,71.93,19.47,80.38,56.71,4.74,20.87-.07,39.6-12.05,56.77-3.72,5.33-6.63,10.67-6.58,17.37.04,6.24,1.97,11.64,5.72,16.64,6.05,8.06,10.47,17,12.82,26.85,8.95,37.52-15.95,77.35-54.09,86.34-5.79,1.36-11.79,1.85-17.69,2.75ZM206.75,185.73c-3.59,4.71-6.37,8.77-9.57,12.45-4.36,5.02-9.36,9.5-13.49,14.69-3.04,3.83-6.02,8.15-7.44,12.74-2.6,8.39,1.09,12.14,9.65,10.4,9.85-2,19.67-3.29,29.71-1.74,1.81.28,3.7.04,6.1.04-3.39-11.7-4.04-22.88-1.13-34.06,1.67-6.43,3.43-12.86,5.56-19.15,4.13-12.24,4.67-24.77,3.47-37.46-.47-4.94-.96-9.97-5.26-13.34-10.67,2.36-10.6,1.88-24.22-.07-6.42-.92-13.51-.82-19.67.95-15.35,4.42-23.07,20.89-18.83,37.93,2.96,11.91,10.4,18.51,22.53,18.71,6.84.11,13.7-1.22,22.61-2.1ZM127.13,156.01c1.4,3.5,2.91,5.56,2.9,7.61-.04,5.95.39,12.24-1.34,17.77-2.76,8.81-7.09,17.14-10.81,25.65-2.26,5.17-5.35,10.09-6.78,15.47-2.39,8.96,2.36,13.73,11.3,11.53,11.26-2.77,22.37-6.07,35.31-3.17-.52-4.79-.7-8.35-1.31-11.83-1.78-10.16-4.02-20.24-5.56-30.43-2.76-18.33-3.43-36.51,6.34-53.42.22-.38-.29-1.18-.76-2.83-5.53-.23-11.43-.29-17.29-.77-6.16-.51-12.29-1.43-18.66-2.2-1.75,14.5-11.01,23.07-21.15,30.88,3.6,4.5,6.39,8.24,9.46,11.73,3.1,3.53,5.29,8.14,10.35,10.21,1.4-9.03-.8-18.18,7.99-26.2ZM61.66,48.08c.79,2.66,1.51,4.13,1.62,5.63.37,5.26.82,10.54.64,15.79-.1,2.84-2.34,5.27-5.35,4.57-1.82-.43-3.64-2.58-4.61-4.41-.86-1.63-.68-3.88-.72-5.87-.28-13.72,5.85-24.25,16.41-32.51,2.52-1.97,5.17-3.77,8.17-5.95-9.85-2.4-34.35-2.19-44.52.24,10.17,17.49,10.01,33.97-5.21,48.96,1.94,8-2.13,16.33,1.14,25.46,3.49-.79,6.63-1.3,9.64-2.23,2.2-.68,4.21-1.96,6.34-2.87,2.89-1.23,6.38-2.05,8.14.85,1.02,1.69.14,4.96-.67,7.24-1.07,3.01-4.02,5.5-1.43,10.03,9.38,1.71,18.8-3.78,28.5-1.36.12-1.49.23-1.84.16-2.15-.29-1.29-.6-2.58-.96-3.85-2.7-9.72-1.32-11.08,8.84-8.83.49.11,1.12-.39,2.08-.76.35-1.69,1.04-3.59,1.09-5.51.16-5.27.05-10.54.05-16.33-2.02,0-3.27.11-4.48-.02-5-.52-6.81-1.87-6.77-6.53.03-3.53,1.15-7.11,2.13-10.57.58-2.02,1.84-3.85,3.16-6.5-8.13-.87-15.26-1.63-23.4-2.5ZM113.7,76.02c-1.78,13.17-8.87,23.67-16.22,33.93-6.58,9.2-13.57,18.13-20.65,26.96-9.58,11.95-19.48,23.65-29.1,35.57-2.41,2.99-5.5,5.82-5.35,10.83h20.59c10.75-18.84,20.43-37.85,32.03-55.6,11.55-17.68,25.02-34.1,38.1-51.68h-19.41Z" style="fill:#fff;"/><path d="M193.88,545.94c-17.15-.44-31.04-5.53-43.33-14.73-6.28-4.7-13.1-7.01-20.55-5.39-4.69,1.02-9.3,3.42-13.37,6.08-12.82,8.37-26.42,14.39-41.98,13.79-28.59-1.1-50.6-14.16-63.94-39.36-13.44-25.39-11.44-50.71,4.98-74.54,9.25-13.42,9.53-22.1.1-35.53-27.6-39.25-10.41-85.33,24.24-105.01,22.05-12.52,44.99-12.79,67.69-.77,2.06,1.09,4.21,2.13,5.97,3.61,13.19,11.03,25.87,10.7,39.8.43,7.02-5.17,15.83-8.98,24.39-10.81,28.66-6.13,52.82,3.13,71.15,25.52,20.38,24.89,23.55,57.62,3.12,86.95-9.3,13.35-9.15,22.09.05,35.57,16.29,23.86,18.49,48.96,4.94,74.49-13.65,25.72-36.09,38.13-63.25,39.7ZM179.48,414.37c0,7.45.59,14.44-.16,21.29-.8,7.22-2.84,14.31-4.41,21.44-1.22,5.51-3.04,10.93-3.71,16.5-.82,6.87-1.25,13.88-.89,20.78.36,6.84,3.62,12.73,9.12,17.08,9.97,7.88,32.09,8.99,42.54,1.61,3.67-2.59,6.88-6.34,9.16-10.23,2.3-3.91,3.65-8.55,4.61-13.05,5.95-27.96-2.57-53.69-12.21-79.89-7.29,1.12-14.1,2.46-20.98,3.15-7.22.73-14.51.85-23.05,1.31ZM131.42,441.9c-3.24,1.02-5.35,1.97-7.55,2.31-3.85.6-6.41-2.75-4.82-6.3.65-1.45,1.77-2.9,3.05-3.82,3.78-2.72,7.87-3.25,12.24-1.18,4.63,2.2,7.4,5.7,7.57,10.83.25,7.75-2.61,14.52-8.27,19.64-4.91,4.45-10.68,7.93-15.75,12.21-5.31,4.48-10.92,8.87-15.16,14.26-5.79,7.35-6.67,16.06-3.51,26.11,12.6-6.24,24.56-4.1,36.47-.05.95.32,1.89.85,2.85.9,5.63.28,11.33,1.04,16.88.49,6.29-.62,9.72-5.14,9.3-10.87-.27-3.64-1.22-7.23-1.34-10.87-.11-3.48.46-6.98.74-10.62-5.46,1.47-10.19,3.07-15.06,3.94-2.84.51-6.01.35-8.8-.39-4.2-1.12-5.32-3.9-3.16-7.61,1.65-2.83,3.83-5.44,6.16-7.77,3.05-3.06,6.52-5.69,9.73-8.6,10.53-9.57,12.44-21.68,9.46-34.77-2.08-9.1-8.19-15.02-17.16-17.86-8.84-2.8-17.68-2.64-26.57-.22-19.73,5.37-29.06,29.3-18.08,46.49,4.15,6.5,11.23,9.14,19.21,7.15,7.11-1.77,13.24-8.64,13.4-15.63.06-2.38-1.09-4.8-1.83-7.78ZM161.47,309.8c5.45,13.93,2.79,25.64-2.24,37.25-1.97,4.55-3.65,9.34-4.58,14.19-3.01,15.79,5.69,24.66,21.23,21.44,6.76-1.4,13.16-1.12,19.67.65,3.84,1.04,7.67,2.2,11.57,3,15.01,3.06,26.21-5.98,26.81-21.35.33-8.53-2.02-16.49-5-24.24-3.92-10.19-6.08-20.24.21-30.21-7.32-2.81-12.17-3.37-22.24-2.26-14.46,1.6-28.85,4.49-45.42,1.53ZM63.48,329.62c.98,3.15,1.93,4.92,2.01,6.74.25,5.26.51,10.57-.06,15.77-.16,1.42-3.17,3.26-5.05,3.49-1.27.16-3.34-1.87-4.17-3.4-.89-1.64-.95-3.84-1.04-5.81-.62-13.7,5.16-24.43,15.59-32.9,2.73-2.22,5.66-4.18,9.55-7.04-15.82-3.32-30.18.25-45.73-.69,10.42,18.42,11.17,35.01-3.89,49.43-.38,6.39-.79,12.34-1.07,18.29-.35,7.52,2.69,9.61,9.75,6.67,2.45-1.02,4.68-2.82,7.2-3.34,2.7-.57,6.27-1.07,8.31.21,3.19,2.01,1.1,5.28-.37,7.91-.49.87-1.1,1.68-1.49,2.59-2.46,5.65-.62,8.29,5.62,7.6,7.75-.86,15.46-2.06,23.31-3.13-.18-1.11-.23-2.11-.5-3.05-3.38-11.7-2.31-12.9,9.99-10.51,2.96-7.33,1.15-14.84,1.07-22.26-10.11-.56-13.1-4.8-10.25-14,.39-1.26,1.01-2.46,1.58-3.66.91-1.91,1.86-3.79,3.1-6.3-8.07-.9-15.21-1.7-23.44-2.62ZM115.55,357.64c-1.61,11.61-6.86,20.87-13.16,29.46-9.63,13.13-19.61,26.01-29.69,38.81-7.82,9.93-16.1,19.49-23.96,29.38-2.14,2.7-5.4,5.24-3.99,9.75h21.07c4.01-7.9,7.8-15.64,11.85-23.24,4.06-7.63,8.16-15.25,12.66-22.62,4.51-7.37,9.38-14.53,14.38-21.57,5.01-7.04,10.27-13.92,15.62-20.7,5.16-6.54,10.59-12.88,16.73-20.3-8.03.39-14.29.69-21.51,1.03Z" style="fill:#fff;"/><path d="M387.12,127.99q6.6,4.7,26-.7c.31,6.75.7,13.55.9,20.36.17,5.45-2.82,9.41-8.87,10.1-5.55.63-11.62,1.11-16.81-.48-12.4-3.8-24.58-5.63-37.36-.89-4.38-8.63-2.99-16.38,1.83-23,3.62-4.97,8.76-8.97,13.66-12.85,4.68-3.7,10.06-6.5,14.87-10.05,5.63-4.16,8.68-10.03,9.54-16.93.58-4.62-1.77-8.71-5.76-10.68-4.12-2.04-10.28-1.42-12.94,1.83-1.02,1.25-1.24,3.59-.93,5.27.11.63,2.81,1.28,4.22,1.1,7.98-1,11.11,2.41,8.1,9.63-2.93,7.03-8.57,10.86-16.24,11.36-8.09.52-13.62-2.78-16.84-9.83-8.21-17.99,1.4-36.95,20.83-40.37,5.5-.97,11.29-.92,16.9-.6,10.8.63,19.58,5.31,23.18,15.94,3.73,11.03,2.43,21.82-5.9,30.74-3.16,3.38-7.11,6.01-10.57,9.12-3.41,3.06-7.29,5.87-7.78,10.92Z" style="fill:#fff;"/><path d="M712.94,74.23c4.41-1.55.98-6.21,3.42-8.55,8.65,0,9.03.13,17.59,5.7-1.66,2.04-3.44,3.93-4.89,6.04-2.81,4.1-5.78,8.15-8.09,12.53-4.24,8.04-4.38,15.63,2.45,22.9,5.81,6.18,9.16,13.7,9.12,22.56-.08,15.6-12.15,26.15-27.04,22.04-8.51-2.35-16.42-4.69-25.19-1.67-3.87,1.33-6.92-.97-9.3-4.22-7.03-9.6-7.48-22.74-.74-32.73,2.41-3.58,5.42-6.75,7.92-10.27,3.88-5.45,3.73-7.39-.78-12.17-1.82-1.93-3.94-3.57-5.88-5.4-4.59-4.33-5.66-8.48-3.08-14.22,6.51-14.49,24-19.4,37.21-13.52,4.59,2.04,7.11,5.86,7.24,11.03-.06,2.98-.12,5.96-.18,8.94-2.66-2.08-7.17.85-9.12-4.27-1.57-4.13-5.88-3.42-9.48-1.65-2.94,1.45-4.81,3.71-4.27,7.12.64,4,3.17,7.02,7.13,7.17,3.05.11,6.42-1.08,9.19-2.55,2.51-1.34,4.4-3.85,6.57-5.85.06-3,.12-6,.18-8.99ZM697.13,113.35c-5.36,3.49-7.18,8.01-7.86,13-.53,3.91,1.77,7.16,5.52,8.42,4.18,1.41,7.92.31,10.99-2.64,3.05-2.94,1.8-6.21-.27-8.97-2.51-3.35-5.43-6.39-8.39-9.81Z" style="fill:#fff;"/><path d="M785.31,109.4c-1.04-.62-2.83-1.1-2.98-1.89-1-5.11-1.65-10.3-2.5-16.05,6.77-.68,14.18,5.25,19.66-2.64-4.29-6.09-9.2-.44-14.61-1.38-1.02-4.87-2.13-10.14-3.51-16.72,3.45.76,5.88,1.25,8.3,1.84,2.6.64,5.22,1.57,7.4-1.86-1.21-1.97-2.53-4.13-4.57-7.46,11.14-1.57,21.36-2.73,33.45-1.18-3.23,3.36-5.35,5.56-7.84,8.15,6.83,5.16,12.27-1.64,18.85-.89-.07,6.07-1.38,11.96-3.12,18.39-5.61.09-11.31-4.72-17.4.11,2.4,5.42,6.88,4.45,10.83,3.84,3.89-.61,7.66-1.91,12.17-3.09v18.19c-2.97,1.16-6.29,2.46-9.61,3.75.11.71.22,1.42.32,2.13,2.3.2,4.6.39,7.52.64,2.87,6.63,2.71,13.94,1.57,23.26-3.57-3.65-5.9-6.03-9.38-9.6,0,3.25-.39,5.05.1,6.57.6,1.84,2.07,3.38,2.95,5.16,3.79,7.65,1.85,13.74-6.17,16.96-4.54,1.82-9.62,3-14.49,3.11-7.25.16-14.66-.19-21.75-1.6-8.71-1.74-12.32-7.18-10.83-13.93,1.56-7.06,7.63-10.54,16.03-9.22.63.1,1.27.18,3.08.43.18-3.12.36-6.15.55-9.33q-7,.68-14.6,6.68c-3.76-3.37-1.39-7.3-1.01-10.97.4-3.86.88-7.71,1.32-11.56,6.72.03,13.07,5.22,20.07,1.64.27-1.71.5-3.22.86-5.55h15.88c-6.98-1.19-13.93-1.4-20.85-1.12-5.65.23-11.12,1.52-15.72,5.2ZM810.59,139.38c0-.82,0-1.64.01-2.46-3.79-1.54-7.17-.7-10.13,3.14,3.37-.22,6.75-.45,10.12-.67ZM812.42,134.04c3.8-3.92,2.62-6.2-1.14-8.18.33,2.37.66,4.73,1.14,8.18Z" style="fill:#fff;"/><path d="M788.65,412.71c1.36-4.62,4.5-9.13,1.06-14.11q-6.62,1.54-12.87,6.51-2.95-4.55,1.92-21.23c5.61.76,11.36,1.53,17.79,2.4.47-2.59.79-4.34,1.24-6.81h16.56c-13.31-1.37-26.76-3.73-39.66,4.09-1.19-6.44-2.25-12.15-3.39-18.29,6.75-1.24,14.66,5.64,19.86-3.35-4.84-4.43-9.21-.28-14.76-.34-.98-5.07-2-10.36-3.02-15.66,5.35-2.78,10.71,4.37,15.48-1.44-1.24-2.15-2.49-4.34-3.78-6.58,9.37-3.41,22.85-3.92,31.64-1.1-2.23,2.43-4.3,4.69-6.65,7.27,3.45,3.17,6.7,1.64,9.74,1,2.82-.59,5.56-1.61,9.65-2.84-.75,4.33-1.23,7.49-1.86,10.61-.57,2.87-1.31,5.71-2.03,8.85-5.9-.56-11.2-4.43-16.7-.87,2.42,5.1,3.42,5.74,9.77,4.65,4.19-.72,8.27-2.07,12.77-3.23v18.02c-3.54,1.47-6.59,2.73-9.64,3.99l.34,2.13c2.27.18,4.54.36,7.48.59,1.63,6.79,3.73,13.97.62,22.68-2.89-3-5.19-5.39-8.65-8.98,0,3.27-.43,5.09.1,6.56.78,2.15,2.43,3.98,3.39,6.09,2.97,6.52,1.4,11.82-4.88,15.21-2.87,1.55-6.19,2.94-9.37,3.1-8.28.43-16.62.51-24.89-.04-3.46-.23-7.08-1.94-10.13-3.79-4.49-2.73-5.63-8.27-3.45-13.23,2.26-5.13,8.08-8.72,12.83-7.13,1.65.55,2.56,3.3,3.8,5.04,5.36,1.34,10.93,4,15.09-2.36q2.88-6.67-1.4-10.99c.61,4.32,1.09,7.78,1.58,11.23-5.5-1.31-10.57.24-15.55,2.35Z" style="fill:#fff;"/><path d="M456.59,382.79c-4.74-4.75-1.83-11.42-5.13-17.29,7.13-1.38,15.15,5.4,20.28-3.26q-5.37-2.54-13.53-.54c-3.83-4.94-1.79-11.25-4.72-16.46,6.03-1.11,10.61,4.17,16.06-.39-1.41-2.37-2.8-4.72-4.13-6.97,2.03-3.14,23.95-3.81,32.05-1.02-2.15,2.42-4.19,4.72-6.48,7.3,3.5,3.34,6.71,1.52,9.73.88,2.79-.59,5.52-1.5,9.35-2.58-1.22,6.89-2.24,12.63-3.29,18.6-5.8,1.18-11.15-4.27-16.54-.34-1.2,3.02.49,4.71,3.06,4.78,3.59.09,7.23-.48,10.81-1.07,2.52-.41,4.97-1.31,7.85-2.11v18.14c-3.48,1.38-6.59,2.61-9.7,3.85.09.73.18,1.46.27,2.2,2.56.18,5.11.36,8.84.62.34,6.91.69,13.99,1.16,23.62-4.24-4.09-6.63-6.4-10.12-9.77,0,3.13-.44,5,.1,6.52.77,2.15,2.44,3.96,3.4,6.07,2.97,6.53,1.52,12.01-5.12,14.98-13.69,6.13-27.85,5.53-41.81.78-4.27-1.45-7.2-4.91-7.03-9.91.18-5.11,2.87-8.78,7.27-11.15,4.12-2.23,7.13-1.6,10.57,1.89,5.03,5.09,7.29,5.24,15.69-.26-5.56.31-9.34.52-13.55.76-.21-3.88-.41-7.77-.62-11.68q-6.13.51-14.73,6.45c-2.27-4.26-1.11-8.28.05-12.28,1.01-3.5,2.53-7-.21-10.42,7.08.13,13.71,5.31,21.05,2.09.52-1.94.99-3.64,1.54-5.7h17.18c-13.44-1.23-26.98-3.08-39.6,3.68ZM484.79,406.43c2.97-2.87,3.43-5.41-.98-7.38.38,2.87.68,5.12.98,7.38Z" style="fill:#fff;"/><path d="M477.44,138.03c.36-4.43,3.6-8.87-.82-14.24-4.22,2.42-8.59,4.93-12.93,7.42q-1.69-5.67,2.75-20.96c5.92.71,11.95,1.43,18.48,2.21v-6.81h16.82c-13.03-1.71-26.14-3.51-39.13,4.19-1.19-6.31-2.24-11.85-3.41-18,6.95-1.39,14.69,5.17,19.64-3.29-4.52-5.84-9.32.13-14.79-.91-.97-4.98-2.01-10.34-3.26-16.82,3.66.85,6.09,1.61,8.58,1.94,2.11.28,4.28.06,7.8.06-1.84-3.81-3.04-6.29-4.61-9.53,10.67-1.51,20.9-3.16,32.45-.84-2.91,3.12-5.02,5.38-7.47,8.01,6.93,5,12.4-2.1,19.46-.78-1.2,5.95-2.39,11.9-3.64,18.12-5.96-.34-11.28-4.35-16.67-.81-.77,3.32,1.11,4.75,3.66,4.76,3.61.02,7.26-.44,10.83-1.03,2.56-.42,5.02-1.4,7.89-2.23v18.17c-3.36,2.22-8.83.19-9.43,6.33h8.04c.61,7.49,4.03,14.76-.34,22.59-2.51-2.75-4.65-5.12-6.99-7.69-3.31,2.72-1.45,4.97-.27,7.17,7.03,13.2,3.55,20.21-11.22,22.89-8.63,1.57-17.24,1.48-25.81-.15-2.89-.55-5.83-1.52-8.41-2.93-5.2-2.85-6.84-8.2-4.69-13.69,1.99-5.07,7.78-8.88,12.63-7.61,1.93.5,3.42,2.74,5.11,4.18,6.92,3.74,8.89,3.54,14.47-1.47q2.44-6.89-1.96-10.95c.84,4.37,1.49,7.79,2.14,11.21-4.97.5-9.94,1-14.91,1.5Z" style="fill:#fff;"/><path d="M685.32,376.47c-7.9,3.95-15.24,7.63-22.76,11.39-3.75-6.51-2.05-13.57-.76-20.22,2.05-10.54,3.4-20.85-1.4-30.91,1.17-.46,1.84-1,2.36-.89,14.82,3.32,29.77,1.93,44.71,1.51,6.48-.19,13.29-1.24,19.3,2.89-11.55,20.09-13.25,41.68-11.69,63.88.48,6.86.71,13.74,1.08,21.2-3.05.21-4.96.58-6.83.43-6.97-.54-12.88,2.21-18.96,5.14-8.55,4.12-15.07.13-14.29-9.31.5-6.06,3.12-12.14,5.72-17.79,2.91-6.31,6.87-12.14,10.37-18.18,4.2-7.25,7.54-14.82,8.46-23.25.72-6.55-1.58-9.14-8.22-9.48-7.94-.41-11.61,2.38-10.81,9.16.58,4.87,2.41,9.59,3.69,14.41Z" style="fill:#fff;"/><path d="M288.5,363.45c15.77-13.47,15.98-13.74,21.3-27.94,6.02.6,12.19,1.39,18.39,1.8,5.8.38,11.84-1.24,17.13,1.64.12,1.34.47,2.16.2,2.56-9.96,14.66-8.74,30.93-6.48,47.17,1.32,9.52,3.69,18.88,5.5,28.33.55,2.85.82,5.75,1.17,8.22-1.24.89-1.82,1.65-2.27,1.58-10.05-1.44-19.81-.22-29.41,2.92-1.57.51-3.24.8-4.88.99-6.76.76-10.34-2.16-9.69-9.03.39-4.11,2.23-8.22,4.07-12.02,3.46-7.16,7.61-13.99,11.04-21.16,3.21-6.73,3.96-14.04,3.22-21.43-.18-1.75-1.3-3.4-2.26-5.75-7.68,6.77-4.62,15.36-6.02,22.79-6.2-2.18-10.23-6.14-20.99-20.68Z" style="fill:#fff;"/><path d="M624.08,60.77c10.96,4.76,23.31,1.09,35.68,4.38-1.14,2.58-1.63,4.1-2.43,5.42-5.81,9.51-7.58,19.94-6.19,30.75,1.6,12.52,3.97,24.94,5.92,37.41.7,4.48,1.17,9,1.74,13.54-8.58.6-16.08.9-23.52,1.74-3.93.44-7.71,2.07-11.63,2.76-8.1,1.41-12.24-2.46-10.85-10.62.65-3.83,2.51-7.54,4.3-11.06,2.87-5.63,6.33-10.96,9.19-16.59,3.83-7.54,5.84-15.6,5.07-24.12-.19-2.13-1.26-4.17-2.21-7.18-7.68,6.99-5.17,15.41-6.32,23.76-1.77-.82-3.73-1.17-4.82-2.33-5.44-5.81-10.65-11.84-16.17-18.05,4.86-4.61,10.01-8.42,13.72-13.32,3.48-4.59,5.43-10.33,8.52-16.48Z" style="fill:#fff;"/><path d="M340.14,154.03c-12.73-3.31-23.55.09-34.53,2.52-8.98,1.98-13.58-2.88-10.78-11.83,1.86-5.93,5.02-11.56,8.27-16.93,5.08-8.4,8.53-17.28,9.75-27,.54-4.3.84-8.65-2.68-12.87-7.73,6.07-4.61,15.1-6.54,23.73-8.64-5.79-13.41-14.3-20.96-21.38,8.99-8.23,20-14.59,20.79-27.85,9.24-.63,31.71,1.61,36.57,3.54.08.61.46,1.41.21,1.8-8.31,12.75-9.48,26.76-7.11,41.27,1.77,10.82,4.07,21.54,5.93,32.34.65,3.76.67,7.62,1.08,12.65Z" style="fill:#fff;"/><path d="M373.82,361.38c-6.56,6.77-4.89,15.06-5.75,23.38-5.53-1.77-8-6.17-11.19-9.6-3.16-3.4-6.08-7.02-9.57-11.09,4.35-4.12,9.16-7.68,12.63-12.26,3.52-4.65,5.71-10.31,8.69-15.92,11.07-.5,30.44,1.64,35.79,4.08.04.31.23.72.09.92-11.47,17.35-8.71,36.17-5.53,54.96,1.11,6.54,2.88,12.97,4.11,19.49.66,3.48.8,7.06,1.28,11.59-10.52-.98-20.01-1.08-29.15,2.19-1.86.66-3.87.95-5.84,1.23-8.62,1.22-13.22-3.25-10.58-11.47,2.21-6.87,5.88-13.34,9.42-19.7,4.25-7.64,7.64-15.5,8.63-24.23.51-4.5,1.02-9.14-3.03-13.56Z" style="fill:#fff;"/><path d="M621.57,361.61c-6.22,7.07-4.04,15.54-5.79,24.32-8.23-6.61-13.56-14.52-20.5-22.57,10.65-6.77,18.62-15.34,20.58-29.03,12.35,3.63,24.76,1.56,37.45,4.76-1.03,2.37-1.5,3.86-2.28,5.17-5.28,8.88-7.73,18.54-6.45,28.72,1.7,13.51,4.19,26.92,6.28,40.38.65,4.17,1.09,8.38,1.7,13.12-2.22.22-3.5.67-4.64.42-7.75-1.71-15.23-.17-22.7,1.63-3.23.78-6.45,1.83-9.73,2.13-6.35.59-9.62-2.39-9.08-8.74.3-3.51,1.71-7.08,3.27-10.3,3.2-6.58,7.42-12.71,10.12-19.46,2.56-6.39,4.04-13.29,5.33-20.09.64-3.38.79-7.35-3.59-10.48Z" style="fill:#fff;"/><path d="M734.8,338.76c12.55-.96,23.76-1.84,34.98-2.64.55-.04,1.14.58,2.03,1.07-1.17,4.7-3.33,9.49-3.33,14.28,0,8.23,1.28,16.46,2.13,24.68.51,4.94,1.42,9.84,1.79,14.78.58,7.69-1.36,14.17-7.94,19.31-3.21,2.51-5.04,6.86-7.28,10.5-2.35,3.82-4.84,7.4-9.99,6.88-4.9-.5-7.56-3.96-9.21-8.13-3.1-7.86-3.94-16.11-3.21-24.47.57-6.61,1.58-13.19,2.24-19.8,1.2-11.87,3.01-23.79-2.21-36.45ZM755.27,379.9c-4.2,7.76-4.11,8.99,1.09,13.22,1.85-4.67,1.96-8.88-1.09-13.22ZM754.39,368.52c2.49-4.73,1.69-8.32.73-11.92-1.59,3.47-2.64,6.96-.73,11.92Z" style="fill:#fff;"/><path d="M417.54,338.48c10.92-.8,22.67-1.67,34.96-2.57-.21,1.87-.09,3.2-.53,4.31-4.5,11.3-3.82,22.68-.9,34.2,1.14,4.49,2.03,9.1,2.39,13.7.67,8.56-.6,16.31-8.3,22.15-3.22,2.44-5,6.87-7.25,10.51-2.35,3.8-4.8,7.4-9.99,6.82-4.9-.55-7.55-4.03-9.19-8.17-4.42-11.15-4.18-22.73-2.6-34.35.85-6.24,2.7-12.42,2.8-18.66.15-9.15-.85-18.31-1.39-27.95ZM435.7,394.49c3.52-5.82,2.69-9.87.09-15.85-2.79,5.96-3.15,10.02-.09,15.85ZM434.54,367.32c.71-.03,1.41-.07,2.12-.1v-12.39c-3.29,4.99-3.06,8.7-2.12,12.5Z" style="fill:#fff;"/><path d="M743.24,64.86c12.94-.83,24.43-1.57,36.11-2.32.16,1.44.63,2.51.32,3.26-4.79,11.62-3.95,23.32-1.05,35.21,1.17,4.8,1.77,9.8,2.09,14.74.54,8.24-.77,15.61-8.35,21.1-3.24,2.35-4.88,6.95-7.13,10.6-2.16,3.51-4.51,6.66-9.21,6.52-5.03-.15-8.08-3.32-9.55-7.53-1.63-4.64-3.24-9.63-3.16-14.44.16-10.91.83-21.88,2.28-32.69,1.52-11.28,2.26-22.34-2.36-34.46ZM763.56,106.09c-4.35,8.68-4.35,8.72,1.26,13.16,1.32-4.63,1.83-8.82-1.26-13.16ZM764.71,83.53q-2.89,5.17-.61,9.86c.2-3.29.41-6.57.61-9.86Z" style="fill:#fff;"/><path d="M527.81,99.65c6.49-2.68,12.52-5.06,18.47-7.65,4.33-1.88,7.73-.47,10.88,2.48,3.15,2.94,6.12,6.12,9.54,8.71,3.22,2.44,6.92,3.76,11.07.28-2.47-1.31-4.69-2.13-6.39-3.56-.7-.58-.59-2.55-.33-3.77.77-3.53,5.09-6.23,9.28-6.02,4.62.23,8.67,3.37,10.31,8.12,2.4,6.95.29,13.09-3.56,18.85-2.38,3.55-4.9,7.01-7.41,10.6-7.52,1.79-12.73-2.08-17.25-7.36-2.6-3.03-4.73-6.48-7.47-9.35-3.6-3.77-6.56-3.88-10.38-.25-2.36,2.25-4.12,5.17-5.93,7.93-1.4,2.14-2.46,4.5-4.35,8.05-4.57-9.76-3.9-19.27-6.49-27.05Z" style="fill:#fff;"/><path d="M527.71,398.39c-1.71-8.65-3.42-17.3-5.27-26.67,7.17.38,13.23-1.35,18.71-5.64,3.75-2.94,7.43-1,10.64,2.01,3.6,3.38,7.19,6.86,11.2,9.71,3.4,2.4,7.27,3.12,10.66-1.77-3.18-.92-7.5.77-7.74-4.08-.19-3.79,3.06-7.3,7.42-8.04,5.75-.97,11.6,3.51,12.73,10.01,1.07,6.14-.16,11.85-3.94,16.94-2.54,3.42-4.94,6.94-7.5,10.54-7.04,1.77-12.05-1.88-16.43-6.7-2.67-2.94-4.75-6.41-7.43-9.34-4.16-4.53-7.74-4.8-11.83-.32-2.84,3.12-4.67,7.15-6.99,10.75-.65,1.02-1.42,1.96-2.13,2.94-.7-.12-1.4-.23-2.09-.35Z" style="fill:#fff;"/><path d="M206.75,185.73c-8.91.89-15.77,2.22-22.61,2.1-12.13-.2-19.57-6.8-22.53-18.71-4.24-17.04,3.47-33.51,18.83-37.93,6.17-1.77,13.26-1.87,19.67-.95,13.62,1.95,13.55,2.43,24.22.07,4.3,3.37,4.8,8.4,5.26,13.34,1.2,12.69.67,25.22-3.47,37.46-2.12,6.29-3.88,12.72-5.56,19.15-2.91,11.19-2.25,22.37,1.13,34.06-2.4,0-4.29.24-6.1-.04-10.04-1.55-19.86-.26-29.71,1.74-8.56,1.74-12.25-2.01-9.65-10.4,1.42-4.59,4.4-8.91,7.44-12.74,4.13-5.19,9.13-9.68,13.49-14.69,3.2-3.68,5.97-7.74,9.57-12.45ZM192.22,155.7c7.81-3.35,12.96,2.79,19.34,5.21-2.76-14.81-9.92-20.04-23.08-17.76-11.16,1.93-17.08,13.74-11.85,23.64,2.76,5.24,11.39,7.59,16.61,4.54,4.07-2.38,3.98-6.34-.22-12.7-.33-.5-.35-1.22-.8-2.94Z" style="fill:#d6261a;"/><path d="M127.13,156.01c-8.79,8.02-6.59,17.17-7.99,26.2-5.06-2.07-7.25-6.69-10.35-10.21-3.07-3.49-5.85-7.23-9.46-11.73,10.13-7.81,19.4-16.38,21.15-30.88,6.37.77,12.5,1.69,18.66,2.2,5.87.49,11.77.54,17.29.77.46,1.65.98,2.45.76,2.83-9.77,16.91-9.1,35.09-6.34,53.42,1.54,10.19,3.78,20.27,5.56,30.43.61,3.48.79,7.03,1.31,11.83-12.94-2.9-24.05.4-35.31,3.17-8.95,2.2-13.69-2.57-11.3-11.53,1.43-5.38,4.52-10.3,6.78-15.47,3.72-8.51,8.05-16.83,10.81-25.65,1.73-5.54,1.3-11.82,1.34-17.77.01-2.05-1.5-4.11-2.9-7.61Z" style="fill:#d6261a;"/><path d="M61.66,48.08c8.14.87,15.27,1.63,23.4,2.5-1.32,2.65-2.58,4.48-3.16,6.5-.98,3.46-2.1,7.03-2.13,10.57-.04,4.66,1.77,6.01,6.77,6.53,1.22.13,2.46.02,4.48.02,0,5.79.1,11.06-.05,16.33-.06,1.92-.74,3.83-1.09,5.51-.96.37-1.59.87-2.08.76-10.17-2.25-11.54-.89-8.84,8.83.35,1.27.67,2.56.96,3.85.07.31-.04.66-.16,2.15-9.7-2.42-19.12,3.08-28.5,1.36-2.6-4.53.36-7.02,1.43-10.03.81-2.28,1.7-5.55.67-7.24-1.76-2.9-5.25-2.08-8.14-.85-2.14.91-4.15,2.19-6.34,2.87-3.01.93-6.15,1.45-9.64,2.23-3.28-9.13.79-17.46-1.14-25.46,15.23-14.99,15.38-31.47,5.21-48.96,10.17-2.43,34.67-2.64,44.52-.24-3,2.18-5.65,3.98-8.17,5.95-10.56,8.26-16.68,18.79-16.41,32.51.04,1.98-.14,4.23.72,5.87.96,1.83,2.79,3.99,4.61,4.41,3.01.7,5.25-1.72,5.35-4.57.18-5.25-.27-10.53-.64-15.79-.11-1.5-.83-2.97-1.62-5.63Z" style="fill:#d6261a;"/><path d="M113.7,76.02h19.41c-13.08,17.58-26.55,34-38.1,51.68-11.6,17.75-21.28,36.76-32.03,55.6h-20.59c-.15-5.01,2.94-7.84,5.35-10.83,9.62-11.92,19.52-23.61,29.1-35.57,7.08-8.83,14.06-17.76,20.65-26.96,7.35-10.26,14.44-20.76,16.22-33.93Z" style="fill:#d6261a;"/><path d="M179.48,414.37c8.55-.46,15.83-.58,23.05-1.31,6.88-.7,13.69-2.03,20.98-3.15,9.65,26.2,18.17,51.93,12.21,79.89-.96,4.49-2.31,9.14-4.61,13.05-2.28,3.89-5.49,7.64-9.16,10.23-10.44,7.38-32.57,6.27-42.54-1.61-5.51-4.35-8.76-10.24-9.12-17.08-.37-6.9.06-13.91.89-20.78.67-5.57,2.49-10.99,3.71-16.5,1.57-7.13,3.61-14.22,4.41-21.44.75-6.85.16-13.84.16-21.29ZM214.21,464.48c-1.41-9.48-2.55-18-4.02-26.46-.38-2.19-1.52-4.41-2.85-6.22-1.78-2.43-5.27-1.68-6.25,1.2-.41,1.22-.38,2.59-.56,3.89-1.37,10.13-2.78,20.26-4.09,30.4-.42,3.26-.86,6.57-.76,9.85.12,3.99,2.2,7,6.24,7.97,4.35,1.05,7.29-1.54,8.51-5.13,1.78-5.24,2.67-10.79,3.77-15.5Z" style="fill:#d7251a;"/><path d="M131.42,441.9c.74,2.99,1.88,5.4,1.83,7.78-.16,6.98-6.29,13.85-13.4,15.63-7.98,1.99-15.05-.65-19.21-7.15-10.98-17.19-1.65-41.13,18.08-46.49,8.9-2.42,17.73-2.58,26.57.22,8.97,2.84,15.08,8.76,17.16,17.86,2.99,13.09,1.07,25.2-9.46,34.77-3.2,2.91-6.68,5.54-9.73,8.6-2.33,2.33-4.51,4.94-6.16,7.77-2.16,3.71-1.04,6.49,3.16,7.61,2.79.74,5.97.9,8.8.39,4.87-.87,9.61-2.47,15.06-3.94-.28,3.64-.85,7.14-.74,10.62.12,3.63,1.07,7.23,1.34,10.87.42,5.73-3.01,10.24-9.3,10.87-5.56.55-11.25-.21-16.88-.49-.96-.05-1.9-.58-2.85-.9-11.91-4.04-23.88-6.18-36.47.05-3.16-10.06-2.28-18.76,3.51-26.11,4.25-5.4,9.86-9.78,15.16-14.26,5.07-4.28,10.85-7.76,15.75-12.21,5.66-5.12,8.52-11.89,8.27-19.64-.16-5.12-2.94-8.63-7.57-10.83-4.37-2.07-8.46-1.54-12.24,1.18-1.28.92-2.4,2.37-3.05,3.82-1.59,3.55.97,6.9,4.82,6.3,2.2-.34,4.31-1.29,7.55-2.31Z" style="fill:#d7251a;"/><path d="M161.47,309.8c16.57,2.97,30.95.07,45.42-1.53,10.07-1.11,14.93-.55,22.24,2.26-6.28,9.98-4.12,20.02-.21,30.21,2.98,7.75,5.33,15.72,5,24.24-.6,15.37-11.8,24.41-26.81,21.35-3.9-.79-7.72-1.95-11.57-3-6.51-1.77-12.91-2.05-19.67-.65-15.54,3.22-24.24-5.65-21.23-21.44.93-4.85,2.61-9.65,4.58-14.19,5.03-11.61,7.69-23.32,2.24-37.25ZM193.33,345.34c-1.13.27-4.46.65-7.43,1.89-4.08,1.7-6.02,5.52-5.42,9.58.59,3.98,2.78,6.81,6.84,7.48,3.2.53,6.58,1.05,9.73.58,7.8-1.17,11.75-5.52,11.15-11.39-.56-5.42-4.68-8.06-14.87-8.14ZM194.4,336.55c3.31-.76,7.04-1.04,10.25-2.48,5.03-2.25,5.09-8.13.48-10.96-4.73-2.9-17.82-2.21-21.93,1.17-4.07,3.34-3.68,8.19,1.22,10.22,2.95,1.22,6.36,1.35,9.98,2.05Z" style="fill:#d7251a;"/><path d="M63.48,329.62c8.23.92,15.37,1.72,23.44,2.62-1.24,2.51-2.19,4.4-3.1,6.3-.57,1.2-1.19,2.4-1.58,3.66-2.85,9.2.13,13.44,10.25,14,.08,7.42,1.88,14.92-1.07,22.26-12.3-2.39-13.36-1.18-9.99,10.51.27.94.32,1.93.5,3.05-7.85,1.07-15.56,2.27-23.31,3.13-6.24.69-8.08-1.95-5.62-7.6.4-.91,1-1.72,1.49-2.59,1.48-2.63,3.57-5.9.37-7.91-2.04-1.29-5.61-.78-8.31-.21-2.52.53-4.75,2.33-7.2,3.34-7.05,2.93-10.09.85-9.75-6.67.28-5.96.69-11.91,1.07-18.29,15.07-14.41,14.32-31,3.89-49.43,15.56.94,29.92-2.63,45.73.69-3.89,2.85-6.82,4.82-9.55,7.04-10.43,8.47-16.2,19.2-15.59,32.9.09,1.97.14,4.17,1.04,5.81.83,1.53,2.9,3.56,4.17,3.4,1.88-.24,4.89-2.08,5.05-3.49.58-5.2.31-10.51.06-15.77-.09-1.82-1.04-3.59-2.01-6.74Z" style="fill:#d7251a;"/><path d="M115.55,357.64c7.22-.35,13.48-.65,21.51-1.03-6.13,7.42-11.56,13.75-16.73,20.3-5.36,6.79-10.62,13.66-15.62,20.7-5.01,7.04-9.88,14.2-14.38,21.57-4.51,7.37-8.6,14.99-12.66,22.62-4.05,7.6-7.83,15.34-11.85,23.24h-21.07c-1.42-4.51,1.84-7.05,3.99-9.75,7.86-9.89,16.15-19.45,23.96-29.38,10.08-12.8,20.06-25.68,29.69-38.81,6.3-8.59,11.55-17.85,13.16-29.46Z" style="fill:#d7251a;"/><path d="M712.94,74.23l-.18,8.99-.02.03c.06-2.98.12-5.96.18-8.94l.02-.08Z"/><path d="M460.24,116.56c-.36-4.61-.84-9.27-1.87-13.77-2.94-12.88-4.07-25.61,1.19-38.21.18-.44-.35-1.18-.75-2.38-11.57.85-23.28,1.71-35.83,2.63,4.84,14.53,3.19,28.32,1.09,42.14-.75,4.93-1.37,9.89-1.8,14.86-.73,8.41.31,16.63,3.66,24.42,1.78,4.15,4.61,7.37,9.59,7.62,4.74.23,7.02-3.03,9.19-6.53,2.27-3.65,3.98-8.12,7.19-10.59,6.94-5.33,8.96-12.12,8.34-20.18ZM443.38,81.09v13.31q-2.74-4.78,0-13.31ZM443.65,119.65c-4.53-5.3-4.57-6.37-.7-13.61,3,4.46,3.55,8.73.7,13.61Z" style="fill:#fff;"/><path d="M192.22,155.7c.45,1.72.47,2.43.8,2.94,4.2,6.36,4.29,10.32.22,12.7-5.23,3.05-13.85.69-16.61-4.54-5.22-9.9.69-21.7,11.85-23.64,13.16-2.28,20.32,2.94,23.08,17.76-6.38-2.43-11.53-8.56-19.34-5.21Z" style="fill:#fff;"/><path d="M214.21,464.48c-1.1,4.71-1.99,10.26-3.77,15.5-1.22,3.59-4.16,6.17-8.51,5.13-4.04-.97-6.12-3.98-6.24-7.97-.1-3.27.34-6.58.76-9.85,1.31-10.14,2.72-20.27,4.09-30.4.18-1.3.14-2.67.56-3.89.98-2.88,4.46-3.63,6.25-1.2,1.33,1.81,2.47,4.04,2.85,6.22,1.47,8.46,2.61,16.98,4.02,26.46Z" style="fill:#fff;"/><path d="M193.33,345.34c10.19.08,14.31,2.71,14.87,8.14.6,5.87-3.36,10.22-11.15,11.39-3.15.47-6.53-.04-9.73-.58-4.06-.67-6.25-3.5-6.84-7.48-.6-4.06,1.33-7.88,5.42-9.58,2.97-1.23,6.3-1.62,7.43-1.89Z" style="fill:#fff;"/><path d="M194.4,336.55c-3.62-.7-7.03-.82-9.98-2.05-4.9-2.03-5.29-6.88-1.22-10.22,4.11-3.38,17.2-4.08,21.93-1.17,4.61,2.83,4.55,8.71-.48,10.96-3.21,1.44-6.94,1.72-10.25,2.48Z" style="fill:#fff;"/><path d="M158.2,65.84c-.96-8.37-1.93-16.9-3-26.29,3.71,1.8,6.79,3.54,10.06,4.81,2.75,1.07,5.71,2.2,8.59,2.26,6.16.12,8.96-4.91,5.67-10.16-1.89-3.01-4.69-5.45-7.86-9.03,14.03-.1,27.25-3.52,41.93-.33-3.37,2.85-6.39,4.52-8.09,7.07-1.67,2.52-3.37,6.34-2.61,8.84,1.25,4.05,5.6,4.21,9.36,2.98,5.33-1.75,10.57-3.8,17.39-6.28-.48,8.82-.92,16.72-1.36,24.83-6.71-1.22-12.46-2.86-18.27-3.13-5.31-.25-8.27,3.21-8.42,7.89-.19,5.82,2.76,8.93,9.8,9.79.19-1.54.35-3.09.56-4.63.18-1.25.42-2.49.61-3.65,5.54-3.08,10.06-1.31,14.18,1.87,5.9,4.55,7.78,13.28,5.17,21.94-2.28,7.57-7.34,12-15.14,12.25-5.59.18-11.27-.54-16.8-1.48-4.56-.78-8.94-2.61-13.45-3.75-12.11-3.06-17.38-2.32-32.35,4.51-.6-10.71-1.18-21.09-1.75-31.2,5.73,1.5,11.35,3.44,17.14,4.34,5.08.79,9.05-1.67,10.94-6.74,1.98-5.31-.47-9.89-6.09-9.74-5.16.13-10.27,1.86-16.22,3.05Z" style="fill:#32afaa;"/><path d="M305.02,222.28c-1.73,0-3.17-.57-4.31-1.72-2.61-2.61-4.62-5.58-6.03-8.91-1.41-3.33-2.11-6.8-2.11-10.41s.73-6.95,2.18-10.3c1.45-3.34,3.44-6.34,5.96-8.98,1.11-1.17,2.55-1.76,4.31-1.76h1.19c.47,0,.8.23.99.68.19.46.12.86-.2,1.21-5.08,5.87-7.61,12.25-7.61,19.14,0,7.3,2.52,13.71,7.57,19.23.32.32.4.7.22,1.14-.18.44-.5.66-.97.66h-1.19Z" style="fill:#f1e749;"/><path d="M316.86,221.22c-.67,0-1.26-.25-1.76-.75-.5-.5-.75-1.09-.75-1.76v-34.5c0-.67.25-1.25.75-1.74.5-.48,1.08-.73,1.76-.73h13.51c.67,0,1.25.24,1.74.73s.73,1.06.73,1.74v12.98c0,.68-.24,1.26-.73,1.76-.48.5-1.06.75-1.74.75h-8.93c-.26,0-.4.13-.4.4v18.61c0,.67-.25,1.26-.75,1.76-.5.5-1.08.75-1.76.75h-1.67ZM321.04,187.25v1.19c0,.26.13.4.4.4h5.72c.26,0,.4-.13.4-.4v-1.19c0-.26-.13-.4-.4-.4h-5.72c-.26,0-.4.13-.4.4ZM321.04,193.59v1.19c0,.26.13.4.4.4h5.72c.26,0,.4-.13.4-.4v-1.19c0-.23-.13-.35-.4-.35h-5.72c-.26,0-.4.12-.4.35ZM338.24,220.08c-.67,0-1.26-.24-1.76-.73-.5-.48-.75-1.06-.75-1.74v-4.58c0-.23-.13-.35-.4-.35h-2.95c-.24,0-.38.12-.44.35-.56,2.23-1.66,4.24-3.3,6.03-.5.53-1.12.83-1.85.9-.73.07-1.41-.1-2.02-.51l-.57-.35c-.53-.32-.81-.8-.86-1.43-.04-.63.15-1.17.59-1.61.97-.97,1.7-1.99,2.2-3.08.03-.09.01-.16-.04-.22-.06-.06-.13-.09-.22-.09h-.97c-.56,0-1.04-.21-1.45-.62-.41-.41-.62-.91-.62-1.5s.2-1.08.59-1.47c.4-.4.89-.59,1.47-.59h1.63c.26,0,.4-.13.4-.4v-1.8c0-.23-.13-.35-.4-.35h-1.06c-.59,0-1.09-.21-1.5-.64-.41-.42-.62-.93-.62-1.52s.21-1.08.62-1.5.91-.62,1.5-.62h17.03c.59,0,1.08.21,1.5.62.41.41.62.91.62,1.5s-.21,1.09-.62,1.52c-.41.43-.91.64-1.5.64h-.7c-.24,0-.35.12-.35.35v1.8c0,.26.12.4.35.4h1.28c.56,0,1.04.2,1.45.59s.62.89.62,1.47-.21,1.09-.62,1.5c-.41.41-.89.62-1.45.62h-1.28c-.24,0-.35.12-.35.35v3.12c0,.06.03.1.09.11.06.02.1,0,.13-.07.5-.62,1.13-.89,1.89-.84.5.03,1.01.04,1.54.04.97,0,1.54-.07,1.72-.22.18-.15.26-.66.26-1.54v-13.55c0-.26-.13-.4-.4-.4h-9.37c-.67,0-1.25-.25-1.74-.75-.48-.5-.73-1.08-.73-1.76v-12.98c0-.67.24-1.25.73-1.74.48-.48,1.06-.73,1.74-.73h13.95c.67,0,1.26.24,1.76.73s.75,1.06.75,1.74v28.95c0,1.35-.02,2.41-.07,3.17-.04.76-.17,1.48-.37,2.16-.21.67-.45,1.16-.73,1.45-.28.29-.74.54-1.39.75-.65.21-1.32.33-2.02.37s-1.69.07-2.95.07c-.85,0-1.63-.02-2.33-.04-.62-.03-1.17-.24-1.65-.64s-.8-.9-.95-1.52c-.03-.06-.07-.1-.11-.11-.04-.02-.08,0-.11.07-.5.79-1.22,1.19-2.16,1.19h-.7ZM335.34,208.51c.26,0,.4-.13.4-.4v-1.8c0-.23-.13-.35-.4-.35h-2.51c-.23,0-.35.12-.35.35v1.85c0,.24.12.35.35.35h2.51ZM340.13,187.25v1.19c0,.26.13.4.4.4h6.16c.26,0,.4-.13.4-.4v-1.19c0-.26-.13-.4-.4-.4h-6.16c-.26,0-.4.13-.4.4ZM346.69,195.17c.26,0,.4-.13.4-.4v-1.19c0-.23-.13-.35-.4-.35h-6.16c-.26,0-.4.12-.4.35v1.19c0,.26.13.4.4.4h6.16Z" style="fill:#f1e749;"/><path d="M359.01,199.05c-.67,0-1.26-.25-1.76-.75-.5-.5-.75-1.08-.75-1.76v-.66c0-.67.25-1.25.75-1.74.5-.48,1.08-.73,1.76-.73h.57c.26,0,.4-.13.4-.4v-8.67c0-.67.24-1.26.73-1.76.48-.5,1.06-.75,1.74-.75h1.72c.67,0,1.25.25,1.74.75.48.5.73,1.09.73,1.76v8.67c0,.26.13.4.4.4h1.36c.94,0,1.66.4,2.16,1.19.03.03.07.04.11.04s.07-.03.07-.09v-10.12c0-.67.24-1.26.73-1.76.48-.5,1.06-.75,1.74-.75h19.67c.67,0,1.26.25,1.76.75.5.5.75,1.09.75,1.76v10.74c0,.68-.25,1.25-.75,1.74-.5.48-1.08.73-1.76.73h-19.67c-.91,0-1.61-.4-2.11-1.19-.03-.03-.07-.04-.11-.02-.04.02-.07.05-.07.11,0,.67-.25,1.26-.75,1.76-.5.5-1.08.75-1.76.75h-1.36c-.26,0-.4.12-.4.35v8.98l.04.04v.09c.03.06.07.09.13.09s.12-.04.2-.11c.07-.07.11-.14.11-.2.15-.53.44-.91.88-1.14,1.55-.88,3.12-1.99,4.71-3.34.06-.06.07-.11.04-.15-.03-.04-.07-.07-.13-.07h-1.32c-.65,0-1.19-.23-1.63-.68-.44-.45-.66-1-.66-1.65s.22-1.19.66-1.63c.44-.44.98-.66,1.63-.66h23.8c.64,0,1.19.22,1.63.66.44.44.66.98.66,1.63s-.22,1.2-.66,1.65c-.44.46-.98.68-1.63.68h-15.36c-.24,0-.44.09-.62.26-.09.09-.21.23-.37.42-.16.19-.29.33-.37.42-.15.15-.1.22.13.22h15.44c.67,0,1.25.25,1.74.75.48.5.73,1.09.73,1.76v1.67c0,3.58-.18,6.23-.55,7.96-.37,1.73-.95,2.89-1.74,3.48-.79.59-2.02.88-3.7.88-.38,0-1.36-.03-2.95-.09-.7-.06-1.31-.34-1.83-.84-.51-.5-.79-1.1-.81-1.8l-.09-1.54c0-.06-.04-.11-.11-.15s-.12-.04-.15.02c-.97,1-2.27,2.16-3.92,3.48-.59.44-1.24.63-1.96.57-.72-.06-1.34-.34-1.87-.84l-.09-.09c-.47-.44-.67-.98-.59-1.63.07-.65.36-1.16.86-1.54,2.96-2.17,5.44-4.62,7.44-7.35.15-.21.1-.31-.13-.31h-1.54c-.23,0-.44.09-.62.26-1.32,1.58-2.93,3.16-4.84,4.73-1.91,1.57-3.84,2.93-5.81,4.07-.65.35-1.33.46-2.05.33-.72-.13-1.33-.48-1.83-1.03-.41-.47-.56-1-.44-1.61.12-.6.46-1.05,1.01-1.34,2.73-1.47,5.21-3.18,7.44-5.15.06-.03.07-.08.04-.15-.03-.07-.07-.11-.13-.11h-2.02c-.26,0-.5.06-.7.18-.62.44-1.17.81-1.67,1.1l-.09.09c-.23.15-.4.32-.48.53-.29.97-.9,1.66-1.8,2.07-3.23,1.41-6.29,2.54-9.2,3.39-.65.21-1.24.12-1.78-.24-.54-.37-.86-.89-.95-1.56l-.13-1.06c-.09-.7.07-1.34.48-1.91.41-.57.95-.93,1.63-1.08.06,0,.19-.02.4-.07s.37-.08.48-.11c.23-.06.35-.21.35-.44v-10.78c0-.23-.13-.35-.4-.35h-.57ZM377.31,187.56v.92c0,.24.13.35.4.35h10.25c.23,0,.35-.12.35-.35v-.92c0-.26-.12-.4-.35-.4h-10.25c-.26,0-.4.13-.4.4ZM377.31,192.53v.97c0,.24.13.35.4.35h10.25c.23,0,.35-.12.35-.35v-.97c0-.26-.12-.4-.35-.4h-10.25c-.26,0-.4.13-.4.4ZM385.8,215.55c-.15.21-.1.31.13.31,1,.09,1.83.13,2.51.13.5,0,.85-.12,1.06-.35.21-.23.36-.75.46-1.54.1-.79.15-2.08.15-3.87v-.09c0-.06-.03-.09-.09-.11-.06-.01-.1,0-.13.07-.94,1.58-2.3,3.4-4.09,5.46Z" style="fill:#f1e749;"/><path d="M409.83,197.86c-.41.32-.84.37-1.3.13-.46-.23-.68-.62-.68-1.14v-3.21c0-1.67.67-2.99,2.02-3.96l4.44-3.26c1.32-.97,2.83-1.45,4.53-1.45h2.77c.67,0,1.26.25,1.76.75.5.5.75,1.09.75,1.76v27.1c0,.67-.25,1.26-.75,1.76-.5.5-1.08.75-1.76.75h-2.77c-.67,0-1.26-.25-1.76-.75-.5-.5-.75-1.08-.75-1.76v-21.38h-.09l-6.42,4.66Z" style="fill:#f1e749;"/><path d="M437.33,197.86c-.41.32-.84.37-1.3.13-.46-.23-.68-.62-.68-1.14v-3.21c0-1.67.67-2.99,2.02-3.96l4.44-3.26c1.32-.97,2.83-1.45,4.53-1.45h2.77c.67,0,1.26.25,1.76.75.5.5.75,1.09.75,1.76v27.1c0,.67-.25,1.26-.75,1.76-.5.5-1.08.75-1.76.75h-2.77c-.67,0-1.26-.25-1.76-.75-.5-.5-.75-1.08-.75-1.76v-21.38h-.09l-6.42,4.66Z" style="fill:#f1e749;"/><path d="M468.39,220.03c-.67,0-1.26-.25-1.76-.75-.5-.5-.75-1.09-.75-1.76v-32.43c0-.67.25-1.25.75-1.74.5-.48,1.08-.73,1.76-.73h9.77c.67,0,1.26.24,1.76.73.5.48.75,1.06.75,1.74v9.28s.07.03.13,0c.44-.94,1.19-1.41,2.24-1.41h6.29c.26,0,.4-.12.4-.35v-2.46c0-.26-.13-.4-.4-.4h-4.8c-.67,0-1.26-.25-1.76-.75-.5-.5-.75-1.08-.75-1.76v-.4c0-.67.25-1.25.75-1.74.5-.48,1.08-.73,1.76-.73h4.8c.26,0,.4-.13.4-.4v-1.23c0-.67.24-1.26.73-1.76.48-.5,1.06-.75,1.74-.75h1.89c.67,0,1.25.25,1.74.75.48.5.73,1.09.73,1.76v1.23c0,.26.13.4.4.4h5.06c.67,0,1.26.24,1.76.73.5.48.75,1.06.75,1.74v.4c0,.68-.25,1.26-.75,1.76-.5.5-1.08.75-1.76.75h-5.06c-.26,0-.4.13-.4.4v2.46c0,.23.13.35.4.35h6.47c.67,0,1.26.25,1.76.75.5.5.75,1.09.75,1.76v.57c0,.68-.25,1.26-.75,1.76-.5.5-1.08.75-1.76.75h-.88c-.24,0-.35.13-.35.4v2.07c0,.24.12.35.35.35h.88c.67,0,1.26.25,1.76.75.5.5.75,1.09.75,1.76v.57c0,.68-.25,1.26-.75,1.76-.5.5-1.08.75-1.76.75h-.88c-.24,0-.35.13-.35.4v5.81c0,1.38-.02,2.45-.07,3.21-.04.76-.18,1.49-.4,2.18-.22.69-.48,1.18-.77,1.47-.29.29-.78.54-1.45.75-.67.21-1.39.33-2.13.37s-1.8.07-3.15.07c-.26,0-1.22-.03-2.86-.09-.7-.06-1.31-.33-1.83-.81-.51-.48-.79-1.08-.81-1.78l-.04-.62c-.06-.68.15-1.25.62-1.72.47-.47,1.04-.67,1.72-.62,1.17.06,1.82.09,1.94.09,1.17,0,1.86-.08,2.07-.24.21-.16.31-.71.31-1.65v-6.42c0-.26-.13-.4-.4-.4h-11.88c-1.06,0-1.8-.47-2.24-1.41-.06-.03-.1-.03-.13,0v9.64c0,.68-.25,1.25-.75,1.74-.5.48-1.09.73-1.76.73h-5.81c-.21,0-.31.1-.31.31,0,.59-.21,1.08-.62,1.47-.41.4-.89.59-1.45.59h-1.58ZM472.04,188.88v7.83c0,.26.12.4.35.4h2.07c.23,0,.35-.13.35-.4v-7.83c0-.23-.12-.35-.35-.35h-2.07c-.23,0-.35.12-.35.35ZM472.04,203.18v8.4c0,.24.12.35.35.35h2.07c.23,0,.35-.12.35-.35v-8.4c0-.23-.12-.35-.35-.35h-2.07c-.23,0-.35.12-.35.35ZM483.04,198.56c-1.06,0-1.8-.47-2.24-1.41-.03-.03-.06-.04-.09-.04s-.04.03-.04.09v5.59s.07.03.13,0c.44-.94,1.19-1.41,2.24-1.41h11.88c.26,0,.4-.12.4-.35v-2.07c0-.26-.13-.4-.4-.4h-11.88ZM489.91,211.28c.47.53.67,1.13.59,1.8-.07.67-.37,1.23-.9,1.67l-.84.7c-.53.44-1.14.63-1.83.57-.69-.06-1.27-.34-1.74-.84-.91-1.06-1.86-2.1-2.86-3.12-.47-.5-.67-1.08-.62-1.74.06-.66.34-1.21.84-1.65l.84-.7c.53-.47,1.15-.69,1.87-.66.72.03,1.31.29,1.78.79.67.73,1.63,1.79,2.86,3.17Z" style="fill:#f1e749;"/><path d="M518.73,190.99c-.67,0-1.26-.25-1.76-.75-.5-.5-.75-1.08-.75-1.76v-1.01c0-.67.25-1.26.75-1.76.5-.5,1.08-.75,1.76-.75h16.41c.67,0,1.26.25,1.76.75.5.5.75,1.09.75,1.76v1.01c0,1.67-.65,3.04-1.94,4.09l-6.64,5.5v.04s.01.04.04.04h.53c2.55,0,4.6.79,6.14,2.38s2.31,3.73,2.31,6.42c0,3.4-1.04,6.01-3.12,7.83-2.08,1.82-5.08,2.73-8.98,2.73-2.35,0-4.72-.28-7.13-.84-.7-.18-1.28-.56-1.74-1.17-.46-.6-.68-1.28-.68-2.05v-1.5c0-.59.24-1.05.73-1.39.48-.34,1.02-.42,1.61-.24,2.52.82,4.72,1.23,6.6,1.23,1.7,0,3.02-.4,3.96-1.19.94-.79,1.41-1.89,1.41-3.3s-.54-2.45-1.63-3.04c-1.09-.59-3.11-.89-6.07-.92-.67,0-1.26-.24-1.76-.73-.5-.48-.75-1.06-.75-1.74v-.09c0-1.64.63-3.01,1.89-4.09l6.25-5.41v-.04s-.01-.04-.04-.04h-9.9Z" style="fill:#f1e749;"/><path d="M564.33,213.65c-2.1,2.58-5.3,3.87-9.61,3.87s-7.52-1.29-9.61-3.87c-2.1-2.58-3.15-6.79-3.15-12.63s1.05-10.05,3.15-12.63c2.1-2.58,5.3-3.87,9.61-3.87s7.52,1.29,9.61,3.87c2.1,2.58,3.15,6.79,3.15,12.63s-1.05,10.05-3.15,12.63ZM558.61,192.62c-.84-1.61-2.13-2.42-3.89-2.42s-3.06.81-3.89,2.42c-.84,1.61-1.25,4.42-1.25,8.4s.42,6.79,1.25,8.4,2.13,2.42,3.89,2.42,3.06-.81,3.89-2.42,1.25-4.41,1.25-8.4-.42-6.79-1.25-8.4Z" style="fill:#f1e749;"/><path d="M576.41,200.76l-1.41-1.41c-.47-.5-.7-1.08-.7-1.76s.25-1.26.75-1.76c3.49-3.55,6.47-7.58,8.93-12.1.32-.62.82-1.06,1.5-1.32.67-.26,1.35-.29,2.02-.09l1.67.53c.64.23,1.1.65,1.36,1.25.26.6.25,1.2-.04,1.78-1.41,2.88-3.07,5.63-4.97,8.27-.15.21-.1.31.13.31h18.22c.23,0,.28-.1.13-.31-1.91-2.64-3.56-5.4-4.97-8.27-.29-.59-.31-1.19-.04-1.8.26-.62.72-1.03,1.36-1.23l1.67-.53c.67-.21,1.35-.18,2.02.09.67.26,1.17.7,1.5,1.32,2.46,4.52,5.44,8.55,8.93,12.1.5.5.75,1.09.75,1.76s-.24,1.26-.7,1.76l-1.41,1.41c-.5.5-1.09.74-1.78.73-.69-.01-1.28-.27-1.78-.77-.06-.06-.15-.15-.29-.26s-.23-.22-.29-.31c-.03-.06-.08-.07-.15-.04-.07.03-.11.07-.11.13v1.45c0,3.11-.04,5.67-.11,7.68-.07,2.01-.24,3.78-.51,5.3-.26,1.53-.57,2.68-.92,3.48-.35.79-.89,1.43-1.61,1.91-.72.48-1.47.78-2.24.9-.78.12-1.83.18-3.15.18-.88,0-2.55-.09-5.02-.26-.7-.03-1.3-.3-1.78-.81-.48-.51-.74-1.12-.77-1.83l-.04-1.1c-.03-.65.2-1.21.68-1.69.48-.48,1.06-.7,1.74-.64,1.67.12,3.05.18,4.14.18.64,0,1.14-.21,1.5-.64.35-.42.62-1.37.81-2.84.19-1.47.29-3.64.29-6.51v-4.22c0-.26-.12-.4-.35-.4h-8.23c-.29,0-.44.12-.44.35-.44,4.96-1.48,8.95-3.12,11.99s-4.15,5.68-7.52,7.94c-.59.38-1.23.51-1.94.4-.7-.12-1.29-.46-1.76-1.01l-1.19-1.5c-.41-.5-.55-1.06-.42-1.69.13-.63.48-1.12,1.03-1.47,2.49-1.58,4.37-3.5,5.63-5.74,1.26-2.24,2.08-5.2,2.46-8.87,0-.26-.12-.4-.35-.4h-4.8c-.26,0-.48.09-.66.26l-.13.13c-.5.5-1.08.75-1.76.75s-1.26-.25-1.76-.75Z" style="fill:#f1e749;"/><path d="M629.69,201.25c0-6.89-2.54-13.27-7.61-19.14-.32-.35-.39-.75-.2-1.21.19-.45.52-.68.99-.68h1.19c1.76,0,3.2.59,4.31,1.76,2.52,2.64,4.51,5.63,5.96,8.98,1.45,3.34,2.18,6.78,2.18,10.3s-.7,7.08-2.11,10.41c-1.41,3.33-3.42,6.3-6.03,8.91-1.14,1.14-2.58,1.72-4.31,1.72h-1.19c-.47,0-.79-.22-.97-.66-.18-.44-.1-.82.22-1.14,5.04-5.51,7.57-11.92,7.57-19.23Z" style="fill:#f1e749;"/><path d="M305.02,495.28c-1.73,0-3.17-.57-4.31-1.72-2.61-2.61-4.62-5.58-6.03-8.91-1.41-3.33-2.11-6.8-2.11-10.41s.73-6.95,2.18-10.3c1.45-3.34,3.44-6.34,5.96-8.98,1.11-1.17,2.55-1.76,4.31-1.76h1.19c.47,0,.8.23.99.68.19.46.12.86-.2,1.21-5.08,5.87-7.61,12.25-7.61,19.14,0,7.3,2.52,13.71,7.57,19.23.32.32.4.7.22,1.14-.18.44-.5.66-.97.66h-1.19Z" style="fill:#f1e749;"/><path d="M316.86,494.22c-.67,0-1.26-.25-1.76-.75-.5-.5-.75-1.09-.75-1.76v-34.5c0-.67.25-1.25.75-1.74.5-.48,1.08-.73,1.76-.73h13.51c.67,0,1.25.24,1.74.73s.73,1.06.73,1.74v12.98c0,.67-.24,1.26-.73,1.76-.48.5-1.06.75-1.74.75h-8.93c-.26,0-.4.13-.4.4v18.61c0,.67-.25,1.26-.75,1.76-.5.5-1.08.75-1.76.75h-1.67ZM321.04,460.25v1.19c0,.26.13.4.4.4h5.72c.26,0,.4-.13.4-.4v-1.19c0-.26-.13-.4-.4-.4h-5.72c-.26,0-.4.13-.4.4ZM321.04,466.59v1.19c0,.26.13.4.4.4h5.72c.26,0,.4-.13.4-.4v-1.19c0-.23-.13-.35-.4-.35h-5.72c-.26,0-.4.12-.4.35ZM338.24,493.08c-.67,0-1.26-.24-1.76-.73-.5-.48-.75-1.06-.75-1.74v-4.58c0-.23-.13-.35-.4-.35h-2.95c-.24,0-.38.12-.44.35-.56,2.23-1.66,4.24-3.3,6.03-.5.53-1.12.83-1.85.9-.73.07-1.41-.1-2.02-.51l-.57-.35c-.53-.32-.81-.8-.86-1.43-.04-.63.15-1.17.59-1.61.97-.97,1.7-1.99,2.2-3.08.03-.09.01-.16-.04-.22-.06-.06-.13-.09-.22-.09h-.97c-.56,0-1.04-.21-1.45-.62-.41-.41-.62-.91-.62-1.5s.2-1.08.59-1.47c.4-.4.89-.59,1.47-.59h1.63c.26,0,.4-.13.4-.4v-1.8c0-.23-.13-.35-.4-.35h-1.06c-.59,0-1.09-.21-1.5-.64-.41-.42-.62-.93-.62-1.52s.21-1.09.62-1.5c.41-.41.91-.62,1.5-.62h17.03c.59,0,1.08.21,1.5.62.41.41.62.91.62,1.5s-.21,1.09-.62,1.52c-.41.43-.91.64-1.5.64h-.7c-.24,0-.35.12-.35.35v1.8c0,.26.12.4.35.4h1.28c.56,0,1.04.2,1.45.59s.62.89.62,1.47-.21,1.09-.62,1.5c-.41.41-.89.62-1.45.62h-1.28c-.24,0-.35.12-.35.35v3.12c0,.06.03.1.09.11.06.01.1,0,.13-.07.5-.62,1.13-.89,1.89-.84.5.03,1.01.04,1.54.04.97,0,1.54-.07,1.72-.22.18-.15.26-.66.26-1.54v-13.55c0-.26-.13-.4-.4-.4h-9.37c-.67,0-1.25-.25-1.74-.75-.48-.5-.73-1.09-.73-1.76v-12.98c0-.67.24-1.25.73-1.74.48-.48,1.06-.73,1.74-.73h13.95c.67,0,1.26.24,1.76.73s.75,1.06.75,1.74v28.95c0,1.35-.02,2.41-.07,3.17-.04.76-.17,1.48-.37,2.16-.21.67-.45,1.16-.73,1.45-.28.29-.74.54-1.39.75-.65.21-1.32.33-2.02.37s-1.69.07-2.95.07c-.85,0-1.63-.02-2.33-.04-.62-.03-1.17-.24-1.65-.64-.48-.4-.8-.9-.95-1.52-.03-.06-.07-.1-.11-.11-.04-.02-.08,0-.11.07-.5.79-1.22,1.19-2.16,1.19h-.7ZM335.34,481.5c.26,0,.4-.13.4-.4v-1.8c0-.23-.13-.35-.4-.35h-2.51c-.23,0-.35.12-.35.35v1.85c0,.24.12.35.35.35h2.51ZM340.13,460.25v1.19c0,.26.13.4.4.4h6.16c.26,0,.4-.13.4-.4v-1.19c0-.26-.13-.4-.4-.4h-6.16c-.26,0-.4.13-.4.4ZM346.69,468.17c.26,0,.4-.13.4-.4v-1.19c0-.23-.13-.35-.4-.35h-6.16c-.26,0-.4.12-.4.35v1.19c0,.26.13.4.4.4h6.16Z" style="fill:#f1e749;"/><path d="M359.01,472.05c-.67,0-1.26-.25-1.76-.75s-.75-1.09-.75-1.76v-.66c0-.67.25-1.25.75-1.74.5-.48,1.08-.73,1.76-.73h.57c.26,0,.4-.13.4-.4v-8.67c0-.67.24-1.26.73-1.76.48-.5,1.06-.75,1.74-.75h1.72c.67,0,1.25.25,1.74.75.48.5.73,1.09.73,1.76v8.67c0,.26.13.4.4.4h1.36c.94,0,1.66.4,2.16,1.19.03.03.07.04.11.04s.07-.03.07-.09v-10.12c0-.67.24-1.26.73-1.76.48-.5,1.06-.75,1.74-.75h19.67c.67,0,1.26.25,1.76.75.5.5.75,1.09.75,1.76v10.74c0,.68-.25,1.25-.75,1.74s-1.08.73-1.76.73h-19.67c-.91,0-1.61-.4-2.11-1.19-.03-.03-.07-.04-.11-.02-.04.02-.07.05-.07.11,0,.67-.25,1.26-.75,1.76-.5.5-1.08.75-1.76.75h-1.36c-.26,0-.4.12-.4.35v8.98l.04.04v.09c.03.06.07.09.13.09s.12-.04.2-.11.11-.14.11-.2c.15-.53.44-.91.88-1.14,1.55-.88,3.12-1.99,4.71-3.34.06-.06.07-.11.04-.15-.03-.04-.07-.07-.13-.07h-1.32c-.65,0-1.19-.23-1.63-.68-.44-.46-.66-1-.66-1.65s.22-1.19.66-1.63c.44-.44.98-.66,1.63-.66h23.8c.64,0,1.19.22,1.63.66.44.44.66.98.66,1.63s-.22,1.2-.66,1.65c-.44.46-.98.68-1.63.68h-15.36c-.24,0-.44.09-.62.26-.09.09-.21.23-.37.42-.16.19-.29.33-.37.42-.15.15-.1.22.13.22h15.44c.67,0,1.25.25,1.74.75.48.5.73,1.09.73,1.76v1.67c0,3.58-.18,6.23-.55,7.96-.37,1.73-.95,2.89-1.74,3.48s-2.02.88-3.7.88c-.38,0-1.36-.03-2.95-.09-.7-.06-1.31-.34-1.83-.84-.51-.5-.79-1.1-.81-1.8l-.09-1.54c0-.06-.04-.11-.11-.15s-.12-.04-.15.02c-.97,1-2.27,2.16-3.92,3.48-.59.44-1.24.63-1.96.57-.72-.06-1.34-.34-1.87-.84l-.09-.09c-.47-.44-.67-.98-.59-1.63.07-.65.36-1.16.86-1.54,2.96-2.17,5.44-4.62,7.44-7.35.15-.21.1-.31-.13-.31h-1.54c-.23,0-.44.09-.62.26-1.32,1.58-2.93,3.16-4.84,4.73-1.91,1.57-3.84,2.93-5.81,4.07-.65.35-1.33.46-2.05.33-.72-.13-1.33-.48-1.83-1.03-.41-.47-.56-1-.44-1.61s.46-1.05,1.01-1.34c2.73-1.47,5.21-3.18,7.44-5.15.06-.03.07-.08.04-.15-.03-.07-.07-.11-.13-.11h-2.02c-.26,0-.5.06-.7.18-.62.44-1.17.81-1.67,1.1l-.09.09c-.23.15-.4.32-.48.53-.29.97-.9,1.66-1.8,2.07-3.23,1.41-6.29,2.54-9.2,3.39-.65.21-1.24.12-1.78-.24-.54-.37-.86-.89-.95-1.56l-.13-1.05c-.09-.71.07-1.34.48-1.91.41-.57.95-.93,1.63-1.08.06,0,.19-.02.4-.07s.37-.08.48-.11c.23-.06.35-.21.35-.44v-10.78c0-.23-.13-.35-.4-.35h-.57ZM377.31,460.56v.92c0,.24.13.35.4.35h10.25c.23,0,.35-.12.35-.35v-.92c0-.26-.12-.4-.35-.4h-10.25c-.26,0-.4.13-.4.4ZM377.31,465.53v.97c0,.24.13.35.4.35h10.25c.23,0,.35-.12.35-.35v-.97c0-.26-.12-.4-.35-.4h-10.25c-.26,0-.4.13-.4.4ZM385.8,488.55c-.15.21-.1.31.13.31,1,.09,1.83.13,2.51.13.5,0,.85-.12,1.06-.35.21-.23.36-.75.46-1.54.1-.79.15-2.08.15-3.87v-.09c0-.06-.03-.1-.09-.11-.06-.01-.1,0-.13.07-.94,1.58-2.3,3.4-4.09,5.46Z" style="fill:#f1e749;"/><path d="M409.83,470.86c-.41.32-.84.37-1.3.13-.46-.23-.68-.62-.68-1.14v-3.21c0-1.67.67-2.99,2.02-3.96l4.44-3.26c1.32-.97,2.83-1.45,4.53-1.45h2.77c.67,0,1.26.25,1.76.75.5.5.75,1.08.75,1.76v27.1c0,.68-.25,1.26-.75,1.76-.5.5-1.08.75-1.76.75h-2.77c-.67,0-1.26-.25-1.76-.75-.5-.5-.75-1.08-.75-1.76v-21.38h-.09l-6.42,4.66Z" style="fill:#f1e749;"/><path d="M454.99,486.65c-2.1,2.58-5.3,3.87-9.61,3.87s-7.52-1.29-9.61-3.87c-2.1-2.58-3.15-6.79-3.15-12.63s1.05-10.05,3.15-12.63c2.1-2.58,5.3-3.87,9.61-3.87s7.52,1.29,9.61,3.87c2.1,2.58,3.15,6.79,3.15,12.63s-1.05,10.05-3.15,12.63ZM449.27,465.62c-.84-1.61-2.13-2.42-3.89-2.42s-3.06.81-3.89,2.42-1.25,4.41-1.25,8.4.42,6.79,1.25,8.4,2.13,2.42,3.89,2.42,3.06-.81,3.89-2.42,1.25-4.42,1.25-8.4-.42-6.79-1.25-8.4Z" style="fill:#f1e749;"/><path d="M474.55,493.03c-.67,0-1.26-.25-1.76-.75-.5-.5-.75-1.09-.75-1.76v-32.43c0-.67.25-1.25.75-1.74.5-.48,1.08-.73,1.76-.73h9.77c.67,0,1.26.24,1.76.73.5.48.75,1.06.75,1.74v9.28s.07.03.13,0c.44-.94,1.19-1.41,2.24-1.41h6.29c.26,0,.4-.12.4-.35v-2.46c0-.26-.13-.4-.4-.4h-4.8c-.67,0-1.26-.25-1.76-.75-.5-.5-.75-1.08-.75-1.76v-.4c0-.67.25-1.25.75-1.74.5-.48,1.08-.73,1.76-.73h4.8c.26,0,.4-.13.4-.4v-1.23c0-.67.24-1.26.73-1.76.48-.5,1.06-.75,1.74-.75h1.89c.67,0,1.25.25,1.74.75.48.5.73,1.09.73,1.76v1.23c0,.26.13.4.4.4h5.06c.67,0,1.26.24,1.76.73.5.48.75,1.06.75,1.74v.4c0,.68-.25,1.26-.75,1.76s-1.08.75-1.76.75h-5.06c-.26,0-.4.13-.4.4v2.46c0,.23.13.35.4.35h6.47c.67,0,1.26.25,1.76.75.5.5.75,1.09.75,1.76v.57c0,.67-.25,1.26-.75,1.76-.5.5-1.08.75-1.76.75h-.88c-.24,0-.35.13-.35.4v2.07c0,.24.12.35.35.35h.88c.67,0,1.26.25,1.76.75.5.5.75,1.08.75,1.76v.57c0,.67-.25,1.26-.75,1.76-.5.5-1.08.75-1.76.75h-.88c-.24,0-.35.13-.35.4v5.81c0,1.38-.02,2.45-.07,3.21-.04.76-.18,1.49-.4,2.18-.22.69-.48,1.18-.77,1.47-.29.29-.78.54-1.45.75-.67.21-1.39.33-2.13.37s-1.8.07-3.15.07c-.26,0-1.22-.03-2.86-.09-.7-.06-1.31-.33-1.83-.81-.51-.48-.79-1.08-.81-1.78l-.04-.62c-.06-.67.15-1.25.62-1.71.47-.47,1.04-.67,1.72-.62,1.17.06,1.82.09,1.94.09,1.17,0,1.86-.08,2.07-.24s.31-.71.31-1.65v-6.42c0-.26-.13-.4-.4-.4h-11.88c-1.06,0-1.8-.47-2.24-1.41-.06-.03-.1-.03-.13,0v9.64c0,.67-.25,1.25-.75,1.74-.5.48-1.09.73-1.76.73h-5.81c-.21,0-.31.1-.31.31,0,.59-.21,1.08-.62,1.47-.41.4-.89.59-1.45.59h-1.58ZM478.2,461.88v7.83c0,.26.12.4.35.4h2.07c.23,0,.35-.13.35-.4v-7.83c0-.23-.12-.35-.35-.35h-2.07c-.23,0-.35.12-.35.35ZM478.2,476.18v8.4c0,.24.12.35.35.35h2.07c.23,0,.35-.12.35-.35v-8.4c0-.24-.12-.35-.35-.35h-2.07c-.23,0-.35.12-.35.35ZM489.2,471.56c-1.06,0-1.8-.47-2.24-1.41-.03-.03-.06-.04-.09-.04s-.04.03-.04.09v5.59s.07.03.13,0c.44-.94,1.19-1.41,2.24-1.41h11.88c.26,0,.4-.12.4-.35v-2.07c0-.26-.13-.4-.4-.4h-11.88ZM496.07,484.28c.47.53.67,1.13.59,1.8-.07.68-.37,1.23-.9,1.67l-.84.71c-.53.44-1.14.63-1.83.57-.69-.06-1.27-.34-1.74-.84-.91-1.06-1.86-2.1-2.86-3.12-.47-.5-.67-1.08-.62-1.74s.34-1.21.84-1.65l.84-.7c.53-.47,1.15-.69,1.87-.66s1.31.29,1.78.79c.67.73,1.63,1.79,2.86,3.17Z" style="fill:#f1e749;"/><path d="M524.89,463.99c-.67,0-1.26-.25-1.76-.75-.5-.5-.75-1.08-.75-1.76v-1.01c0-.67.25-1.26.75-1.76.5-.5,1.08-.75,1.76-.75h16.41c.67,0,1.26.25,1.76.75.5.5.75,1.08.75,1.76v1.01c0,1.67-.65,3.04-1.94,4.09l-6.64,5.5v.04s.01.04.04.04h.53c2.55,0,4.6.79,6.14,2.38s2.31,3.72,2.31,6.42c0,3.4-1.04,6.01-3.12,7.83-2.08,1.82-5.08,2.73-8.98,2.73-2.35,0-4.72-.28-7.13-.84-.7-.18-1.28-.56-1.74-1.17-.46-.6-.68-1.28-.68-2.05v-1.5c0-.59.24-1.05.73-1.39.48-.34,1.02-.42,1.61-.24,2.52.82,4.72,1.23,6.6,1.23,1.7,0,3.02-.4,3.96-1.19.94-.79,1.41-1.89,1.41-3.3s-.54-2.45-1.63-3.04c-1.09-.59-3.11-.89-6.07-.92-.67,0-1.26-.24-1.76-.73-.5-.48-.75-1.06-.75-1.74v-.09c0-1.64.63-3.01,1.89-4.09l6.25-5.41v-.04s-.01-.04-.04-.04h-9.9Z" style="fill:#f1e749;"/><path d="M570.49,486.65c-2.1,2.58-5.3,3.87-9.61,3.87s-7.52-1.29-9.61-3.87c-2.1-2.58-3.15-6.79-3.15-12.63s1.05-10.05,3.15-12.63c2.1-2.58,5.3-3.87,9.61-3.87s7.52,1.29,9.61,3.87c2.1,2.58,3.15,6.79,3.15,12.63s-1.05,10.05-3.15,12.63ZM564.77,465.62c-.84-1.61-2.13-2.42-3.89-2.42s-3.06.81-3.89,2.42-1.25,4.41-1.25,8.4.42,6.79,1.25,8.4,2.13,2.42,3.89,2.42,3.06-.81,3.89-2.42,1.25-4.42,1.25-8.4-.42-6.79-1.25-8.4Z" style="fill:#f1e749;"/><path d="M582.57,473.76l-1.41-1.41c-.47-.5-.7-1.08-.7-1.76s.25-1.26.75-1.76c3.49-3.55,6.47-7.58,8.93-12.1.32-.62.82-1.06,1.5-1.32s1.35-.29,2.02-.09l1.67.53c.64.24,1.1.65,1.36,1.25.26.6.25,1.2-.04,1.78-1.41,2.88-3.07,5.63-4.97,8.27-.15.21-.1.31.13.31h18.22c.23,0,.28-.1.13-.31-1.91-2.64-3.56-5.4-4.97-8.27-.29-.59-.31-1.19-.04-1.8.26-.62.72-1.03,1.36-1.23l1.67-.53c.67-.21,1.35-.18,2.02.09.67.26,1.17.71,1.5,1.32,2.46,4.52,5.44,8.55,8.93,12.1.5.5.75,1.09.75,1.76s-.24,1.26-.7,1.76l-1.41,1.41c-.5.5-1.09.74-1.78.73-.69-.01-1.28-.27-1.78-.77-.06-.06-.15-.15-.29-.26s-.23-.22-.29-.31c-.03-.06-.08-.07-.15-.04-.07.03-.11.07-.11.13v1.45c0,3.11-.04,5.67-.11,7.68-.07,2.01-.24,3.78-.51,5.3-.26,1.53-.57,2.68-.92,3.48-.35.79-.89,1.43-1.61,1.91s-1.47.78-2.24.9c-.78.12-1.83.18-3.15.18-.88,0-2.55-.09-5.02-.26-.7-.03-1.3-.3-1.78-.81-.48-.51-.74-1.12-.77-1.83l-.04-1.1c-.03-.65.2-1.21.68-1.69.48-.48,1.06-.7,1.74-.64,1.67.12,3.05.18,4.14.18.64,0,1.14-.21,1.5-.64.35-.42.62-1.37.81-2.84.19-1.47.29-3.64.29-6.51v-4.22c0-.26-.12-.4-.35-.4h-8.23c-.29,0-.44.12-.44.35-.44,4.96-1.48,8.95-3.12,11.99-1.64,3.04-4.15,5.68-7.52,7.94-.59.38-1.23.51-1.94.4-.7-.12-1.29-.46-1.76-1.01l-1.19-1.5c-.41-.5-.55-1.06-.42-1.7.13-.63.48-1.12,1.03-1.47,2.49-1.58,4.37-3.5,5.63-5.74,1.26-2.24,2.08-5.2,2.46-8.87,0-.26-.12-.4-.35-.4h-4.8c-.26,0-.48.09-.66.26l-.13.13c-.5.5-1.08.75-1.76.75s-1.26-.25-1.76-.75Z" style="fill:#f1e749;"/><path d="M635.85,474.24c0-6.89-2.54-13.27-7.61-19.14-.32-.35-.39-.75-.2-1.21s.52-.68.99-.68h1.19c1.76,0,3.2.59,4.31,1.76,2.52,2.64,4.51,5.63,5.96,8.98,1.45,3.34,2.18,6.78,2.18,10.3s-.7,7.08-2.11,10.41c-1.41,3.33-3.42,6.3-6.03,8.91-1.14,1.14-2.58,1.72-4.31,1.72h-1.19c-.47,0-.79-.22-.97-.66-.18-.44-.1-.82.22-1.14,5.04-5.51,7.57-11.92,7.57-19.23Z" style="fill:#f1e749;"/></g></svg>