<?xml version="1.0" encoding="UTF-8"?><svg id="_レイヤー_2" xmlns="http://www.w3.org/2000/svg" viewBox="0 0 99.87 15.2"><g id="_デザイン"><path d="M3.89,14.14c0-.49.99-1.29.99-1.94,0-.41-.37-.54-.94-.54-1.11,0-2.04.99-2.98.99-.59,0-.96-.34-.96-.95s.59-2.23.03-3.38c1.04-.35,2.24-1.81,2.24-4.09,0-1.44-.39-2.6-1.7-3.9,1.2.32,3.8-.06,6.09-.06,1.04,0,2.02.08,2.76.34-3.82,1.64-4.78,4.22-4.78,6.14,0,1.19.34,1.78.94,1.78.64,0,.99-.49.99-1.58,0-.99-.08-1.88-.81-2.66.86,0,4.33.23,4.85.54-.94.52-1.33,1.5-1.33,2.4,0,.69.29,1.29.88,1.29.49,0,.91-.26,1.26-.6-.42,1.06.17,2.74-.35,4.61-.25-.29-.79-.66-1.52-.66-.39,0-.64.23-.64.73,0,.37.5,1.47.76,1.94-2.66-.46-3.3.28-5.03.28-.47,0-.76-.34-.76-.67Z" style="fill:#fff33f;"/><path d="M19.71,12.3c0-1.42,1.09-2.49,2.25-2.49.5,0,.72.21.72.43,0,.17-.09.28-.09.44,0,.28.24.43.57.43.5,0,.86-.34.86-.89,0-.73-.76-1.64-2.48-1.64-2.04,0-2.88,1.64-3.34,4.18-.18,1.01-.63,1.56-1.61,1.56-1.41,0-2.71-1.45-2.71-3.99,0-1.85.78-3.44,1.88-3.44.34,0,.58.15.58.44,0,.24-.12.4-.12.66,0,.2.18.54.57.54.57,0,1.07-.75,1.07-2.11,0-2.79-2.33-4.93-3.28-5.82.75.2,1.97.34,3.12.34,2.4,0,5.13-.66,7.51-.66,1.25,0,2.42.18,3.4.73-1.91.73-3.14,2.72-3.14,4.19,0,3.29,3.04,4.39,3.04,6.73,0,1.7-1.67,2.97-4.85,2.97-2.49,0-3.96-.95-3.96-2.6ZM22.73,3.44c0-.49-.37-.67-1.32-.67s-1.5.34-1.5.77c0,.4.44.78,1.3.78,1.09,0,1.52-.37,1.52-.87ZM22.28,6.14c0-.44-.34-.6-.92-.6-.81,0-1.06.31-1.06.64,0,.41.43.78.98.78.67,0,.99-.47.99-.83Z" style="fill:#e72410;"/><path d="M33.36,9.66c1.79-1.35,4.35-2.17,4.35-4.9,0-.9-.8-1.61-1.85-1.61-.72,0-1.48.5-1.48,1.06,0,.4.26.67.6.67.41,0,.47-.37.93-.37.38,0,.67.29.67.9.02,1.27-1.32,2.43-2.69,2.43-1.94,0-2.77-1.56-2.77-3.47,0-2.37,1.55-4.27,5.25-4.27,3.17,0,4.59,1.78,4.59,3.92,0,2.88-1.53,3.49-3,4.76-.57.49-1.04,1.13-1.04,1.47,0,.51.5.67,1.16.67,1.32,0,2.48-.43,3.23-.95-.84,2.23-.18,2.63-.18,3.55,0,.8-.81,1.42-2.16,1.42-2.19,0-3.06-.86-4.9-.86-.96,0-1.99.35-2.68.52-.52-1.93.12-3.57,1.97-4.96Z" style="fill:#fff33f;"/><path d="M42.48,10.51c0-2.33,2.45-7.67,1.22-10.09,2.08.67,4.09-.12,6.79-.31.54,2.02,1.97,4.74,1.97,8.28,0,4.24-1.53,6.53-4.97,6.53-3.76,0-5.02-1.78-5.02-4.42ZM48.86,7.79c-.03-2.43-.46-4.88-1.16-4.88-.41,0-.55.14-.6.41-.06.32.03.7.02,1.15,0,1.59-.78,3.7-.78,4.45,0,.89.28,1.48,1.22,1.48.73,0,1.32-1.12,1.3-2.62Z" style="fill:#fff33f;"/><path d="M60.06,13.9c-1.18,0-1.79.38-2.91.38-1.42,0-2.53-1.41-2.53-3.05,0-2.63,1.96-4.93,1.96-7.54,0-.7-.23-2.07-.86-2.92.8.18,1.88.35,3.12.35,2.07,0,4.84-.6,7.13-.6.93,0,1.79.11,2.49.38-.7.73-1.01,1.84-1.01,2.75,0,1.59,1.68,4.35,1.68,7.06,0,2.17-1.59,4.15-3.69,4.15-2.2,0-3.09-.96-5.4-.96ZM64.47,4.35c0-.73-.34-1.3-2.3-1.3-1.85,0-2.72.47-2.72,1.47,0,.69.89,1.1,2.17,1.1,2.1,0,2.85-.47,2.85-1.27ZM64.4,8.95c0-.98-.58-1.61-2.23-1.61-1.91,0-2.71.64-2.71,1.82s.75,1.67,2.28,1.67c1.61,0,2.66-.69,2.66-1.88Z" style="fill:#e72410;"/><path d="M72.42,9.12c0-2.91,1.45-4.76,1.45-6.78,0-.84-.35-1.73-1.09-2.34,1.87.28,4.76.11,5.68.02-2.31,1.27-3.75,4.3-3.75,7.09,0,2.1.43,3.44,1.71,4.96.52.6,1.64,1.29,1.64,2.08,0,.67-.55,1.06-1.47,1.06-2.3,0-4.18-2.57-4.18-6.08Z" style="fill:#fff33f;"/><path d="M84.29,13.9c-1.18,0-1.79.38-2.91.38-1.42,0-2.53-1.41-2.53-3.05,0-2.63,1.96-4.93,1.96-7.54,0-.7-.23-2.07-.86-2.92.8.18,1.88.35,3.12.35,2.07,0,4.84-.6,7.13-.6.93,0,1.79.11,2.49.38-.7.73-1.01,1.84-1.01,2.75,0,1.59,1.68,4.35,1.68,7.06,0,2.17-1.59,4.15-3.69,4.15-2.2,0-3.09-.96-5.4-.96ZM88.7,4.35c0-.73-.34-1.3-2.3-1.3-1.85,0-2.72.47-2.72,1.47,0,.69.89,1.1,2.17,1.1,2.1,0,2.85-.47,2.85-1.27ZM88.64,8.95c0-.98-.58-1.61-2.23-1.61-1.91,0-2.71.64-2.71,1.82s.75,1.67,2.28,1.67c1.61,0,2.66-.69,2.66-1.88Z" style="fill:#fff;"/><path d="M94.22,14.13c0-.8.78-1.45,1.3-2.08,1.19-1.42,2.05-2.95,2.05-5.05,0-2.79-1.18-5.72-3.75-6.83.7,0,2.05-.11,3.46-.11.75,0,1.51.03,2.22.12-.69.5-1.03,1.38-1.03,2.22,0,2.02,1.39,3.69,1.39,6.6,0,3.5-1.88,6.18-4.18,6.18-.92,0-1.47-.38-1.47-1.06Z" style="fill:#fff33f;"/></g></svg>