<?xml version="1.0" encoding="UTF-8"?><svg id="_レイヤー_2" xmlns="http://www.w3.org/2000/svg" viewBox="0 0 97.24 15.2"><g id="_デザイン"><path d="M3.89,14.14c0-.49.99-1.29.99-1.94,0-.41-.37-.54-.94-.54-1.11,0-2.04.99-2.98.99-.59,0-.96-.34-.96-.95s.59-2.23.03-3.38c1.04-.35,2.24-1.81,2.24-4.09,0-1.44-.39-2.6-1.7-3.9,1.2.32,3.8-.06,6.09-.06,1.04,0,2.02.08,2.76.34-3.82,1.64-4.78,4.22-4.78,6.14,0,1.19.34,1.78.94,1.78.64,0,.99-.49.99-1.58,0-.99-.08-1.88-.81-2.66.86,0,4.33.23,4.85.54-.94.52-1.33,1.5-1.33,2.4,0,.69.29,1.29.88,1.29.49,0,.91-.26,1.26-.6-.42,1.06.17,2.74-.35,4.61-.25-.29-.79-.66-1.52-.66-.39,0-.64.23-.64.73,0,.37.5,1.47.76,1.94-2.66-.46-3.3.28-5.03.28-.47,0-.76-.34-.76-.67Z" style="fill:#fff33f;"/><path d="M19.71,12.3c0-1.42,1.09-2.49,2.25-2.49.5,0,.72.21.72.43,0,.17-.09.28-.09.44,0,.28.24.43.57.43.5,0,.86-.34.86-.89,0-.73-.76-1.64-2.48-1.64-2.04,0-2.88,1.64-3.34,4.18-.18,1.01-.63,1.56-1.61,1.56-1.41,0-2.71-1.45-2.71-3.99,0-1.85.78-3.44,1.88-3.44.34,0,.58.15.58.44,0,.24-.12.4-.12.66,0,.2.18.54.57.54.57,0,1.07-.75,1.07-2.11,0-2.79-2.33-4.93-3.28-5.82.75.2,1.97.34,3.12.34,2.4,0,5.13-.66,7.51-.66,1.25,0,2.42.18,3.4.73-1.91.73-3.14,2.72-3.14,4.19,0,3.29,3.04,4.39,3.04,6.73,0,1.7-1.67,2.97-4.85,2.97-2.49,0-3.96-.95-3.96-2.6ZM22.73,3.44c0-.49-.37-.67-1.32-.67s-1.5.34-1.5.77c0,.4.44.78,1.3.78,1.09,0,1.52-.37,1.52-.87ZM22.28,6.14c0-.44-.34-.6-.92-.6-.81,0-1.06.31-1.06.64,0,.41.43.78.98.78.67,0,.99-.47.99-.83Z" style="fill:#e72410;"/><path d="M32.5,13.36c0-1.74,2.88-4.06,2.88-7.65,0-.8-.06-1.64-.6-1.64-.61,0-1.07,2.19-.76,3.86-1.07-.72-2.5-2.86-3.31-3.44.92-.46,3.24-2.1,3.18-4.39,2.8.84,4.13.11,5.74.75-.81,1.03-1.45,2.54-1.45,4.19,0,4.97,1.53,7.87,1.19,9.18-3.18-.64-4.33.51-5.83.51-.72,0-1.04-.47-1.04-1.36Z" style="fill:#fff33f;"/><path d="M56.2,13.9c-1.18,0-1.79.38-2.91.38-1.42,0-2.53-1.41-2.53-3.05,0-2.63,1.96-4.93,1.96-7.54,0-.7-.23-2.07-.86-2.92.79.18,1.88.35,3.12.35,2.07,0,4.84-.6,7.13-.6.93,0,1.79.11,2.49.38-.7.73-1.01,1.84-1.01,2.75,0,1.59,1.68,4.35,1.68,7.06,0,2.17-1.59,4.15-3.69,4.15-2.2,0-3.09-.96-5.4-.96ZM60.61,4.35c0-.73-.34-1.3-2.3-1.3-1.85,0-2.72.47-2.72,1.47,0,.69.89,1.1,2.17,1.1,2.1,0,2.85-.47,2.85-1.27ZM60.55,8.95c0-.98-.58-1.61-2.23-1.61-1.91,0-2.71.64-2.71,1.82s.75,1.67,2.28,1.67c1.61,0,2.66-.69,2.66-1.88Z" style="fill:#e72410;"/><path d="M68.57,9.12c0-2.91,1.45-4.76,1.45-6.78,0-.84-.35-1.73-1.09-2.34,1.87.28,4.76.11,5.68.02-2.31,1.27-3.75,4.3-3.75,7.09,0,2.1.43,3.44,1.71,4.96.52.6,1.64,1.29,1.64,2.08,0,.67-.55,1.06-1.47,1.06-2.3,0-4.18-2.57-4.18-6.08Z" style="fill:#fff33f;"/><path d="M75.8,8.62c1.01.69,2.22,1.29,3.49,1.29s1.99-.92,1.99-1.96c0-.78-.6-1.19-1.29-1.19-1.18,0-2.25.44-3.05,1.13.12-1.12.03-4.02-.64-5.48.7.47,2.48,1.59,3.66,1.59.69,0,1.3-.44,1.3-.98,0-.9-.78-1.87-2.17-2.56,1.21.06,3.76-.24,5.79-.24,1.07,0,1.99.08,2.45.37-1.33.44-2.34,1.39-2.34,2.45,0,.55.41.9,1.21.9,1.5,0,2.89-1.13,3.89-1.29-.25,1.33-.46,3.86-.28,4.9-.54-.43-1.96-.98-3.29-.98-1.04,0-1.64.58-1.64,1.41,0,1.06.63,2.04,1.33,2.04.44,0,.73-.23.73-.61,0-.32-.23-.47-.23-.78,0-.38.4-.6,1.09-.6,1.21,0,2.75.98,2.75,3.2s-1.15,3.63-3.46,3.63c-3.05,0-4.3-1.35-7.32-1.35-1.27,0-2.66.61-3.23,1.48-.74-1.84.21-3.57-.75-6.37Z" style="fill:#fff;"/><path d="M91.59,14.13c0-.8.78-1.45,1.3-2.08,1.19-1.42,2.05-2.95,2.05-5.05,0-2.79-1.18-5.72-3.75-6.83.7,0,2.05-.11,3.46-.11.75,0,1.51.03,2.22.12-.69.5-1.03,1.38-1.03,2.22,0,2.02,1.39,3.69,1.39,6.6,0,3.5-1.88,6.18-4.18,6.18-.92,0-1.47-.38-1.47-1.06Z" style="fill:#fff33f;"/><path d="M41.91,14.12c0-2.8,4.76-4.39,5.1-8.68.17-2.15-1.03-3.3-2.28-3.37-1.32-.08-2.76.25-2.76,2.37,0,1,.53,1.72,1.63,1.72,1.32,0,1.39-.8,1.2-1.43-.12-.4-.64-.42-.64-.68,0-.29.27-.46.73-.41.94.11,2.28.72,2.28,2.06,0,2.1-1.89,2.68-3.66,2.68-2.03,0-3.6-1.28-3.6-3.89,0-2.47,1.61-4.36,4.43-4.36,1.53,0,1.68.56,2.9.56.68,0,.8-.45,1.38-.45s.99,1.27.99,3.66c0,3.09-1.63,5.38-1.63,8.16,0,.87.16,1.79.58,2.8-3.79-.63-4.89.2-5.71.2-.62,0-.93-.48-.93-.94Z" style="fill:#fff33f;"/></g></svg>