<svg xmlns="http://www.w3.org/2000/svg" width="180" height="25" viewBox="0 0 180 25" fill="none">
  <path d="M87.1337 19.4133C87.0891 19.275 86.9508 19.1902 86.817 19.2304C86.817 19.2304 86.817 19.2304 86.8081 19.2304C86.5315 19.333 85.6216 19.837 84.7964 19.837C83.2263 19.837 82.9943 18.5658 82.9943 17.0269V10.8267H87.2452C87.3612 10.8267 87.4415 10.7241 87.4415 10.5947L87.4593 7.57939C87.4593 7.45004 87.3612 7.34744 87.2452 7.34744H82.8873V2.31593C82.8873 2.23564 82.8204 2.16873 82.7401 2.16873L78.7657 3.02516V7.3519H76.5354C76.4105 7.3519 76.3035 7.4545 76.3035 7.58385V10.5992C76.3035 10.7285 76.4105 10.8311 76.5354 10.8311H78.4579V17.5309C78.4579 17.5309 77.829 23.7177 83.6411 23.7132C83.6411 23.7132 85.6796 23.5393 87.1337 23.0575V19.4177V19.4133Z" fill="#5F5B55"/>
  <path d="M35.1903 1.27216C38.335 1.27216 40.7526 1.84757 42.4342 3.00285C44.1203 4.15814 44.9634 6.04942 44.9634 8.67223C44.9634 11.3218 44.1159 13.2309 42.4075 14.4085C40.7035 15.5861 38.2681 16.1749 35.1011 16.1749H33.6112V23.2449H28.8607L28.8518 1.84757C29.8867 1.63792 30.984 1.48626 32.1392 1.40151C33.2945 1.31676 34.3115 1.27216 35.1813 1.27216H35.1903ZM35.498 5.49631C35.1501 5.49631 34.8111 5.50523 34.4766 5.52753C34.142 5.54984 33.8521 5.57214 33.6068 5.58998V11.9463H35.1011C36.747 11.9463 37.9826 11.7099 38.8167 11.246C39.6508 10.7776 40.0657 9.91226 40.0657 8.641C40.0657 8.02545 39.9586 7.51694 39.7445 7.11549C39.5304 6.71404 39.2271 6.38842 38.8301 6.14755C38.4331 5.90222 37.9514 5.73272 37.3849 5.63905C36.8139 5.54537 36.185 5.49631 35.498 5.49631Z" fill="#5F5B55"/>
  <path d="M111.818 23.1958C111.872 23.2761 111.836 23.3475 111.738 23.3475H107.572C107.474 23.3475 107.349 23.2806 107.295 23.2003L104.36 18.7174C104.307 18.6371 104.218 18.6326 104.164 18.7174L101.189 23.2047C101.135 23.285 101.011 23.3519 100.912 23.3519H96.9782C96.8801 23.3519 96.8444 23.285 96.8979 23.2047L102.014 15.4389C102.068 15.3586 102.068 15.2248 102.014 15.14L97.0005 7.49016C96.947 7.40987 96.9827 7.34296 97.0808 7.34296H101.283C101.381 7.34296 101.506 7.40987 101.559 7.49016L104.294 11.6786C104.347 11.7589 104.436 11.7589 104.49 11.6786L107.251 7.4857C107.304 7.40541 107.429 7.3385 107.527 7.3385H111.529C111.627 7.3385 111.662 7.40541 111.609 7.4857L106.64 14.9794C106.586 15.0642 106.586 15.1936 106.64 15.2783L111.814 23.2047L111.818 23.1958Z" fill="#5F5B55"/>
  <path d="M94.1099 1.03129C93.6237 0.589692 93.0528 0.371124 92.3926 0.371124C91.7325 0.371124 91.1615 0.589692 90.6753 1.03129C90.1891 1.46842 89.9482 2.07506 89.9482 2.83782C89.9482 3.60503 90.1891 4.20721 90.6753 4.64434C91.1615 5.08148 91.7325 5.30451 92.3926 5.30451C93.0528 5.30451 93.6237 5.08594 94.1099 4.64434C94.5961 4.20721 94.837 3.60503 94.837 2.83782C94.837 2.0706 94.5917 1.46842 94.1099 1.03129Z" fill="#5F5B55"/>
  <path d="M90.3186 7.34296C90.2204 7.34296 90.1401 7.42325 90.1401 7.52138L90.1491 23.178C90.1491 23.2761 90.2293 23.3564 90.3275 23.3564H94.507C94.6052 23.3564 94.6855 23.2761 94.6855 23.178V7.51692C94.6765 7.41879 94.6007 7.3385 94.5026 7.3385H90.323L90.3186 7.34296Z" fill="#5F5B55"/>
  <path d="M60.1562 13.173C60.1562 9.30564 57.0293 6.81665 53.1977 6.81665C48.9869 6.81665 45.579 10.0818 45.5835 15.3943C45.5835 21.8934 50.1377 23.7222 53.9917 23.7222C54.8793 23.7222 57.578 23.3876 59.0633 22.839C59.0633 22.839 59.0633 19.6988 59.0633 19.4356C59.0633 19.217 58.8849 19.0877 58.6797 19.1546C57.627 19.4936 56.2665 19.8147 54.5938 19.8147C51.4179 19.8147 50.2091 18.374 50.2091 17.1116C50.2091 17.1116 53.6839 17.1116 56.503 17.1116C59.3577 17.1116 60.1562 14.917 60.1562 13.1774V13.173ZM53.3806 10.452C54.5938 10.452 55.6733 11.0542 56.164 12.5217C56.1818 12.6109 56.1907 12.7492 56.1907 12.8295C56.1907 13.2845 55.8785 13.6413 55.3164 13.6547H50.2091C50.4589 11.5136 51.8997 10.4565 53.385 10.4565L53.3806 10.452Z" fill="#5F5B55"/>
  <path d="M68.1541 6.85679C65.6071 6.85679 63.1271 7.53926 62.8639 7.61955C62.8639 7.61955 62.8639 10.4743 62.8639 10.9025C62.8639 11.3352 63.2207 11.3307 63.4081 11.2683C64.492 10.9159 65.7811 10.6617 67.6412 10.6349C70.0454 10.5992 70.7546 11.7946 70.7546 13.1953V13.6235C70.4335 13.5387 69.6172 13.3514 68.0961 13.3514C64.8087 13.3514 61.383 14.5111 61.3875 18.3873C61.3875 21.0414 62.6052 23.6642 68.221 23.6597C68.8946 23.6597 71.2498 23.5661 71.2498 23.5661C74.1045 23.5661 75.0858 21.4071 75.0858 19.6675V13.4049C75.0858 8.90865 72.9582 6.84787 68.1586 6.84787L68.1541 6.85679ZM65.5179 18.3606C65.5179 16.728 67.5207 16.5987 68.7563 16.5987C69.4075 16.5987 70.3175 16.6923 70.7546 16.9332V19.4356V19.275C70.7546 19.73 70.4469 20.0601 69.8848 20.0957C69.2916 20.127 68.5823 20.1537 68.2924 20.1537C65.8971 20.1537 65.5224 19.3553 65.5179 18.3606Z" fill="#5F5B55"/>
  <path d="M7.62851 0.170374C7.51253 0.237282 7.4367 0.362178 7.4367 0.504916C7.4367 0.674417 7.55268 0.817155 7.7088 0.866222C7.72218 0.866222 8.22176 0.964354 8.22176 0.964354C8.37342 1.0045 8.47601 1.12493 8.48047 1.28998C8.48047 1.45502 8.36896 1.55315 8.32435 1.57545C6.81668 2.49879 -0.0927284 4.46144 0.000943445 13.1328C0.0544702 18.0037 3.40881 22.5223 6.60704 23.8426C7.52591 24.2217 8.2619 24.0745 8.28421 23.7891C8.29759 23.6329 7.91398 22.9817 7.91398 22.9817C6.69179 20.9209 5.46959 18.084 5.0503 14.3104C4.80943 12.1425 4.25632 5.96464 12.3656 5.91112C16.2552 5.88435 19.7077 8.49378 19.284 13.3647C18.9583 17.067 16.166 19.5025 11.817 19.7612C11.3174 19.7879 10.8803 20.2741 11.0944 20.8852C11.4244 21.8398 12.4013 24.8105 14.4353 24.418C19.8237 23.1557 23.9274 18.8824 23.865 13.0748C23.7802 4.79598 16.4292 -0.0749571 9.30122 0.000872495C7.90952 0.0142542 7.66419 0.148071 7.63297 0.165913L7.62851 0.170374Z" fill="#66AE35"/>
  <path d="M22.4688 13.7083C22.4063 7.85602 17.5354 3.16797 11.5895 3.23041C5.64354 3.29286 1.37479 8.02106 1.44169 14.1722C1.47738 17.2678 3.34635 21.4027 6.35723 23.3208C6.54904 23.4412 8.17268 24.1192 8.2842 23.7356C8.23959 23.5215 7.92289 22.9773 7.92289 22.9773C6.7007 20.9165 5.4785 18.0796 5.05921 14.306C4.81834 12.1382 4.26523 5.96028 12.3745 5.90675C16.2641 5.87999 19.7166 8.48942 19.2929 13.3604C18.9672 17.0626 16.1749 19.4981 11.8259 19.7568C11.3263 19.7836 10.8892 20.2698 11.1033 20.8809C11.3263 21.5366 11.8794 23.1111 12.8206 23.9631C13.1774 24.2843 14.0472 24.146 14.3952 24.0523C18.887 22.8301 22.5223 18.6327 22.4732 13.7127L22.4688 13.7083Z" fill="#4C9F38"/>
  <path d="M10.7956 16.1392C14.1499 15.8895 15.1624 14.1721 15.2918 12.7403C15.4301 11.1657 14.199 8.97112 11.8795 9.28336C8.55635 9.72941 8.71693 12.0891 8.7883 13.0124C8.84629 13.7305 8.98903 14.3729 9.19421 14.917C9.4217 15.5192 9.99711 16.1972 10.7956 16.1348V16.1392Z" fill="#4C9F38"/>
  <path d="M125.71 10.632C126.323 10.632 126.771 11.1371 126.692 11.7557C126.618 12.3686 126.05 12.8794 125.432 12.8794C125.261 12.8794 125.103 12.8453 124.966 12.7716L125.244 13.7023C124.824 13.8669 124.353 14.0542 124.019 14.1734C123.111 14.4969 121.663 14.9339 120.437 15.229L120.256 16.7216C120.21 17.0735 120.375 17.1643 120.755 17.238C121.011 17.2721 121.328 17.2834 121.709 17.2834C122.651 17.2834 124.166 17.1586 124.932 16.96L124.739 18.5604C123.831 18.6853 122.446 18.742 121.442 18.742C120.829 18.742 120.279 18.6966 119.893 18.6342C119.081 18.4809 118.644 17.9929 118.741 17.1756L119.336 12.2835C119.359 12.0848 119.399 11.5343 119.393 11.2279H121.005C120.92 11.5343 120.835 12.0224 120.801 12.2835L120.613 13.8045C121.703 13.5321 122.906 13.1518 123.678 12.8567C123.979 12.7489 124.268 12.624 124.603 12.4481C124.484 12.2608 124.422 12.0167 124.45 11.7613C124.524 11.1484 125.091 10.6376 125.71 10.6376V10.632ZM125.517 12.2324C125.778 12.2324 126.022 12.0167 126.056 11.7557C126.09 11.4946 125.897 11.2789 125.636 11.2789C125.375 11.2789 125.131 11.4946 125.097 11.7557C125.063 12.0167 125.256 12.2324 125.517 12.2324Z" fill="#5F5B55"/>
  <path d="M129.138 13.9577H133.939C134.348 13.9577 134.796 13.9123 135.057 13.8953L134.847 15.6206C134.614 15.6092 134.115 15.5638 133.74 15.5638H128.939C128.423 15.5638 127.742 15.5922 127.367 15.6206L127.577 13.8953C127.934 13.9237 128.689 13.9577 129.132 13.9577H129.138Z" fill="#5F5B55"/>
  <path d="M137.514 13.5605H143.434C143.621 13.5605 144.075 13.5434 144.336 13.498L144.16 14.9169C143.916 14.8998 143.542 14.8885 143.269 14.8885H141.243C141.067 15.7909 140.755 16.506 140.375 17.1246C139.989 17.7659 139.194 18.498 138.32 18.918L137.151 17.9929C137.787 17.7659 138.479 17.2494 138.905 16.7443C139.319 16.2222 139.569 15.5979 139.711 14.8885H137.35C137.089 14.8885 136.686 14.9055 136.43 14.9225L136.606 13.4923C136.884 13.5264 137.231 13.5548 137.509 13.5548L137.514 13.5605ZM138.973 11.2336H142.588C142.923 11.2336 143.303 11.2052 143.644 11.1598L143.474 12.5616C143.144 12.5446 142.775 12.5275 142.429 12.5275H138.814C138.496 12.5275 138.059 12.5446 137.758 12.5616L137.929 11.1598C138.229 11.2052 138.661 11.2336 138.967 11.2336H138.973Z" fill="#5F5B55"/>
  <path d="M148.962 14.2642C149.921 13.7194 150.976 12.8794 151.515 12.2835L152.469 13.3505C151.987 13.8102 151.118 14.4345 150.256 14.9679L149.887 17.9986C149.847 18.3448 149.79 18.8839 149.824 19.0826H148.195C148.247 18.8839 148.343 18.3391 148.383 17.9986L148.649 15.8306C147.798 16.2222 146.765 16.5968 146.061 16.8067L145.579 15.5241C146.782 15.2801 148.201 14.6898 148.962 14.2699V14.2642Z" fill="#5F5B55"/>
  <path d="M157.185 15.3425L155.789 15.8419C155.692 15.3538 155.409 14.1677 155.216 13.7363L156.595 13.2653C156.788 13.7704 157.071 14.8203 157.191 15.3425H157.185ZM161.68 14.3039C161.339 15.1722 160.846 16.0973 160.153 16.8748C159.177 17.9758 157.94 18.7647 156.805 19.179L155.8 18.0042C156.788 17.7602 158.195 17.0734 159.058 16.1257C159.744 15.3765 160.323 14.145 160.539 13.0213L162.026 13.5207C161.856 13.8726 161.765 14.0882 161.674 14.3096L161.68 14.3039ZM159.262 14.7749L157.894 15.229C157.821 14.7749 157.577 13.708 157.389 13.2029L158.746 12.7772C158.876 13.1745 159.177 14.3493 159.262 14.7749Z" fill="#5F5B55"/>
  <path d="M168.014 12.0622H169.472C169.773 12.0622 170.136 12.0168 170.38 11.943L171.407 12.6297C171.266 12.8283 171.09 13.1008 170.965 13.3732C170.63 14.1223 169.994 15.3198 169.041 16.3414C168.031 17.4197 166.839 18.2483 165.051 18.9463L163.893 17.7886C165.919 17.1927 166.952 16.4208 167.826 15.5639C168.473 14.9282 169.109 13.8896 169.296 13.3051H167.043C166.305 14.111 165.403 14.8885 164.501 15.4674L163.383 14.5536C165.102 13.5661 165.971 12.4821 166.538 11.7217C166.731 11.4663 167.009 11.0009 167.151 10.6433L168.689 11.1655C168.445 11.4549 168.184 11.8238 168.019 12.0622H168.014Z" fill="#5F5B55"/>
  <path d="M179.506 12.7205C179.126 13.3902 178.536 14.2926 177.849 15.1098C178.632 15.8703 179.574 17.0167 180 17.6354L178.61 18.7307C178.133 17.9078 177.469 17.0394 176.754 16.2506C175.687 17.2381 174.387 18.1518 173.133 18.7193L172.14 17.5332C173.672 16.9997 175.233 15.8873 176.146 14.9906C176.816 14.321 177.401 13.5264 177.662 12.9475H174.852C174.444 12.9475 173.939 13.0043 173.689 13.0213L173.876 11.4663C174.188 11.5117 174.762 11.54 175.023 11.54H178.042C178.496 11.54 178.927 11.4776 179.143 11.4038L179.96 12.0622C179.864 12.1814 179.637 12.4992 179.506 12.7205Z" fill="#5F5B55"/>
</svg>