<?xml version="1.0" encoding="UTF-8"?><svg id="_レイヤー_2" xmlns="http://www.w3.org/2000/svg" viewBox="0 0 189.58 78.12"><g id="_デザイン"><path d="M54.18,3.17c.24-.47.55-1.15.77-1.69.33-.79.86-1.19,1.57-1.19,1.06,0,1.94.77,1.94,1.71,0,.36-.13.76-.35,1.17h3.62c.66,0,1.12.7,1.12,1.64s-.46,1.62-1.12,1.62h-18.26c-.64,0-1.1-.68-1.1-1.64s.46-1.62,1.1-1.62h3.77l-.04-.09c-.31-.43-.4-.65-.4-1.04,0-.9.88-1.71,1.87-1.71.53,0,1.01.25,1.35.7.53.7.99,1.62,1.1,2.14h3.06ZM46.64,20.45c0,.67-.66,1.15-1.61,1.15s-1.65-.47-1.65-1.15v-11.34c0-1.26.62-1.87,1.85-1.87h5.6c1.23,0,1.87.63,1.87,1.87v9.84c0,1.94-.62,2.52-2.67,2.52-.79,0-1.41-.04-1.79-.11-.75-.13-1.23-.74-1.23-1.53,0-1.06.55-1.62,1.57-1.62.31.04.42.04.57.04.31,0,.42-.16.42-.58v-.83h-2.93v3.62ZM49.58,10.39c0-.25-.11-.36-.33-.36h-2.25c-.24,0-.35.14-.35.36v.61h2.93v-.61ZM46.64,13.39v1.06h2.93v-1.06h-2.93ZM57.05,16.29c0,.68-.71,1.17-1.65,1.17s-1.61-.5-1.61-1.17v-7.43c0-.67.68-1.17,1.61-1.17s1.65.52,1.65,1.17v7.43ZM61.77,18.47c0,2.52-.75,3.08-4.1,3.08-1.06,0-1.76-.09-2.12-.29-.53-.27-.82-.81-.82-1.51,0-1.06.64-1.76,1.59-1.76q.07,0,.97.04c.13.02.29.02.4.02.44,0,.64-.2.64-.7v-9.09c0-.74.73-1.28,1.7-1.28s1.74.54,1.74,1.28v10.2Z" style="fill:#fff;"/><path d="M73.63,14.44c0,1.71-.97,3.78-2.36,5.06-1.34,1.22-3.64,2.14-5.36,2.14-1.08,0-1.81-.74-1.81-1.87,0-.72.33-1.31.9-1.6.22-.11.26-.13.82-.22,2.62-.47,4.01-1.69,4.28-3.78.13-.95.75-1.49,1.7-1.49,1.17,0,1.83.63,1.83,1.76ZM72.75,1.71c0-.72.77-1.26,1.83-1.26s1.83.54,1.83,1.26v.25h7.21c.68,0,1.19.63,1.19,1.44s-.51,1.44-1.19,1.44h-7.21v.92h6.42c.68,0,1.17.61,1.17,1.42s-.48,1.42-1.17,1.42h-16.32c-.68,0-1.17-.61-1.17-1.42s.51-1.42,1.17-1.42h6.24v-.92h-7.03c-.68,0-1.19-.61-1.19-1.44s.51-1.44,1.19-1.44h7.03v-.25ZM68.38,12.33c-.24,0-.38.13-.38.38v1.17c0,.77-.71,1.31-1.74,1.31s-1.72-.52-1.72-1.31v-1.89c0-1.67.82-2.5,2.45-2.5h15.32c1.63,0,2.45.83,2.45,2.5v1.55c0,.76-.71,1.28-1.76,1.28s-1.74-.5-1.74-1.28v-.83c0-.25-.13-.38-.38-.38h-12.5ZM78.64,17.12c0,.47.07.65.31.72.18.07.66.13,1.06.13,1.34,0,1.57-.18,1.59-1.24.02-.83.62-1.3,1.61-1.3,1.17,0,1.81.58,1.81,1.64,0,1.26-.31,2.66-.68,3.22-.6.81-1.54,1.04-4.65,1.04-3.68,0-4.48-.47-4.48-2.72v-4.64c0-.74.73-1.26,1.76-1.26s1.68.52,1.68,1.26v3.15Z" style="fill:#fff;"/><path d="M96.43,9.56c0,.54-.4,1.46-1.19,2.66-1.12,1.76-2.12,2.52-3.33,2.52-1.1,0-1.98-.65-2.4-1.73-.38-.95-.62-2.79-.62-4.52,0-1.46.35-4.86.6-5.99.2-.88.9-1.42,1.81-1.42,1.01,0,1.83.7,1.83,1.6,0,.13-.02.29-.11.65-.4,1.78-.55,3.06-.55,4.43,0,2.03.07,2.79.24,2.79.13,0,.48-.61.86-1.49.31-.7.68-.99,1.28-.99.79,0,1.59.74,1.59,1.49ZM103.55,2.56c.26,1.37.51,4.66.51,6.66,0,3.92-1.19,7.16-3.33,9.07-1.5,1.33-4.3,2.63-5.69,2.63-1.08,0-1.85-.74-1.85-1.78,0-.67.35-1.3.9-1.62.18-.11.22-.11.68-.25,2.25-.63,3.88-1.89,4.7-3.65.55-1.15.79-2.57.79-4.43s-.2-4.43-.48-6.23c-.02-.16-.04-.34-.04-.45,0-.97.77-1.62,1.96-1.62.95,0,1.65.63,1.85,1.67Z" style="fill:#fff;"/><path d="M115.67,5.64c-1.44.13-3.97.31-4.62.31-1.02,0-1.64-.62-1.64-1.67,0-.64.37-1.18.92-1.4.24-.07.39-.09,1-.09,3.01-.07,8.39-.87,10.44-1.58.26-.09.54-.13.76-.13.79,0,1.5.85,1.5,1.76,0,.78-.44,1.29-1.35,1.58-.76.22-1.72.45-3.34.71v3.31h6.45c.76,0,1.33.71,1.33,1.67s-.57,1.67-1.33,1.67h-6.56c-.33,2.89-1.18,4.74-2.94,6.43-1.46,1.4-3.53,2.58-4.51,2.58-.92,0-1.74-1-1.74-2.11,0-.49.24-.91.68-1.25.17-.13.22-.16.74-.42,2.51-1.27,3.82-2.91,4.1-5.23h-6.61c-.76,0-1.33-.71-1.33-1.67s.57-1.67,1.33-1.67h6.72v-2.8Z" style="fill:#fff;"/><path d="M136.47,8.11c-1.66,2.91-3.34,4.63-4.49,4.63-.85,0-1.72-.87-1.72-1.74,0-.51.22-.91.78-1.42,1.85-1.65,3.29-4.29,4.06-7.54.17-.76.72-1.18,1.55-1.18,1.16,0,2.03.71,2.03,1.65,0,.38-.15.91-.63,2.27h10.51c.76,0,1.33.71,1.33,1.67s-.57,1.67-1.33,1.67h-3.31c-.17,3.92-.76,6.36-1.98,8.19-1.09,1.65-3.05,3.23-5.06,4.07-.52.22-.79.29-1.09.29-.94,0-1.68-.82-1.68-1.89,0-.42.17-.85.48-1.11q.15-.13.76-.42c3.34-1.78,4.77-4.49,4.84-9.12h-5.04Z" style="fill:#fff;"/><path d="M155.79,6.49c.7,1.25,1.88,4.8,1.88,5.65,0,.8-.81,1.45-1.81,1.45-.48,0-.92-.2-1.18-.56-.15-.22-.2-.31-.37-.93-.35-1.33-.92-3-1.4-4.14-.11-.31-.17-.56-.17-.8,0-.76.83-1.45,1.74-1.45.54,0,1.05.29,1.31.78ZM168.06,6.6c0,.84-.61,3.98-1.02,5.38-.87,2.76-2.05,4.63-3.86,6.1-1.59,1.29-4.38,2.56-5.65,2.56-.87,0-1.46-.71-1.46-1.78,0-.53.26-.98.72-1.27.22-.13.24-.16,1.02-.42,4.51-1.51,6.19-4.12,6.85-10.7.09-.89.68-1.42,1.61-1.42,1.02,0,1.79.67,1.79,1.56ZM160.78,6.13c.78,1.8,1.53,4.25,1.53,5.03,0,.84-.81,1.49-1.81,1.49-.54,0-1-.25-1.24-.65-.13-.2-.13-.22-.28-.78-.37-1.54-.83-2.94-1.31-4.16-.13-.31-.17-.53-.17-.76,0-.76.83-1.42,1.81-1.42.7,0,1.09.33,1.48,1.25Z" style="fill:#fff;"/><path d="M177.48,19.52c0,.91-.81,1.56-1.92,1.56s-1.92-.64-1.92-1.56V2.17c0-.89.81-1.56,1.9-1.56s1.94.65,1.94,1.56v4.63c4.16,1.31,5.47,1.78,8.66,3.18.76.33,1.18.93,1.18,1.69,0,1.11-.87,2.14-1.81,2.14-.44,0-.61-.07-1.46-.49-1.61-.82-3.86-1.78-6.56-2.83v9.03Z" style="fill:#fff;"/><path d="M78.24,44.54c0-1.46,1.17-2.66,2.6-2.66s2.6,1.25,2.6,2.89c0,1.97-1.01,4.35-2.51,5.92-.64.68-1.1.96-1.54.96-.58,0-1.06-.47-1.06-1.06,0-.35.09-.54.53-.99.78-.82,1.27-1.64,1.57-2.63-1.27,0-2.19-1.03-2.19-2.44Z" style="fill:#fff; stroke:#fff; stroke-linecap:round; stroke-linejoin:round; stroke-width:.5px;"/><path d="M71.46,32.87c-2.19.71-2.95.89-3.59.89-.99,0-1.63-.75-1.63-1.88,0-.96.51-1.48,1.8-1.81.99-.26,2.69-.82,3.64-1.25.74-.31,1.68-.54,2.23-.54,1.2,0,1.91.75,1.91,2v16.17c0,1.01-.9,1.74-2.17,1.74s-2.19-.73-2.19-1.74v-13.58Z" style="fill:#fff; stroke:#fff; stroke-linecap:round; stroke-linejoin:round; stroke-width:.5px;"/><path d="M104.27,38.3c0,6.18-2.97,9.99-7.78,9.99s-7.78-3.81-7.78-9.99,2.97-9.99,7.78-9.99,7.78,3.81,7.78,9.99ZM93.18,38.3c0,3.95,1.27,6.37,3.32,6.37s3.32-2.42,3.32-6.37-1.27-6.49-3.32-6.49-3.32,2.49-3.32,6.49Z" style="fill:#fff; stroke:#fff; stroke-linecap:round; stroke-linejoin:round; stroke-width:.5px;"/><path d="M122.7,38.3c0,6.18-2.97,9.99-7.78,9.99s-7.78-3.81-7.78-9.99,2.97-9.99,7.78-9.99,7.78,3.81,7.78,9.99ZM111.6,38.3c0,3.95,1.27,6.37,3.32,6.37s3.32-2.42,3.32-6.37-1.27-6.49-3.32-6.49-3.32,2.49-3.32,6.49Z" style="fill:#fff; stroke:#fff; stroke-linecap:round; stroke-linejoin:round; stroke-width:.5px;"/><path d="M141.12,38.3c0,6.18-2.97,9.99-7.78,9.99s-7.78-3.81-7.78-9.99,2.97-9.99,7.78-9.99,7.78,3.81,7.78,9.99ZM130.03,38.3c0,3.95,1.27,6.37,3.32,6.37s3.32-2.42,3.32-6.37-1.27-6.49-3.32-6.49-3.32,2.49-3.32,6.49Z" style="fill:#fff; stroke:#fff; stroke-linecap:round; stroke-linejoin:round; stroke-width:.5px;"/><path d="M148.5,47.39c0,.83-.71,1.4-1.76,1.4s-1.72-.54-1.72-1.4v-15.73c0-1.84.9-2.77,2.71-2.77h13.01c1.81,0,2.71.92,2.71,2.77v14.16c0,2.27-.77,2.9-3.51,2.9-1.17,0-2.34-.04-2.82-.11-1.06-.16-1.68-.81-1.68-1.76,0-1.12.73-1.85,1.85-1.85.13,0,.22,0,.42.02.46.07,1.23.11,1.61.11.46,0,.64-.18.64-.67v-4.01h-11.47v6.93ZM152.47,32.18h-3.48c-.33,0-.49.16-.49.5v4.5h3.97v-5ZM159.97,32.67c0-.34-.15-.5-.49-.5h-3.62v5h4.1v-4.5Z" style="fill:#fff;"/><path d="M12.89,67.67c0-.22-.11-.33-.33-.33H1.4c-.69,0-1.11-.52-1.11-1.35s.42-1.35,1.11-1.35h5.24v-5.53c0-.68.62-1.17,1.5-1.17s1.5.48,1.5,1.17v5.53h4.19c1.36,0,2.03.68,2.03,2.07v6.2c0,1.39-.67,2.07-2.03,2.07H1.14c-.71,0-1.14-.54-1.14-1.39s.44-1.35,1.14-1.35h11.42c.22,0,.33-.11.33-.33v-.89H1.74c-.65,0-1.07-.5-1.07-1.24s.44-1.28,1.07-1.28h11.15v-.83ZM3.46,59.57c.6.78.94,1.33,1.45,2.26.16.3.25.65.25.96,0,.81-.76,1.52-1.65,1.52-.36,0-.73-.17-.96-.44-.09-.09-.09-.11-.27-.41-.34-.63-.92-1.52-1.27-2.02-.29-.39-.4-.68-.4-1.04,0-.83.74-1.52,1.63-1.52.49,0,.85.2,1.21.68ZM15.63,60.27c0,.55-.38,1.42-1.14,2.63-.74,1.15-1.09,1.44-1.78,1.44-.83,0-1.58-.7-1.58-1.5,0-.35.07-.54.4-1.04.42-.63.92-1.55,1.25-2.24.29-.57.67-.83,1.23-.83.89,0,1.61.68,1.61,1.54Z" style="fill:#fff33f;"/><path d="M30.93,58.53c1.54,0,2.32.79,2.32,2.37v11.67c0,1.57-.78,2.37-2.32,2.37h-9.23c-1.54,0-2.32-.8-2.32-2.37v-11.67c0-1.57.78-2.37,2.32-2.37h9.23ZM30.13,61.88c0-.26-.13-.39-.38-.39h-6.91c-.25,0-.38.13-.38.39v3.27h7.67v-3.27ZM22.46,68.04v3.51c0,.26.13.39.38.39h6.91c.25,0,.38-.13.38-.39v-3.51h-7.67Z" style="fill:#fff33f;"/><path d="M43.09,62.27c-1.2.11-3.3.26-3.84.26-.85,0-1.36-.52-1.36-1.39,0-.54.31-.98.76-1.17.2-.06.33-.07.83-.07,2.5-.06,6.98-.72,8.68-1.31.22-.07.45-.11.63-.11.65,0,1.25.7,1.25,1.46,0,.65-.36,1.07-1.12,1.31-.63.18-1.43.37-2.77.59v2.76h5.37c.63,0,1.11.59,1.11,1.39s-.47,1.39-1.11,1.39h-5.46c-.27,2.4-.98,3.94-2.45,5.34-1.21,1.17-2.94,2.15-3.75,2.15-.76,0-1.45-.83-1.45-1.76,0-.41.2-.76.56-1.04.14-.11.18-.13.62-.35,2.08-1.05,3.17-2.42,3.41-4.35h-5.49c-.63,0-1.11-.59-1.11-1.39s.47-1.39,1.11-1.39h5.58v-2.33Z" style="fill:#fff33f;"/><path d="M59.95,64.32c-1.38,2.42-2.77,3.85-3.73,3.85-.71,0-1.43-.72-1.43-1.44,0-.43.18-.76.65-1.18,1.54-1.37,2.74-3.57,3.37-6.27.14-.63.6-.98,1.29-.98.96,0,1.69.59,1.69,1.37,0,.31-.13.76-.53,1.89h8.74c.63,0,1.11.59,1.11,1.39s-.47,1.39-1.11,1.39h-2.76c-.14,3.25-.63,5.29-1.65,6.81-.91,1.37-2.54,2.68-4.21,3.38-.44.19-.65.24-.91.24-.78,0-1.4-.68-1.4-1.57,0-.35.15-.7.4-.92q.13-.11.63-.35c2.77-1.48,3.97-3.74,4.02-7.58h-4.19Z" style="fill:#fff33f;"/><path d="M76.43,62.97c.58,1.04,1.56,4,1.56,4.7,0,.67-.67,1.2-1.5,1.2-.4,0-.76-.17-.98-.46-.13-.19-.16-.26-.31-.78-.29-1.11-.76-2.5-1.16-3.44-.09-.26-.15-.46-.15-.67,0-.63.69-1.2,1.45-1.2.45,0,.87.24,1.09.65ZM86.64,63.06c0,.7-.51,3.31-.85,4.48-.72,2.29-1.7,3.85-3.21,5.07-1.32,1.07-3.64,2.13-4.69,2.13-.73,0-1.21-.59-1.21-1.48,0-.44.22-.81.6-1.05.18-.11.2-.13.85-.35,3.75-1.26,5.15-3.42,5.69-8.9.07-.74.56-1.18,1.34-1.18.85,0,1.49.55,1.49,1.29ZM80.58,62.68c.65,1.5,1.27,3.53,1.27,4.18,0,.7-.67,1.24-1.5,1.24-.45,0-.83-.2-1.03-.54-.11-.17-.11-.19-.24-.65-.31-1.28-.69-2.44-1.09-3.46-.11-.26-.14-.44-.14-.63,0-.63.69-1.18,1.5-1.18.58,0,.91.28,1.23,1.04Z" style="fill:#fff33f;"/><path d="M94.49,73.81c0,.76-.67,1.29-1.6,1.29s-1.59-.54-1.59-1.29v-14.43c0-.74.67-1.29,1.58-1.29s1.61.54,1.61,1.29v3.85c3.46,1.09,4.55,1.48,7.2,2.64.63.28.98.78.98,1.41,0,.92-.72,1.78-1.5,1.78-.36,0-.51-.06-1.21-.41-1.34-.68-3.21-1.48-5.46-2.35v7.51Z" style="fill:#fff33f;"/><path d="M110.29,62.03c-1.86.6-2.51.76-3.06.76-.84,0-1.39-.64-1.39-1.6,0-.82.43-1.26,1.53-1.54.84-.22,2.29-.7,3.1-1.06.63-.26,1.43-.46,1.9-.46,1.02,0,1.63.64,1.63,1.7v13.76c0,.86-.76,1.48-1.84,1.48s-1.86-.62-1.86-1.48v-11.56Z" style="fill:#fff33f; stroke:#fff33f; stroke-linecap:round; stroke-linejoin:round; stroke-width:.5px;"/><path d="M117.91,71.81c0-1.24,1-2.26,2.22-2.26s2.21,1.06,2.21,2.46c0,1.68-.86,3.7-2.14,5.04-.55.58-.94.82-1.31.82-.49,0-.9-.4-.9-.9,0-.3.08-.46.45-.84.67-.7,1.08-1.4,1.33-2.24-1.08,0-1.86-.88-1.86-2.08Z" style="fill:#fff33f; stroke:#fff33f; stroke-linecap:round; stroke-linejoin:round; stroke-width:.5px;"/><path d="M129.6,65.01c.75-.68,1.77-1,3.16-1,3.18,0,5.45,2.26,5.45,5.4,0,3.42-2.63,5.76-6.49,5.76-2,0-3.45-.36-4.75-1.2-.9-.58-1.22-1.02-1.22-1.64,0-.88.76-1.68,1.61-1.68.37,0,.55.08,1.06.4,1.04.7,2.16,1.06,3.18,1.06,1.69,0,2.86-1.14,2.86-2.76s-.98-2.64-2.71-2.64c-.84,0-1.57.3-2.24.9-.39.38-.96.58-1.55.58-1.2,0-1.82-.6-1.82-1.76v-.34l.49-5.52c.12-1.38.86-2.02,2.31-2.02h7.22c.73,0,1.24.64,1.24,1.52s-.49,1.54-1.24,1.54h-5.73c-.45,0-.59.12-.63.58l-.29,2.82h.08Z" style="fill:#fff33f; stroke:#fff33f; stroke-linecap:round; stroke-linejoin:round; stroke-width:.5px;"/><path d="M154.3,66.65c0,5.26-2.53,8.5-6.63,8.5s-6.63-3.24-6.63-8.5,2.53-8.5,6.63-8.5,6.63,3.24,6.63,8.5ZM144.85,66.65c0,3.36,1.08,5.42,2.82,5.42s2.82-2.06,2.82-5.42-1.08-5.52-2.82-5.52-2.82,2.12-2.82,5.52Z" style="fill:#fff33f; stroke:#fff33f; stroke-linecap:round; stroke-linejoin:round; stroke-width:.5px;"/><path d="M170.76,66.65c0,5.26-2.53,8.5-6.63,8.5s-6.63-3.24-6.63-8.5,2.53-8.5,6.63-8.5,6.63,3.24,6.63,8.5ZM161.31,66.65c0,3.36,1.08,5.42,2.82,5.42s2.82-2.06,2.82-5.42-1.08-5.52-2.82-5.52-2.82,2.12-2.82,5.52Z" style="fill:#fff33f; stroke:#fff33f; stroke-linecap:round; stroke-linejoin:round; stroke-width:.5px;"/><path d="M176.96,74.33c0,.7-.6,1.18-1.49,1.18s-1.45-.46-1.45-1.18v-13.28c0-1.56.76-2.34,2.29-2.34h10.98c1.53,0,2.29.78,2.29,2.34v11.95c0,1.92-.65,2.45-2.96,2.45-.99,0-1.97-.04-2.38-.1-.89-.13-1.41-.68-1.41-1.48,0-.95.61-1.56,1.56-1.56.11,0,.19,0,.35.02.39.06,1.04.1,1.36.1.39,0,.54-.15.54-.57v-3.38h-9.68v5.85ZM180.31,61.48h-2.94c-.28,0-.41.13-.41.42v3.8h3.35v-4.22ZM186.64,61.9c0-.29-.13-.42-.41-.42h-3.05v4.22h3.46v-3.8Z" style="fill:#fff33f;"/><rect x="1.89" width="34.94" height="22.91" rx="2.83" ry="2.83" style="fill:#e72410;"/><polygon points="42.29 12.49 32.92 8.3 32.92 16.68 42.29 12.49" style="fill:#e72410;"/><path d="M11.38,9.21c.4,0,.7.35.7.83s-.29.83-.7.83h-5.16c-.85,0-1.15-.27-1.15-1.04,0-.44.29-1.03.8-1.62.47-.56,1.11-1.07,2.01-1.58l.25-.14c1.39-.81,1.68-1.09,1.68-1.64,0-.52-.59-.95-1.33-.95-.66,0-1.18.24-1.81.83-.16.15-.38.24-.59.24-.47,0-.87-.37-.87-.82,0-.26.12-.47.38-.73.73-.7,1.76-1.07,2.99-1.07.85,0,1.61.21,2.19.58.69.46,1.12,1.19,1.12,1.9s-.18,1.2-.61,1.65c-.36.36-.73.61-1.74,1.08l-.3.14c-.92.41-1.8,1.07-2.02,1.51h4.17Z" style="fill:#fff33f;"/><path d="M20.12,2.27c.91,0,1.37.44,1.37,1.3v6.39c0,.86-.46,1.3-1.37,1.3h-5.43c-.91,0-1.37-.44-1.37-1.3V3.57c0-.86.46-1.3,1.37-1.3h5.43ZM19.65,4.11c0-.14-.07-.21-.22-.21h-4.06c-.15,0-.22.07-.22.21v1.79h4.51v-1.79ZM15.14,7.48v1.92c0,.14.07.21.22.21h4.06c.15,0,.22-.07.22-.21v-1.92h-4.51Z" style="fill:#fff33f;"/><path d="M24.96,10.93c0,.34-.35.59-.83.59s-.81-.24-.81-.59V3.12c0-.63.33-.93.99-.93h2.47c.67,0,1,.3,1,.91v2c0,.61-.34.93-1,.93h-1.82v4.9ZM26.25,3.42c0-.1-.05-.15-.16-.15h-.96c-.12,0-.16.04-.17.15v.2h1.29v-.2ZM24.96,4.58v.38h1.13c.11,0,.16-.05.16-.15v-.22h-1.29ZM30.43,9.9c.08,0,.14,0,.22.02.09,0,.17.02.26.02.23,0,.3-.07.3-.31v-3.6h-1.86c-.67,0-1-.3-1-.93v-2.01c0-.61.32-.9,1-.9h2.5c.66,0,1,.31,1,.93v7.05c0,1.01-.34,1.31-1.56,1.31-1.11,0-1.48-.19-1.5-.79-.06.01-.14.02-.25.02h-3.02c-.6,0-.89-.27-.89-.84v-2.6c0-.57.29-.84.89-.84h3.02c.59,0,.89.28.89.84v2.63ZM28.93,7.71c0-.1-.05-.14-.16-.15h-1.47c-.12,0-.17.05-.17.15v.33h1.8v-.33ZM27.13,9.02v.35c0,.1.06.16.17.16h1.47c.11,0,.16-.05.16-.16v-.35h-1.8ZM31.21,3.41c0-.08-.06-.14-.17-.14h-1c-.11,0-.16.05-.16.15v.2h1.33v-.21ZM31.21,4.58h-1.33v.22c0,.1.04.14.16.15h1.17v-.38Z" style="fill:#fff33f;"/><path d="M9.82,12.52c0-.36.35-.62.87-.62s.9.25.9.62v1.09h2.25v-1.09c0-.36.35-.62.89-.62s.89.25.89.62v1.09h1.19c.38,0,.64.32.64.8s-.26.8-.64.8h-1.19v1.62h1.46c.38,0,.64.32.64.82s-.26.8-.64.8h-8.65c-.38,0-.64-.31-.64-.81s.26-.81.64-.81h1.4v-1.62h-1.12c-.39,0-.65-.32-.65-.8s.27-.8.65-.8h1.12v-1.09ZM11.91,19.46c0,.28-.1.43-.44.68-1.08.79-2.11,1.31-2.59,1.31-.52,0-.93-.42-.93-.95,0-.23.12-.44.34-.58.05-.03.09-.05.27-.13.53-.24,1.18-.61,1.75-.99.23-.15.46-.22.7-.22.48,0,.9.41.9.89ZM11.59,15.22v1.62h2.25v-1.62h-2.25ZM15.23,18.75c.8.38,1.62.85,1.91,1.07.25.19.37.43.37.68,0,.5-.42.93-.89.93-.28,0-.43-.06-.78-.28-.43-.28-.81-.52-1.78-1.06-.29-.16-.41-.33-.41-.6,0-.15.06-.36.16-.55.14-.23.41-.38.74-.38.21,0,.41.05.67.18Z" style="fill:#fff33f;"/><path d="M26.35,21.37c-2.05,0-3.06-.27-3.9-1.07-.64.81-1,1.09-1.39,1.09-.44,0-.86-.4-.86-.81,0-.25.09-.39.42-.65.22-.18.47-.41.85-.78v-2c0-.11-.05-.15-.17-.16h-.43c-.36,0-.61-.3-.61-.75s.25-.76.61-.76h1.24c.62,0,.95.3.95.89v2.71c.64.62,1.45.82,3.26.81h3.51c.37,0,.65.31.65.74s-.28.74-.65.74h-3.48ZM22.41,12.59c.45.45.6.69.6.94,0,.44-.45.81-.95.81-.29,0-.47-.1-.67-.38-.13-.17-.42-.5-.67-.76-.16-.16-.21-.27-.21-.46,0-.43.42-.8.89-.8.32,0,.49.11,1.02.64ZM27.51,19.15c0,.25-.3.43-.73.43s-.73-.17-.73-.43v-1.16h-1.02v1.13c0,.3-.31.53-.75.53s-.75-.22-.75-.53v-3.95c0-.68.35-1.01,1.07-1.01h.59l-.16-.09c-.25-.13-.34-.26-.34-.48,0-.11.03-.2.13-.32h-.91c-.26,0-.44-.24-.44-.6s.18-.59.44-.59h5c.5,0,.82.22.82.57,0,.38-.3.7-1.4,1.51h.66c.71,0,1.07.33,1.07,1.01v3.42c0,.83-.27,1.05-1.24,1.05-.85,0-1.16-.17-1.16-.68,0-.35.25-.62.59-.62.02,0,.03,0,.12.01h.05c.12,0,.15-.04.15-.18v-.19h-1.07v1.16ZM25.21,15.16c-.12,0-.18.06-.18.17v.25h1.02v-.43h-.84ZM26.06,16.56h-1.02v.47h1.02v-.47ZM25.9,13.27c.41.21.66.38.98.6.47-.3.67-.46.67-.53,0-.04-.06-.07-.18-.07h-1.47ZM28.57,15.58v-.25c0-.11-.06-.17-.18-.17h-.89v.43h1.07ZM28.57,17.02v-.47h-1.07v.47h1.07Z" style="fill:#fff33f;"/></g></svg>