<?xml version="1.0" encoding="UTF-8"?><svg id="_レイヤー_2" xmlns="http://www.w3.org/2000/svg" viewBox="0 0 451.82 231.33"><g id="_デザイン"><path d="M172.61,188.8l-18.25-.29-.1,6.16,15.89.26c.44,0,.82.4.81.84l-.52,32.28c0,.49-.4.82-.84.81l-9.18-.15c-.44,0-.82-.34-.81-.84,0-.44.4-.82.84-.81l4.12.07.5-30.63-10.83-.18-.48,29.86c0,.49-.4.82-.84.81l-4.45-.07c-.44,0-.82-.34-.81-.84l.48-29.86-10.83-.18-.51,31.45c0,.49-.34.82-.84.81l-4.23-.07c-.44,0-.82-.34-.81-.84l.52-32.28c0-.44.4-.82.84-.81l15.89.26.1-6.16-18.25-.29c-.44,0-.82-.4-.81-.84s.4-.82.84-.81l42.61.69c.44,0,.82.4.81.84s-.4.82-.84.81ZM142.54,211.58c2.03.03,3.6,1.71,3.57,3.74-.03,2.03-1.65,3.6-3.69,3.57-2.03-.03-3.6-1.65-3.57-3.69.03-2.03,1.65-3.66,3.69-3.63ZM142.6,207.95c-1.32-.02-2.35-1.14-2.32-2.46.02-1.32,1.08-2.35,2.4-2.33,1.32.02,2.35,1.08,2.33,2.4-.02,1.32-1.08,2.4-2.4,2.38ZM159.31,211.85c2.03.03,3.6,1.71,3.57,3.74-.03,2.03-1.65,3.6-3.69,3.57-2.03-.03-3.6-1.65-3.57-3.69.03-2.03,1.65-3.66,3.69-3.63ZM159.37,208.22c-1.32-.02-2.35-1.14-2.33-2.46.02-1.32,1.08-2.35,2.4-2.33,1.32.02,2.35,1.08,2.33,2.4-.02,1.32-1.08,2.4-2.4,2.38Z" style="fill:#fff100;"/><path d="M224.35,190.24c0,.44-.34.82-.84.81l-40.85-.66c-.44,0-.82-.4-.81-.84,0-.44.4-.82.84-.81l40.85.66c.49,0,.82.4.81.84ZM201.93,205.61l-15.3,24.28c-.23.33-.67.48-1.05.26-.38-.17-.54-.61-.42-1l8.8-23.67-9.02-.15c-.44,0-.82-.34-.81-.84,0-.44.4-.82.84-.81l9.62.16,3.45-9.35c.17-.38.61-.6,1-.48l7.61,2.05c.27.06.49.28.6.5.05.22.05.5-.12.71l-4.18,6.7,17.98.29c.44,0,.82.4.81.84,0,.5-.4.82-.84.81l-18.97-.31ZM221.54,224.68c0,.28-.06.49-.23.66l-5.2,5.25c-.17.16-.45.27-.72.21-.27,0-.49-.17-.6-.45l-8.42-16.53c-.16-.33-.04-.77.24-1.04.33-.22.72-.21,1.04.02l13.62,11.33c.16.11.27.33.27.55Z" style="fill:#fff100;"/><path d="M235.74,203.85c1.87.03,3.33,1.54,3.3,3.41-.03,1.82-1.54,3.28-3.41,3.25-1.81-.03-3.27-1.54-3.25-3.35.03-1.87,1.54-3.33,3.35-3.3ZM245.25,197.23c-.04,2.69-2.28,4.86-4.97,4.81-2.75-.04-4.91-2.28-4.87-4.97.04-2.7,2.28-4.86,5.03-4.81,2.69.04,4.86,2.28,4.81,4.97ZM245.35,208.13l-3.69,17.26c-.06.22-.17.38-.39.54-.22.11-.44.1-.66.04l-6.41-1.86c-.27-.06-.49-.28-.54-.5-.11-.28-.1-.55.07-.77l10.15-15.35c.22-.33.67-.48.99-.31.38.17.6.56.48.94ZM277.78,212.5c0,.44-.34.82-.84.81l-19.3-.31-5.4,17.73c-.12.44-.56.65-1,.59-.38-.12-.71-.51-.65-.94l2.7-17.45-5-.08c-.49,0-.82-.4-.81-.84,0-.44.34-.82.84-.81l5.22.08,2.58-16.68-5.44-.09c-.44,0-.82-.4-.81-.84,0-.44.4-.82.84-.81l5.66.09.98-6.42c.06-.44.51-.76.95-.7l6.31.98c.22,0,.44.17.54.39.11.17.16.44.1.66l-1.57,5.2,10.72.17c.5,0,.82.4.81.84l-.28,17.54,2.03.03c.5,0,.82.4.81.84ZM268.01,211.52l.27-16.72-5.11-.08-5.05,16.64,9.9.16ZM274.7,226.48l-4.14,4.17c-.17.16-.39.27-.66.21-.28,0-.49-.17-.6-.34l-7.72-12.5c-.22-.33-.15-.77.13-1.04.28-.27.72-.32,1.05-.09l11.8,8.33c.22.17.32.39.38.61,0,.22-.06.49-.23.66Z" style="fill:#fff100;"/><path d="M303.88,194.11c-.06.27-.23.49-.45.65l-15.47,7.83c-.39.16-.83.1-1.04-.24-.27-.28-.26-.72.02-1.04l10.65-12.15c.11-.22.33-.27.55-.32.22,0,.44.06.6.23l4.88,4.31c.22.17.32.44.26.72ZM303.24,206.59l-15.47,7.83c-.39.16-.83.1-1.04-.24-.27-.28-.26-.72.02-1.04l10.65-12.15c.12-.22.34-.27.56-.32.22,0,.44.06.6.23l4.88,4.31c.22.17.32.44.26.72-.06.27-.23.49-.45.65ZM299.41,215.49c.49,0,.82.4.81.84l-.2,12.65c0,.49-.34.82-.84.81l-5.77-.09c-.44,0-.82-.34-.81-.84l.2-12.65c0-.44.4-.82.84-.81l5.77.09ZM333.25,204.6c0,.44-.34.82-.84.81l-5.28-.09-.41,25.13c0,.44-.4.82-.84.81l-15.45-.25c-.44,0-.82-.4-.81-.84,0-.44.4-.82.84-.81l8.8.14.39-24.3-12.76-.21c-.44,0-.82-.4-.81-.84,0-.49.4-.82.84-.81l25.51.41c.49,0,.82.34.81.84ZM307.96,190.44c0-.49.4-.82.84-.81l22.21.36c.5,0,.82.34.81.84,0,.44-.34.82-.84.81l-22.21-.36c-.44,0-.82-.4-.81-.84Z" style="fill:#fff100;"/><path d="M170.08,185.69l-18.25-.29-.1,6.16,15.89.26c.44,0,.82.4.81.84l-.52,32.28c0,.49-.4.82-.84.81l-9.18-.15c-.44,0-.82-.34-.81-.84,0-.44.4-.82.84-.81l4.12.07.5-30.63-10.83-.18-.48,29.86c0,.49-.4.82-.84.81l-4.45-.07c-.44,0-.82-.34-.81-.84l.48-29.86-10.83-.18-.51,31.45c0,.49-.34.82-.84.81l-4.23-.07c-.44,0-.82-.34-.81-.84l.52-32.28c0-.44.4-.82.84-.81l15.89.26.1-6.16-18.25-.3c-.44,0-.82-.4-.81-.84s.4-.82.84-.81l42.61.69c.44,0,.82.4.81.84,0,.44-.4.82-.84.81ZM140.01,208.47c2.03.03,3.6,1.71,3.57,3.74-.03,2.03-1.65,3.6-3.69,3.57-2.03-.03-3.6-1.65-3.57-3.69.03-2.03,1.65-3.66,3.69-3.63ZM140.07,204.84c-1.32-.02-2.35-1.14-2.32-2.46.02-1.32,1.08-2.35,2.4-2.32,1.32.02,2.35,1.08,2.33,2.4-.02,1.32-1.08,2.4-2.4,2.38ZM156.78,208.74c2.03.03,3.6,1.71,3.57,3.74-.03,2.03-1.65,3.6-3.69,3.57-2.03-.03-3.6-1.65-3.57-3.69.03-2.03,1.65-3.66,3.69-3.62ZM156.84,205.11c-1.32-.02-2.35-1.14-2.32-2.46.02-1.32,1.08-2.35,2.4-2.33,1.32.02,2.35,1.08,2.33,2.4s-1.08,2.4-2.4,2.38Z" style="fill:#0068b7;"/><path d="M221.82,187.13c0,.44-.34.82-.84.81l-40.85-.66c-.44,0-.82-.4-.81-.84,0-.44.4-.82.84-.81l40.85.66c.49,0,.82.4.81.84ZM199.41,202.5l-15.3,24.28c-.23.33-.67.48-1.05.26-.38-.17-.54-.61-.42-1l8.8-23.67-9.02-.14c-.44,0-.82-.34-.81-.84,0-.44.4-.82.84-.81l9.62.16,3.45-9.35c.17-.38.61-.6,1-.48l7.61,2.05c.27.06.49.28.6.51.05.22.05.49-.12.71l-4.18,6.7,17.98.29c.44,0,.82.4.81.84,0,.5-.4.82-.84.81l-18.97-.31ZM219.01,221.57c0,.28-.06.49-.23.66l-5.2,5.25c-.17.16-.45.27-.72.21-.27,0-.49-.17-.6-.45l-8.42-16.53c-.16-.33-.04-.77.24-1.04.33-.22.72-.21,1.04.02l13.62,11.33c.16.11.27.33.27.55Z" style="fill:#094;"/><path d="M233.21,200.73c1.87.03,3.33,1.54,3.3,3.41-.03,1.82-1.54,3.28-3.41,3.25-1.81-.03-3.27-1.54-3.25-3.35.03-1.87,1.54-3.33,3.35-3.3ZM242.72,194.12c-.04,2.69-2.28,4.86-4.97,4.81-2.75-.05-4.91-2.28-4.87-4.97.04-2.7,2.28-4.86,5.03-4.81,2.69.04,4.86,2.28,4.81,4.97ZM242.82,205.01l-3.69,17.26c-.06.22-.17.38-.39.54-.22.11-.44.1-.66.05l-6.41-1.86c-.27-.06-.49-.28-.54-.5-.11-.28-.1-.55.07-.77l10.15-15.34c.22-.33.67-.48.99-.31.38.17.6.56.48.94ZM275.26,209.39c0,.44-.34.82-.84.81l-19.3-.31-5.4,17.73c-.12.44-.56.65-1,.59-.38-.12-.71-.51-.65-.94l2.7-17.45-5-.08c-.49,0-.82-.4-.81-.84,0-.44.34-.82.84-.81l5.22.08,2.58-16.68-5.44-.09c-.44,0-.82-.4-.81-.84,0-.44.4-.82.84-.81l5.66.09.98-6.42c.06-.44.51-.76.95-.7l6.31.98c.22,0,.44.17.54.39.11.17.16.44.1.66l-1.57,5.2,10.72.17c.5,0,.82.4.81.84l-.28,17.54,2.03.03c.5,0,.82.4.81.84ZM265.48,208.41l.27-16.72-5.11-.08-5.05,16.64,9.9.16ZM272.17,223.36l-4.14,4.17c-.17.16-.39.27-.66.21-.28,0-.49-.17-.6-.34l-7.72-12.5c-.22-.33-.15-.77.13-1.04.28-.27.72-.32,1.05-.09l11.8,8.33c.22.17.32.39.38.61,0,.22-.06.49-.23.66Z" style="fill:#0068b7;"/><path d="M301.36,191c-.06.27-.23.49-.45.65l-15.47,7.83c-.39.16-.83.1-1.04-.24-.27-.28-.26-.72.02-1.04l10.65-12.15c.11-.22.33-.27.55-.32.22,0,.44.06.6.23l4.88,4.31c.22.17.32.44.26.72ZM300.72,203.48l-15.47,7.83c-.39.16-.83.1-1.04-.24-.27-.28-.26-.72.02-1.04l10.65-12.15c.12-.22.34-.27.56-.32.22,0,.44.06.6.23l4.88,4.31c.22.17.32.45.26.72-.06.27-.23.49-.45.65ZM296.89,212.38c.49,0,.82.4.81.84l-.2,12.65c0,.49-.34.82-.84.81l-5.77-.09c-.44,0-.82-.34-.81-.84l.2-12.65c0-.44.4-.82.84-.81l5.77.09ZM330.72,201.49c0,.44-.34.82-.84.81l-5.28-.09-.41,25.13c0,.44-.4.82-.84.81l-15.45-.25c-.44,0-.82-.4-.81-.84,0-.44.4-.82.84-.81l8.8.14.39-24.3-12.76-.21c-.44,0-.82-.4-.81-.84,0-.5.4-.82.84-.81l25.51.41c.49,0,.82.34.81.84ZM305.43,187.33c0-.49.4-.82.84-.81l22.21.36c.49,0,.82.34.81.84,0,.44-.34.82-.84.81l-22.21-.36c-.44,0-.82-.4-.81-.84Z" style="fill:#094;"/><path d="M170.12,52.4l19.42.06v3.77s-37.54-.11-37.54-.11v-3.77s31.45-39.03,31.45-39.03c-2.37-2.69-6.32-4.11-11.83-4.13-9.59-.03-14.42,4.37-14.57,13l-4.2.05c.08-5.63,1.91-9.9,5.43-12.83,3.27-2.68,7.72-4.01,13.36-3.99,5.26.02,9.58,1.18,12.96,3.62,3.81,2.76,5.74,6.73,5.73,11.91,0,2.69-.52,5.18-1.59,7.35-.88,1.79-2.27,3.89-4.15,6.25l-14.46,17.86Z" style="fill:#fff100;"/><path d="M212.79,52.14c-4.87-4.43-7.3-11.4-7.27-20.99.02-7.48,1.54-13.49,4.63-17.89,3.53-5.17,8.86-7.71,15.87-7.69,5.33.02,9.71,1.56,13.08,4.64,4.87,4.36,7.3,11.4,7.27,21.06-.03,9.59-2.49,16.55-7.39,20.95-3.46,3.12-7.78,4.64-13.11,4.63-5.26-.02-9.58-1.56-13.08-4.71ZM212.99,46.26c2.74,4.55,7.06,6.8,12.89,6.82s10.16-2.21,12.93-6.8c2.27-3.7,3.41-8.68,3.43-15.01.02-6.33-1.09-11.38-3.34-15.1-2.74-4.61-7.06-6.86-12.89-6.88s-10.16,2.21-12.93,6.8c-2.27,3.7-3.41,8.75-3.43,15.08s1.09,11.38,3.34,15.1Z" style="fill:#fff100;"/><path d="M279.14,52.72l19.42.06v3.77s-37.54-.11-37.54-.11v-3.77s31.45-39.03,31.45-39.03c-2.37-2.69-6.32-4.11-11.83-4.13-9.59-.03-14.42,4.37-14.57,13l-4.2.05c.08-5.63,1.91-9.9,5.43-12.83,3.27-2.68,7.72-4.01,13.36-3.99,5.26.01,9.58,1.18,12.96,3.62,3.81,2.76,5.74,6.73,5.73,11.91,0,2.69-.52,5.18-1.59,7.35-.88,1.79-2.27,3.89-4.15,6.25l-14.46,17.86Z" style="fill:#fff100;"/><path d="M347.45,27.35c3.81,3.08,5.81,7.3,5.79,12.8-.02,5.5-2.03,9.77-5.99,12.83-3.58,2.74-8.09,4.13-13.67,4.12-5.58-.02-10.15-1.44-13.71-4.13-3.94-3.08-5.87-7.37-5.85-12.93,0-2.05.58-4.79,1.78-8.24l8.79-25.42,14.97.04-5.69,16.67c5.58.08,10.08,1.5,13.58,4.26ZM344.43,50.23c3.14-2.29,4.65-5.68,4.67-10.09.01-4.35-1.48-7.74-4.61-10.11-2.75-2.18-6.38-3.22-10.83-3.23-.12,0-.5,0-1.07.06l-8.34,24.33c2.56,1.41,5.63,2.19,9.33,2.2,4.45.01,8.09-1.06,10.85-3.16Z" style="fill:#fff100;"/><path d="M424.3,44.19l-17.84-.05-.04,15.24-11.14-.03.04-15.24-25.42-.07v-3.09s6.94.02,6.94.02l.05-16.81,18.49.05.03-10.89-12.98-.04c-2.5,4.59-6.01,9.17-10.59,13.82l-2.13-2.18c6.48-6.69,11.18-13.94,13.93-21.79l2.84,1.04c-.72,2.18-1.55,4.17-2.45,6.04l38.11.11v3.09s-15.6-.05-15.6-.05l-.03,10.89,13.87.04v3.08s-13.88-.04-13.88-.04l-.04,13.73,17.84.05v3.09ZM395.33,41.02l.04-13.73-8.18-.02-.04,13.73,8.18.02Z" style="fill:#fff100;"/><path d="M177.78,108.36c-.01,5.05-2.03,8.82-6.17,11.3-3.39,2.16-7.78,3.17-12.98,3.16-5.51-.02-9.83-1.12-13.08-3.43-3.69-2.63-5.62-6.67-5.6-12.04h4.13c.04,7.75,4.85,11.66,14.56,11.69,4.07.01,7.4-.74,10.03-2.21,3.26-1.84,4.9-4.65,4.91-8.49.02-6.84-4.73-10.18-14.19-10.21l-4.95-.02v-3.71s5.4.02,5.4.02c8.71.03,13.04-3.09,13.06-9.3.01-3.58-1.55-6.14-4.49-7.81-2.44-1.35-5.44-2-9.2-2.01-9.08-.03-13.86,3.47-14.06,10.44l-4.14.05c.14-5.05,2.03-8.75,5.73-11.17,3.14-2.1,7.28-3.11,12.48-3.1,4.89.01,8.96.99,12.08,3.04,3.88,2.44,5.75,5.9,5.73,10.57-.02,5.69-2.66,9.33-7.86,11.1,1.88.58,3.32,1.35,4.5,2.44,2.69,2.5,4.12,5.7,4.11,9.67Z" style="fill:#fff100; stroke:#fff100; stroke-miterlimit:10; stroke-width:.7px;"/><path d="M237.52,124.87c-9.54-.03-15.94-.17-19.02-.42l.25-3.08c3.14.25,5.57.32,7.29.32l.05-17.3-24-.07c-.55,5.26-1.75,9.79-3.65,13.6-1.49,2.96-3.16,5.37-4.94,7.18l-.06.06-2.25-2.06c2.5-3.02,4.23-5.73,5.3-8.27,1.91-4.47,2.87-10.09,2.89-16.75l.08-26.61,38.22.11-.16,53.29ZM226.17,74.63l-23.71-.07-.04,11.67,23.71.07.04-11.67ZM226.09,101.3l.04-11.92-23.71-.07-.03,8.77c0,1.03,0,2.12-.07,3.15l23.77.07Z" style="fill:#fff100;"/><path d="M273.41,118.87l19.42.06v3.77s-37.54-.11-37.54-.11v-3.77s31.45-39.03,31.45-39.03c-2.37-2.69-6.32-4.11-11.83-4.13-9.59-.03-14.42,4.37-14.57,13l-4.2.05c.08-5.63,1.91-9.9,5.43-12.83,3.27-2.68,7.72-4.01,13.36-3.99,5.26.02,9.58,1.18,12.96,3.62,3.82,2.76,5.75,6.73,5.73,11.91,0,2.69-.52,5.18-1.59,7.35-.88,1.79-2.27,3.89-4.15,6.25l-14.46,17.86Z" style="fill:#fff100;"/><path d="M326.6,122.8l-14.22-.04.14-46.48-7.52-.02v-3.77s21.75.06,21.75.06l-.15,50.25Z" style="fill:#fff100;"/><path d="M390.12,123.38l-42.97-.13.15-50.08,42.97.13-.15,50.08ZM379.41,76.48l-21.34-.06-.06,19.54,21.34.06.06-19.54ZM357.95,120.08l21.34.06.06-20.93-21.34-.06-.06,20.93Z" style="fill:#fff100;"/><rect x="401.65" y="72.92" width="50.17" height="50.17" rx="25.09" ry="25.09" transform="translate(.29 -1.27) rotate(.17)" style="fill:#fff100;"/><path d="M442.81,109.52v1.91s-32.55-.1-32.55-.1v-1.91s12.64.04,12.64.04l.05-17.24-10.62-.03v-1.91s10.62.03,10.62.03l.03-10.58,7.16.02-.03,10.58,10.73.03v1.91s-10.73-.03-10.73-.03l-.05,17.24,12.74.04Z" style="fill:#fff100;"/><path d="M76.25,171.61l-9.76-.03.09-31.26-5.16-.02v-2.54s14.93.04,14.93.04l-.1,33.8Z" style="fill:#fff100;"/><path d="M98.24,169.14l13.33.04v2.54s-25.76-.08-25.76-.08v-2.54s21.59-26.25,21.59-26.25c-1.63-1.81-4.33-2.77-8.12-2.78-6.58-.02-9.9,2.94-10,8.74l-2.88.03c.05-3.78,1.31-6.66,3.72-8.63,2.24-1.8,5.3-2.69,9.17-2.68,3.61.01,6.58.79,8.89,2.43,2.62,1.86,3.94,4.53,3.93,8.01,0,1.81-.35,3.48-1.09,4.94-.61,1.2-1.56,2.62-2.85,4.21l-9.93,12.01Z" style="fill:#fff100;"/><path d="M128.76,142.47l-.02,5.59-5.46-.02.02-5.59,5.46.02ZM128.7,162.16l-.02,5.59-5.46-.02.02-5.59,5.46.02Z" style="fill:#fff100;"/><path d="M144.25,169.02c-3.34-2.98-5.01-7.67-4.99-14.12.02-5.03,1.06-9.07,3.17-12.03,2.42-3.48,6.08-5.18,10.89-5.17,3.65.01,6.66,1.05,8.98,3.12,3.34,2.93,5.01,7.67,4.99,14.16-.02,6.45-1.71,11.13-5.07,14.09-2.37,2.1-5.34,3.12-9,3.11-3.61-.01-6.58-1.05-8.98-3.17ZM144.39,165.07c1.88,3.06,4.85,4.57,8.84,4.58,4,.01,6.97-1.48,8.87-4.57,1.55-2.49,2.34-5.84,2.35-10.1.01-4.26-.75-7.66-2.29-10.15-1.88-3.1-4.84-4.62-8.84-4.63-4-.01-6.97,1.48-8.87,4.57-1.56,2.49-2.34,5.88-2.35,10.14-.01,4.26.75,7.66,2.29,10.16Z" style="fill:#fff100; stroke:#fff100;"/><path d="M182.95,169.13c-3.34-2.98-5.01-7.67-4.99-14.12.01-5.03,1.06-9.07,3.17-12.03,2.42-3.47,6.08-5.18,10.89-5.17,3.65.01,6.66,1.05,8.98,3.12,3.35,2.93,5.01,7.67,4.99,14.16-.02,6.45-1.71,11.13-5.07,14.09-2.37,2.1-5.34,3.12-9,3.11-3.61-.01-6.58-1.05-8.98-3.17ZM183.09,165.18c1.88,3.06,4.85,4.57,8.84,4.58,4,.01,6.97-1.48,8.87-4.57,1.55-2.49,2.34-5.84,2.35-10.1.01-4.26-.75-7.66-2.29-10.15-1.88-3.1-4.85-4.62-8.84-4.63-4-.01-6.97,1.48-8.87,4.57-1.56,2.49-2.34,5.88-2.35,10.14-.01,4.26.75,7.66,2.29,10.15Z" style="fill:#fff100; stroke:#fff100;"/><path d="M219.67,152.9l17.72.05v3.27s-17.73-.05-17.73-.05v-3.27Z" style="fill:#fff100;"/><path d="M264.98,172.17l-9.76-.03.09-31.26-5.16-.02v-2.54s14.93.04,14.93.04l-.1,33.8Z" style="fill:#fff100;"/><path d="M302.59,163.04c-.01,3.31-1.48,5.84-4.45,7.51-2.41,1.33-5.42,2-8.99,1.99-3.65-.01-6.62-.71-9.02-2.05-2.92-1.64-4.42-4.18-4.41-7.54.01-3.91,2.17-6.7,6.43-8.37-1.37-.61-2.36-1.17-2.92-1.69-1.72-1.55-2.61-3.58-2.61-5.94,0-3.1,1.39-5.46,4.19-7,2.2-1.28,5.04-1.88,8.39-1.87s6.19.62,8.42,1.92c2.79,1.6,4.16,3.92,4.15,7.02,0,2.36-.92,4.34-2.64,5.88-.6.56-1.64,1.11-2.93,1.71,1.5.56,2.71,1.25,3.56,2.03,1.89,1.68,2.83,3.79,2.82,6.37ZM282.76,152.15c1.68.82,3.78,1.26,6.4,1.27,2.62,0,4.73-.42,6.45-1.23,2.2-1.07,3.32-2.83,3.33-5.15,0-2.32-1.11-4.05-3.34-5.13-1.68-.82-3.78-1.26-6.4-1.27-2.58,0-4.69.42-6.41,1.23-2.2,1.07-3.32,2.79-3.33,5.11,0,2.32,1.11,4.09,3.3,5.17ZM296.12,168.65c2.41-1.24,3.62-3.13,3.63-5.62,0-2.58-1.15-4.48-3.55-5.69-1.85-.95-4.21-1.43-7-1.44-2.79,0-5.16.46-7.06,1.4-2.41,1.2-3.58,3.08-3.59,5.66,0,2.54,1.19,4.43,3.6,5.69,1.85.91,4.21,1.39,7,1.4,2.8,0,5.12-.46,6.97-1.4Z" style="fill:#fff100; stroke:#fff100;"/><path d="M319.21,143.04l-.02,5.59-5.46-.02.02-5.59,5.46.02ZM319.15,162.73l-.02,5.59-5.46-.02.02-5.59,5.46.02Z" style="fill:#fff100;"/><path d="M336.41,169.59c-3.34-2.98-5.01-7.67-4.99-14.12.02-5.03,1.06-9.07,3.17-12.03,2.42-3.48,6.08-5.18,10.89-5.17,3.66.01,6.66,1.05,8.98,3.12,3.34,2.93,5.01,7.67,4.99,14.16-.02,6.45-1.71,11.13-5.07,14.09-2.37,2.1-5.34,3.12-9,3.11-3.61-.01-6.58-1.05-8.98-3.17ZM336.55,165.64c1.88,3.06,4.85,4.57,8.84,4.58,4,.01,6.97-1.48,8.87-4.57,1.55-2.49,2.34-5.84,2.35-10.1.01-4.26-.75-7.66-2.29-10.15-1.88-3.1-4.84-4.62-8.84-4.63-4-.01-6.97,1.48-8.87,4.57-1.55,2.49-2.34,5.88-2.35,10.14-.01,4.26.75,7.66,2.29,10.15Z" style="fill:#fff100; stroke:#fff100;"/><path d="M375.11,169.71c-3.34-2.98-5.01-7.67-4.99-14.12.02-5.03,1.06-9.07,3.17-12.03,2.42-3.48,6.08-5.18,10.89-5.17,3.65.01,6.66,1.05,8.98,3.12,3.34,2.93,5.01,7.67,4.99,14.16-.02,6.45-1.71,11.13-5.07,14.09-2.37,2.1-5.34,3.12-9,3.11-3.61-.01-6.58-1.05-8.98-3.17ZM375.25,165.75c1.88,3.06,4.85,4.57,8.84,4.58,4,.01,6.97-1.48,8.87-4.58,1.55-2.49,2.34-5.84,2.35-10.1.01-4.26-.75-7.66-2.29-10.15-1.88-3.1-4.84-4.61-8.84-4.63-4-.01-6.97,1.48-8.87,4.57-1.56,2.49-2.34,5.88-2.35,10.14-.01,4.26.75,7.66,2.29,10.16Z" style="fill:#fff100; stroke:#fff100;"/><path d="M73.74,168.49l-9.76-.03.09-31.26-5.16-.02v-2.54s14.93.04,14.93.04l-.1,33.8Z" style="fill:#094;"/><path d="M95.72,166.02l13.33.04v2.54s-25.76-.08-25.76-.08v-2.54s21.59-26.25,21.59-26.25c-1.63-1.81-4.33-2.77-8.12-2.78-6.58-.02-9.9,2.94-10,8.74l-2.88.03c.05-3.78,1.31-6.66,3.72-8.63,2.24-1.8,5.3-2.69,9.17-2.68,3.61.01,6.58.79,8.89,2.43,2.62,1.86,3.94,4.53,3.93,8.01,0,1.81-.35,3.48-1.09,4.94-.61,1.2-1.56,2.62-2.85,4.21l-9.93,12.01Z" style="fill:#094;"/><path d="M126.24,139.35l-.02,5.59-5.46-.02.02-5.59,5.46.02ZM126.19,159.04l-.02,5.59-5.46-.02.02-5.59,5.46.02Z" style="fill:#094;"/><path d="M141.73,165.9c-3.34-2.98-5.01-7.67-4.99-14.12.02-5.03,1.06-9.07,3.17-12.03,2.42-3.48,6.08-5.18,10.89-5.17,3.65.01,6.66,1.05,8.98,3.12,3.34,2.93,5.01,7.67,4.99,14.16-.02,6.45-1.71,11.13-5.07,14.09-2.37,2.1-5.34,3.12-9,3.11-3.61-.01-6.58-1.05-8.98-3.17ZM141.87,161.94c1.88,3.06,4.85,4.57,8.84,4.58,4,.01,6.97-1.48,8.87-4.57,1.55-2.49,2.34-5.84,2.35-10.1.01-4.26-.75-7.66-2.29-10.15-1.88-3.1-4.84-4.62-8.84-4.63s-6.97,1.48-8.87,4.57c-1.56,2.49-2.34,5.88-2.35,10.14-.01,4.26.75,7.66,2.29,10.16Z" style="fill:#094; stroke:#094;"/><path d="M180.43,166.01c-3.34-2.98-5.01-7.67-4.99-14.12.01-5.03,1.06-9.07,3.17-12.03,2.42-3.47,6.08-5.18,10.89-5.17,3.65.01,6.66,1.05,8.98,3.12,3.35,2.93,5.01,7.67,4.99,14.16-.02,6.45-1.71,11.13-5.07,14.09-2.37,2.1-5.34,3.12-9,3.11-3.61-.01-6.58-1.05-8.98-3.17ZM180.57,162.06c1.88,3.06,4.85,4.57,8.84,4.58,4,.01,6.97-1.48,8.87-4.57,1.55-2.49,2.34-5.84,2.35-10.1.01-4.26-.75-7.66-2.29-10.15-1.88-3.1-4.85-4.62-8.84-4.63-4-.01-6.97,1.48-8.87,4.57-1.56,2.49-2.34,5.88-2.35,10.14-.01,4.26.75,7.66,2.29,10.15Z" style="fill:#094; stroke:#094;"/><path d="M217.16,149.78l17.72.05v3.27s-17.73-.05-17.73-.05v-3.27Z" style="fill:#094;"/><path d="M262.47,169.05l-9.76-.03.09-31.26-5.16-.02v-2.54s14.93.04,14.93.04l-.1,33.8Z" style="fill:#094;"/><path d="M300.08,159.92c-.01,3.31-1.48,5.84-4.45,7.51-2.41,1.33-5.42,2-8.99,1.99-3.65-.01-6.62-.71-9.02-2.05-2.92-1.64-4.42-4.18-4.41-7.54.01-3.91,2.17-6.7,6.43-8.37-1.37-.61-2.36-1.17-2.92-1.69-1.72-1.55-2.61-3.58-2.61-5.94,0-3.1,1.39-5.46,4.19-7,2.2-1.28,5.04-1.88,8.39-1.87s6.19.62,8.42,1.92c2.79,1.6,4.16,3.92,4.15,7.02,0,2.36-.92,4.34-2.64,5.88-.6.56-1.64,1.11-2.93,1.71,1.5.56,2.71,1.25,3.56,2.03,1.89,1.68,2.83,3.79,2.82,6.37ZM280.24,149.02c1.68.82,3.78,1.26,6.4,1.27,2.62,0,4.73-.42,6.45-1.23,2.2-1.07,3.32-2.83,3.33-5.15,0-2.32-1.11-4.05-3.34-5.13-1.68-.82-3.78-1.26-6.4-1.27-2.58,0-4.69.42-6.41,1.23-2.2,1.07-3.32,2.79-3.33,5.11,0,2.32,1.11,4.09,3.3,5.17ZM293.61,165.53c2.41-1.24,3.62-3.13,3.63-5.62,0-2.58-1.15-4.48-3.55-5.69-1.85-.95-4.21-1.43-7-1.44-2.79,0-5.16.46-7.06,1.4-2.41,1.2-3.58,3.08-3.59,5.66,0,2.54,1.19,4.43,3.6,5.69,1.85.91,4.21,1.39,7,1.4,2.8,0,5.12-.46,6.97-1.4Z" style="fill:#094; stroke:#094;"/><path d="M316.69,139.91l-.02,5.59-5.46-.02.02-5.59,5.46.02ZM316.63,159.61l-.02,5.59-5.46-.02.02-5.59,5.46.02Z" style="fill:#094;"/><path d="M333.9,166.47c-3.34-2.98-5.01-7.67-4.99-14.12.02-5.03,1.06-9.07,3.17-12.03,2.42-3.48,6.08-5.18,10.89-5.17,3.66.01,6.66,1.05,8.98,3.12,3.34,2.93,5.01,7.67,4.99,14.16-.02,6.45-1.71,11.13-5.07,14.09-2.37,2.1-5.34,3.12-9,3.11-3.61-.01-6.58-1.05-8.98-3.17ZM334.04,162.51c1.88,3.06,4.85,4.57,8.84,4.58,4,.01,6.97-1.48,8.87-4.57,1.55-2.49,2.34-5.84,2.35-10.1.01-4.26-.75-7.66-2.29-10.15-1.88-3.1-4.84-4.62-8.84-4.63-4-.01-6.97,1.48-8.87,4.57-1.55,2.49-2.34,5.88-2.35,10.14-.01,4.26.75,7.66,2.29,10.15Z" style="fill:#094; stroke:#094;"/><path d="M372.6,166.58c-3.34-2.98-5.01-7.67-4.99-14.12.02-5.03,1.06-9.07,3.17-12.03,2.42-3.48,6.08-5.18,10.89-5.17,3.65.01,6.66,1.05,8.98,3.12,3.34,2.93,5.01,7.67,4.99,14.16-.02,6.45-1.71,11.13-5.07,14.09-2.37,2.1-5.34,3.12-9,3.11-3.61-.01-6.58-1.05-8.98-3.17ZM372.74,162.63c1.88,3.06,4.85,4.57,8.84,4.58,4,.01,6.97-1.48,8.87-4.58,1.55-2.49,2.34-5.84,2.35-10.1.01-4.26-.75-7.66-2.29-10.15-1.88-3.1-4.84-4.61-8.84-4.63-4-.01-6.97,1.48-8.87,4.57-1.56,2.49-2.34,5.88-2.35,10.14-.01,4.26.75,7.66,2.29,10.16Z" style="fill:#094; stroke:#094;"/><rect x=".18" y="2.46" width="120.93" height="120.93" transform="translate(.19 -.18) rotate(.17)" style="fill:#0068b7;"/><path d="M20.91,29.67l-.09,29.54-8-.02.13-45.34,19.78.06-.05,15.8-11.77-.04ZM30.25,16.37l-9.3-.03v4.08s9.28.03,9.28.03v-4.08ZM30.23,22.93l-9.29-.03v4.23s9.28.03,9.28.03v-4.23ZM43.12,45.9l-.04,12.6-7.54-.02.04-12.6-5.37-.02c-.27,4.9-1.78,9.03-4.58,12.43l-1.96-1.61c2.44-2.89,3.84-6.55,4.06-10.83h-5.06s0-2.49,0-2.49h5.11s.02-6.54.02-6.54h-4.23s0-2.49,0-2.49l22.98.07v2.48s-3.42,0-3.42,0l-.02,6.56h4.29s0,2.49,0,2.49h-4.29ZM35.61,36.84l-5.32-.02-.02,6.56,5.32.02.02-6.56ZM45.56,58.97l.16-2.53c1.65.11,2.84.22,3.51.22l.08-26.9-12.14-.04.05-15.8,20.14.06-.14,45.29c-4.29-.01-8.21-.13-11.67-.29ZM49.36,16.43l-9.66-.03v4.08s9.65.03,9.65.03v-4.08ZM49.34,22.99l-9.66-.03v4.23s9.65.03,9.65.03v-4.23Z" style="fill:#fff100;"/><path d="M70.55,27.39h4.44s-.09,31.98-.09,31.98l-8.26-.02.07-25.35c-.83,1.29-1.87,2.73-2.9,4.28l-1.8-1.81c5.7-8.14,9.65-16.29,11.9-24.34l2.37.63c-1.36,5.16-3.33,10.01-5.72,14.65ZM109.86,56.11v2.53s-28.98-.09-28.98-.09l.06-20.04c-1.5,1.96-2.64,3.45-3.53,4.43l-1.8-1.86c4.56-5,7.83-10.25,9.81-15.88l2.32.83c-.47,1.34-1.14,2.84-2.03,4.64l10.43.03c1.14-1.8,2.08-3.51,2.8-5.1l2.37.94c-.88,1.81-1.66,3.2-2.23,4.18l10.07.03v2.53s-5.79-.02-5.79-.02l-.02,5.99,5.06.02v2.48s-5.07-.02-5.07-.02l-.02,5.78,5.06.02v2.53s-5.07-.02-5.07-.02l-.02,6.04,6.56.02ZM78.97,24.68l.03-10.28h2.63s-.02,7.75-.02,7.75l7.8.02.03-10.02,8.52.03-.03,10.02,8.11.02.02-7.75h2.63s-.03,10.28-.03,10.28l-29.69-.09ZM95.37,33.25l-6.15-.02-.02,5.99,6.15.02.02-5.99ZM95.34,41.71l-6.15-.02-.02,5.78,6.14.02.02-5.78ZM95.32,50.03l-6.14-.02-.02,6.04,6.14.02.02-6.04Z" style="fill:#fff;"/><path d="M53.61,113.07l-37.44-.11.13-42.76,37.44.11-.13,42.76ZM44.28,73.02l-18.59-.06-.05,16.68,18.59.06.05-16.68ZM25.58,110.25l18.59.06.05-17.87-18.59-.06-.05,17.87Z" style="fill:#fff;"/><path d="M80.39,69.56l-.12,39.56-15.7-.05.12-39.56,15.7.05ZM73,72.02l-.05,15.7h4.85s.05-15.68.05-15.68h-4.85ZM72.89,106.57h4.85s.05-16.36.05-16.36l-4.85-.02-.05,16.37ZM106.36,86.84l-.02,7.02h3.56s0,2.49,0,2.49h-3.56s-.05,18.63-.05,18.63c-6.66-.02-11.46-.09-14.36-.25l.11-2.53c1.7.11,3.51.17,5.47.17l.05-16.06-15.18-.05v-2.48s15.19.05,15.19.05l.02-7.02-15.6-.05v-2.48s9.77.03,9.77.03l.03-8.47-8-.02v-2.53s8.01.02,8.01.02l.02-5.63,8.78.03-.02,5.63,7.64.02v2.53s-7.65-.02-7.65-.02l-.03,8.47,9.71.03v2.48s-3.88-.01-3.88-.01ZM93.29,107.76l-2.38,1.13c-1.18-2.59-3.08-5.59-5.6-9.05l2.17-1.59c2.62,3.62,4.52,6.83,5.81,9.52Z" style="fill:#fff100;"/><path d="M167.6,49.27l19.42.06v3.77s-37.54-.11-37.54-.11v-3.77s31.45-39.03,31.45-39.03c-2.37-2.69-6.32-4.11-11.83-4.13-9.59-.03-14.42,4.37-14.57,13l-4.2.05c.08-5.63,1.91-9.9,5.43-12.83,3.27-2.68,7.72-4.01,13.36-3.99,5.26.02,9.58,1.18,12.96,3.62,3.81,2.76,5.74,6.73,5.73,11.91,0,2.69-.52,5.18-1.59,7.35-.88,1.79-2.27,3.89-4.15,6.25l-14.46,17.86Z" style="fill:#0068b7;"/><path d="M210.27,49.02c-4.87-4.43-7.3-11.4-7.27-20.99.02-7.48,1.54-13.49,4.63-17.89,3.53-5.17,8.86-7.71,15.87-7.69,5.33.02,9.71,1.56,13.08,4.64,4.87,4.36,7.3,11.4,7.27,21.06-.03,9.59-2.49,16.55-7.39,20.95-3.46,3.12-7.78,4.64-13.11,4.63-5.26-.02-9.58-1.56-13.08-4.71ZM210.48,43.13c2.74,4.55,7.06,6.8,12.89,6.82s10.16-2.21,12.93-6.8c2.27-3.7,3.41-8.68,3.43-15.01.02-6.33-1.09-11.38-3.34-15.1-2.74-4.61-7.06-6.86-12.89-6.88s-10.16,2.21-12.93,6.8c-2.27,3.7-3.41,8.75-3.43,15.08s1.09,11.38,3.34,15.1Z" style="fill:#0068b7;"/><path d="M276.62,49.6l19.42.06v3.77s-37.54-.11-37.54-.11v-3.77s31.45-39.03,31.45-39.03c-2.37-2.69-6.32-4.11-11.83-4.13-9.59-.03-14.42,4.37-14.57,13l-4.2.05c.08-5.63,1.91-9.9,5.43-12.83,3.27-2.68,7.72-4.01,13.36-3.99,5.26.01,9.58,1.18,12.96,3.62,3.81,2.76,5.74,6.73,5.73,11.91,0,2.69-.52,5.18-1.59,7.35-.88,1.79-2.27,3.89-4.15,6.25l-14.46,17.86Z" style="fill:#0068b7;"/><path d="M344.93,24.23c3.81,3.08,5.81,7.3,5.79,12.8-.02,5.5-2.03,9.77-5.99,12.83-3.58,2.74-8.09,4.13-13.67,4.12-5.58-.02-10.15-1.44-13.71-4.13-3.94-3.08-5.87-7.37-5.85-12.93,0-2.05.58-4.79,1.78-8.24l8.79-25.42,14.97.04-5.69,16.67c5.58.08,10.08,1.5,13.58,4.26ZM341.92,47.11c3.14-2.29,4.65-5.68,4.67-10.09.01-4.35-1.48-7.74-4.61-10.11-2.75-2.18-6.38-3.22-10.83-3.23-.12,0-.5,0-1.07.06l-8.34,24.33c2.56,1.41,5.63,2.19,9.33,2.2,4.45.01,8.09-1.06,10.85-3.16Z" style="fill:#0068b7;"/><path d="M421.79,41.07l-17.84-.05-.04,15.24-11.14-.03.04-15.24-25.42-.07v-3.09s6.94.02,6.94.02l.05-16.81,18.49.05.03-10.89-12.98-.04c-2.5,4.59-6.01,9.17-10.59,13.82l-2.13-2.18c6.48-6.69,11.18-13.94,13.93-21.79l2.84,1.04c-.72,2.18-1.55,4.17-2.45,6.04l38.11.11v3.09s-15.6-.05-15.6-.05l-.03,10.89,13.87.04v3.08s-13.88-.04-13.88-.04l-.04,13.73,17.84.05v3.09ZM392.82,37.9l.04-13.73-8.18-.02-.04,13.73,8.18.02Z" style="fill:#094;"/><path d="M175.26,105.23c-.01,5.05-2.03,8.82-6.17,11.3-3.39,2.16-7.78,3.17-12.98,3.16-5.51-.02-9.83-1.12-13.08-3.43-3.69-2.63-5.62-6.67-5.6-12.04h4.13c.04,7.75,4.85,11.66,14.56,11.69,4.07.01,7.4-.74,10.03-2.21,3.26-1.84,4.9-4.65,4.91-8.49.02-6.84-4.73-10.18-14.19-10.21l-4.95-.02v-3.71s5.4.02,5.4.02c8.71.03,13.04-3.09,13.06-9.3.01-3.58-1.55-6.14-4.49-7.81-2.44-1.35-5.44-2-9.2-2.01-9.08-.03-13.86,3.47-14.06,10.44l-4.14.05c.14-5.05,2.03-8.75,5.73-11.17,3.14-2.1,7.28-3.11,12.48-3.1,4.89.01,8.96.99,12.08,3.04,3.88,2.44,5.75,5.9,5.73,10.57-.02,5.69-2.66,9.33-7.86,11.1,1.88.58,3.32,1.35,4.5,2.44,2.69,2.5,4.12,5.7,4.11,9.67Z" style="fill:#0068b7; stroke:#0068b7; stroke-miterlimit:10; stroke-width:.7px;"/><path d="M235,121.74c-9.54-.03-15.94-.17-19.02-.42l.25-3.08c3.14.25,5.57.32,7.29.32l.05-17.3-24-.07c-.55,5.26-1.75,9.79-3.65,13.6-1.49,2.96-3.16,5.37-4.94,7.18l-.06.06-2.25-2.06c2.5-3.02,4.23-5.73,5.3-8.27,1.91-4.47,2.87-10.09,2.89-16.75l.08-26.61,38.22.11-.16,53.29ZM223.65,71.51l-23.71-.07-.04,11.67,23.71.07.04-11.67ZM223.57,98.18l.04-11.92-23.71-.07-.03,8.77c0,1.03,0,2.12-.07,3.15l23.77.07Z" style="fill:#094;"/><path d="M270.9,115.75l19.42.06v3.77s-37.54-.11-37.54-.11v-3.77s31.45-39.03,31.45-39.03c-2.37-2.69-6.32-4.11-11.83-4.13-9.59-.03-14.42,4.37-14.57,13l-4.2.05c.08-5.63,1.91-9.9,5.43-12.83,3.27-2.68,7.72-4.01,13.36-3.99,5.26.02,9.58,1.18,12.96,3.62,3.82,2.76,5.75,6.73,5.73,11.91,0,2.69-.52,5.18-1.59,7.35-.88,1.79-2.27,3.89-4.15,6.25l-14.46,17.86Z" style="fill:#0068b7;"/><path d="M324.08,119.68l-14.22-.04.14-46.48-7.52-.02v-3.77s21.75.06,21.75.06l-.15,50.25Z" style="fill:#0068b7;"/><path d="M387.6,120.26l-42.97-.13.15-50.08,42.97.13-.15,50.08ZM376.9,73.35l-21.34-.06-.06,19.54,21.34.06.06-19.54ZM355.43,116.96l21.34.06.06-20.93-21.34-.06-.06,20.93Z" style="fill:#094;"/><rect x="399.14" y="69.8" width="50.17" height="50.17" rx="25.09" ry="25.09" transform="translate(.28 -1.26) rotate(.17)" style="fill:#0068b7;"/><path d="M440.3,106.4v1.91s-32.55-.1-32.55-.1v-1.91s12.64.04,12.64.04l.05-17.24-10.62-.03v-1.91s10.62.03,10.62.03l.03-10.58,7.16.02-.03,10.58,10.73.03v1.91s-10.73-.03-10.73-.03l-.05,17.24,12.74.04Z" style="fill:#fff;"/></g></svg>