<?xml version="1.0" encoding="UTF-8"?><svg id="_レイヤー_2" xmlns="http://www.w3.org/2000/svg" viewBox="0 0 425.2 425.2"><g id="_レイヤー_1-2"><rect width="425.2" height="425.2" style="fill:none;"/><path d="M381.33,295.09c4.21,23.13,6.81,56.09-4.6,76.29-10.46,18.53-26.5,24.86-54.86,24.86s-44.4-6.33-54.86-24.86c-11.41-20.2-8.8-53.16-4.6-76.29" style="fill:none; stroke:#231815; stroke-linecap:round; stroke-linejoin:round; stroke-width:10px;"/><ellipse cx="321.78" cy="295.09" rx="59.14" ry="20.77" style="fill:none; stroke:#231815; stroke-linecap:round; stroke-linejoin:round; stroke-width:10px;"/><ellipse cx="133.22" cy="41.64" rx="59.14" ry="20.77" style="fill:none; stroke:#231815; stroke-linecap:round; stroke-linejoin:round; stroke-width:10px;"/><path d="M212.38,286.18c-1.48,9.94-2.86,20.05-4.34,29.98-.25,1.68-.52,3.41-1.37,4.88-1.07,1.85-2.8,3.38-4.79,4.14-20.54,7.88-44.36,13-63.25,13-24.25,0-53.5-3-74.9-13.59-1.06-.52-2.09-1.18-2.77-2.15-.71-1.01-.91-2.29-1.09-3.51-1.68-11.37-2.81-20.32-3.75-31.75,21.75,13.25,47.1,17.77,73,18,13.7.12,30.71-1.43,44.25-3.5,10.87-1.66,38.2-10.14,39-15.5Z" style="fill:#2d3a81;"/><path d="M192.42,44.96c-9.28,22.05-12.99,27.71-15.62,41.32-2.99,15.5,8.54,33.23,16.87,52.82,18.45,43.41,25.96,66.11,20.94,112.78-4.12,38.21-7.91,91.89-15.56,115.13-1.81,5.5-3.06,11.36-6.53,16.06-10.52,14.25-38.63,18.42-58.81,18.74-20.18-.32-48.29-4.49-58.81-18.74-3.47-4.71-4.72-10.56-6.53-16.06-7.65-23.24-11.44-76.92-15.56-115.13-5.03-46.67,2.48-69.36,20.94-112.78,8.33-19.59,19.85-37.32,16.87-52.82-2.62-13.61-6.34-19.27-15.62-41.32" style="fill:none; stroke:#231815; stroke-linecap:round; stroke-linejoin:round; stroke-width:10px;"/><ellipse cx="133.22" cy="41.64" rx="59.14" ry="20.77" style="fill:none; stroke:#231815; stroke-linecap:round; stroke-linejoin:round; stroke-width:10px;"/><path d="M57.04,287.94c29.46,22.2,123.5,23.81,153.77-1.61" style="fill:none; stroke:#231815; stroke-linecap:round; stroke-linejoin:round; stroke-width:10px;"/><path d="M60.27,321.84c32.42,20.85,113.61,21.39,146.53-1.11" style="fill:none; stroke:#231815; stroke-linecap:round; stroke-linejoin:round; stroke-width:10px;"/></g></svg>