<?xml version="1.0" encoding="UTF-8"?><svg id="_レイヤー_2" xmlns="http://www.w3.org/2000/svg" viewBox="0 0 425.2 425.2"><g id="_レイヤー_1-2"><rect width="425.2" height="425.2" style="fill:none;"/><path d="M323.88,404.75c4.74,0,7.28-2.48,9.04-6.17,1.55-3.26,1.94-7.71,1.87-11.19-.42-20.12-2.15-95.93-3.03-108.96,4.11-1.4,22.28-8.81,23.65-18.63s1.2-59.93-2.17-76.71c-1-5-10.82-4.21-10.82,0s.23,43.9.23,47.41-2.97,7.83-6.73,7.83c-2.74,0-5.89-2.69-5.89-8.07,0-4.27-.34-39.75-.46-43.49-.09-2.8-2.39-6.49-6.15-6.49s-6.07,3.68-6.15,6.49c-.11,3.74-.46,39.22-.46,43.49,0,5.38-3.15,8.07-5.89,8.07-3.77,0-6.73-4.33-6.73-7.83s.23-43.2.23-47.41-9.82-5-10.82,0c-3.37,16.78-3.54,66.89-2.17,76.71,1.37,9.82,19.54,17.23,23.65,18.63-.88,13.03-2.61,88.84-3.03,108.96-.07,3.48.31,7.93,1.87,11.19,1.76,3.7,5.25,6.17,9.96,6.17Z" style="fill:#fbca5a;"/><path d="M323.88,404.75c4.74,0,7.28-2.48,9.04-6.17,1.55-3.26,1.94-7.71,1.87-11.19-.42-20.12-2.15-95.93-3.03-108.96,4.11-1.4,22.28-8.81,23.65-18.63s1.2-59.93-2.17-76.71c-1-5-10.82-4.21-10.82,0s.23,43.9.23,47.41-2.97,7.83-6.73,7.83c-2.74,0-5.89-2.69-5.89-8.07,0-4.27-.34-39.75-.46-43.49-.09-2.8-2.39-6.49-6.15-6.49s-6.07,3.68-6.15,6.49c-.11,3.74-.46,39.22-.46,43.49,0,5.38-3.15,8.07-5.89,8.07-3.77,0-6.73-4.33-6.73-7.83s.23-43.2.23-47.41-9.82-5-10.82,0c-3.37,16.78-3.54,66.89-2.17,76.71,1.37,9.82,19.54,17.23,23.65,18.63-.88,13.03-2.61,88.84-3.03,108.96-.07,3.48.31,7.93,1.87,11.19,1.76,3.7,5.25,6.17,9.96,6.17Z" style="fill:none; stroke:#231815; stroke-linecap:round; stroke-linejoin:round; stroke-width:10.88px;"/><path d="M298.61,349.17c-12.16,7.24-25.29,13.02-39.15,17.1" style="fill:none; stroke:#231815; stroke-linecap:round; stroke-linejoin:round; stroke-width:10.88px;"/><path d="M211.03,373.2c-94.67,0-171.41-76.74-171.41-171.41S116.36,30.38,211.03,30.38s171.41,76.74,171.41,171.41c0,13.27-1.51,26.18-4.36,38.58-5.62,24.42-16.45,46.85-31.27,66.05" style="fill:none; stroke:#231815; stroke-linecap:round; stroke-linejoin:round; stroke-width:10.88px;"/><path d="M211.03,319.72c-65.13,0-117.93-52.8-117.93-117.93s52.8-117.93,117.93-117.93c52.7,0,97.33,34.57,112.45,82.28" style="fill:none; stroke:#231815; stroke-linecap:round; stroke-linejoin:round; stroke-width:10.88px;"/><path d="M293.87,285.73c-10.35,10.22-22.58,18.53-36.13,24.38" style="fill:none; stroke:#231815; stroke-linecap:round; stroke-linejoin:round; stroke-width:10.88px;"/><path d="M226.29,282.71c-.88,13.03-2.61,84.55-3.03,104.68-.07,3.48.31,7.93,1.87,11.19,1.76,3.7,5.25,6.17,9.96,6.17s7.28-2.48,9.04-6.17c1.55-3.26,1.94-7.71,1.87-11.19-.42-20.12-2.15-91.65-3.03-104.68.02-5.57-.49-8.69,2.51-11.87,6.36-6.75,10.25-10.84,17.72-22.67,6.36-10.08,7.5-23.24,6.13-33-2.22-15.87-15.1-35.4-35.01-35.4s-32.79,19.53-35.01,35.4c-1.37,9.76-.23,22.92,6.13,33,7.47,11.83,11.5,15.43,18.35,22.67,3.01,3.18,2.49,6.3,2.51,11.87Z" style="fill:#fbca5a;"/><path d="M226.29,282.71c-.88,13.03-2.61,84.55-3.03,104.68-.07,3.48.31,7.93,1.87,11.19,1.76,3.7,5.25,6.17,9.96,6.17s7.28-2.48,9.04-6.17c1.55-3.26,1.94-7.71,1.87-11.19-.42-20.12-2.15-91.65-3.03-104.68.02-5.57-.49-8.69,2.51-11.87,6.36-6.75,10.25-10.84,17.72-22.67,6.36-10.08,7.5-23.24,6.13-33-2.22-15.87-15.1-35.4-35.01-35.4s-32.79,19.53-35.01,35.4c-1.37,9.76-.23,22.92,6.13,33,7.47,11.83,11.5,15.43,18.35,22.67,3.01,3.18,2.49,6.3,2.51,11.87Z" style="fill:none; stroke:#231815; stroke-linecap:round; stroke-linejoin:round; stroke-width:10.88px;"/></g></svg>