<?xml version="1.0" encoding="UTF-8"?><svg id="_レイヤー_2" xmlns="http://www.w3.org/2000/svg" viewBox="0 0 604.55 242.26"><g id="_デザイン"><path d="M101.49,106.39c0,1-.88,1.89-1.89,1.89H5.57c-1,0-1.89-.88-1.89-1.89,0-1.13.88-1.89,1.89-1.89h37.26V13.25c0-1.13.88-1.89,1.89-1.89h14.48c1,0,1.89.76,1.89,1.89v91.26h38.52c1.01,0,1.89.76,1.89,1.89Z" style="fill:#fff100;"/><path d="M217.34,32.89c0,1-.88,1.89-1.89,1.89h-93.02c-1.13,0-1.89-.88-1.89-1.89s.75-1.89,1.89-1.89h93.02c1,0,1.89.88,1.89,1.89ZM208.15,55.92v51.74c0,1-.88,1.89-1.89,1.89h-33.48c-1,0-1.89-.88-1.89-1.89s.88-1.89,1.89-1.89h18.25v-47.96h-38.77l-23.66,51.85c-.38.88-1.39,1.26-2.27,1.01-1.01-.26-1.51-1.26-1.26-2.14l13.47-68.98c.13-.5.38-.88.75-1.14.51-.38,1.01-.38,1.51-.38l16.36,3.53c.51.13,1.01.5,1.26,1.01.25.5.25,1.13,0,1.63l-4.41,9.82h52.24c1,0,1.89.88,1.89,1.89Z" style="fill:#fff100;"/><path d="M326.28,17.65v88.62c0,1.13-.75,1.89-1.89,1.89h-81.44c-1.13,0-1.89-.76-1.89-1.89V17.65c0-1,.76-1.89,1.89-1.89h81.44c1.14,0,1.89.88,1.89,1.89ZM256.92,104.39h53.5V19.54h-53.5v84.84Z" style="fill:#fff100;"/><path d="M424.76,90.28c0,1-.76,1.89-1.89,1.89h-14.73v18.01c0,1.13-.88,1.89-1.89,1.89h-14.48c-1.13,0-1.89-.76-1.89-1.89v-18.01h-14.86c-1,0-1.89-.88-1.89-1.89s.88-1.89,1.89-1.89h14.86V27.6h-37.13c-1.01,0-1.89-.88-1.89-1.89,0-1.14.88-1.89,1.89-1.89h37.13v-13.22c0-1,.75-1.89,1.89-1.89h14.48c1,0,1.89.88,1.89,1.89v13.22h37.13c1.01,0,1.89.75,1.89,1.89,0,1-.88,1.89-1.89,1.89h-37.13v60.8h14.73c1.13,0,1.89.88,1.89,1.89ZM382.47,48.62l-27.82,46.57c-.5.76-1.38,1.14-2.27.76-.88-.26-1.38-1.26-1.13-2.14l11.58-51.1c.12-.5.5-1,.88-1.26.5-.26,1-.26,1.51-.12l16.11,4.53c.63.12,1,.5,1.26,1,.25.64.13,1.26-.12,1.76ZM448.42,87.89l-14.22,8.3c-.5.26-1.13.38-1.64.13-.5-.26-1-.76-1.13-1.26l-15.23-59.16c-.12-.88.25-1.9,1.13-2.27.88-.26,1.89,0,2.39.88l29.33,50.72c.5.88.25,2.01-.63,2.64Z" style="fill:#fff100;"/><path d="M470.89,94.31l22.66-35.49c.5-.76,1.38-1.14,2.27-.76.88.38,1.38,1.26,1.13,2.14l-7.8,39.65c-.13.5-.5.88-.88,1.25-.5.26-1,.26-1.51.13l-14.85-4.03c-.5-.26-1.01-.64-1.26-1.14-.12-.63-.12-1.26.25-1.76ZM568.32,17.9h-64.95c-1.01,0-1.89-.88-1.89-1.89,0-1.13.88-1.89,1.89-1.89h64.95c1,0,1.89.76,1.89,1.89,0,1-.88,1.89-1.89,1.89ZM566.81,109.29h-62.81c-1,0-1.89-.88-1.89-1.9V39.68c0-1.13.88-1.89,1.89-1.89h16.74l.13-8.06c.12-.5.25-1,.75-1.38.38-.38.88-.5,1.38-.5l9.95,1.13c.5,0,1,.38,1.26.76.38.5.51,1,.38,1.51l-1.51,6.55h4.41v-12.59c0-1,.88-1.89,1.89-1.89h8.31c1,0,1.89.88,1.89,1.89v12.59h17.24c1.13,0,1.89.76,1.89,1.89v67.72c0,1.01-.76,1.9-1.89,1.9ZM539.37,74.17c-1,0-1.89-.88-1.89-1.89v-30.72h-5.29l-8.43,36.39c-.13.88-1.13,1.51-2.01,1.38-1.01-.13-1.64-.88-1.64-1.9l.63-35.87h-5.79v63.95h40.91v-31.34h-16.49ZM555.86,70.4v-28.83h-6.29v28.83h6.29Z" style="fill:#fff100;"/><path d="M68.51,52.27c0-7.92,6.42-14.35,14.22-14.35s14.35,6.43,14.35,14.35-6.42,14.35-14.35,14.35-14.22-6.42-14.22-14.35Z" style="fill:#fff100;"/><path d="M157.55,15.01c0-6.29,5.16-11.33,11.33-11.33s11.45,5.03,11.45,11.33-5.16,11.33-11.45,11.33-11.33-5.03-11.33-11.33Z" style="fill:#fff100;"/><path d="M299.84,61.1c0,8.88-7.2,16.08-16.08,16.08s-16.25-7.2-16.25-16.08,7.2-16.25,16.25-16.25,16.08,7.2,16.08,16.25Z" style="fill:#fff100;"/><path d="M470.93,50.09c4.72,0,8.46,3.74,8.46,8.46s-3.75,8.33-8.46,8.33-8.33-3.75-8.33-8.33,3.75-8.46,8.33-8.46Z" style="fill:#fff100;"/><path d="M494.66,33.02c0,6.8-5.55,12.35-12.49,12.35s-12.35-5.55-12.35-12.35,5.55-12.35,12.35-12.35,12.49,5.55,12.49,12.35Z" style="fill:#fff100;"/><path d="M535.15,81.89c4.72,0,8.46,3.74,8.46,8.46s-3.75,8.33-8.46,8.33-8.33-3.75-8.33-8.33,3.75-8.46,8.33-8.46Z" style="fill:#fff100;"/><circle cx="518.07" cy="184.67" r="57.59" style="fill:#fff100;"/><path d="M460.45,204.49c-4.3,0-7.78-1.7-12.22-2.89-3.61,1.71-6.94,2.7-9.74,2.7s-4.91-.92-5.56-3.22c-.45-1.58.64-4.72,7.11-4.72,2.59,0,5.22.33,7.67.79,13.93-7.42,29.74-26.18,28.12-31.89-.41-1.46-1.9-2.1-3.46-2.1-5.11,0-13.55,6.35-19.78,14.43-.44.59-.93.79-1.34.79-1.02,0-1.89-1.12-2.22-2.3-.2-.72-.22-1.51.15-2.1,5.66-8.67,17.63-16.48,25.68-16.48,2.8,0,6.23,1.31,7.16,4.6,2.61,9.18-13.33,27.23-28.18,36.49,3.12.66,6.3,1.31,9.58,1.31h1.42c.96,0,1.31.27,1.46.79.32,1.11-.76,3.8-5.87,3.8Z" style="fill:#fff100;"/><path d="M460.45,211.31c-4.11,0-7.55-1.11-10.59-2.09-.39-.13-.78-.25-1.17-.37-3.73,1.51-7.15,2.27-10.2,2.27-6.15,0-10.68-3.06-12.12-8.19-.81-2.82-.18-5.99,1.68-8.46,1.7-2.25,5.16-4.94,12-4.94,2.03,0,4.14.16,6.41.49,2.51-1.51,4.93-3.28,7.18-5.18-.77.23-1.57.36-2.39.36-4.01,0-7.54-2.91-8.78-7.23-.77-2.7-.45-5.39.92-7.59.03-.04.05-.09.08-.13,7.04-10.79,21.13-19.58,31.4-19.58,6.59,0,12.11,3.84,13.73,9.56,2.98,10.46-7.02,24.21-18.46,34.5,1.46,1.12,2.35,2.66,2.76,4.14.72,2.52.12,5.46-1.63,7.78-1.31,1.74-4.45,4.65-10.82,4.65Z" style="fill:#fff100;"/><path d="M478.5,199.37c-1.99-7.02,3.6-18.57,9.39-25.33,7.39-8.34,13.27-12.61,19.04-14.65,2.53-.91,4.16-1.18,5.39-1.18,1.77,0,2.63.85,2.89,1.77.29.98-.07,1.9-1.26,2.03,1.14.66,1.7,1.91,1.98,2.89,1.62,5.71-3.39,16.41-8.73,24.02-6.04,8.53-15.31,15.74-21.86,15.74-3.34,0-5.91-2.1-6.84-5.31ZM508.68,165.31c-.23-.79.03-1.57.34-2.15-5.71,1.96-11.73,6.5-16.97,13.25-5.15,6.62-9.33,15.42-8.05,19.95.47,1.64,1.72,2.7,3.5,2.7,4.37,0,11.06-5.98,15.89-12.74,4.63-6.29,8.66-14.43,7.7-17.84-.15-.52-.4-.91-.77-1.25-.91-.59-1.42-1.17-1.63-1.91Z" style="fill:#fff100;"/><path d="M485.34,211.51c-6.35,0-11.6-4.02-13.39-10.25,0,0,0-.02,0-.02-2.98-10.51,4.81-24.67,10.77-31.63.02-.03.05-.06.07-.08,7.87-8.88,14.61-13.99,21.88-16.56,2.96-1.07,5.41-1.57,7.66-1.57,4.61,0,8.32,2.66,9.46,6.77.34,1.17.43,2.39.27,3.57.17.42.31.86.44,1.32,1.17,4.12.5,9.39-1.98,15.66-1.82,4.6-4.57,9.62-7.73,14.13-6.58,9.29-17.61,18.65-27.45,18.65ZM502.22,175.33c-1.65,1.53-3.26,3.29-4.79,5.26-2.21,2.85-3.85,5.63-4.98,7.99,1.66-1.57,3.53-3.65,5.37-6.24.02-.03.04-.05.06-.08,1.86-2.52,3.29-4.91,4.34-6.93Z" style="fill:#fff100;"/><path d="M537.41,204.49c-4.3,0-7.78-1.7-12.22-2.89-3.61,1.71-6.94,2.7-9.74,2.7s-4.91-.92-5.56-3.22c-.45-1.58.64-4.72,7.11-4.72,2.59,0,5.22.33,7.67.79,13.93-7.42,29.74-26.18,28.12-31.89-.41-1.46-1.9-2.1-3.46-2.1-5.11,0-13.55,6.35-19.78,14.43-.44.59-.93.79-1.34.79-1.02,0-1.89-1.12-2.22-2.3-.2-.72-.22-1.51.15-2.1,5.66-8.67,17.63-16.48,25.68-16.48,2.8,0,6.23,1.31,7.16,4.6,2.61,9.18-13.33,27.23-28.18,36.49,3.12.66,6.3,1.31,9.58,1.31h1.42c.96,0,1.31.27,1.46.79.32,1.11-.76,3.8-5.87,3.8Z" style="fill:#fff100;"/><path d="M537.4,211.31c-4.11,0-7.55-1.11-10.59-2.09-.39-.13-.78-.25-1.16-.37-3.73,1.51-7.15,2.27-10.2,2.27-6.15,0-10.68-3.06-12.12-8.19-.81-2.82-.18-5.99,1.68-8.46,1.7-2.25,5.16-4.94,12-4.94,2.03,0,4.14.16,6.41.49,2.51-1.51,4.93-3.28,7.18-5.18-.77.23-1.57.36-2.39.36-4.01,0-7.54-2.91-8.78-7.24-.77-2.7-.45-5.39.92-7.58.03-.04.05-.09.08-.13,7.04-10.79,21.13-19.57,31.4-19.57,6.59,0,12.11,3.84,13.73,9.56,2.98,10.46-7.02,24.21-18.46,34.5,1.46,1.12,2.35,2.66,2.76,4.14.72,2.52.12,5.45-1.62,7.78-1.31,1.74-4.45,4.65-10.83,4.65Z" style="fill:#fff100;"/><path d="M556.24,199.24c-2.05-7.23,4.61-18.84,9.7-25.19,8.35-10.44,16.46-16.29,25.15-20.48.36-.2.88-.27,1.5-.27,2.11,0,4.89,1.37,5.11,2.16.06.2-.02.4-.26.52-10.54,4.2-20.6,11.76-27.43,20.42l-.45.58c3.01-2.62,7.3-4.33,10.85-4.33,3.34,0,5.69,1.31,6.57,4.4,1.34,4.72-1.9,12.06-5.47,16.99-4.17,5.51-11.46,10.83-17.54,10.83-3.2,0-6.73-2.1-7.74-5.65ZM568.97,185.2c-.82,0-2.19-.99-2.62-2.5-.05-.19-.11-.39-.03-.59-3.04,5.39-5.27,11.95-4.36,15.17.39,1.38,1.47,2.3,3.18,2.3,3.81,0,9.65-4.2,12.63-8.14,2.21-3.02,4.72-8.33,3.91-11.22-.32-1.12-.88-1.91-2.65-1.91-2.8,0-7.39,2.56-9.7,6.69-.03.13-.22.2-.35.2Z" style="fill:#fff100;"/><path d="M563.98,211.71c-6.54,0-12.56-4.46-14.3-10.61-3.52-12.4,8.49-28.26,10.93-31.31,8.15-10.19,16.6-17.08,27.39-22.3,1.73-.9,3.43-1,4.59-1,2.58,0,4.9.87,6.05,1.38,3.03,1.36,4.92,3.29,5.62,5.73.97,3.24-.56,6.83-3.67,8.45-.2.11-.41.2-.62.29-3.81,1.52-7.6,3.57-11.17,5.99,2.26,1.61,3.91,3.95,4.75,6.88,2.7,9.5-4.95,20.72-6.51,22.87-.03.04-.05.07-.08.11-5.1,6.74-14.18,13.54-22.98,13.54Z" style="fill:#fff100;"/><path d="M460.45,204.49c-4.3,0-7.78-1.7-12.22-2.89-3.61,1.71-6.94,2.7-9.74,2.7s-4.91-.92-5.56-3.22c-.45-1.58.64-4.72,7.11-4.72,2.59,0,5.22.33,7.67.79,13.93-7.42,29.74-26.18,28.12-31.89-.41-1.46-1.9-2.1-3.46-2.1-5.11,0-13.55,6.35-19.78,14.43-.44.59-.93.79-1.34.79-1.02,0-1.89-1.12-2.22-2.3-.2-.72-.22-1.51.15-2.1,5.66-8.67,17.63-16.48,25.68-16.48,2.8,0,6.23,1.31,7.16,4.6,2.61,9.18-13.33,27.23-28.18,36.49,3.12.66,6.3,1.31,9.58,1.31h1.42c.96,0,1.31.27,1.46.79.32,1.11-.76,3.8-5.87,3.8Z" style="fill:#fff100;"/><path d="M478.5,199.37c-1.99-7.02,3.6-18.57,9.39-25.33,7.39-8.34,13.27-12.61,19.04-14.65,2.53-.91,4.16-1.18,5.39-1.18,1.77,0,2.63.85,2.89,1.77.29.98-.07,1.9-1.26,2.03,1.14.66,1.7,1.91,1.98,2.89,1.62,5.71-3.39,16.41-8.73,24.02-6.04,8.53-15.31,15.74-21.86,15.74-3.34,0-5.91-2.1-6.84-5.31ZM508.68,165.31c-.23-.79.03-1.57.34-2.15-5.71,1.96-11.73,6.5-16.97,13.25-5.15,6.62-9.33,15.42-8.05,19.95.47,1.64,1.72,2.7,3.5,2.7,4.37,0,11.06-5.98,15.89-12.74,4.63-6.29,8.66-14.43,7.7-17.84-.15-.52-.4-.91-.77-1.25-.91-.59-1.42-1.17-1.63-1.91Z" style="fill:#fff100;"/><path d="M537.41,204.49c-4.3,0-7.78-1.7-12.22-2.89-3.61,1.71-6.94,2.7-9.74,2.7s-4.91-.92-5.56-3.22c-.45-1.58.64-4.72,7.11-4.72,2.59,0,5.22.33,7.67.79,13.93-7.42,29.74-26.18,28.12-31.89-.41-1.46-1.9-2.1-3.46-2.1-5.11,0-13.55,6.35-19.78,14.43-.44.59-.93.79-1.34.79-1.02,0-1.89-1.12-2.22-2.3-.2-.72-.22-1.51.15-2.1,5.66-8.67,17.63-16.48,25.68-16.48,2.8,0,6.23,1.31,7.16,4.6,2.61,9.18-13.33,27.23-28.18,36.49,3.12.66,6.3,1.31,9.58,1.31h1.42c.96,0,1.31.27,1.46.79.32,1.11-.76,3.8-5.87,3.8Z" style="fill:#fff100;"/><path d="M556.24,199.24c-2.05-7.23,4.61-18.84,9.7-25.19,8.35-10.44,16.46-16.29,25.15-20.48.36-.2.88-.27,1.5-.27,2.11,0,4.89,1.37,5.11,2.16.06.2-.02.4-.26.52-10.54,4.2-20.6,11.76-27.43,20.42l-.45.58c3.01-2.62,7.3-4.33,10.85-4.33,3.34,0,5.69,1.31,6.57,4.4,1.34,4.72-1.9,12.06-5.47,16.99-4.17,5.51-11.46,10.83-17.54,10.83-3.2,0-6.73-2.1-7.74-5.65ZM568.97,185.2c-.82,0-2.19-.99-2.62-2.5-.05-.19-.11-.39-.03-.59-3.04,5.39-5.27,11.95-4.36,15.17.39,1.38,1.47,2.3,3.18,2.3,3.81,0,9.65-4.2,12.63-8.14,2.21-3.02,4.72-8.33,3.91-11.22-.32-1.12-.88-1.91-2.65-1.91-2.8,0-7.39,2.56-9.7,6.69-.03.13-.22.2-.35.2Z" style="fill:#fff100;"/><circle cx="514.38" cy="180.99" r="57.59" style="fill:#094;"/><path d="M456.77,200.8c-4.3,0-7.78-1.7-12.22-2.89-3.61,1.71-6.94,2.7-9.74,2.7s-4.91-.92-5.56-3.22c-.45-1.58.64-4.72,7.11-4.72,2.59,0,5.22.33,7.67.79,13.93-7.42,29.74-26.18,28.12-31.89-.41-1.46-1.9-2.1-3.46-2.1-5.11,0-13.55,6.35-19.78,14.43-.44.59-.93.79-1.34.79-1.02,0-1.89-1.12-2.22-2.3-.2-.72-.22-1.51.15-2.1,5.66-8.67,17.63-16.48,25.68-16.48,2.8,0,6.23,1.31,7.16,4.6,2.61,9.18-13.33,27.23-28.18,36.49,3.12.66,6.3,1.31,9.58,1.31h1.42c.96,0,1.31.27,1.46.79.32,1.11-.76,3.8-5.87,3.8Z" style="fill:#0068b7;"/><path d="M456.77,207.63c-4.11,0-7.55-1.11-10.59-2.09-.39-.13-.78-.25-1.17-.37-3.73,1.51-7.15,2.27-10.2,2.27-6.15,0-10.68-3.06-12.12-8.19-.81-2.82-.18-5.99,1.68-8.46,1.7-2.25,5.16-4.94,12-4.94,2.03,0,4.14.16,6.41.49,2.51-1.51,4.93-3.28,7.18-5.18-.77.23-1.57.36-2.39.36-4.01,0-7.54-2.91-8.78-7.23-.77-2.7-.45-5.39.92-7.59.03-.04.05-.09.08-.13,7.04-10.79,21.13-19.58,31.4-19.58,6.59,0,12.11,3.84,13.73,9.56,2.98,10.46-7.02,24.21-18.46,34.5,1.46,1.12,2.35,2.66,2.76,4.14.72,2.52.12,5.46-1.63,7.78-1.31,1.74-4.45,4.65-10.82,4.65Z" style="fill:#0068b7;"/><path d="M474.82,195.69c-1.99-7.02,3.6-18.57,9.39-25.33,7.39-8.34,13.27-12.61,19.04-14.65,2.53-.91,4.16-1.18,5.39-1.18,1.77,0,2.63.85,2.89,1.77.29.98-.07,1.9-1.26,2.03,1.14.66,1.7,1.91,1.98,2.89,1.62,5.71-3.39,16.41-8.73,24.02-6.04,8.53-15.31,15.74-21.86,15.74-3.34,0-5.91-2.1-6.84-5.31ZM504.99,161.62c-.23-.79.03-1.57.34-2.15-5.71,1.96-11.73,6.5-16.97,13.25-5.15,6.62-9.33,15.42-8.05,19.95.47,1.64,1.72,2.7,3.5,2.7,4.37,0,11.06-5.98,15.89-12.74,4.63-6.29,8.66-14.43,7.7-17.84-.15-.52-.4-.91-.77-1.25-.91-.59-1.42-1.17-1.63-1.91Z" style="fill:#0068b7;"/><path d="M481.65,207.82c-6.35,0-11.6-4.02-13.39-10.25,0,0,0-.02,0-.02-2.98-10.51,4.81-24.67,10.77-31.63.02-.03.05-.06.07-.08,7.87-8.88,14.61-13.99,21.88-16.56,2.96-1.07,5.41-1.57,7.66-1.57,4.61,0,8.32,2.66,9.46,6.77.34,1.17.43,2.39.27,3.57.17.42.31.86.44,1.32,1.17,4.12.5,9.39-1.98,15.66-1.82,4.6-4.57,9.62-7.73,14.13-6.58,9.29-17.61,18.65-27.45,18.65ZM498.53,171.65c-1.65,1.53-3.26,3.29-4.79,5.26-2.21,2.85-3.85,5.63-4.98,7.99,1.66-1.57,3.53-3.65,5.37-6.24.02-.03.04-.05.06-.08,1.86-2.52,3.29-4.91,4.34-6.93Z" style="fill:#0068b7;"/><path d="M533.72,200.8c-4.3,0-7.78-1.7-12.22-2.89-3.61,1.71-6.94,2.7-9.74,2.7s-4.91-.92-5.56-3.22c-.45-1.58.64-4.72,7.11-4.72,2.59,0,5.22.33,7.67.79,13.93-7.42,29.74-26.18,28.12-31.89-.41-1.46-1.9-2.1-3.46-2.1-5.11,0-13.55,6.35-19.78,14.43-.44.59-.93.79-1.34.79-1.02,0-1.89-1.12-2.22-2.3-.2-.72-.22-1.51.15-2.1,5.66-8.67,17.63-16.48,25.68-16.48,2.8,0,6.23,1.31,7.16,4.6,2.61,9.18-13.33,27.23-28.18,36.49,3.12.66,6.3,1.31,9.58,1.31h1.42c.96,0,1.31.27,1.46.79.32,1.11-.76,3.8-5.87,3.8Z" style="fill:#0068b7;"/><path d="M533.72,207.63c-4.11,0-7.55-1.11-10.59-2.09-.39-.13-.78-.25-1.16-.37-3.73,1.51-7.15,2.27-10.2,2.27-6.15,0-10.68-3.06-12.12-8.19-.81-2.82-.18-5.99,1.68-8.46,1.7-2.25,5.16-4.94,12-4.94,2.03,0,4.14.16,6.41.49,2.51-1.51,4.93-3.28,7.18-5.18-.77.23-1.57.36-2.39.36-4.01,0-7.54-2.91-8.78-7.24-.77-2.7-.45-5.39.92-7.58.03-.04.05-.09.08-.13,7.04-10.79,21.13-19.57,31.4-19.57,6.59,0,12.11,3.84,13.73,9.56,2.98,10.46-7.02,24.21-18.46,34.5,1.46,1.12,2.35,2.66,2.76,4.14.72,2.52.12,5.45-1.62,7.78-1.31,1.74-4.45,4.65-10.83,4.65Z" style="fill:#0068b7;"/><path d="M552.56,195.56c-2.05-7.23,4.61-18.84,9.7-25.19,8.35-10.44,16.46-16.29,25.15-20.48.36-.2.88-.27,1.5-.27,2.11,0,4.89,1.37,5.11,2.16.06.2-.02.4-.26.52-10.54,4.2-20.6,11.76-27.43,20.42l-.45.58c3.01-2.62,7.3-4.33,10.85-4.33,3.34,0,5.69,1.31,6.57,4.4,1.34,4.72-1.9,12.06-5.47,16.99-4.17,5.51-11.46,10.83-17.54,10.83-3.2,0-6.73-2.1-7.74-5.65ZM565.29,181.52c-.82,0-2.19-.99-2.62-2.5-.05-.19-.11-.39-.03-.59-3.04,5.39-5.27,11.95-4.36,15.17.39,1.38,1.47,2.3,3.18,2.3,3.81,0,9.65-4.2,12.63-8.14,2.21-3.02,4.72-8.33,3.91-11.22-.32-1.12-.88-1.91-2.65-1.91-2.8,0-7.39,2.56-9.7,6.69-.03.13-.22.2-.35.2Z" style="fill:#0068b7;"/><path d="M560.3,208.03c-6.54,0-12.56-4.46-14.3-10.61-3.52-12.4,8.49-28.26,10.93-31.31,8.15-10.19,16.6-17.08,27.39-22.3,1.73-.9,3.43-1,4.59-1,2.58,0,4.9.87,6.05,1.38,3.03,1.36,4.92,3.29,5.62,5.73.97,3.24-.56,6.83-3.67,8.45-.2.11-.41.2-.62.29-3.81,1.52-7.6,3.57-11.17,5.99,2.26,1.61,3.91,3.95,4.75,6.88,2.7,9.5-4.95,20.72-6.51,22.87-.03.04-.05.07-.08.11-5.1,6.74-14.18,13.54-22.98,13.54Z" style="fill:#0068b7;"/><path d="M456.77,200.8c-4.3,0-7.78-1.7-12.22-2.89-3.61,1.71-6.94,2.7-9.74,2.7s-4.91-.92-5.56-3.22c-.45-1.58.64-4.72,7.11-4.72,2.59,0,5.22.33,7.67.79,13.93-7.42,29.74-26.18,28.12-31.89-.41-1.46-1.9-2.1-3.46-2.1-5.11,0-13.55,6.35-19.78,14.43-.44.59-.93.79-1.34.79-1.02,0-1.89-1.12-2.22-2.3-.2-.72-.22-1.51.15-2.1,5.66-8.67,17.63-16.48,25.68-16.48,2.8,0,6.23,1.31,7.16,4.6,2.61,9.18-13.33,27.23-28.18,36.49,3.12.66,6.3,1.31,9.58,1.31h1.42c.96,0,1.31.27,1.46.79.32,1.11-.76,3.8-5.87,3.8Z" style="fill:#fff;"/><path d="M474.82,195.69c-1.99-7.02,3.6-18.57,9.39-25.33,7.39-8.34,13.27-12.61,19.04-14.65,2.53-.91,4.16-1.18,5.39-1.18,1.77,0,2.63.85,2.89,1.77.29.98-.07,1.9-1.26,2.03,1.14.66,1.7,1.91,1.98,2.89,1.62,5.71-3.39,16.41-8.73,24.02-6.04,8.53-15.31,15.74-21.86,15.74-3.34,0-5.91-2.1-6.84-5.31ZM504.99,161.62c-.23-.79.03-1.57.34-2.15-5.71,1.96-11.73,6.5-16.97,13.25-5.15,6.62-9.33,15.42-8.05,19.95.47,1.64,1.72,2.7,3.5,2.7,4.37,0,11.06-5.98,15.89-12.74,4.63-6.29,8.66-14.43,7.7-17.84-.15-.52-.4-.91-.77-1.25-.91-.59-1.42-1.17-1.63-1.91Z" style="fill:#fff;"/><path d="M533.72,200.8c-4.3,0-7.78-1.7-12.22-2.89-3.61,1.71-6.94,2.7-9.74,2.7s-4.91-.92-5.56-3.22c-.45-1.58.64-4.72,7.11-4.72,2.59,0,5.22.33,7.67.79,13.93-7.42,29.74-26.18,28.12-31.89-.41-1.46-1.9-2.1-3.46-2.1-5.11,0-13.55,6.35-19.78,14.43-.44.59-.93.79-1.34.79-1.02,0-1.89-1.12-2.22-2.3-.2-.72-.22-1.51.15-2.1,5.66-8.67,17.63-16.48,25.68-16.48,2.8,0,6.23,1.31,7.16,4.6,2.61,9.18-13.33,27.23-28.18,36.49,3.12.66,6.3,1.31,9.58,1.31h1.42c.96,0,1.31.27,1.46.79.32,1.11-.76,3.8-5.87,3.8Z" style="fill:#fff;"/><path d="M552.56,195.56c-2.05-7.23,4.61-18.84,9.7-25.19,8.35-10.44,16.46-16.29,25.15-20.48.36-.2.88-.27,1.5-.27,2.11,0,4.89,1.37,5.11,2.16.06.2-.02.4-.26.52-10.54,4.2-20.6,11.76-27.43,20.42l-.45.58c3.01-2.62,7.3-4.33,10.85-4.33,3.34,0,5.69,1.31,6.57,4.4,1.34,4.72-1.9,12.06-5.47,16.99-4.17,5.51-11.46,10.83-17.54,10.83-3.2,0-6.73-2.1-7.74-5.65ZM565.29,181.52c-.82,0-2.19-.99-2.62-2.5-.05-.19-.11-.39-.03-.59-3.04,5.39-5.27,11.95-4.36,15.17.39,1.38,1.47,2.3,3.18,2.3,3.81,0,9.65-4.2,12.63-8.14,2.21-3.02,4.72-8.33,3.91-11.22-.32-1.12-.88-1.91-2.65-1.91-2.8,0-7.39,2.56-9.7,6.69-.03.13-.22.2-.35.2Z" style="fill:#fff;"/><path d="M97.8,102.71c0,1-.88,1.89-1.89,1.89H1.89c-1,0-1.89-.88-1.89-1.89,0-1.13.88-1.89,1.89-1.89h37.26V9.56c0-1.13.88-1.89,1.89-1.89h14.48c1,0,1.89.76,1.89,1.89v91.26h38.52c1.01,0,1.89.76,1.89,1.89Z" style="fill:#094;"/><path d="M213.66,29.2c0,1-.88,1.89-1.89,1.89h-93.02c-1.13,0-1.89-.88-1.89-1.89s.75-1.89,1.89-1.89h93.02c1,0,1.89.88,1.89,1.89ZM204.47,52.23v51.74c0,1-.88,1.89-1.89,1.89h-33.48c-1,0-1.89-.88-1.89-1.89s.88-1.89,1.89-1.89h18.25v-47.96h-38.77l-23.66,51.85c-.38.88-1.39,1.26-2.27,1.01-1.01-.26-1.51-1.26-1.26-2.14l13.47-68.98c.13-.5.38-.88.75-1.14.51-.38,1.01-.38,1.51-.38l16.36,3.53c.51.13,1.01.5,1.26,1.01.25.5.25,1.13,0,1.63l-4.41,9.82h52.24c1,0,1.89.88,1.89,1.89Z" style="fill:#094;"/><path d="M322.59,13.97v88.62c0,1.13-.75,1.89-1.89,1.89h-81.44c-1.13,0-1.89-.76-1.89-1.89V13.97c0-1,.76-1.89,1.89-1.89h81.44c1.14,0,1.89.88,1.89,1.89ZM253.23,100.7h53.5V15.86h-53.5v84.84Z" style="fill:#094;"/><path d="M421.08,86.6c0,1-.76,1.89-1.89,1.89h-14.73v18.01c0,1.13-.88,1.89-1.89,1.89h-14.48c-1.13,0-1.89-.76-1.89-1.89v-18.01h-14.86c-1,0-1.89-.88-1.89-1.89s.88-1.89,1.89-1.89h14.86V23.91h-37.13c-1.01,0-1.89-.88-1.89-1.89,0-1.14.88-1.89,1.89-1.89h37.13V6.92c0-1,.75-1.89,1.89-1.89h14.48c1,0,1.89.88,1.89,1.89v13.22h37.13c1.01,0,1.89.75,1.89,1.89,0,1-.88,1.89-1.89,1.89h-37.13v60.8h14.73c1.13,0,1.89.88,1.89,1.89ZM378.78,44.93l-27.82,46.57c-.5.76-1.38,1.14-2.27.76-.88-.26-1.38-1.26-1.13-2.14l11.58-51.1c.12-.5.5-1,.88-1.26.5-.26,1-.26,1.51-.12l16.11,4.53c.63.12,1,.5,1.26,1,.25.64.13,1.26-.12,1.76ZM444.74,84.21l-14.22,8.3c-.5.26-1.13.38-1.64.13-.5-.26-1-.76-1.13-1.26l-15.23-59.16c-.12-.88.25-1.9,1.13-2.27.88-.26,1.89,0,2.39.88l29.33,50.72c.5.88.25,2.01-.63,2.64Z" style="fill:#094;"/><path d="M467.21,90.63l22.66-35.49c.5-.76,1.38-1.14,2.27-.76.88.38,1.38,1.26,1.13,2.14l-7.8,39.65c-.13.5-.5.88-.88,1.25-.5.26-1,.26-1.51.13l-14.85-4.03c-.5-.26-1.01-.64-1.26-1.14-.12-.63-.12-1.26.25-1.76ZM564.64,14.22h-64.95c-1.01,0-1.89-.88-1.89-1.89,0-1.13.88-1.89,1.89-1.89h64.95c1,0,1.89.76,1.89,1.89,0,1-.88,1.89-1.89,1.89ZM563.12,105.61h-62.81c-1,0-1.89-.88-1.89-1.9V36c0-1.13.88-1.89,1.89-1.89h16.74l.13-8.06c.12-.5.25-1,.75-1.38.38-.38.88-.5,1.38-.5l9.95,1.13c.5,0,1,.38,1.26.76.38.5.51,1,.38,1.51l-1.51,6.55h4.41v-12.59c0-1,.88-1.89,1.89-1.89h8.31c1,0,1.89.88,1.89,1.89v12.59h17.24c1.13,0,1.89.76,1.89,1.89v67.72c0,1.01-.76,1.9-1.89,1.9ZM535.68,70.49c-1,0-1.89-.88-1.89-1.89v-30.72h-5.29l-8.43,36.39c-.13.88-1.13,1.51-2.01,1.38-1.01-.13-1.64-.88-1.64-1.9l.63-35.87h-5.79v63.95h40.91v-31.34h-16.49ZM552.17,66.71v-28.83h-6.29v28.83h6.29Z" style="fill:#094;"/><path d="M64.83,48.58c0-7.92,6.42-14.35,14.22-14.35s14.35,6.43,14.35,14.35-6.42,14.35-14.35,14.35-14.22-6.42-14.22-14.35Z" style="fill:#0068b7;"/><path d="M153.87,11.33c0-6.29,5.16-11.33,11.33-11.33s11.45,5.03,11.45,11.33-5.16,11.33-11.45,11.33-11.33-5.03-11.33-11.33Z" style="fill:#0068b7;"/><path d="M296.15,57.42c0,8.88-7.2,16.08-16.08,16.08s-16.25-7.2-16.25-16.08,7.2-16.25,16.25-16.25,16.08,7.2,16.08,16.25Z" style="fill:#0068b7;"/><path d="M467.24,46.41c4.72,0,8.46,3.74,8.46,8.46s-3.75,8.33-8.46,8.33-8.33-3.75-8.33-8.33,3.75-8.46,8.33-8.46Z" style="fill:#0068b7;"/><path d="M490.97,29.33c0,6.8-5.55,12.35-12.49,12.35s-12.35-5.55-12.35-12.35,5.55-12.35,12.35-12.35,12.49,5.55,12.49,12.35Z" style="fill:#0068b7;"/><path d="M109.97,149.3c.25.5.25,1.14,0,1.64l-40.28,84.47c-.5.88-1.51,1.26-2.39,1-.88-.38-1.38-1.38-1.13-2.27l20.64-80.06h-48.71v32.22c0,1.14-.88,1.89-1.89,1.89h-13.34c-1.01,0-1.89-.75-1.89-1.89v-41.66c0-1,.88-1.89,1.89-1.89h13.34c1.01,0,1.89.88,1.89,1.89v5.67h49.72l1.51-5.92c.12-.5.5-.88.88-1.13.5-.26,1-.26,1.51-.12l17.12,5.16c.5.12,1,.5,1.13,1Z" style="fill:#fff100;"/><path d="M116.49,186.19c0-2.34,1.4-3.91,3.53-3.91h78.34c1.87,0,3.52,1.57,3.52,3.91,0,2.08-1.65,3.91-3.52,3.91h-78.34c-2.13,0-3.53-1.83-3.53-3.91Z" style="fill:#fff100;"/><path d="M247.66,163.28l-24.8,65.45c-.25.88-1.26,1.38-2.14,1.13-1.01-.12-1.64-1.13-1.38-2.01l9.69-68.98c0-.5.25-1.01.75-1.26.38-.26,1.01-.38,1.51-.26l14.98,3.4c.63.12,1,.5,1.26,1,.25.5.37,1,.12,1.52ZM312.73,182.28c.63.63.75,1.76.12,2.52l-40.91,50.72c-.51.76-1.64,1-2.39.5l-13.34-8.06c-.5-.38-.88-1-.88-1.64v-83.71c0-1.13.88-1.89,1.89-1.89h13.34c1.01,0,1.89.76,1.89,1.89v70.12c5.28-4.27,37.76-30.58,37.76-30.58.75-.64,1.76-.5,2.52.12Z" style="fill:#fff100;"/><path d="M350.53,140.74c1.01,0,1.89.88,1.89,1.89v90.64c0,1-.88,1.89-1.89,1.89h-13.34c-1,0-1.89-.88-1.89-1.89v-90.64c0-1,.88-1.89,1.89-1.89h13.34Z" style="fill:#fff100;"/><path d="M398.18,183.67c0,9.56-7.76,17.31-17.31,17.31s-17.31-7.75-17.31-17.31,7.76-17.44,17.31-17.44,17.31,7.89,17.31,17.44Z" style="fill:#fff100;"/><path d="M384.34,149.9c-3.78,0-6.95-3.17-6.95-6.95s3.17-6.79,6.95-6.79,6.8,3.01,6.8,6.79-3.02,6.95-6.8,6.95Z" style="fill:#fff100;"/><path d="M405.03,134.34c4.69,0,8.61,3.92,8.61,8.61s-3.92,8.61-8.61,8.61-8.61-3.78-8.61-8.61,3.93-8.61,8.61-8.61Z" style="fill:#fff100;"/><path d="M106.29,145.61c.25.5.25,1.14,0,1.64l-40.28,84.47c-.5.88-1.51,1.26-2.39,1-.88-.38-1.38-1.38-1.13-2.27l20.64-80.06h-48.71v32.22c0,1.14-.88,1.89-1.89,1.89h-13.34c-1.01,0-1.89-.75-1.89-1.89v-41.66c0-1,.88-1.89,1.89-1.89h13.34c1.01,0,1.89.88,1.89,1.89v5.67h49.72l1.51-5.92c.12-.5.5-.88.88-1.13.5-.26,1-.26,1.51-.12l17.12,5.16c.5.12,1,.5,1.13,1Z" style="fill:#094;"/><path d="M112.81,182.5c0-2.34,1.4-3.91,3.53-3.91h78.34c1.87,0,3.52,1.57,3.52,3.91,0,2.08-1.65,3.91-3.52,3.91h-78.34c-2.13,0-3.53-1.83-3.53-3.91Z" style="fill:#094;"/><path d="M243.97,159.59l-24.8,65.45c-.25.88-1.26,1.38-2.14,1.13-1.01-.12-1.64-1.13-1.38-2.01l9.69-68.98c0-.5.25-1.01.75-1.26.38-.26,1.01-.38,1.51-.26l14.98,3.4c.63.12,1,.5,1.26,1,.25.5.37,1,.12,1.52ZM309.05,178.59c.63.63.75,1.76.12,2.52l-40.91,50.72c-.51.76-1.64,1-2.39.5l-13.34-8.06c-.5-.38-.88-1-.88-1.64v-83.71c0-1.13.88-1.89,1.89-1.89h13.34c1.01,0,1.89.76,1.89,1.89v70.12c5.28-4.27,37.76-30.58,37.76-30.58.75-.64,1.76-.5,2.52.12Z" style="fill:#094;"/><path d="M346.85,137.05c1.01,0,1.89.88,1.89,1.89v90.64c0,1-.88,1.89-1.89,1.89h-13.34c-1,0-1.89-.88-1.89-1.89v-90.64c0-1,.88-1.89,1.89-1.89h13.34Z" style="fill:#094;"/><path d="M394.49,179.98c0,9.56-7.76,17.31-17.31,17.31s-17.31-7.75-17.31-17.31,7.76-17.44,17.31-17.44,17.31,7.89,17.31,17.44Z" style="fill:#094;"/><path d="M380.65,146.22c-3.78,0-6.95-3.17-6.95-6.95s3.17-6.79,6.95-6.79,6.8,3.01,6.8,6.79-3.02,6.95-6.8,6.95Z" style="fill:#0068b7;"/><path d="M401.35,130.66c4.69,0,8.61,3.92,8.61,8.61s-3.92,8.61-8.61,8.61-8.61-3.78-8.61-8.61,3.93-8.61,8.61-8.61Z" style="fill:#0068b7;"/><path d="M531.47,78.21c4.72,0,8.46,3.74,8.46,8.46s-3.75,8.33-8.46,8.33-8.33-3.75-8.33-8.33,3.75-8.46,8.33-8.46Z" style="fill:#0068b7;"/></g></svg>