<?xml version="1.0" encoding="UTF-8"?><svg id="_レイヤー_2" xmlns="http://www.w3.org/2000/svg" viewBox="0 0 13.46 13.46"><g id="_デザイン"><circle cx="6.73" cy="6.73" r="6.73" style="fill:#e72410;"/><path d="M1.68,8.73c-.45,0-.66-.38-.66-.74,0-.57.29-1.07.29-1.83,0-.47-.2-.87-.4-1.18.65.2,1.23.16,1.56.12.05.38.63,1.92.84,1.92.14,0,.21-.25.21-.69,0-.56-.18-1.16-.45-1.32.24,0,.5-.02.76-.02s.52.02.74.12c-.37.22-.47.68-.47,1.35,0,.99.32,1.82.36,2.11-.65-.14-.88.07-1.19.07-.18,0-.27-.13-.27-.47,0-.74-.5-1.75-.68-1.75-.13,0-.23.11-.23.49,0,.26.05.7.32.75-.34.27-.33.55-.33.71,0,.18-.14.34-.37.34h0Z" style="fill:#fff33f;"/><path d="M5.81,6.08c0,.18.2.34.61.34.44,0,.63-.09.78-.14.03.13.02.63,0,.76-.15-.09-.31-.15-.72-.15-.27,0-.43.14-.43.35,0,.32.18.49.52.49.41,0,.57-.1.57-.24,0-.1.07-.16.18-.16.25,0,.52.26.52.68,0,.51-.4.66-.79.66-.64,0-.86-.18-1.29-.18-.25,0-.35.13-.56.12-.2-.01-.38-.22-.38-.54,0-.61.3-.94.3-2.09,0-.41-.11-.73-.26-1,.44.15,1.59-.02,2.27-.02.19,0,.34.01.43.05-.16.19-.03.72-.15,1.05-.2-.25-.53-.44-1.02-.44-.41,0-.59.23-.59.47Z" style="fill:#fff33f;"/><path d="M11.81,7.64c0,.43.23.81.25,1-.53-.1-.94.04-1.29.04-.23,0-.35-.11-.35-.27,0-.18.22-.43.22-.73,0-.32-.28-.83-.48-.83-.15,0-.45.47-.45.67,0,.1.05.23.23.38-.4.13-.56.34-.67.51-.12.18-.17.3-.37.3-.25,0-.5-.36-.5-.82,0-.39.13-.67.13-1.42,0-.66-.25-1.04-.77-1.42.54.04,1.65-.1,1.99-.11-.23.24-.48.74-.48,1.24,0,.34.03.74.19.74s.5-.95.29-1.34c.22-.03.79-.08,1-.04-.29.46.07,1.44.26,1.44.17,0,.29-.44.29-.92s-.15-.88-.43-1.1c.78.08,1.33-.14,1.82.18-.68.28-.88,2.03-.88,2.49Z" style="fill:#fff33f;"/></g></svg>