<?xml version="1.0" encoding="UTF-8"?><svg id="_レイヤー_2" xmlns="http://www.w3.org/2000/svg" viewBox="0 0 477.24 120.55"><g id="_デザイン"><path d="M10.54,108.96v1.37s-7.79.02-7.79.02v-1.37s7.79-.02,7.79-.02ZM10.55,111.79v1.37s-3.11,0-3.11,0v5.37s-1.54,0-1.54,0v-5.37s-3.14,0-3.14,0v-1.37s7.79-.02,7.79-.02Z" style="fill:#0068b7;"/><path d="M19.27,110.26h-3.9s0,2.07,0,2.07c.28-.09.65-.21,1.25-.21,1.94,0,3.37,1.28,3.38,3.11,0,1.52-1.04,3.24-3.82,3.25-1.58,0-2.64-.56-2.98-.72l.43-1.56c1.13.74,2.23.74,2.52.74,1.88,0,2.16-1.16,2.16-1.68,0-1.01-.8-1.6-1.8-1.6-.48,0-.96.13-1.29.47h-1.43s-.01-5.39-.01-5.39h5.49s0,1.53,0,1.53Z" style="fill:#0068b7;"/><path d="M27.18,110.24h-3.9s0,2.07,0,2.07c.28-.09.65-.21,1.25-.21,1.94,0,3.37,1.28,3.38,3.11,0,1.52-1.04,3.24-3.82,3.24-1.58,0-2.64-.56-2.98-.72l.43-1.56c1.13.74,2.23.74,2.52.74,1.88,0,2.16-1.16,2.16-1.68,0-1.01-.8-1.6-1.8-1.6-.48,0-.96.13-1.29.47h-1.43s-.01-5.39-.01-5.39h5.49s0,1.53,0,1.53Z" style="fill:#0068b7;"/><path d="M34.35,110.07c-.32-.02-.36-.03-.52-.03-.54,0-2.33,0-3.09,2.74.29-.26.91-.82,2.04-.82,1.52,0,3.13,1.12,3.14,3.16,0,1.94-1.49,3.32-3.35,3.33-1.73,0-3.62-1.15-3.63-4.31,0-2.91,1.68-5.64,4.77-5.65.25,0,.53.02.64.02v1.56ZM32.53,113.44c-.88,0-1.86.58-1.86,1.62,0,.92.71,1.83,1.84,1.83,1.16,0,1.71-.88,1.71-1.74,0-1.61-1.37-1.71-1.69-1.71Z" style="fill:#0068b7;"/><path d="M39.97,112.86v1.55s-3.35,0-3.35,0v-1.55s3.35,0,3.35,0Z" style="fill:#0068b7;"/><path d="M40.9,113.45c0-1.69.29-2.81.8-3.59.61-.96,1.63-1.4,2.62-1.4,3.43,0,3.44,4.09,3.44,4.97,0,.89.01,4.98-3.42,4.98-3.43,0-3.44-4.09-3.44-4.97ZM46.06,113.44c0-2.06-.48-3.43-1.75-3.43-1.36,0-1.74,1.54-1.73,3.43,0,2.07.48,3.43,1.75,3.43,1.32,0,1.74-1.47,1.73-3.43Z" style="fill:#0068b7;"/><path d="M48.81,113.43c0-1.69.29-2.81.8-3.59.61-.96,1.63-1.39,2.62-1.4,3.43,0,3.44,4.09,3.44,4.97,0,.89.01,4.98-3.42,4.98-3.43,0-3.44-4.09-3.44-4.97ZM53.97,113.42c0-2.06-.48-3.43-1.75-3.43-1.36,0-1.74,1.54-1.73,3.43,0,2.07.48,3.43,1.75,3.43,1.32,0,1.74-1.47,1.73-3.43Z" style="fill:#0068b7;"/><path d="M59.79,108.62h1.5s.02,9.57.02,9.57h-1.7s-.02-7.74-.02-7.74l-1.74,1.22-.22-1.57,2.16-1.47Z" style="fill:#0068b7;"/><path d="M71.54,108.59v1.58s-4.61,8-4.61,8h-1.9s4.7-8.03,4.7-8.03h-5.17s0-1.54,0-1.54l6.98-.02Z" style="fill:#0068b7;"/><path d="M76.23,117.64c.88-.33,4.06-1.5,4.77-5.42h-4.62s0-1.53,0-1.53h4.73s0-2.78,0-2.78h1.61s0,2.53,0,2.53c0,.04-.01.18-.01.24h4.9s0,1.52,0,1.52h-4.69c.7,3.22,2.61,4.57,4.97,5.46l-.92,1.55c-1.15-.46-3.84-1.71-4.92-5.11-1.28,3.55-3.98,4.7-4.87,5.07l-.95-1.53Z" style="fill:#0068b7;"/><path d="M88.58,108.27h3.79s0,1.28,0,1.28c-.24.98-.43,1.49-.86,2.66.73,1.01.91,2.33.91,2.89,0,1.82-1.09,1.85-1.56,1.85h-.5s-.21-1.4-.21-1.4h.43c.25,0,.56-.05.56-.65,0-.77-.05-1.5-.94-2.53.45-1.2.58-1.66.85-2.82h-1.07s.02,9.66.02,9.66h-1.4s-.02-10.93-.02-10.93ZM99.03,119.18c-.49-.25-1.42-.73-2.32-1.66-1.05.93-1.96,1.38-2.56,1.67l-.71-1.26c-.26.55-.51.92-.76,1.3l-1.23-1.02c1.03-1.25,1.53-2.77,1.52-6.06v-3.9s6.61-.01,6.61-.01v1.38s-5.2.01-5.2.01v1.66s4.83-.01,4.83-.01v1.34c-.29,1.87-.84,2.91-1.49,3.79.79.74,1.56,1.09,2.13,1.33l-.81,1.44ZM95.91,112.95c.19.88.42,1.59.89,2.35.79-1.16.89-2.14.94-2.68h-3.36c-.04,1.8-.06,3.44-.91,5.24.71-.3,1.45-.62,2.35-1.46-.79-1.22-1.07-2.44-1.22-3.17l1.31-.28Z" style="fill:#0068b7;"/><path d="M103.66,114.71c-.3.35-.48.52-.74.77l-.55-.96c-.03,1.49-.3,3.37-.99,4.65l-1.2-1.18c.74-1.7.74-3.47.73-4.02v-5.24s4.43,0,4.43,0v-.89s1.53,0,1.53,0v.89s4.66-.01,4.66-.01v1.42s-9.17.02-9.17.02v3.8c.63-.57,1.42-1.52,2.23-3.66l1.33.43c-.15.42-.38,1.04-.84,1.88v6.57s-1.41,0-1.41,0v-4.46ZM110.54,110.4v1.41s1.05,0,1.05,0v1.4s-1.04,0-1.04,0v4.94c.01.79-.65,1-.95,1h-2.18s-.31-1.44-.31-1.44h1.67c.2,0,.31-.05.31-.35v-4.14s-3.45,0-3.45,0v-1.4s3.44,0,3.44,0v-1.41s1.47,0,1.47,0ZM106.97,113.67c.36.5.81,1.16,1.42,2.58l-1.33.67c-.31-.92-.86-1.95-1.32-2.65l1.23-.6Z" style="fill:#0068b7;"/><path d="M112.18,117.56c.87-.33,4.06-1.5,4.77-5.42h-4.62s0-1.53,0-1.53h4.73s0-2.78,0-2.78h1.61s0,2.53,0,2.53c0,.04-.01.18-.01.24h4.91s0,1.52,0,1.52h-4.69c.7,3.22,2.61,4.57,4.97,5.46l-.92,1.55c-1.15-.46-3.84-1.71-4.92-5.11-1.27,3.55-3.98,4.7-4.87,5.07l-.95-1.53Z" style="fill:#0068b7;"/><path d="M124.53,108.19h3.79s0,1.28,0,1.28c-.24.98-.43,1.49-.86,2.66.73,1.01.91,2.33.91,2.89,0,1.82-1.09,1.85-1.55,1.85h-.5s-.21-1.4-.21-1.4h.43c.25,0,.56-.05.56-.65,0-.77-.05-1.5-.94-2.53.45-1.2.58-1.66.85-2.82h-1.07s.02,9.66.02,9.66h-1.4s-.02-10.93-.02-10.93ZM134.99,119.1c-.49-.25-1.42-.73-2.32-1.66-1.05.93-1.96,1.38-2.56,1.67l-.71-1.26c-.26.55-.51.92-.77,1.3l-1.23-1.02c1.03-1.25,1.53-2.77,1.52-6.06v-3.9s6.61-.02,6.61-.02v1.38s-5.2.01-5.2.01v1.66s4.82-.01,4.82-.01v1.34c-.29,1.87-.84,2.91-1.49,3.79.79.74,1.56,1.09,2.13,1.33l-.81,1.44ZM131.87,112.87c.19.88.42,1.59.89,2.35.79-1.16.89-2.14.94-2.68h-3.36c-.04,1.79-.06,3.44-.91,5.24.71-.3,1.45-.61,2.35-1.46-.79-1.22-1.07-2.44-1.22-3.17l1.31-.28Z" style="fill:#0068b7;"/><path d="M147.57,110.4h-4.92s0,1.16,0,1.16h3.99s.01,5.35.01,5.35c0,1.09-.72,1.27-1.08,1.27h-1.82s-.28-1.54-.28-1.54h1.41c.26,0,.28-.11.28-.33v-3.32s-2.51,0-2.51,0v6.09s-1.5,0-1.5,0v-6.09s-2.42,0-2.42,0v5.3s-1.5,0-1.5,0l-.02-6.74h3.92s0-1.16,0-1.16h-4.86s0-1.45,0-1.45h4.86s0-1.16,0-1.16h1.51s0,1.15,0,1.15h4.92s0,1.45,0,1.45Z" style="fill:#0068b7;"/><path d="M148.83,110.94c.85.32,1.41.66,2.07,1.18l-.82,1.29c-.71-.61-1.07-.81-1.98-1.23l.74-1.24ZM149.32,107.77c.24.1,1.26.51,2.09,1.16l-.86,1.29c-.67-.55-1.29-.94-2.02-1.24l.79-1.2ZM151.42,114.88c-.37.91-1.4,3.04-2.41,4.2l-.94-1.4c.79-.97,1.54-2.19,2.17-3.7l1.18.9ZM150.72,117.46c.49-.05.79-.07,1.31-.15l-.02-8.48h2.73s0-1.05,0-1.05h1.49s0,1.04,0,1.04h2.89s.01,5.29.01,5.29h-3.3c.13.38.29.81.79,1.41,1.03-.7,1.39-1.11,1.63-1.38l1.19.91c-.57.59-1.03.95-1.81,1.44.91.72,1.58.98,2.09,1.18l-.87,1.38c-.44-.23-1.84-.97-2.94-2.21v1.19c-1.81.42-4.45.79-4.92.86l-.27-1.44ZM153.46,110.06v.9s4.21,0,4.21,0v-.9s-4.21,0-4.21,0ZM153.47,112.01v.9s4.21,0,4.21,0v-.9s-4.21,0-4.21,0ZM153.47,114.13v2.99c1.23-.17,2.2-.38,2.32-.4-.89-1.04-1.24-2.08-1.41-2.59h-.91Z" style="fill:#0068b7;"/><path d="M161.45,107.86c.78.6,1.49,1.46,1.9,2.04l-1.16,1.02c-.47-.8-1.05-1.5-1.77-2.08l1.03-.97ZM160.32,112.29h2.6s0,3.27,0,3.27c.26,1.62,1.89,1.79,2.45,1.79h6.36s-.3,1.41-.3,1.41h-5.88c-1.9.02-2.62-.8-3.04-1.26-.66.77-.83.9-1.71,1.59l-.62-1.53c.44-.22.98-.6,1.31-.97v-2.87s-1.18,0-1.18,0v-1.43ZM163.3,115.55c.47-.16,1.52-.51,2.85-1.74h-2.21s0-3.4,0-3.4h2.82s0-.59,0-.59h-3.29s0-1.26,0-1.26h3.29s0-.81,0-.81h1.38s0,.8,0,.8h3.36s0,1.26,0,1.26h-3.36s0,.6,0,.6h2.9s0,3.4,0,3.4h-2.12c.87.89,1.59,1.32,2.74,1.76l-.8,1.3c-1.19-.62-1.91-1.2-2.72-2.31v2.61s-1.37,0-1.37,0v-2.4c-.76.89-1.45,1.41-2.59,2.03l-.88-1.25ZM165.29,111.49v1.16s1.49,0,1.49,0v-1.16s-1.49,0-1.49,0ZM168.12,111.48v1.16s1.57,0,1.57,0v-1.16s-1.57,0-1.57,0Z" style="fill:#0068b7;"/><path d="M183.26,108.08v1.42s-9.09.02-9.09.02l.02,7.77,9.35-.02v1.43s-10.9.02-10.9.02l-.02-10.61,10.64-.02ZM181.93,110.31c-.56,1.08-1.06,1.84-1.77,2.74,1.33.93,2.01,1.53,2.75,2.22l-1.15,1.31c-.65-.67-1.38-1.42-2.64-2.38-1.41,1.41-3.09,2.39-3.68,2.74l-.96-1.21c1.23-.62,2.3-1.29,3.41-2.37-1.01-.65-1.77-1.06-2.91-1.58l.79-1.19c1.73.82,2.64,1.34,3.13,1.64.82-1.05,1.3-2.08,1.5-2.5l1.51.57Z" style="fill:#0068b7;"/><path d="M191.08,109.52c-.04.14-.06.23-.14.53h3.86s0,.94,0,.94h-1.83c.08.23.16.4.3.65h2.19s0,1.1,0,1.1h-1.28c.59.54,1.07.79,1.45.98l-.8,1.21c-.34-.22-.75-.45-1.36-1.03v.6s-1.92,0-1.92,0c-.02.22-.04.36-.11.72h3.71s0,1.13,0,1.13h-2.78c1.35,1.01,2.58,1.22,3.13,1.32l-.65,1.36c-1.67-.38-3.18-1.4-3.99-2.49-.93,1.61-2.18,2.15-3.53,2.54l-.71-1.39c1.75-.32,2.55-.97,2.86-1.33h-2.46s0-1.13,0-1.13h3.02c.07-.29.08-.49.11-.73h-1.68s0-.67,0-.67c-.44.42-.79.7-1.2,1l-.94-1.11c.34-.22.8-.52,1.32-.98h-.97s0-.68,0-.68l-.82,1.15c-.53-.51-.94-.79-1.74-1.18l.77-1.13c.67.27,1.25.62,1.8,1.12v-.38s2,0,2,0c.15-.22.27-.4.41-.65h-1.7s0-.94,0-.94h2.13c.05-.15.07-.23.17-.53h-2.67s0-.59,0-.59l-.79,1.18c-.5-.49-1.04-.86-1.81-1.19l.75-1.13c.95.36,1.39.66,1.85,1.05v-.44s2.89,0,2.89,0c.05-.42.06-.52.08-.78l1.4.07c-.04.34-.06.49-.09.71h3.84s0,1.13,0,1.13h-4.07ZM186.86,114.67c-.28,1.22-.83,2.84-1.67,4.22l-1.09-1.21c1.08-1.62,1.49-3.15,1.66-3.73l1.11.72ZM193.05,113.43c-.18-.2-.35-.43-.52-.68h-3.02c-.19.25-.36.44-.61.69h4.15ZM191.88,111.65c-.18-.37-.21-.43-.31-.65h-.97c-.18.39-.22.46-.32.65h1.61Z" style="fill:#0068b7;"/><path d="M202.41,108.08l.02,9.63h-5.88s-.02-9.62-.02-9.62h5.88ZM198.87,109.48h-.96s0,2.67,0,2.67h.96s0-2.67,0-2.67ZM198.88,113.45h-.96s0,2.87,0,2.87h.96s0-2.87,0-2.87ZM201.14,109.48h-1.03s0,2.67,0,2.67h1.03s0-2.67,0-2.67ZM201.15,113.45h-1.03s0,2.87,0,2.87h1.03s0-2.87,0-2.87ZM206.47,117.89c0,.5-.21,1.05-1.07,1.06h-2.15s-.25-1.5-.25-1.5h1.61c.3,0,.34-.17.34-.34l-.02-6.76h-2.28s0-1.53,0-1.53h4.86s0,1.52,0,1.52h-1.06s.02,7.56.02,7.56Z" style="fill:#0068b7;"/><path d="M213.48,108.28h1.5s.02,9.57.02,9.57h-1.7s-.02-7.74-.02-7.74l-1.74,1.22-.22-1.57,2.16-1.47Z" style="fill:#0068b7;"/><path d="M223.51,112.28v1.55s-3.35,0-3.35,0v-1.55s3.35,0,3.35,0Z" style="fill:#0068b7;"/><path d="M226.8,115.7c.31.22,1.13.75,2.6.75,1.62,0,2.14-.87,2.14-1.59,0-.77-.63-1.39-2.07-1.39h-1.02s0-1.44,0-1.44h.95c1.2,0,1.61-.7,1.6-1.27,0-.84-.76-1.19-1.43-1.18-.95,0-1.74.45-2.34,1.11l-.6-1.49c.84-.76,1.84-1.17,2.97-1.17,1.73,0,3.06,1.01,3.06,2.6,0,1.27-.84,1.76-1.18,1.97.52.23,1.75.77,1.76,2.42,0,1.36-1.01,2.96-3.84,2.97-1.68,0-2.71-.57-3.1-.77l.49-1.53Z" style="fill:#0068b7;"/><path d="M239.49,112.25v1.55s-3.35,0-3.35,0v-1.55s3.35,0,3.35,0Z" style="fill:#0068b7;"/><path d="M245.44,108.2h1.5s.02,9.57.02,9.57h-1.7s-.02-7.74-.02-7.74l-1.74,1.22-.22-1.57,2.16-1.47Z" style="fill:#0068b7;"/><path d="M260.37,118.03l-.02-8h1.26s0,2.84,0,2.84c.16-.17.63-.7,1.59-.7.88,0,1.43.48,1.64.92.22.44.26.87.26,1.72v3.21s-1.26,0-1.26,0v-3.24c0-.63-.01-1.46-1.01-1.45-.2,0-1.23.05-1.22,1.46v3.24s-1.26,0-1.26,0Z" style="fill:#0068b7;"/><path d="M266.55,110.66h1.26s0,1.65,0,1.65h1.6s0,1.16,0,1.16h-1.6s0,2.75,0,2.75c0,.49.06.79.73.78.29,0,.62-.05.79-.07v1.15c-.17.02-.58.08-1.07.08-1.71,0-1.71-1.01-1.71-1.86v-2.83s-.69,0-.69,0v-1.16s.68,0,.68,0v-1.65Z" style="fill:#0068b7;"/><path d="M270.42,110.66h1.27s0,1.65,0,1.65h1.6s0,1.15,0,1.15h-1.6s0,2.75,0,2.75c0,.49.06.79.73.78.29,0,.62-.05.79-.07v1.15c-.17.02-.58.08-1.07.08-1.71,0-1.71-1.01-1.71-1.86v-2.83s-.69,0-.69,0v-1.16s.68,0,.68,0v-1.65Z" style="fill:#0068b7;"/><path d="M275.29,112.92c.3-.32.74-.78,1.69-.78,1.57,0,2.52,1.34,2.53,3,0,1.55-.87,3-2.52,3-.86,0-1.38-.45-1.65-.71v3.11s-1.26,0-1.26,0l-.02-8.25h1.23s0,.62,0,.62ZM276.79,116.99c1,0,1.46-.85,1.45-1.85,0-.99-.46-1.84-1.46-1.84-.49,0-1.48.26-1.48,1.84,0,1.6,1.01,1.85,1.49,1.85Z" style="fill:#0068b7;"/><path d="M283.71,113.66c-.38-.23-.81-.38-1.28-.38-.32,0-.83.11-.83.59,0,.41.2.48,1.3.82.56.17,1.47.49,1.47,1.64,0,1.28-1.16,1.8-2.36,1.81-.2,0-1.08,0-1.94-.49l.42-1.11c.22.13.76.45,1.57.45.92,0,1.04-.46,1.04-.66,0-.43-.28-.53-1.29-.83-.71-.22-1.48-.57-1.48-1.62,0-1.02.83-1.74,2.07-1.74.59,0,1.1.14,1.63.4l-.32,1.14Z" style="fill:#0068b7;"/><path d="M286.77,112.27v1.52s-1.5,0-1.5,0v-1.52s1.5,0,1.5,0ZM286.78,116.45v1.52s-1.5,0-1.5,0v-1.52s1.5,0,1.5,0Z" style="fill:#0068b7;"/><path d="M292,110.31l-3.31,7.65h-1.08s3.31-7.65,3.31-7.65h1.08Z" style="fill:#0068b7;"/><path d="M296.8,110.3l-3.31,7.65h-1.08s3.31-7.65,3.31-7.65h1.08Z" style="fill:#0068b7;"/><path d="M303.08,116.59l1.18-4.36h1.28s-1.65,5.7-1.65,5.7h-1.53s-1.05-4.46-1.05-4.46l-1.03,4.47h-1.53s-1.68-5.69-1.68-5.69h1.28s1.2,4.35,1.2,4.35l1.01-4.36h1.52s1.02,4.35,1.02,4.35Z" style="fill:#0068b7;"/><path d="M311.69,116.57l1.18-4.36h1.28s-1.65,5.7-1.65,5.7h-1.53s-1.05-4.46-1.05-4.46l-1.03,4.47h-1.53s-1.68-5.69-1.68-5.69h1.28s1.2,4.35,1.2,4.35l1.01-4.36h1.52s1.02,4.35,1.02,4.35Z" style="fill:#0068b7;"/><path d="M320.3,116.55l1.18-4.36h1.28s-1.65,5.7-1.65,5.7h-1.53s-1.05-4.46-1.05-4.46l-1.03,4.47h-1.53s-1.68-5.69-1.68-5.69h1.28s1.2,4.35,1.2,4.35l1.01-4.36h1.52s1.02,4.35,1.02,4.35Z" style="fill:#0068b7;"/><path d="M324.97,116.36v1.52s-1.5,0-1.5,0v-1.52s1.5,0,1.5,0Z" style="fill:#0068b7;"/><path d="M328.79,112.02c1.5,0,2.82,1.14,2.82,2.99,0,1.86-1.31,3.01-2.82,3.01-1.49,0-2.82-1.13-2.82-3,0-1.87,1.33-3,2.82-3.01ZM328.79,116.87c.63,0,1.56-.41,1.56-1.85,0-1.44-.93-1.84-1.56-1.84-.6,0-1.56.38-1.56,1.84,0,1.48.96,1.85,1.56,1.85Z" style="fill:#0068b7;"/><path d="M337.33,112.15v5.7s-1.21,0-1.21,0v-.63c-.14.18-.59.79-1.62.79-.96,0-1.47-.55-1.65-.93-.22-.43-.26-.86-.26-1.71v-3.21s1.26,0,1.26,0v3.24c0,.63.01,1.46,1.01,1.45.16,0,1.23-.04,1.22-1.46v-3.24s1.26,0,1.26,0Z" style="fill:#0068b7;"/><path d="M342.49,117.21c-.3.32-.73.79-1.68.79-1.57,0-2.53-1.35-2.54-3,0-1.55.87-3,2.52-3,.87,0,1.39.45,1.66.71v-2.86s1.26,0,1.26,0l.02,8h-1.24s0-.63,0-.63ZM341,113.15c-1,0-1.46.85-1.46,1.84,0,1,.47,1.85,1.47,1.85.49,0,1.48-.26,1.48-1.85,0-1.59-1.01-1.84-1.49-1.84Z" style="fill:#0068b7;"/><path d="M346.46,116.31v1.52s-1.5,0-1.5,0v-1.52s1.5,0,1.5,0Z" style="fill:#0068b7;"/><path d="M352.17,117.58c-.23.12-.78.39-1.72.4-1.91,0-3-1.19-3.01-2.96,0-1.9,1.3-3.04,2.94-3.04.98,0,1.57.37,1.77.5l-.32,1.12c-.17-.14-.61-.47-1.36-.47-1.06,0-1.78.72-1.78,1.84,0,.99.53,1.85,1.81,1.85.85,0,1.38-.34,1.66-.51v1.27Z" style="fill:#0068b7;"/><path d="M355.7,111.96c1.5,0,2.82,1.14,2.82,2.99,0,1.86-1.31,3.01-2.82,3.02-1.49,0-2.82-1.13-2.82-3,0-1.87,1.32-3,2.82-3.01ZM355.7,116.81c.63,0,1.56-.41,1.56-1.85,0-1.44-.93-1.84-1.56-1.84-.6,0-1.56.38-1.56,1.84,0,1.48.96,1.85,1.56,1.85Z" style="fill:#0068b7;"/><path d="M361.04,116.28v1.52s-1.5,0-1.5,0v-1.52s1.5,0,1.5,0Z" style="fill:#0068b7;"/><path d="M364.71,118.1c0,.89,0,2.24-1.71,2.25-.58,0-.92-.16-1.17-.27l.09-1.11c.18.09.49.22.86.22.63,0,.66-.55.66-.91v-6.18s1.25,0,1.25,0v6.01ZM364.76,111.36h-1.4s0-1.36,0-1.36h1.4s0,1.36,0,1.36Z" style="fill:#0068b7;"/><path d="M367.34,112.71c.3-.32.74-.78,1.69-.78,1.57,0,2.52,1.34,2.53,3,0,1.55-.86,3-2.52,3-.86,0-1.38-.45-1.65-.72v3.11s-1.26,0-1.26,0l-.02-8.25h1.23s0,.62,0,.62ZM368.84,116.78c1,0,1.46-.85,1.45-1.85,0-.99-.46-1.84-1.46-1.84-.49,0-1.48.26-1.48,1.84,0,1.6,1.01,1.85,1.49,1.85Z" style="fill:#0068b7;"/><path d="M376.5,110.12l-3.31,7.65h-1.08s3.31-7.65,3.31-7.65h1.08Z" style="fill:#0068b7;"/><path d="M377.31,117.77v-5.7s1.21,0,1.21,0v.63c.56-.85,1.48-.8,1.73-.78v1.15c-.89-.05-1.69.23-1.69,1.52v3.18s-1.26,0-1.26,0Z" style="fill:#0068b7;"/><path d="M382.54,111.32h-1.4s0-1.36,0-1.36h1.4s0,1.36,0,1.36ZM382.49,117.75h-1.26s-.01-5.7-.01-5.7h1.26s.01,5.7.01,5.7Z" style="fill:#0068b7;"/><path d="M387.02,112.04h1.32s-1.77,5.7-1.77,5.7h-1.53s-1.79-5.69-1.79-5.69h1.31s1.24,4.32,1.24,4.32l1.22-4.32Z" style="fill:#0068b7;"/><path d="M390.02,115.29c.04.37.15,1.47,1.74,1.47.83,0,1.32-.23,1.78-.47v1.23c-.29.12-.9.37-1.84.37-2.39,0-2.94-1.8-2.94-2.95,0-1.8,1.09-3.05,2.64-3.05.62,0,1.76.22,2.3,1.55.25.59.29,1.29.28,1.86h-3.97ZM392.73,114.32c-.15-1.28-1.1-1.34-1.34-1.34-.21,0-1.18.05-1.35,1.34h2.69Z" style="fill:#0068b7;"/><path d="M394.97,117.73v-5.7s1.21,0,1.21,0v.63c.56-.85,1.48-.8,1.73-.78v1.15c-.89-.05-1.69.23-1.69,1.52v3.18s-1.26,0-1.26,0Z" style="fill:#0068b7;"/><path d="M400,112.64c.3-.32.74-.78,1.69-.78,1.57,0,2.52,1.34,2.53,3,0,1.55-.87,3-2.52,3-.86,0-1.38-.45-1.65-.72v3.11s-1.26,0-1.26,0l-.02-8.25h1.23s0,.62,0,.62ZM401.51,116.71c1,0,1.45-.85,1.45-1.85,0-.99-.46-1.84-1.46-1.84-.49,0-1.48.26-1.48,1.84,0,1.6,1.01,1.85,1.49,1.85Z" style="fill:#0068b7;"/><path d="M407.44,117.7h-.62c-1.39,0-1.53-.57-1.54-1.56v-6.44s1.25,0,1.25,0v6.35c.02.29.04.49.5.49h.4s0,1.16,0,1.16Z" style="fill:#0068b7;"/><path d="M408.42,112.35c.62-.34,1.24-.51,1.95-.51.56,0,1.45.09,2.01.75.28.34.4.75.41,1.52v2.27c0,.81.14,1.12.23,1.3h-1.24c-.08-.16-.11-.3-.13-.58-.73.73-1.55.74-1.8.74-1,0-1.91-.57-1.91-1.74,0-1.66,1.65-1.88,2.7-2.02.62-.09.9-.12.9-.47,0-.36-.37-.65-1.13-.65-.69,0-1.3.22-1.89.59l-.11-1.21ZM411.57,114.88c-.29.13-.36.14-1.06.24-.6.08-1.36.18-1.36.93,0,.38.24.71.8.71.11,0,1.03,0,1.63-.96v-.92Z" style="fill:#0068b7;"/><path d="M418.56,117.43c-.23.12-.77.39-1.72.4-1.91,0-3-1.19-3.01-2.96,0-1.9,1.3-3.04,2.95-3.04.98,0,1.57.37,1.77.5l-.32,1.12c-.17-.14-.61-.47-1.36-.47-1.06,0-1.78.72-1.78,1.84,0,.99.53,1.85,1.82,1.85.85,0,1.38-.34,1.66-.51v1.27Z" style="fill:#0068b7;"/><path d="M420.5,115.23c.04.37.15,1.47,1.74,1.47.83,0,1.32-.23,1.78-.47v1.23c-.28.12-.9.37-1.84.37-2.4,0-2.94-1.8-2.94-2.95,0-1.8,1.09-3.05,2.64-3.05.62,0,1.76.22,2.3,1.55.25.59.29,1.29.28,1.86h-3.97ZM423.21,114.25c-.15-1.28-1.1-1.34-1.34-1.34-.21,0-1.18.05-1.35,1.34h2.69Z" style="fill:#0068b7;"/><path d="M429.43,110l-3.31,7.65h-1.08s3.31-7.65,3.31-7.65h1.08Z" style="fill:#0068b7;"/><path d="M431.66,111.21h-1.4s0-1.36,0-1.36h1.4s0,1.36,0,1.36ZM431.61,117.64h-1.26s-.01-5.7-.01-5.7h1.26s.01,5.7.01,5.7Z" style="fill:#0068b7;"/><path d="M432.91,117.64v-5.7s1.2,0,1.2,0v.62c.15-.17.6-.78,1.63-.78.96,0,1.47.54,1.65.92.22.44.26.87.26,1.72v3.21s-1.26,0-1.26,0v-3.24c0-.64-.01-1.46-1.01-1.45-.16,0-1.23.03-1.22,1.46v3.24s-1.26,0-1.26,0Z" style="fill:#0068b7;"/><path d="M442.81,116.99c-.3.32-.73.79-1.69.79-1.57,0-2.53-1.35-2.54-3,0-1.55.87-3,2.52-3,.87,0,1.39.45,1.66.71v-2.86s1.26,0,1.26,0l.02,8h-1.24s0-.63,0-.63ZM441.31,112.93c-1,0-1.46.85-1.46,1.84,0,1,.47,1.85,1.47,1.85.49,0,1.48-.26,1.48-1.85s-1.01-1.84-1.49-1.84Z" style="fill:#0068b7;"/><path d="M446.25,115.17c.04.37.15,1.47,1.74,1.47.83,0,1.32-.23,1.78-.47v1.23c-.29.12-.9.37-1.84.37-2.4,0-2.94-1.8-2.94-2.95,0-1.8,1.09-3.05,2.64-3.05.62,0,1.76.23,2.3,1.55.25.59.29,1.29.28,1.86h-3.97ZM448.96,114.19c-.15-1.28-1.1-1.34-1.34-1.34-.21,0-1.18.05-1.35,1.34h2.69Z" style="fill:#0068b7;"/><path d="M453.34,113.71l1.11-1.81h1.42s-1.76,2.73-1.76,2.73l1.9,2.97h-1.43s-1.24-2.02-1.24-2.02l-1.23,2.02h-1.43s1.89-2.97,1.89-2.97l-1.77-2.73h1.42s1.12,1.8,1.12,1.8Z" style="fill:#0068b7;"/><path d="M458.22,116.06v1.52s-1.5,0-1.5,0v-1.52s1.5,0,1.5,0Z" style="fill:#0068b7;"/><path d="M460.68,112.5c.3-.32.74-.78,1.69-.78,1.57,0,2.52,1.34,2.53,3,0,1.55-.87,3-2.52,3-.86,0-1.38-.45-1.65-.72v3.11s-1.26,0-1.26,0l-.02-8.25h1.23s0,.62,0,.62ZM462.18,116.57c1,0,1.45-.85,1.45-1.85,0-.99-.46-1.84-1.46-1.84-.49,0-1.48.26-1.48,1.84,0,1.6,1.01,1.85,1.49,1.85Z" style="fill:#0068b7;"/><path d="M465.85,117.57l-.02-8h1.26s0,2.84,0,2.84c.16-.17.63-.7,1.59-.7.88,0,1.43.48,1.64.92.22.44.26.87.26,1.72v3.21s-1.26,0-1.26,0v-3.24c0-.63,0-1.46-1.01-1.45-.2,0-1.23.05-1.22,1.46v3.24s-1.26,0-1.26,0Z" style="fill:#0068b7;"/><path d="M473.02,112.47c.3-.32.74-.78,1.69-.78,1.57,0,2.52,1.34,2.53,3,0,1.55-.87,3-2.52,3-.86,0-1.38-.45-1.65-.71v3.11s-1.26,0-1.26,0l-.02-8.25h1.23s0,.62,0,.62ZM474.52,116.54c1,0,1.45-.85,1.45-1.85,0-.99-.46-1.84-1.46-1.84-.49,0-1.48.26-1.48,1.84,0,1.6,1.01,1.85,1.49,1.85Z" style="fill:#0068b7;"/><path d="M185.72,4.86l.09,37.97-20.5.05-.09-37.97,20.5-.05ZM167.68,22.53h3.47s-.03-15.22-.03-15.22h-3.47s.03,15.22.03,15.22ZM167.72,40.41h3.47s-.03-15.42-.03-15.42h-3.47s.03,15.42.03,15.42ZM183.31,7.28h-3.68s.03,15.22.03,15.22h3.68s-.03-15.22-.03-15.22ZM179.71,40.38h3.68s-.03-15.42-.03-15.42h-3.68s.03,15.42.03,15.42ZM209.4,10.85h-4.18s.09,38.33.09,38.33c-6.85.02-12.04-.07-15.61-.32l.15-2.57c2.77.14,4.79.24,6.09.24l-.08-35.66-8.61.02v-2.57s22.15-.05,22.15-.05v2.57Z" style="fill:#fff100;"/><path d="M217.6,5.29h3.53s.06,26.78.06,26.78h-3.53s-.06-26.78-.06-26.78ZM251.1,32.31c-2.51,4.49-5.57,7.82-9.24,10.14-4.83,3.03-11.37,4.71-19.63,5.13l-.21-2.92c7.55-.42,13.44-1.89,17.72-4.42l-.08-35.45,11.38-.03.06,27.55Z" style="fill:#fff100;"/><path d="M265.99,6.29l10.73.33c-.82,15.92-4.62,29.47-11.29,40.77l-9.48-4.56c6.17-9.89,9.57-22.03,10.04-36.54ZM292.58,26.03c2.38,7.45,5.47,13.49,9.1,18.01l-2.71,1.92c-3.89-4.82-7.08-11.11-9.66-18.91-2.28-6.84-3.66-13.64-4.17-20.29l3.42-.26c.52,6.39,1.89,12.89,4.02,19.53ZM295.15,4.97c.45.45.66.96.66,1.56,0,.61-.2,1.11-.65,1.56-.4.4-.96.66-1.56.66-.65,0-1.11-.25-1.56-.65-.45-.45-.66-.95-.66-1.56,0-.6.2-1.11.65-1.56.45-.45.9-.66,1.56-.66.6,0,1.16.2,1.56.65ZM301.14,4.91c.4.45.61,1.01.61,1.61,0,.66-.2,1.16-.6,1.61-.45.4-.96.61-1.61.61-.6,0-1.11-.25-1.51-.65-.45-.45-.66-.95-.66-1.56,0-.6.2-1.11.65-1.56.4-.45.9-.66,1.51-.66.66,0,1.16.2,1.61.6Z" style="fill:#fff100;"/><path d="M307.33,27.1v-3.32s42.5-.1,42.5-.1v3.32s-42.5.1-42.5.1Z" style="fill:#fff100;"/><path d="M156.91,55.08c.96.9,1.41,2.11,1.42,3.47,0,1.36-.45,2.57-1.4,3.48-.95.96-2.16,1.47-3.52,1.47-.15,0-.35,0-.5-.05l.03,11.89c-6.42,11.19-17.18,18.77-32.33,22.79l-.91-2.82c8.51-2.29,15.5-5.78,21.18-10.52l-.05-22.01-27.09.06v-2.97s34.89-.08,34.89-.08c-.1-.45-.15-.8-.15-1.21,0-1.36.5-2.57,1.4-3.48.95-.96,2.11-1.47,3.52-1.47,1.36,0,2.57.5,3.53,1.45ZM155.41,60.52c.55-.56.8-1.21.8-1.97,0-.81-.21-1.46-.76-2.01-.56-.55-1.26-.8-2.07-.8-.81,0-1.46.25-1.96.81-.55.56-.85,1.21-.85,2.02,0,.76.31,1.41.86,1.96.51.55,1.21.85,1.97.85s1.46-.31,2.01-.86Z" style="fill:#fff100;"/><path d="M203.97,68.22c-1.99,8.92-5.61,15.62-10.73,20.17-6.23,5.5-15.29,8.6-27.07,9.13l-.09-42.1,11.43-.03.08,37.52c5.49-1.32,9.96-3.55,13.33-6.58,4.67-4.09,7.93-10.34,9.83-18.66l3.22.55Z" style="fill:#fff100;"/><path d="M241.13,67.17l.07,31.17-11.63.03-.05-22.96c-5.98,3.59-11.87,6.32-17.61,8.1l-1.01-3.32c7.15-2.18,14.14-5.62,20.98-10.22,7.34-4.9,12.97-10.2,16.89-15.85l3.03,1.96c-2.71,3.68-6.23,7.37-10.65,11.1Z" style="fill:#fff100;"/><path d="M300.87,97.31c-5.3-4.22-11.4-8.64-18.36-13.15-6.33,5.6-13.62,10.15-22.03,13.55l-1.21-2.82c9.21-3.8,17-8.85,23.43-15.26l-.04-19.24-21,.05v-2.97s33.08-.07,33.08-.07l.03,12.04c-2.56,4.44-5.92,8.62-9.94,12.61,7.51,4.97,13.52,9.29,18.01,12.85l-1.96,2.42Z" style="fill:#fff100;"/><path d="M359.19,64.5c.77.73,1.14,1.71,1.14,2.8,0,1.1-.36,2.07-1.13,2.81-.77.77-1.75,1.18-2.84,1.19-.12,0-.28,0-.41-.04l.02,9.6c-5.19,9.04-13.88,15.16-26.11,18.4l-.74-2.28c6.87-1.85,12.52-4.66,17.1-8.5l-.04-17.77-21.88.05v-2.4s28.18-.06,28.18-.06c-.08-.37-.12-.65-.12-.98,0-1.1.4-2.08,1.13-2.81.77-.77,1.71-1.18,2.84-1.19,1.1,0,2.08.4,2.85,1.17ZM357.98,68.89c.45-.45.65-.98.65-1.59,0-.65-.17-1.18-.61-1.63-.45-.45-1.02-.65-1.67-.65-.65,0-1.18.21-1.58.65-.45.45-.69.98-.69,1.63,0,.61.25,1.14.69,1.58.41.45.98.69,1.59.69.61,0,1.18-.25,1.63-.7Z" style="fill:#fff100;"/><path d="M395.64,85.48c-4.86,7.82-13.6,12.35-26.2,13.52l-.29-2.4c6.95-.63,12.56-2.22,16.74-4.84l-.03-13.87-22.57.05v-2.36s32.33-.07,32.33-.07l.02,9.96ZM393.32,68.2l-27.09.06v-2.36s27.08-.06,27.08-.06v2.36Z" style="fill:#fff100;"/><path d="M439.42,74.93h-5.61s.03,11.24.03,11.24c-4.25,7.17-11.56,11.66-21.89,13.35l-.49-2.32c5.28-.87,9.63-2.42,13.04-4.71l-.04-17.53-12.77.03.03,11.75h-2.85s-.03-11.75-.03-11.75h-5.94s0-2.35,0-2.35h5.94s-.02-8.31-.02-8.31h2.85s.02,8.29.02,8.29l12.77-.03-.02-8.3,6.75-.02c0,.77.25,1.46.78,2.03.45.61,1.06.93,1.83,1.05v5.2s5.62-.01,5.62-.01v2.36ZM435.49,63.06c.33.37.49.81.49,1.3s-.16.89-.49,1.26c-.37.37-.81.53-1.3.53s-.9-.16-1.26-.53-.53-.77-.53-1.26.16-.94.53-1.3c.36-.37.77-.49,1.26-.49s.93.12,1.3.49ZM440.04,63.05c.37.37.53.81.53,1.3s-.16.89-.53,1.26c-.36.37-.77.53-1.26.53s-.9-.16-1.26-.53c-.33-.37-.49-.77-.49-1.26s.16-.94.49-1.3c.37-.37.77-.49,1.26-.49s.89.12,1.26.49Z" style="fill:#fff100;"/><path d="M475.98,88.92c0,3.21-1.29,5.62-3.97,7.21-2.19,1.39-5.04,2.04-8.41,2.05-3.58,0-6.39-.68-8.5-2.14-2.4-1.66-3.67-4.22-3.68-7.64h2.68c.05,4.92,3.19,7.39,9.49,7.37,2.64,0,4.8-.5,6.5-1.44,2.11-1.18,3.17-2.98,3.16-5.42,0-4.35-3.11-6.46-9.25-6.45h-3.21s0-2.35,0-2.35h3.5c5.65-.02,8.46-2.02,8.45-5.96,0-2.28-1.03-3.9-2.94-4.96-1.59-.85-3.54-1.25-5.98-1.25-5.9.01-8.98,2.26-9.1,6.69l-2.68.05c.07-3.21,1.29-5.57,3.69-7.13,2.03-1.35,4.71-2,8.09-2.01,3.17,0,5.82.6,7.85,1.89,2.52,1.54,3.75,3.73,3.76,6.7,0,3.62-1.7,5.94-5.07,7.09,1.22.36,2.16.85,2.93,1.54,1.75,1.58,2.69,3.61,2.7,6.13Z" style="fill:#fff100; stroke:#fff100; stroke-width:.97px;"/><path d="M142.31,16.31h-3.7c-.81,1.72-1.74,3.38-2.75,5.09l9.23-.02c-1.09-1.76-2.07-3.47-2.78-5.07Z" style="fill:#fff100;"/><path d="M146.76,23.79l-12.54.03c-.76,1.11-1.58,2.17-2.44,3.21l17.51-.04c-.9-1.04-1.75-2.1-2.54-3.2Z" style="fill:#fff100;"/><path d="M119.4,22.32c-2.17-1.81-4.89-3.66-8.11-5.66l-1.35,2.07c3.22,1.9,5.84,3.76,7.96,5.56l1.5-1.96Z" style="fill:#fff100;"/><path d="M110.4,47.34l1.96,1.45c4.36-5.89,7.47-12.39,9.41-19.48l-2.26-.7c-1.9,6.84-4.9,13.09-9.11,18.73Z" style="fill:#fff100;"/><path d="M121.68,9.49c-2.12-1.7-4.79-3.61-8.16-5.66l-1.35,2.07c3.27,2,5.94,3.86,8.06,5.56l1.45-1.96Z" style="fill:#fff100;"/><path d="M150.09,29.42v-1.53c.28.31.56.62.85.92l.7.75c1.87,1.96,3.78,3.66,5.73,5.17l.97-2.11c-3.24-2.51-6.24-5.42-8.93-8.83l8.68-.02v-2.41s-10.52.02-10.52.02c-1.25-1.76-2.27-3.47-3.05-5.07l11.1-.02v-2.46s-11.57.03-11.57.03v-4.32s13.03-.03,13.03-.03v-2.41s-13.05.03-13.05.03v-3.52s-7.37.02-7.37.02v3.52s-12.99.03-12.99.03v2.41s13.01-.03,13.01-.03v4.32s-11.47.03-11.47.03v2.46s11.14-.02,11.14-.02c-.85,1.71-1.82,3.37-2.99,5.09l-10.59.02v2.41s8.88-.02,8.88-.02c-2.64,3.48-5.59,6.4-8.9,8.92l.94,2.11c1.87-1.41,3.69-2.98,5.48-4.84l1.05-1.16c.23-.25.45-.51.67-.77v1.38s6.12-.01,6.12-.01v4.89s-10.35.02-10.35.02v2.48s10.37-.02,10.37-.02v2.28s0,.01,0,.01c-2.63,3.05-6.02,5.57-9.9,7.47l-.5.24,1.29,2.07.43-.21c5.14-2.49,9.29-5.85,12.19-9.98,1.48,2.02,3.22,3.85,5.18,5.44,2.33,1.9,4.88,3.38,7.42,4.41l.45.18,1.1-2.14-.51-.2c-3.64-1.46-7.09-3.93-10.09-7.35l-.03-.06v-2.19s10.49-.02,10.49-.02v-2.48s-10.5.02-10.5.02v-4.89s6.05-.01,6.05-.01ZM138.61,16.32h3.7c.7,1.6,1.68,3.31,2.78,5.06l-9.23.02c1.01-1.71,1.94-3.37,2.75-5.09ZM131.79,27.03c.86-1.04,1.68-2.11,2.44-3.21l12.54-.03c.79,1.1,1.64,2.17,2.54,3.2l-17.51.04Z" style="fill:#fff100;"/><path d="M183.27,1.86l.09,37.97-20.5.05-.09-37.97,20.5-.05ZM165.23,19.52h3.47s-.03-15.22-.03-15.22h-3.47s.03,15.22.03,15.22ZM165.27,37.4h3.47s-.03-15.42-.03-15.42h-3.47s.03,15.42.03,15.42ZM180.86,4.28h-3.68s.03,15.22.03,15.22h3.68s-.03-15.22-.03-15.22ZM177.26,37.37h3.68s-.03-15.42-.03-15.42h-3.68s.03,15.42.03,15.42ZM206.96,7.85h-4.18s.09,38.33.09,38.33c-6.85.02-12.04-.07-15.61-.32l.15-2.57c2.77.14,4.79.24,6.09.24l-.08-35.66-8.61.02v-2.57s22.15-.05,22.15-.05v2.57Z" style="fill:#0068b7;"/><path d="M215.15,2.29h3.53s.06,26.78.06,26.78h-3.53s-.06-26.78-.06-26.78ZM248.65,29.31c-2.51,4.49-5.57,7.82-9.24,10.14-4.83,3.03-11.37,4.71-19.63,5.13l-.21-2.92c7.55-.42,13.44-1.89,17.72-4.42l-.08-35.45,11.38-.03.06,27.55Z" style="fill:#0068b7;"/><path d="M263.55,3.29l10.73.33c-.82,15.92-4.62,29.47-11.29,40.77l-9.48-4.56c6.17-9.89,9.57-22.03,10.04-36.54ZM290.13,23.02c2.38,7.45,5.47,13.49,9.1,18.01l-2.71,1.92c-3.89-4.82-7.08-11.11-9.66-18.91-2.28-6.84-3.66-13.64-4.17-20.29l3.42-.26c.52,6.39,1.89,12.89,4.02,19.53ZM292.71,1.96c.45.45.66.96.66,1.56,0,.61-.2,1.11-.65,1.56-.4.4-.96.66-1.56.66-.65,0-1.11-.25-1.56-.65-.45-.45-.66-.95-.66-1.56,0-.6.2-1.11.65-1.56.45-.45.9-.66,1.56-.66.6,0,1.16.2,1.56.65ZM298.7,1.9c.4.45.61,1.01.61,1.61,0,.66-.2,1.16-.6,1.61-.45.4-.96.61-1.61.61-.6,0-1.11-.25-1.51-.65-.45-.45-.66-.95-.66-1.56,0-.6.2-1.11.65-1.56.4-.45.9-.66,1.51-.66.66,0,1.16.2,1.61.6Z" style="fill:#0068b7;"/><path d="M304.89,24.1v-3.32s42.5-.1,42.5-.1v3.32s-42.5.1-42.5.1Z" style="fill:#0068b7;"/><path d="M154.46,52.07c.96.9,1.41,2.11,1.42,3.47,0,1.36-.45,2.57-1.4,3.48-.95.96-2.16,1.47-3.52,1.47-.15,0-.35,0-.5-.05l.03,11.89c-6.42,11.19-17.18,18.77-32.33,22.79l-.91-2.82c8.51-2.29,15.5-5.78,21.18-10.52l-.05-22.01-27.09.06v-2.97s34.89-.08,34.89-.08c-.1-.45-.15-.8-.15-1.21,0-1.36.5-2.57,1.4-3.48.95-.96,2.11-1.47,3.52-1.47,1.36,0,2.57.5,3.53,1.45ZM152.96,57.51c.55-.56.8-1.21.8-1.97,0-.81-.21-1.46-.76-2.01-.56-.55-1.26-.8-2.07-.8-.81,0-1.46.25-1.96.81-.55.56-.85,1.21-.85,2.02,0,.76.31,1.41.86,1.96.51.55,1.21.85,1.97.85s1.46-.31,2.01-.86Z" style="fill:#0068b7;"/><path d="M201.52,65.21c-1.99,8.92-5.61,15.62-10.73,20.17-6.23,5.5-15.29,8.6-27.07,9.13l-.09-42.1,11.43-.03.08,37.52c5.49-1.32,9.96-3.55,13.33-6.58,4.67-4.09,7.93-10.34,9.83-18.66l3.22.55Z" style="fill:#0068b7;"/><path d="M238.69,64.17l.07,31.17-11.63.03-.05-22.96c-5.98,3.59-11.87,6.32-17.61,8.1l-1.01-3.32c7.15-2.18,14.14-5.62,20.98-10.22,7.34-4.9,12.97-10.2,16.88-15.85l3.03,1.96c-2.71,3.68-6.23,7.37-10.65,11.1Z" style="fill:#0068b7;"/><path d="M298.43,94.3c-5.3-4.22-11.4-8.64-18.36-13.15-6.33,5.6-13.62,10.15-22.03,13.55l-1.21-2.82c9.21-3.8,17-8.85,23.43-15.26l-.04-19.24-21,.05v-2.97s33.08-.07,33.08-.07l.03,12.04c-2.56,4.44-5.92,8.62-9.94,12.61,7.51,4.97,13.52,9.29,18.01,12.85l-1.96,2.42Z" style="fill:#0068b7;"/><path d="M356.74,61.49c.77.73,1.14,1.71,1.14,2.8,0,1.1-.36,2.07-1.13,2.81-.77.77-1.75,1.18-2.84,1.19-.12,0-.28,0-.41-.04l.02,9.6c-5.19,9.04-13.88,15.16-26.11,18.4l-.74-2.28c6.87-1.85,12.52-4.66,17.1-8.5l-.04-17.77-21.88.05v-2.4s28.18-.06,28.18-.06c-.08-.37-.12-.65-.12-.98,0-1.1.4-2.08,1.13-2.81.77-.77,1.71-1.18,2.84-1.19,1.1,0,2.08.4,2.85,1.17ZM355.53,65.89c.45-.45.65-.98.65-1.59,0-.65-.17-1.18-.61-1.63-.45-.45-1.02-.65-1.67-.65-.65,0-1.18.21-1.58.65-.45.45-.69.98-.69,1.63,0,.61.25,1.14.69,1.58.41.45.98.69,1.59.69.61,0,1.18-.25,1.63-.7Z" style="fill:#0068b7;"/><path d="M393.19,82.48c-4.86,7.82-13.6,12.35-26.2,13.52l-.29-2.4c6.95-.63,12.56-2.22,16.74-4.84l-.03-13.87-22.57.05v-2.36s32.33-.07,32.33-.07l.02,9.96ZM390.88,65.2l-27.09.06v-2.36s27.08-.06,27.08-.06v2.36Z" style="fill:#0068b7;"/><path d="M436.98,71.93h-5.61s.03,11.24.03,11.24c-4.25,7.17-11.56,11.66-21.89,13.35l-.49-2.32c5.28-.87,9.63-2.42,13.04-4.71l-.04-17.53-12.77.03.03,11.75h-2.85s-.03-11.75-.03-11.75h-5.94s0-2.35,0-2.35h5.94s-.02-8.31-.02-8.31h2.85s.02,8.29.02,8.29l12.77-.03-.02-8.3,6.75-.02c0,.77.25,1.46.78,2.03.45.61,1.06.93,1.83,1.05v5.2s5.62-.01,5.62-.01v2.36ZM433.04,60.06c.33.37.49.81.49,1.3s-.16.89-.49,1.26c-.37.37-.81.53-1.3.53s-.9-.16-1.26-.53-.53-.77-.53-1.26.16-.94.53-1.3c.36-.37.77-.49,1.26-.49s.93.12,1.3.49ZM437.6,60.05c.37.37.53.81.53,1.3s-.16.89-.53,1.26c-.36.37-.77.53-1.26.53s-.9-.16-1.26-.53c-.33-.37-.49-.77-.49-1.26s.16-.94.49-1.3c.37-.37.77-.49,1.26-.49s.89.12,1.26.49Z" style="fill:#0068b7;"/><path d="M473.53,85.91c0,3.21-1.29,5.62-3.97,7.21-2.19,1.39-5.04,2.04-8.41,2.05-3.58,0-6.39-.68-8.5-2.14-2.4-1.66-3.67-4.22-3.68-7.64h2.68c.05,4.92,3.19,7.39,9.49,7.37,2.64,0,4.8-.5,6.5-1.44,2.11-1.18,3.17-2.98,3.16-5.42,0-4.35-3.11-6.46-9.25-6.45h-3.21s0-2.35,0-2.35h3.5c5.65-.02,8.46-2.02,8.45-5.96,0-2.28-1.03-3.9-2.94-4.96-1.59-.85-3.54-1.25-5.98-1.25-5.9.01-8.98,2.26-9.1,6.69l-2.68.05c.07-3.21,1.29-5.57,3.69-7.13,2.03-1.35,4.71-2,8.09-2.01,3.17,0,5.82.6,7.85,1.89,2.52,1.54,3.75,3.73,3.76,6.7,0,3.62-1.7,5.94-5.07,7.09,1.22.36,2.16.85,2.93,1.54,1.75,1.58,2.69,3.61,2.7,6.13Z" style="fill:#0068b7; stroke:#0068b7; stroke-width:.97px;"/><path d="M116.95,19.32c-2.17-1.81-4.89-3.66-8.11-5.66l-1.35,2.07c3.22,1.9,5.84,3.76,7.96,5.56l1.5-1.96Z" style="fill:#0068b7;"/><path d="M107.96,44.33l1.96,1.45c4.36-5.89,7.47-12.39,9.41-19.48l-2.26-.7c-1.9,6.84-4.9,13.09-9.11,18.73Z" style="fill:#0068b7;"/><path d="M119.24,6.49c-2.12-1.7-4.79-3.61-8.16-5.66l-1.35,2.07c3.27,2,5.94,3.86,8.06,5.56l1.45-1.96Z" style="fill:#0068b7;"/><path d="M147.65,26.41v-1.53c.28.31.56.62.85.92l.7.75c1.87,1.96,3.78,3.66,5.73,5.17l.97-2.11c-3.24-2.51-6.24-5.42-8.93-8.83l8.68-.02v-2.41s-10.52.02-10.52.02c-1.25-1.76-2.27-3.47-3.05-5.07l11.1-.02v-2.46s-11.57.03-11.57.03v-4.32s13.03-.03,13.03-.03v-2.41s-13.05.03-13.05.03V.58s-7.37.02-7.37.02v3.52s-12.99.03-12.99.03v2.41s13.01-.03,13.01-.03v4.32s-11.47.03-11.47.03v2.46s11.14-.02,11.14-.02c-.85,1.71-1.82,3.37-2.99,5.09l-10.59.02v2.41s8.88-.02,8.88-.02c-2.64,3.48-5.59,6.4-8.9,8.92l.94,2.11c1.87-1.41,3.69-2.98,5.48-4.84l1.05-1.16c.23-.25.45-.51.67-.77v1.38s6.12-.01,6.12-.01v4.89s-10.35.02-10.35.02v2.48s10.37-.02,10.37-.02v2.28s0,.01,0,.01c-2.63,3.05-6.02,5.57-9.9,7.47l-.5.24,1.29,2.07.43-.21c5.14-2.49,9.29-5.85,12.19-9.98,1.48,2.02,3.22,3.85,5.18,5.44,2.33,1.9,4.88,3.38,7.42,4.41l.45.18,1.1-2.14-.51-.2c-3.64-1.46-7.09-3.93-10.09-7.35l-.03-.06v-2.19s10.49-.02,10.49-.02v-2.48s-10.5.02-10.5.02v-4.89s6.05-.01,6.05-.01ZM136.16,13.31h3.7c.7,1.6,1.68,3.31,2.78,5.06l-9.23.02c1.01-1.71,1.94-3.37,2.75-5.09ZM129.34,24.03c.86-1.04,1.68-2.11,2.44-3.21l12.54-.03c.79,1.1,1.64,2.17,2.54,3.2l-17.51.04Z" style="fill:#0068b7;"/><rect x=".11" y=".11" width="99.29" height="99.29" transform="translate(-.11 .11) rotate(-.13)" style="fill:#094;"/><path d="M17,22.62l.05,24.25h-6.57s-.08-37.21-.08-37.21l16.24-.04.03,12.97-9.67.02ZM24.6,11.67l-7.63.02v3.35s7.64-.02,7.64-.02v-3.35ZM24.61,17.05l-7.63.02v3.48s7.64-.02,7.64-.02v-3.48ZM35.3,35.85l.02,10.35h-6.19s-.02-10.33-.02-10.33h-4.41c-.2,4.04-1.43,7.43-3.71,10.24l-1.61-1.31c1.99-2.38,3.13-5.39,3.29-8.91h-4.15s0-2.03,0-2.03h4.2s-.01-5.39-.01-5.39h-3.48s0-2.03,0-2.03l18.87-.04v2.04s-2.79,0-2.79,0v5.38s3.53,0,3.53,0v2.03s-3.51,0-3.51,0ZM29.09,28.44h-4.37s.01,5.39.01,5.39h4.37s-.01-5.39-.01-5.39ZM37.36,46.57l.12-2.08c1.36.08,2.33.16,2.88.16l-.05-22.09-9.96.02-.03-12.97,16.53-.04.08,37.18c-3.52,0-6.74-.07-9.58-.19ZM40.29,11.63l-7.93.02v3.35s7.94-.02,7.94-.02v-3.35ZM40.3,17.01l-7.93.02v3.48s7.94-.02,7.94-.02v-3.48Z" style="fill:#fff;"/><path d="M57.74,20.54h3.65s.06,26.23.06,26.23l-6.78.02-.05-20.82c-.68,1.06-1.52,2.25-2.37,3.52l-1.49-1.48c4.65-6.71,7.86-13.41,9.66-20.03l1.95.5c-1.09,4.24-2.7,8.23-4.64,12.05ZM90.14,43.95v2.08s-23.78.05-23.78.05l-.04-16.45c-1.23,1.61-2.16,2.85-2.87,3.65l-1.49-1.52c3.72-4.12,6.38-8.45,7.98-13.07l1.91.67c-.38,1.1-.93,2.33-1.64,3.82l8.56-.02c.93-1.49,1.69-2.89,2.28-4.2l1.95.76c-.72,1.49-1.35,2.63-1.82,3.44l8.27-.02v2.08s-4.74.01-4.74.01v4.92s4.17,0,4.17,0v2.03s-4.15,0-4.15,0v4.75s4.17,0,4.17,0v2.08s-4.15,0-4.15,0v4.96s5.39-.01,5.39-.01ZM64.64,18.27l-.02-8.44h2.16s.01,6.36.01,6.36h6.4s-.02-8.24-.02-8.24l7-.02.02,8.22,6.66-.02v-6.36s2.15,0,2.15,0l.02,8.44-24.38.05ZM78.14,25.24h-5.04s.01,4.93.01,4.93h5.05s-.01-4.93-.01-4.93ZM78.15,32.19h-5.05s.01,4.76.01,4.76h5.05s-.01-4.76-.01-4.76ZM78.17,39.02h-5.05s.01,4.97.01,4.97h5.05s-.01-4.97-.01-4.97Z" style="fill:#fff100;"/><path d="M22.55,79.85c-3.01,1.45-7.37,3.07-13.17,4.78l-.51-1.99c1.1-.3,2.25-.68,3.47-1.07l-.04-16.07h-3.39s0-2.07,0-2.07h3.39s-.02-9.59-.02-9.59l7.12-.02.02,9.58h2.93s0,2.07,0,2.07h-2.93s.03,13.49.03,13.49c.89-.34,1.61-.68,2.25-.98l.85,1.86ZM28.39,73.82c-.29,1.15-.71,2.29-1.26,3.44l19.54-.04v2.03c.02,5.55-.23,10.01-.73,13.23-5.05.01-8.52-.07-10.43-.23l.21-2.03c1.27.12,2.5.21,3.6.2.38-2.76.54-6.49.53-11.15h-2.54c-1.18,4.76-3.46,9.17-6.75,13.25l-1.57-1.31c2.96-3.65,5.03-7.64,6.2-11.93h-3.69c-1.6,4.51-4.13,8.54-7.73,11.98l-1.44-1.48c3.17-3.06,5.5-6.54,7.01-10.49h-3.31c-1.39,2.26-3.04,4.25-4.99,6l-1.36-1.57c3.17-2.76,5.41-6.07,6.59-9.89h-4.58s0-2.07,0-2.07l26.58-.06v2.08s-19.88.04-19.88.04ZM45.12,68.65l-20.69.05-.03-13.48,20.69-.05.03,13.48ZM31.02,57.2v3.65s7.47-.02,7.47-.02v-3.65s-7.47.02-7.47.02ZM31.04,66.65l7.46-.02v-3.77s-7.47.02-7.47.02v3.77Z" style="fill:#fff100;"/><path d="M70.2,57.06l-18.14.04v-2.16s18.14-.04,18.14-.04v2.16ZM56.3,77.4c.01,6.02-.95,10.98-2.98,14.93l-1.95-1.01c1.77-3.48,2.65-8.23,2.64-14.17l-.03-14.75,15.01-.03.03,15.01-12.72.03ZM56.29,75.24h5.51s-.02-10.65-.02-10.65h-5.51s.02,10.65.02,10.65ZM90.62,69.1h-3.43s.05,23.37.05,23.37l-7.8.02-.05-23.36h-4.54s0,1.15,0,1.15c.01,5.98-.48,10.77-1.41,14.37-.55,2.04-1.6,4.67-3.16,7.77l-1.99-1.01c1.52-2.93,2.49-5.35,2.99-7.3.88-3.44,1.34-8.1,1.33-13.82l-.03-14.03c6.7-.31,11.82-1.26,15.3-2.88l.94,1.95c-3.26,1.53-7.96,2.52-13.98,2.96l.02,8.65,15.77-.04v2.2Z" style="fill:#fff;"/></g></svg>