<?xml version="1.0" encoding="UTF-8"?><svg id="_レイヤー_2" xmlns="http://www.w3.org/2000/svg" viewBox="0 0 80.49 79.5"><g id="_デザイン"><path d="M33.68,12.25c.89,1.46,2.57,2.34,4.77,2.77l-.71,3.99c-.03.14,0,.29.1.41.09.12.22.19.37.21l7.81.82c.15.02.29-.03.4-.13.11-.1.18-.24.18-.38l.13-4.05c2.24.03,4.01-.54,5.25-1.72,1.7-1.61,1.86-3.49,1.95-4.11l1-7.3c.03-.29-.18-.55-.47-.59L33.76,0c-.29-.03-.55.18-.58.47l-.4,7.37c-.02.1-.25,2.52.9,4.4Z" style="fill:#0068b7;"/><path d="M74.01,24.2c-1.73-.18-4.43.29-7.42,3.56-1.93,2.12-3.27,4.18-4.2,6.08-5.57-3.8-13.45-6.83-24.63-7.57-6.99-.47-12.88.45-17.83,2.2-.85-2.94-2.43-6.14-5.33-8.46-2-1.61-3.99-2.52-5.91-2.73-4.34-.46-7.25,2.79-8.12,6.01-1.19,4.44,3.75,7.65,7.36,8.72.62.19,1.53.78,2.53,1.56C4.19,38.48.88,44.91.15,50c-.95,6.54,2.78,11.82,5.43,14.67.2,1.27.56,2.5,1.24,3.62,3.3,5.43,12.34,8.96,26.9,10.49,2.26.24,4.71.43,7.28.58,9.29.53,21.32-.18,25.92-6.57.36-.5.57-1.08.82-1.63,6.35-4.16,9.2-10.72,7.63-18.5-.48-2.38-1.9-7.18-5.72-12.06,2.04-2.18,4.14-2.97,5.93-3.61,1.89-.68,3.68-1.32,4.54-3.37.68-1.6.39-3.8-.76-5.73-1.25-2.12-3.2-3.46-5.36-3.69ZM68.64,67.96c.28-2.47-.12-5.26-1.39-8.42-6.53-16.32-24.47-18.82-25.24-18.92l-1.29-.15c-17.44-1.83-28.96,4.05-34.26,17.49-.47,1.18-.73,2.3-.89,3.4-2.03-2.71-4.03-6.59-3.38-11.07,1-6.97,4.9-11.91,9.91-15.34.29-.2.59-.37.89-.56.3-.19.59-.38.89-.56,1.49-.87,3.05-1.62,4.65-2.27.32-.13.64-.28.97-.4.33-.12.65-.23.98-.34,6.25-2.16,12.75-2.8,17.13-2.5,11,.74,18.63,3.76,23.95,7.49.3.21.56.43.84.64.28.21.57.42.83.63,1.43,1.15,2.66,2.35,3.73,3.56.23.26.49.52.7.78.23.28.42.56.63.84,3.34,4.39,4.62,8.65,5.05,10.79,1.46,7.24-1.27,11.93-4.72,14.9ZM65.27,71.6c-.45.63-1.03,1.18-1.65,1.68-4.94,4.06-14.71,4.49-22.51,4.04-18.3-1.05-29.13-4.45-32.55-10.09-.02-.03-.02-.06-.04-.08-.35-.58-.62-1.19-.8-1.82-.16-.55-.23-1.12-.26-1.71-.1-1.5.18-3.13.88-4.92,4.99-12.66,15.51-17.97,32.16-16.22l1.25.14c.17.02,17.51,2.44,23.61,17.66,1.51,3.78,1.76,6.93.83,9.45-.22.59-.47,1.15-.82,1.66-.04.06-.05.14-.1.2Z" style="fill:#094;"/><path d="M67.67,41.43c-.21-.26-.47-.52-.7-.78-1.07-1.21-2.29-2.4-3.73-3.56-.27-.21-.55-.42-.83-.63-.28-.21-.54-.43-.84-.64-5.32-3.73-12.95-6.75-23.95-7.49-4.38-.3-10.88.34-17.13,2.5-.33.11-.66.22-.98.34-.33.12-.65.27-.97.4-1.6.65-3.16,1.39-4.65,2.27-.3.18-.6.37-.89.56-.3.19-.6.36-.89.56-5.01,3.42-8.91,8.36-9.91,15.34-.65,4.49,1.34,8.37,3.38,11.07.16-1.1.42-2.22.89-3.4,5.3-13.44,16.82-19.33,34.26-17.49l1.29.15c.77.1,18.71,2.6,25.24,18.92,1.27,3.17,1.67,5.95,1.39,8.42,3.45-2.97,6.18-7.65,4.72-14.9-.43-2.14-1.71-6.4-5.05-10.79-.21-.28-.4-.56-.63-.84ZM39,31.24c.73.09,1.25.75,1.16,1.48-.09.73-.75,1.24-1.49,1.16-.72-.09-1.24-.76-1.15-1.49.09-.72.75-1.23,1.48-1.15ZM42.71,36.66h-.01s-1.13-.14-1.13-.14l.93,1.35c.22.32.14.75-.18.97-.14.1-.31.14-.47.12-.19-.02-.38-.12-.5-.3l-1.21-1.76-1.43,1.24c-.29.25-.73.22-.98-.07-.25-.29-.22-.73.07-.98l1.04-.9-.83-.1c-.38-.05-.65-.4-.6-.78.05-.38.39-.65.76-.61h.01s4.7.59,4.7.59c.38.05.65.4.6.78-.05.38-.39.65-.76.61ZM42.66,34.37c-.72-.09-1.24-.76-1.15-1.48.09-.72.76-1.24,1.49-1.16.72.09,1.25.76,1.16,1.5-.09.72-.76,1.23-1.49,1.14Z" style="fill:#fff100;"/><path d="M65.36,60.29c-6.1-15.22-23.43-17.64-23.61-17.66l-1.25-.14c-16.65-1.75-27.17,3.56-32.16,16.22-.71,1.79-.98,3.41-.88,4.92.04.59.1,1.16.26,1.71.18.63.46,1.24.8,1.82.02.03.02.06.04.08,3.42,5.64,14.25,9.05,32.55,10.09,7.8.45,17.57.01,22.51-4.04.62-.51,1.19-1.05,1.65-1.68.04-.06.06-.14.1-.2.35-.51.61-1.08.82-1.66.93-2.52.68-5.67-.83-9.45ZM53.58,59.9c.71-1.35,1.83-2.25,2.91-2.34,2.26-.19,4.57,1.73,5.08,4.04.36,1.59-.24,3-1.64,3.85-.71.43-1.68.6-2.73.49-1.72-.18-3.25-1.04-3.88-2.2-.57-1.03-.48-2.46.25-3.84ZM13.77,54.75c.99-1.39,3.1-1.84,4.63-1.68.85.09,1.59.36,2.13.79,1.35,1.06,1.76,2.59,1.11,4.2-.73,1.8-2.82,3.51-5.07,3.28-.13-.01-.26-.03-.38-.06-1.06-.23-2.07-1.25-2.62-2.68-.56-1.45-.48-2.89.2-3.84ZM15.11,68.76c-.84-.1-1.57-.37-2.21-.71-.72-.37-1.29-.84-1.62-1.38-.21-.36-.31-.73-.31-1.11,0-.06-.04-.12-.04-.18.18-1.57,2.35-2.62,4.84-2.33,2.49.29,4.35,1.81,4.17,3.38-.04.31-.2.58-.38.84-.23.34-.55.63-.96.86-.61.35-1.38.55-2.24.61-.41.03-.82.06-1.25.01ZM58.85,73.15c-.79-.09-1.48-.33-2.1-.64-1.33-.65-2.2-1.66-2.07-2.74.19-1.57,2.35-2.62,4.84-2.33,2.49.28,4.36,1.81,4.17,3.39-.01.11-.1.2-.14.3-.42,1.39-2.39,2.29-4.7,2.02Z" style="fill:#fff;"/><path d="M57.2,65.93c1.05.11,2.02-.06,2.73-.49,1.4-.85,2-2.25,1.64-3.85-.52-2.31-2.83-4.23-5.08-4.04-1.08.1-2.2,1-2.91,2.34-.73,1.38-.82,2.81-.25,3.84.63,1.15,2.15,2.02,3.88,2.2ZM54.98,60.52c.07-.66.66-1.13,1.31-1.06s1.13.66,1.06,1.31-.66,1.13-1.31,1.06-1.13-.66-1.06-1.31Z" style="fill:#094;"/><path d="M16.18,61.26c.13.03.26.05.38.06,2.25.24,4.34-1.48,5.07-3.28.65-1.61.25-3.14-1.11-4.2-.54-.43-1.28-.7-2.13-.79-1.53-.16-3.64.3-4.63,1.68-.69.95-.76,2.39-.2,3.84.55,1.43,1.55,2.45,2.62,2.68ZM15.96,57.32c-.66-.07-1.13-.66-1.06-1.31s.66-1.13,1.31-1.06,1.13.66,1.06,1.31-.66,1.13-1.31,1.06Z" style="fill:#094;"/><path d="M38.67,33.88c.74.08,1.4-.42,1.49-1.16.09-.73-.43-1.39-1.16-1.48-.73-.09-1.39.42-1.48,1.15-.09.73.42,1.4,1.15,1.49Z" style="fill:#094;"/><path d="M42.99,31.73c-.72-.08-1.39.44-1.49,1.16-.09.73.43,1.39,1.15,1.48.73.09,1.4-.42,1.49-1.14.09-.74-.43-1.41-1.16-1.5Z" style="fill:#094;"/><path d="M42.87,35.28l-4.7-.58h-.01c-.38-.04-.72.23-.76.6-.05.38.22.73.6.78l.83.1-1.04.9c-.29.25-.32.69-.07.98.25.29.69.32.98.07l1.43-1.24,1.21,1.76c.12.17.31.28.5.3.16.02.33-.02.47-.12.32-.22.4-.65.18-.97l-.93-1.35,1.13.14h.01c.38.04.72-.23.76-.6.05-.38-.22-.73-.6-.78Z" style="fill:#094;"/><path d="M59.52,67.44c-2.49-.29-4.65.76-4.84,2.33-.12,1.07.75,2.09,2.07,2.74.62.3,1.31.55,2.1.64,2.31.27,4.28-.63,4.7-2.02.03-.11.12-.19.14-.3.19-1.58-1.68-3.1-4.17-3.39Z" style="fill:#f4b4d0;"/><path d="M19.57,67.28c.18-.26.35-.53.38-.84.18-1.58-1.69-3.1-4.17-3.38-2.49-.3-4.66.76-4.84,2.33,0,.06.04.12.04.18,0,.39.1.76.31,1.11.33.54.9,1.01,1.62,1.38.64.33,1.37.61,2.21.71.44.05.84.01,1.25-.01.87-.06,1.63-.26,2.24-.61.41-.24.73-.53.96-.86Z" style="fill:#f4b4d0;"/><circle cx="16.09" cy="56.13" r="1.2" style="fill:#fff;"/><circle cx="56.17" cy="60.64" r="1.2" style="fill:#fff;"/><circle cx="35.06" cy="59.05" r=".91" style="fill:#094;"/><circle cx="38.47" cy="59.41" r=".91" style="fill:#094;"/><path d="M36.18,67.8c3.52.36,5.16.14,6.6-.56,2.25-1.08,2.6-2.3,2.6-2.3" style="fill:none; stroke:#094; stroke-linecap:round; stroke-linejoin:round; stroke-width:2.18px;"/><path d="M36.18,67.8c-3.48-.4-5.07-.94-6.34-1.92-1.98-1.53-2.07-2.79-2.07-2.79" style="fill:none; stroke:#094; stroke-linecap:round; stroke-linejoin:round; stroke-width:2.18px;"/></g></svg>