<?xml version="1.0" encoding="UTF-8"?><svg id="_レイヤー_2" xmlns="http://www.w3.org/2000/svg" viewBox="0 0 201.4 63.78"><g id="_デザイン"><g style="opacity:.35;"><path d="M163.8,53.19c-.82,0-1.42-.63-1.42-1.43s.6-1.43,1.42-1.43,1.41.63,1.41,1.43-.59,1.43-1.41,1.43ZM163.8,53.4c.93,0,1.68-.74,1.68-1.65,0-.91-.75-1.64-1.68-1.64s-1.69.74-1.69,1.64.76,1.65,1.69,1.65ZM164.42,52.06c-.03.27-.27.45-.54.45-.43,0-.67-.37-.67-.77,0-.41.22-.75.67-.75.27,0,.5.17.55.43h.24c-.06-.4-.39-.62-.79-.62-.57,0-.92.4-.92.94s.37.95.93.95c.39,0,.74-.24.78-.64h-.24Z" style="fill:#f9d3ce;"/><path d="M167.97,51.17c-.02-.45-.4-.6-.73-.6-.25,0-.67.07-.67.51,0,.25.18.33.35.37l.83.19c.38.09.66.32.66.78,0,.69-.64.88-1.15.88-.54,0-.76-.16-.88-.28-.25-.23-.3-.47-.3-.74h.37c0,.53.43.69.81.69.29,0,.77-.07.77-.49,0-.31-.14-.4-.62-.52l-.6-.14c-.19-.04-.63-.18-.63-.69,0-.46.3-.91,1.01-.91,1.02,0,1.13.61,1.14.93h-.37Z" style="fill:#f9d3ce;"/><path d="M169.26,52.03l.47-1.29h0l.43,1.29h-.91ZM170.32,52.39l.29.85h.43s-1.06-2.93-1.06-2.93h-.45s-1.1,2.93-1.1,2.93h.41s.31-.85.31-.85h1.18Z" style="fill:#f9d3ce;"/><path d="M171.63,53.24h-.4v-2.93h.4v1.42s1.42-1.42,1.42-1.42h.55s-1.22,1.18-1.22,1.18l1.25,1.75h-.52s-1.02-1.47-1.02-1.47l-.46.44v1.03Z" style="fill:#f9d3ce;"/><path d="M174.62,52.03l.47-1.29h0l.43,1.29h-.91ZM175.67,52.39l.29.85h.43s-1.06-2.93-1.06-2.93h-.45s-1.1,2.93-1.1,2.93h.41s.31-.85.31-.85h1.17Z" style="fill:#f9d3ce;"/><path d="M178.93,53.24h-2.3v-.33s1.79-2.25,1.79-2.25h-1.66v-.35h2.17v.34s-1.8,2.24-1.8,2.24h1.8v.35Z" style="fill:#f9d3ce;"/><path d="M181.56,50.31v1.9c0,.6-.37,1.1-1.18,1.1s-1.12-.51-1.12-1.05v-1.95h.4v1.84c0,.64.39.81.74.81s.77-.17.77-.8v-1.85h.39Z" style="fill:#f9d3ce;"/><path d="M182.26,53.24h-.4v-2.93h.4v1.42s1.42-1.42,1.42-1.42h.55s-1.22,1.18-1.22,1.18l1.25,1.75h-.51s-1.02-1.47-1.02-1.47l-.46.44v1.03Z" style="fill:#f9d3ce;"/><path d="M185.04,53.24h-.39v-2.93h.39v2.93Z" style="fill:#f9d3ce;"/><path d="M187.58,50.31h.38v2.93h-.44s-1.49-2.36-1.49-2.36h0s0,2.36,0,2.36h-.38v-2.93h.47s1.46,2.36,1.46,2.36h0v-2.36Z" style="fill:#f9d3ce;"/><path d="M198.56,10.39c-1.04-.52-3.74-1.34-6.47,2.36-1.11,1.5-1.84,2.92-2.31,4.22,2.14,1.15,3.84,2.5,5.18,3.88,1.17-1.55,2.48-2.19,3.6-2.73,1.18-.57,2.3-1.11,2.72-2.49.54-1.79-.72-4.23-2.71-5.23Z" style="fill:#f9d3ce;"/><path d="M161.85,16.36c-.76-1.84-1.99-3.8-4.02-5.1-2.74-1.77-4.74-1.5-5.94-.97-1.52.68-2.64,2.23-2.94,4.05-.47,2.96,2.95,4.71,5.37,5.16.42.08,1.04.4,1.74.84,1.56-1.51,3.48-2.88,5.79-3.98Z" style="fill:#f9d3ce;"/><path d="M173.33,15.09c-6.81.25-21.03,4.66-21.49,16.67-.11,2.94,1.43,5.34,2.93,6.96.03-.72.14-1.47.36-2.27,2.62-9.42,9.76-13.91,21.88-13.68h0c.5.01,12.31.41,17.66,10.55,1.03,1.94,1.52,3.72,1.52,5.32,2.01-2.16,3.43-5.38,2-9.94-2.82-9-12.13-14.09-24.87-13.61ZM174.42,16.88c.48,0,.86.4.85.88,0,.48-.4.86-.89.85-.48,0-.86-.41-.85-.89,0-.48.4-.85.88-.85ZM177.2,20.17h-.71s.66.76.66.76c.17.2.15.5-.05.67-.09.08-.2.11-.31.11-.13,0-.27-.06-.36-.17l-.89-1.04-.83.88c-.18.19-.48.2-.67.02-.19-.18-.2-.48-.02-.67l.58-.62h-.5c-.26-.01-.47-.23-.47-.49,0-.26.22-.47.48-.47h0l3.09.06c.26,0,.47.22.47.48,0,.26-.22.47-.48.47ZM177.01,18.67c-.47,0-.86-.41-.85-.88.01-.48.41-.86.88-.85.48,0,.86.41.85.89-.01.48-.41.85-.89.84ZM161.36,35.45c-.47,0-.86-.41-.85-.88.01-.48.41-.86.88-.85.48,0,.86.41.85.89-.01.48-.41.85-.89.84ZM187.62,35.64c-.47,0-.86-.41-.85-.88.01-.48.41-.86.88-.85.48,0,.86.41.85.89-.01.48-.41.85-.89.84Z" style="fill:#f9d3ce;"/><path d="M176.99,24.09c-.27,0-.53,0-.79,0-10.94,0-17.41,4.17-19.79,12.72-.64,2.3-.38,4.14.8,5.62,2.69,3.36,10,4.78,21.73,4.23,5.73-.27,13.03-1.42,15.28-5.36,1.09-1.91.85-4.38-.71-7.34-4.96-9.41-16.32-9.84-16.52-9.85ZM176.06,34.61s.54.02.79.44c.37.64-.34.92-.54.95-.21.04-.73-.13-.83-.53-.12-.49.23-.82.59-.87ZM173.95,34.49s.53.07.61.47c.08.39-.13.95-.77.88-.43-.06-.5-.28-.6-.58-.16-.5.27-.8.77-.77ZM165.08,35.69c-.42,1.23-1.69,2.41-3.15,2.41-.09,0-.18,0-.28-.01h0c-.77-.08-1.54-.71-2.02-1.64-.49-.95-.53-1.95-.12-2.67.36-.63,1.09-1.13,2-1.36.94-.24,1.89-.14,2.52.27,1.06.67,1.45,1.79,1.03,3.01ZM183.56,39.52c-1.44,2.11-4.58,1.78-6.67,1.56l-.49-.05c-1.59-.15-2.34-.01-3.29.16-.79.15-1.69.31-3.19.32-.02,0-.04,0-.05,0-1.38,0-2.62-.42-3.18-1.09-.28-.33-.39-.72-.33-1.1.07-.42.47-.69.89-.62.37.07.64.4.63.76.18.18.88.51,2.03.52,1.37,0,2.16-.16,2.92-.3.98-.18,1.91-.35,3.71-.18l.5.05c1.72.18,4.32.45,5.25-.91.24-.35.71-.44,1.06-.2.35.24.44.71.2,1.06ZM190.42,37.78c-.46.35-1.12.54-1.83.54-.22,0-.44-.02-.66-.05-.93-.15-1.7-.58-2.11-1.18-.47-.68-.52-1.67-.12-2.66.39-.97,1.1-1.67,1.86-1.82,1.55-.3,3.06.82,3.63,2.08.53,1.17.25,2.33-.75,3.09Z" style="fill:#f9d3ce;"/><path d="M173.25,9.79l-.22,3.23h1.69s1.9,0,1.9,0h1.69s-.22-3.23-.22-3.23c4.75-.23,4.33-4.23,4.33-4.23V.31s-6.19,0-6.19,0h-1.11s-6.19,0-6.19,0v5.25s-.42,4,4.33,4.23Z" style="fill:#f9d3ce;"/></g><g style="opacity:.35;"><path d="M14.8,18.88c-3.57,0-3.94-5.97-4.7-7.49-.21-.45-.51-.64-.92-.64-.72,0-1.19.62-1.19,1.38,0,1.5,1.17,4.5,1.19,6.05-3.82-.55-4.82.45-6.08.41-1.09-.04-1.17-.9-1.17-2.09,0-1.66,1.42-5.01,1.42-10.73,0-1.97-.76-3.86-1.97-5.19,2.65.31,5.54-.19,7.57-.43-.41.47-1.89,3.45-1.89,5.69,0,1.37.66,2.05,1.29,2.05,1.03,0,2.57-2.09,2.57-4.33,0-1.27-.37-2.48-.94-3.28,2.48.33,6.88-.29,8.79.92-2.83.86-6.57,5.03-6.57,7.47,0,1.33.84,2.38,1.79,2.38.47,0,.8-.33.8-.7,0-.74-.86-.86-.86-1.5,0-.6.49-1.01,1.44-1.01,2.42,0,3.98,2.05,3.98,4.48,0,3.28-2.18,4.29-2.79,4.95-.68.74-.7,1.6-1.74,1.6h-.04Z" style="fill:#f9d3ce;"/><path d="M24.23,18.84c-1.83-.04-3.57-1.35-3.57-3.51,0-3.76,3.35-5.73,3.49-11.19.04-1.58-.53-2.67-1.17-3.98,4.35.78,8.52-.16,11.35-.16.39,0,.76.02,1.09.06-.41.96-.58,2.09-.58,3.71,0,5.01,3.35,12.32,3.57,14.29-3.47-.49-5.66.51-6.9.51-.92,0-1.58-.7-1.58-1.38,0-1.31,1.54-2.79,1.54-4.84,0-.92-.7-1.7-2.01-1.7-1.89,0-2.96.53-2.96,1.87,0,.82.39,1.42,1.81,1.75-2.03,1.23-2.34,2.54-2.34,3.33s-.84,1.23-1.68,1.23h-.06ZM31.17,6.9c0-1.13-1.01-3.24-1.95-3.24-.51,0-.66.57-.94,1.29-.25.66-.62,1.46-.62,2.07,0,1.15.8,1.54,1.89,1.54s1.62-.7,1.62-1.66Z" style="fill:#f9d3ce;"/><path d="M39.73,14.55c0-3.41,1.62-5.6,1.62-9.95,0-1.64-.86-2.96-1.66-4.08,2.2.74,7.39.14,9.44-.16-.12.51-.16,1.01-.16,1.89,0,1.74.92,3.33,1.68,3.33.7,0,1.68-1.58,1.68-3.26,0-.6-.1-1.23-.33-1.85,1.62.04,6.1-.43,8.74.64-1.48,1.58-1.95,3.06-1.95,4.45,0,5.69,1.87,9.54,2.07,12.66-3.14-.6-4.72.16-6.22.19-.94.02-1.29-.55-1.29-1.29,0-1.37,1.79-3.71,1.79-7.16,0-1.48-.9-2.48-1.77-2.48-1.03,0-1.89,1.21-1.89,3.1,0,1.66.39,3.12.9,4.43-1.27.18-3.39.21-4.37.08.41-1.03.6-2.24.6-4.17,0-2.28-.59-3.84-1.58-3.84-1.35,0-1.91.88-1.91,2.69,0,1.5.37,3.16,1.72,3.53-1.62.96-2.13,2.42-2.13,3.61,0,.88-.7,1.95-1.79,1.95-1.54,0-3.18-1.77-3.18-4.33Z" style="fill:#f9d3ce;"/><path d="M62.55,16.77c0-1.85,2.11-6.42,2.11-12.36,0-1.64-.88-3.1-2.32-4,1.85.1,4.68-.41,6.61-.41.51,0,.94.02,1.29.12-1.13.76-2.05,2.3-2.05,5.71,0,6.26,1.66,10.37,1.79,12.31-3.33-.45-4.43.35-5.87.35-1.09,0-1.56-.72-1.56-1.72Z" style="fill:#f9d3ce;"/><path d="M70.94,12.77c0-3.08,1.66-6.84,1.66-9.19,0-1.23-.33-2.65-.7-3.41,1.13.53,3.04.7,4.97.7,3.59,0,7.84-.86,10.32-.86.19,0,.37,0,.55.02-.58.8-.68,4.76-1.4,6.24-.76-1.27-3-2.28-5.54-2.28-3.33,0-4.84,1.99-4.84,5.73,0,2.28,1.15,4.02,3.41,4.02,1.64,0,2.87-.88,2.87-1.99,0-.94-.53-1.54-1.25-1.54-.62,0-1.03.37-1.03.84,0,.39-.23.68-.72.68-.8,0-1.36-.66-1.36-1.62,0-1.76,1.56-3.49,4.47-3.49,3.43,0,6.16,2.87,6.16,6.34s-1.74,5.69-4.13,5.69c-2.79,0-3.9-1.03-6.51-1.03-2.11,0-2.65.84-4.06.84-1.68,0-2.85-2.61-2.85-5.69Z" style="fill:#f9d3ce;"/><path d="M93.31,18.84c-1.83-.04-3.57-1.35-3.57-3.51,0-3.76,3.35-5.73,3.49-11.19.04-1.58-.53-2.67-1.17-3.98,4.35.78,8.52-.16,11.35-.16.39,0,.76.02,1.09.06-.41.96-.58,2.09-.58,3.71,0,5.01,3.35,12.32,3.57,14.29-3.47-.49-5.66.51-6.9.51-.92,0-1.58-.7-1.58-1.38,0-1.31,1.54-2.79,1.54-4.84,0-.92-.7-1.7-2.01-1.7-1.89,0-2.96.53-2.96,1.87,0,.82.39,1.42,1.81,1.75-2.03,1.23-2.34,2.54-2.34,3.33s-.84,1.23-1.68,1.23h-.06ZM100.25,6.9c0-1.13-1.01-3.24-1.95-3.24-.51,0-.66.57-.94,1.29-.25.66-.62,1.46-.62,2.07,0,1.15.8,1.54,1.89,1.54s1.62-.7,1.62-1.66Z" style="fill:#f9d3ce;"/><path d="M110.47,17.43c0-2.69,2.98-6.67,2.98-10.96,0-1.58-.56-2.11-1.17-2.11-1.03,0-1.87.82-1.87,2.07,0,.84.37,1.89,1.11,2.59-1.13.57-3.08,2.34-4.02,4.04-.43-.78-.88-1.68-.88-2.83,0-2.4,1.33-4.23,1.33-6.32,0-1.05-.33-2.2-1.17-3.49,3.82.97,8.23-.33,12.29-.33,1.29,0,2.54.12,3.72.51-.55.57-.78,1.5-.78,2.15,0,1.93,1.7,3.18,1.7,5.46,0,1.99-1.44,3.57-3.53,3.57-1.72,0-3.06-1.33-3.06-2.89,0-1.27.72-2.2,1.42-2.2.25,0,.35.16.45.31.1.18.23.33.47.33.43,0,.64-.45.64-1.11,0-1.29-.88-2.13-2.14-2.13s-1.87,1.21-1.87,3.3c0,5.17,2.81,9.24,2.77,10.75-3.82-.76-5.42.78-7,.78-.98,0-1.38-.53-1.38-1.48Z" style="fill:#f9d3ce;"/><path d="M126.82,18.84c-1.83-.04-3.57-1.35-3.57-3.51,0-3.76,3.35-5.73,3.49-11.19.04-1.58-.53-2.67-1.17-3.98,4.35.78,8.52-.16,11.35-.16.39,0,.76.02,1.09.06-.41.96-.58,2.09-.58,3.71,0,5.01,3.35,12.32,3.57,14.29-3.47-.49-5.66.51-6.9.51-.92,0-1.58-.7-1.58-1.38,0-1.31,1.54-2.79,1.54-4.84,0-.92-.7-1.7-2.01-1.7-1.89,0-2.96.53-2.96,1.87,0,.82.39,1.42,1.81,1.75-2.03,1.23-2.34,2.54-2.34,3.33s-.84,1.23-1.68,1.23h-.06ZM133.76,6.9c0-1.13-1.01-3.24-1.95-3.24-.51,0-.66.57-.94,1.29-.25.66-.62,1.46-.62,2.07,0,1.15.8,1.54,1.89,1.54s1.62-.7,1.62-1.66Z" style="fill:#f9d3ce;"/><path d="M4.86,40.94c-2.26-.04-3.32-1.89-3.32-3.67,0-2.83,1.46-5.34,1.46-9.11,0-2.36-.99-4.35-2.01-5.87,3.22,1.01,6.12.82,7.76.58.27,1.91,3.16,9.56,4.21,9.56.7,0,1.03-1.23,1.03-3.45,0-2.77-.92-5.77-2.26-6.57,1.21.02,2.52-.08,3.78-.08s2.61.1,3.69.58c-1.83,1.11-2.36,3.37-2.36,6.73,0,4.95,1.6,9.09,1.81,10.51-3.26-.68-4.41.37-5.95.37-.92,0-1.35-.66-1.35-2.32,0-3.71-2.48-8.74-3.39-8.74-.66,0-1.17.55-1.17,2.46,0,1.31.23,3.51,1.58,3.76-1.72,1.33-1.66,2.73-1.66,3.55,0,.92-.7,1.7-1.83,1.7h-.04Z" style="fill:#f9d3ce;"/><path d="M20.13,38.77c0-1.85,2.11-6.42,2.11-12.36,0-1.64-.88-3.1-2.32-4,1.85.1,4.68-.41,6.61-.41.51,0,.94.02,1.29.12-1.13.76-2.05,2.3-2.05,5.71,0,6.26,1.66,10.37,1.79,12.31-3.33-.45-4.43.35-5.87.35-1.09,0-1.56-.72-1.56-1.72Z" style="fill:#f9d3ce;"/><path d="M32.42,40.99c-1.91-.02-3.35-1.72-3.35-3.78,0-2.52,1.62-4.48,1.62-8.89,0-2.71-1.15-4.5-2.16-5.83,3.22.62,6.51.12,8.35-.19-.6.86-1.7,3.12-1.7,5.17,0,1.66,1.27,2.05,2.89,2.05,2.01,0,3.14-.78,3.14-2.48,0-2.4-.78-3.9-2.32-4.74.88-.12,1.79-.16,2.71-.16,2.05,0,4.02.27,5.17.78-1.77,1.01-2.09,3.35-2.09,6.34,0,3.61,1.81,8.81,1.58,11.02-2.81-.9-4.41.16-5.95.16-.53,0-.9-.47-.9-1.15,0-1.7,1.25-3.9,1.25-5.27,0-.84-.84-1.66-2.36-1.66-1.6,0-3.18.43-3.18,1.77,0,.92.47,1.79,1.33,2.01-1.11.57-2.07,1.79-2.07,3.51,0,.84-.94,1.35-1.89,1.35h-.06Z" style="fill:#f9d3ce;"/><path d="M53.81,39.75c-1.35,0-1.95.51-3.06.51-1.87,0-3.39-1.74-3.39-4.48,0-4.76,2.59-7.12,2.59-10.73,0-.88-.23-1.66-.82-2.59,3.04.49,7.7-.43,11.41-.43,1.27,0,2.52.14,3.39.57-.53.58-.9,1.62-.9,2.34,0,3.65,2.94,6.08,2.94,10.1,0,3.41-1.99,5.5-6.32,5.5-3.3,0-4.08-.78-5.85-.78ZM60.27,31.63c0-3.98-1.52-6.24-3.24-6.24-1.89,0-4.19,1.33-4.19,5.73,0,3.2,1.72,4.19,3.41,4.19,2.67,0,4.02-1.33,4.02-3.69Z" style="fill:#f9d3ce;"/><path d="M70.45,40.94c-2.26-.04-3.32-1.89-3.32-3.67,0-2.83,1.46-5.34,1.46-9.11,0-2.36-.99-4.35-2.01-5.87,3.22,1.01,6.12.82,7.76.58.27,1.91,3.16,9.56,4.21,9.56.7,0,1.03-1.23,1.03-3.45,0-2.77-.92-5.77-2.26-6.57,1.21.02,2.52-.08,3.78-.08s2.61.1,3.69.58c-1.83,1.11-2.36,3.37-2.36,6.73,0,4.95,1.6,9.09,1.81,10.51-3.26-.68-4.41.37-5.95.37-.92,0-1.35-.66-1.35-2.32,0-3.71-2.48-8.74-3.39-8.74-.66,0-1.17.55-1.17,2.46,0,1.31.23,3.51,1.58,3.76-1.72,1.33-1.66,2.73-1.66,3.55,0,.92-.7,1.7-1.83,1.7h-.04Z" style="fill:#f9d3ce;"/><path d="M90.23,40.82c-3.22,0-5.11-1.81-5.11-4.45,0-2.28,1.99-4.35,3.71-4.35.9,0,1.27.35,1.27.86,0,.47-.23.72-.23,1.29,0,.66.78,1.11,1.6,1.11,1.33,0,2.15-.6,2.15-1.7,0-2.05-2.77-4.95-4.5-5.71-.88-.39-1.68-.43-2.26-.62-.53-.14-.96-.53-.94-1.44,0-2.05,3.04-3.86,9.17-3.86,2.36,0,4.41.47,5.11,1.01-.62.9-1.25,3.35-1.09,5.46-1.03-.64-2.24-2.71-4.29-2.71-1.09,0-1.62.49-1.62,1.27,0,.86,2.44,3.45,4.04,4.8,1.68,1.42,3,3.47,3,5.4,0,2.07-.94,3.2-2.15,3.2-.99,0-1.23-.64-2.69-.64-1.75,0-3.26,1.09-5.15,1.09Z" style="fill:#f9d3ce;"/><path d="M104.82,40.99c-1.91-.02-3.35-1.72-3.35-3.78,0-2.52,1.62-4.48,1.62-8.89,0-2.71-1.15-4.5-2.16-5.83,3.22.62,6.51.12,8.35-.19-.6.86-1.7,3.12-1.7,5.17,0,1.66,1.27,2.05,2.89,2.05,2.01,0,3.14-.78,3.14-2.48,0-2.4-.78-3.9-2.32-4.74.88-.12,1.79-.16,2.71-.16,2.05,0,4.02.27,5.17.78-1.77,1.01-2.09,3.35-2.09,6.34,0,3.61,1.81,8.81,1.58,11.02-2.81-.9-4.41.16-5.95.16-.53,0-.9-.47-.9-1.15,0-1.7,1.25-3.9,1.25-5.27,0-.84-.84-1.66-2.36-1.66-1.6,0-3.18.43-3.18,1.77,0,.92.47,1.79,1.33,2.01-1.11.57-2.07,1.79-2.07,3.51,0,.84-.94,1.35-1.89,1.35h-.06Z" style="fill:#f9d3ce;"/><path d="M125.02,39.61c-1.33,0-1.6.58-2.61.58-1.13,0-1.91-2.24-1.91-4.56s.88-5.28.88-7.9c0-2.17-.43-3.28-1.91-5.07,2.44.33,6.49-.08,8.25-.51-.82,1.13-2.11,3-2.11,6.42,0,4.84,1.15,6.01,3.2,6.01,2.26,0,3.43-1.03,3.43-5.36,0-4.02-.76-5.6-1.99-6.67,1.64.02,3.55-.55,5.36-.55.7,0,1.38.08,2.03.33-1.46,1.13-1.93,2.73-1.93,5.85,0,4.06.94,5.19.94,7.62,0,2.92-2.03,4.78-5.4,4.78s-3.94-.97-6.22-.97Z" style="fill:#f9d3ce;"/><path d="M19.19,57.92c0,2.16,1.11,4.02,1.2,4.99-2.5-.49-4.46.21-6.13.21-1.11,0-1.65-.55-1.65-1.35,0-.88,1.06-2.13,1.06-3.65,0-1.6-1.33-4.11-2.26-4.11-.7,0-2.11,2.36-2.11,3.32,0,.49.22,1.15,1.09,1.89-1.91.66-2.65,1.68-3.17,2.53-.56.92-.8,1.52-1.76,1.52-1.2,0-2.39-1.81-2.39-4.08,0-1.95.59-3.33.59-7.08,0-3.3-1.17-5.17-3.67-7.06,2.56.21,7.8-.49,9.45-.53-1.09,1.19-2.28,3.69-2.28,6.18,0,1.7.13,3.67.89,3.67s2.35-4.74,1.39-6.67c1.06-.16,3.72-.41,4.74-.18-1.39,2.3.35,7.16,1.22,7.16.8,0,1.37-2.2,1.37-4.58s-.7-4.37-2.06-5.48c3.69.39,6.32-.72,8.63.88-3.21,1.38-4.17,10.12-4.17,12.4Z" style="fill:#f9d3ce;"/><path d="M27.98,62.19c-1.28,0-1.85.51-2.91.51-1.78,0-3.22-1.74-3.22-4.48,0-4.76,2.46-7.12,2.46-10.73,0-.88-.22-1.66-.78-2.59,2.89.49,7.32-.43,10.84-.43,1.2,0,2.39.14,3.22.57-.5.58-.85,1.62-.85,2.34,0,3.65,2.8,6.08,2.8,10.1,0,3.41-1.89,5.5-6,5.5-3.13,0-3.87-.78-5.56-.78ZM34.11,54.08c0-3.98-1.44-6.24-3.08-6.24-1.8,0-3.98,1.33-3.98,5.73,0,3.2,1.63,4.19,3.24,4.19,2.54,0,3.82-1.33,3.82-3.69Z" style="fill:#f9d3ce;"/><path d="M48.19,58.45c-.33-.92-.98-2.07-1.85-2.07-.67,0-1.02.51-1.02,1.01,0,1.89,1.57,4.27,1.8,5.42-3.04-.18-3.85.49-5.11.49h-.15c-.96-.04-1.3-.68-1.3-1.68,0-1.83,1.13-4.7,1.13-11.45,0-2.69-.41-4.06-1.2-5.32,3.02.49,7.58-.39,10.06-.39.65,0,1.15.06,1.46.21-.13,2.05,2.39,2.87,2.39,5.81s-4.48,3.22-4.48,5.38c0,1.15.59,1.7,1.33,1.7.65,0,.96-.27.96-.68,0-.68-.52-.68-.52-1.25,0-.51.37-.78,1.19-.78,1.39,0,2.76,1.58,2.76,3.55,0,2.57-1.26,3.04-1.87,3.74-.28.33-.35.62-.5.82-.19.27-.41.33-.96.35-2.33,0-3.52-3.26-4.11-4.88ZM49.45,49.79c0-1.42-1.06-2.16-2.39-2.16-1.02,0-1.78.37-1.78,1.25,0,2.42.35,4,1.39,4,1.33,0,2.78-1.66,2.78-3.08Z" style="fill:#f9d3ce;"/><path d="M60.44,62.52c-.91,0-1.74.23-2.56.41-.28-.76-.48-1.66-.48-2.77,0-2.05,1.19-5.21,1.19-8.97,0-3.2-.93-5.23-1.91-6.47,1.56.23,3.91-.21,6.08-.21,1.2,0,2.33.14,3.26.58-3.3,1.38-4.08,4.93-4.08,8.31s.85,5.13,2.65,5.13c1.39,0,2.41-.99,2.41-2.24,0-.88-.35-1.27-.69-1.56-.28-.21-.72-.53-.7-1.01,0-.88.93-1.31,1.87-1.31,2.35,0,4.04,1.89,4.04,4.43,0,2.3-.81,3.33-.81,4.35,0,.31.17.58.17.99,0,.66-1.02,1.07-3.8,1.07-2.98,0-5.5-.72-6.63-.72Z" style="fill:#f9d3ce;"/><path d="M76.58,61.94c-1.28,0-1.7.57-2.5.57-.72,0-1.33-.72-1.33-2.13,0-2.03,1.33-6.08,1.33-10.43,0-1.5-.31-3.3-1.07-4.97,2.87.51,9.02-.08,10.71-.47,1.17,3,5.19,5.62,5.19,10.9,0,4.13-2.22,7.47-6.39,7.47-3,0-4.48-.94-5.93-.94ZM83.88,54.9c0-3.98-2.28-6.57-4.09-6.57-.89,0-1.24,1.01-1.24,2.5s-.17,3.32.04,4.82c.19,1.56.82,2.63,2.15,2.61,1.41,0,3.15-1.27,3.15-3.35Z" style="fill:#f9d3ce;"/><path d="M97.38,56.62c2.27-1.8,5.5-2.9,5.5-6.53,0-1.2-1.01-2.14-2.34-2.14-.91,0-1.88.67-1.88,1.41,0,.53.33.9.76.9.52,0,.6-.49,1.18-.49.48,0,.85.39.85,1.2.02,1.69-1.67,3.24-3.41,3.24-2.46,0-3.51-2.08-3.51-4.63,0-3.16,1.96-5.69,6.65-5.69,4.01,0,5.81,2.37,5.81,5.22,0,3.84-1.94,4.65-3.8,6.34-.72.65-1.32,1.51-1.32,1.96,0,.67.64.9,1.47.9,1.67,0,3.14-.57,4.09-1.26-1.07,2.98-.23,3.51-.23,4.73,0,1.06-1.03,1.9-2.73,1.9-2.77,0-3.88-1.14-6.2-1.14-1.22,0-2.52.47-3.39.69-.66-2.57.15-4.75,2.5-6.61Z" style="fill:#f9d3ce;"/><path d="M108.81,57.76c0-3.1,3.1-10.22,1.55-13.44,2.64.9,5.17-.16,8.6-.41.68,2.69,2.5,6.32,2.5,11.04,0,5.65-1.94,8.71-6.3,8.71-4.77,0-6.36-2.37-6.36-5.9ZM116.9,54.13c-.04-3.24-.58-6.51-1.47-6.51-.52,0-.7.18-.76.55-.08.43.04.94.02,1.53,0,2.12-.99,4.94-.99,5.94,0,1.18.35,1.98,1.55,1.98.93,0,1.67-1.49,1.65-3.49Z" style="fill:#f9d3ce;"/><path d="M126.29,56.62c2.27-1.8,5.5-2.9,5.5-6.53,0-1.2-1.01-2.14-2.34-2.14-.91,0-1.88.67-1.88,1.41,0,.53.33.9.76.9.52,0,.6-.49,1.18-.49.48,0,.85.39.85,1.2.02,1.69-1.67,3.24-3.41,3.24-2.46,0-3.51-2.08-3.51-4.63,0-3.16,1.96-5.69,6.65-5.69,4.01,0,5.81,2.37,5.81,5.22,0,3.84-1.94,4.65-3.8,6.34-.72.65-1.32,1.51-1.32,1.96,0,.67.64.9,1.47.9,1.67,0,3.14-.57,4.09-1.26-1.07,2.98-.23,3.51-.23,4.73,0,1.06-1.03,1.9-2.73,1.9-2.77,0-3.88-1.14-6.2-1.14-1.22,0-2.52.47-3.39.69-.66-2.57.16-4.75,2.5-6.61Z" style="fill:#f9d3ce;"/><path d="M138.38,59.94c0-1.96,1.12-3.67,3.02-3.67.56,0,.99.37.99.8,0,.37-.25.51-.25.96s.5.88,1.49.88,2.33-.84,2.33-2.22c0-1.51-.76-2.49-3.14-2.49-2.05,0-2.81,1.86-3.82,1.86-.68,0-1.36-1.31-1.36-2.08,0-1.47,1.78-3.51,1.78-6.37,0-1.51-.58-2.33-1.28-3.37.83.27,2.31.65,3.68.65,3.74,0,6.32-1.14,8.16-.27-1.4,1.22-.97,3.92-1.38,4.88-.74-.59-2.79-1.26-4.63-1.26-1.45,0-2.23.84-2.23,2.65,0,.84.79,1.27,2.04,1.27,1.84,0,2.42-.43,3.35-.43s3.16,2.2,3.16,5.79c0,3.26-1.94,6.26-6.16,6.26-3.45,0-5.75-1.53-5.75-3.84Z" style="fill:#f9d3ce;"/></g></g></svg>