<?xml version="1.0" encoding="UTF-8"?><svg id="_レイヤー_2" xmlns="http://www.w3.org/2000/svg" viewBox="0 0 376.65 145.57"><g id="_デザイン"><path d="M13.27,120.1c0,3.69-2.93,6.67-6.61,6.67-3.68,0-6.61-2.98-6.61-6.67,0-3.69,2.93-6.67,6.61-6.67,3.68,0,6.61,2.98,6.61,6.67Z" style="fill:#0068b7;"/><path d="M22.8,113.09v4.76s5.52,0,5.52,0v8.77s-13.18,0-13.18,0v-1.49s11.6,0,11.6,0v-2.23s-10.96,0-10.96,0v-1.46s10.96,0,10.96,0v-2.13s-11.3,0-11.3,0v-1.46s5.79,0,5.79,0v-4.77s1.56,0,1.56,0ZM19.45,116.62l-1.44.85c-.55-1.1-1.34-2.37-2.17-3.26l1.3-.88c1.04,1.09,1.61,2,2.32,3.29ZM25.87,117.53l-1.27-.86c.86-1.03,1.64-2.14,2.14-3.4l1.55.77c-.63,1.28-1.45,2.46-2.43,3.49Z" style="fill:#fff;"/><path d="M43.1,113.79v12.9s-11.53,0-11.53,0v-12.9s11.53,0,11.53,0ZM33.22,125.15h8.23s0-4.23,0-4.23h-8.23s0,4.23,0,4.23ZM41.45,119.4v-4.08s-8.23,0-8.23,0v4.08s8.23,0,8.23,0Z" style="fill:#fff;"/><path d="M53.95,118.56h4.99s0,1.64,0,1.64h-5c-.21,3.19-1.76,5.02-4.54,6.42l-1.16-1.38c2.28-1,3.81-2.46,4.02-5.03h-5.82s0-1.64,0-1.64h5.85s0-2.05,0-2.05c-1.42.3-2.86.51-4.3.69l-.58-1.61c2.62-.22,6.33-.76,8.68-1.88l1.24,1.25c-1.12.51-2.19.83-3.37,1.16v2.44Z" style="fill:#fff;"/><path d="M69.42,122.84c-.77,1.67-2.12,2.93-3.69,3.81l-1.35-1.16c1.35-.75,2.64-1.79,3.35-3.19.67-1.28.79-2.68.82-4.1h-3.48c-.63,1.09-1.34,2.07-2.19,2.99l-1.4-.94c1.79-1.98,2.95-4.11,3.84-6.61l1.61.51c-.31.86-.63,1.61-1.01,2.43h8.24s0,1.62,0,1.62h-3.87c-.05,1.59-.18,3.16-.85,4.63Z" style="fill:#fff;"/><path d="M79.26,117.13c.67,1.03,1.21,2,1.73,3.11l-1.31.68c-.51-1.12-1.01-2.04-1.68-3.07l1.27-.73ZM88.06,117.17c-.66,4.66-2.7,7.91-7.31,9.46l-1.13-1.21c4.38-1.33,6.35-4.08,6.91-8.53l1.53.28ZM82.38,116.46c.65,1.04,1.16,2.05,1.62,3.19l-1.33.65c-.48-1.19-.92-2.07-1.59-3.17l1.3-.67Z" style="fill:#fff;"/><path d="M101.44,121.38l-.98,1.47c-1.76-1.37-3.51-2.5-5.54-3.44v7.15s-1.74,0-1.74,0v-12.91s1.74,0,1.74,0v3.92c2.31,1.01,4.5,2.31,6.52,3.81Z" style="fill:#fff;"/><path d="M120.5,120.12l-11.91,6.88h-.03s0-13.79,0-13.79h.03s11.91,6.88,11.91,6.88v.03Z" style="fill:#0068b7;"/><path d="M133.01,113.58v5.05s-4.2,0-4.2,0v8.43s-1.46,0-1.46,0v-13.48s5.66,0,5.66,0ZM131.51,122.11v-1.37s-1.65,0-1.65,0v-1.24s7.91,0,7.91,0v1.24s-1.46,0-1.46,0v1.56s1.74,0,1.74,0v1.22s-1.74,0-1.74,0v3.32s-1.42,0-1.42,0v-3.32s-2.13,0-2.13,0c-.33,1.34-1.01,2.49-2.13,3.29l-.98-1.06c.76-.6,1.39-1.28,1.64-2.23h-1.74s0-1.22,0-1.22h1.95c.01-.06.01-.13.02-.19ZM128.84,116.56v.94s2.75,0,2.75,0v-.94s-2.75,0-2.75,0ZM128.84,114.68v.91s2.75,0,2.75,0v-.91s-2.75,0-2.75,0ZM134.89,122.31v-1.56s-2,0-2,0v1.56s2,0,2,0ZM140.23,113.58v12.21c0,.73-.31,1.27-1.12,1.27h-2.1s-.28-1.5-.28-1.5h1.67c.21,0,.36-.06.36-.3v-6.63s-4.26,0-4.26,0v-5.05s5.73,0,5.73,0ZM135.96,116.56v.94s2.77,0,2.77,0v-.94s-2.77,0-2.77,0ZM135.96,114.68v.91s2.77,0,2.77,0v-.91s-2.77,0-2.77,0Z" style="fill:#fff;"/><path d="M145.92,123.83l-.36-.52c-1.15.51-2.31.95-3.5,1.31l-.15-1.62c.58-.12,1.06-.28,1.61-.45v-4.91s-1.46,0-1.46,0v-1.47s1.46,0,1.46,0v-3.02s1.5,0,1.5,0v3.02s1.12,0,1.12,0v1.47s-1.12,0-1.12,0v4.44c.45-.13.69-.21,1.13-.39l.06.67c1.07-.52,1.74-1.07,2.44-2.04h-2.52s0-1.18,0-1.18h10.01s0,1.18,0,1.18h-6.02c-.19.33-.31.52-.55.82h6.15c0,1.01-.12,4.27-.48,5.06-.16.39-.42.63-.81.79-.1.03-.24.06-.62.06h-2.01s-.31-1.46-.31-1.46h1.95c.45,0,.49-.19.57-.58.1-.57.18-2.05.21-2.7h-.71c-1,2.22-2.56,3.78-4.75,4.84l-.91-1.19c2.04-.85,3.13-1.74,4.27-3.65h-1.06c-1.37,1.88-2.99,2.93-5.15,3.71l-.73-1.09c1.74-.55,3.13-1.28,4.41-2.62h-1.19c-.82.7-1.5,1.12-2.49,1.52ZM155.18,113.58v4.84s-8.31,0-8.31,0v-4.84s8.31,0,8.31,0ZM148.27,116.52v.88s5.48,0,5.48,0v-.88s-5.48,0-5.48,0ZM148.27,114.7v.86s5.48,0,5.48,0v-.86s-5.48,0-5.48,0Z" style="fill:#fff;"/><path d="M159.4,123.34c.89.72,2.01,1.13,3.2,1.13,1.56,0,2.49-.64,2.49-1.93,0-1.19-.74-1.95-3.05-1.95h-1.25s0-1.49,0-1.49h1.15c1.76,0,2.86-.69,2.86-2.01,0-1.04-.68-1.65-2.01-1.65-.95,0-1.92.37-2.78,1.24l-.76-1.46c1.04-.95,2.29-1.37,3.74-1.37,2.29,0,3.71,1.07,3.71,2.98,0,1.46-.85,2.49-2.34,2.9,1.65.34,2.64,1.22,2.64,2.89,0,2.17-1.68,3.47-4.3,3.47-1.45,0-2.73-.42-3.6-1.03l.33-1.71Z" style="fill:#fff;"/><path d="M169.29,119.96c0-3.95,1.59-6.11,4.18-6.11,2.59,0,4.19,2.16,4.19,6.11,0,3.95-1.59,6.11-4.19,6.11s-4.18-2.16-4.18-6.11ZM175.75,119.96c0-3.08-.83-4.53-2.28-4.53-1.44,0-2.28,1.45-2.28,4.53,0,3.1.83,4.53,2.28,4.53,1.44,0,2.28-1.43,2.28-4.53Z" style="fill:#fff;"/><path d="M181.11,119.82l-1.07-1.36c1.15-.63,2.01-1.44,2.81-2.46.76-.95,1.3-1.82,1.65-2.96l1.55.4c-.74,2-1.71,3.45-3.25,4.94h9.17c0,2.01-.07,5.48-.61,7.34-.31,1.09-1,1.39-2.06,1.39h-2.28s-.3-1.58-.3-1.58h2.28c.85,0,.98-.74,1.1-1.41.24-1.36.31-2.85.3-4.23h-3.45c-.36,3.72-2.14,5.79-5.54,7.22l-.91-1.43c2.95-1.24,4.45-2.47,4.86-5.79h-2.73s0-1.34,0-1.34c-.51.46-1,.86-1.53,1.27ZM190.81,116.9c-.83-1.03-1.53-2.17-1.99-3.41l1.55-.45c.85,2.03,2.47,4.23,4.36,5.36l-1.09,1.3c-1.06-.7-2.04-1.82-2.83-2.8Z" style="fill:#fff;"/><path d="M202.39,117.57v8.13c0,.51-.05.73-.16.92-.27.4-.76.45-1.12.45h-1.86s-.28-1.53-.28-1.53h1.58c.31,0,.36-.01.36-.3v-1.44s-2.73,0-2.73,0v3.28s-1.5,0-1.5,0v-9.5s5.72,0,5.72,0ZM199.39,114.88c-.22-.51-.51-1-.79-1.47l1.67-.33c.27.49.63,1.28.83,1.8h3.35c.27-.49.54-1.19.65-1.73l1.79.15c-.19.54-.45,1.06-.7,1.58h3.48s0,1.41,0,1.41h-13.92s0-1.41,0-1.41h3.63ZM198.18,121.32v1.19s2.73,0,2.73,0v-1.19s-2.73,0-2.73,0ZM198.18,118.93v1.19s2.73,0,2.73,0v-1.19s-2.73,0-2.73,0ZM203.75,117.71h1.53s0,6.51,0,6.51h-1.53s0-6.51,0-6.51ZM208.72,117.23v8.52c0,.36-.06.73-.31,1-.25.27-.65.33-1.06.33h-2.43s-.3-1.53-.3-1.53h2.26c.12,0,.28,0,.28-.16v-8.15s1.55,0,1.55,0Z" style="fill:#fff;"/><path d="M216.03,113.69l1.64.34c-.16.94-.36,1.86-.56,2.79.15,0,.28,0,.43,0,2.8,0,3.57,1.31,3.57,3.93,0,1.25-.12,3.37-.82,4.42-.55.85-1.47,1.06-2.43,1.06-.56,0-1.07-.07-1.61-.19v-1.65c.49.13.95.24,1.46.24.79,0,1.25-.31,1.46-1.1.24-.85.3-1.89.3-2.78,0-1.61-.15-2.4-1.98-2.4-.25,0-.51.02-.76.03-.79,2.86-1.7,5.49-3.23,8.04l-1.4-.94c1.34-2.16,2.29-4.45,2.95-6.91-1.01.13-2.01.3-3.02.48l-.21-1.58,3.62-.46c.24-1.09.43-2.19.6-3.31ZM224.64,121.64l-1.64.54c-.18-2.25-.94-4.36-2.53-6l1.29-.92c1.71,1.8,2.64,3.93,2.87,6.39Z" style="fill:#fff;"/><path d="M230.87,116.16c-.33,1.31-.62,2.62-.86,3.93,1.55-.92,2.93-1.47,4.78-1.47,2.16,0,4.22,1.04,4.22,3.45,0,1.67-1.04,2.95-2.55,3.54-1.24.49-2.73.64-4.05.64-.86,0-1.74-.07-2.59-.19l-.33-1.7c1.03.18,2.01.28,3.07.28,1.71,0,4.76-.3,4.77-2.61,0-1.49-1.34-1.89-2.58-1.89-1.95,0-3.84.86-5.29,2.15l-1.36-.4c.31-2.06.68-4.1,1.16-6.11l1.61.37ZM236.66,114.98l-.6,1.5c-1.92-.7-3.8-1.09-5.84-1.31l.6-1.5c2,.24,3.95.63,5.84,1.31Z" style="fill:#fff;"/><path d="M251.48,121.27h-7.42s0-1.41,0-1.41h9.29s0,1.41,0,1.41c-.74,1.33-1.65,2.38-2.92,3.25,1.77.6,3.54.88,5.39,1.01l-.59,1.62c-2.19-.22-4.47-.73-6.45-1.7-2.07.91-4.16,1.34-6.39,1.62l-.66-1.53c1.7-.18,3.86-.46,5.44-1.04-1.06-.76-1.73-1.44-2.46-2.55l1.38-.46c.75.94,1.59,1.68,2.65,2.26,1.1-.65,1.95-1.47,2.73-2.49ZM243.36,115.55l.71-.27c-.54-.01-1.09-.02-1.62-.03l-.3-1.36c.91.03,1.82.06,2.71.06,3.26,0,6.45-.27,9.64-.89l.82,1.3c-.76.16-1.52.3-2.28.4l1.22.37c-.36.79-.64,1.41-1.06,2.19h2.2s0,3.81,0,3.81h-1.57s0-2.4,0-2.4h-10.23s0,2.4,0,2.4h-1.56s0-3.81,0-3.81h2.16c-.25-.54-.57-1.3-.85-1.77ZM248.16,117.32c-.22-.7-.45-1.4-.76-2.07-.82.03-1.65.03-2.49.03.31.67.6,1.36.86,2.04h2.38ZM251.51,117.32c.39-.68.85-1.74,1.06-2.49-1.21.16-2.29.24-3.5.33.25.68.49,1.44.66,2.16h1.79Z" style="fill:#fff;"/><path d="M257.56,120.91l-.69-1.76c1.47-1.64,2.56-3.95,2.99-6.11l1.59.24c-.3,1.15-.66,2.17-1.13,3.25v10.53s-1.52,0-1.52,0v-7.71c-.43.63-.73,1.01-1.25,1.56ZM269.42,113.09v3.16s1.68,0,1.68,0v1.53s-1.68,0-1.68,0v7.7c0,1.19-.64,1.58-1.77,1.58h-2.76s-.21-1.58-.21-1.58l2.75.05c.3,0,.39-.16.39-.43v-7.31s-6.69,0-6.69,0v-1.53s6.69,0,6.69,0v-3.16s1.59,0,1.59,0ZM265.57,122.38l-1.37.92c-.71-1.28-1.55-2.52-2.5-3.63l1.31-.86c.95,1.12,1.8,2.31,2.56,3.57Z" style="fill:#fff;"/><path d="M276.17,114.39c-.54,2.25-.86,4.54-.86,6.87,0,1.61.16,3.11.51,4.69l-1.62.21c-.4-1.58-.51-3.25-.51-4.87,0-2.41.28-4.74.76-7.1l1.73.21ZM279.1,122.62c0,.45.27.76.69.92.58.24,1.53.27,2.16.27,1.22,0,2.32-.13,3.51-.36l-.03,1.74c-1.1.16-2.2.25-3.32.25-1.77,0-4.53-.13-4.53-2.53,0-.76.28-1.43.7-2.05l1.41.28c-.31.42-.6.92-.6,1.47ZM282.28,116.87c-1.39,0-2.76.12-4.13.3l.03-1.7c1.4-.13,2.8-.24,4.2-.24.83,0,1.67.03,2.49.1l-.03,1.65c-.85-.07-1.71-.12-2.56-.12Z" style="fill:#fff;"/><path d="M289.72,115.23l10.29-.74.15,1.68c-1.8.09-3.2.36-4.72,1.37-1.28.83-2.4,2.09-2.4,3.69,0,2.44,2.62,3.32,4.63,3.53l-.82,1.62c-2.81-.43-5.51-1.85-5.51-5.05,0-2.44,1.55-4.05,3.65-5.05l-7.37.82-.15-1.77c.74-.03,1.5-.06,2.25-.1Z" style="fill:#fff;"/><path d="M302.78,127.12l-1.09-.95c.57-.63,1.12-1.55,1.3-2.38l1.31.59c-.3.98-.83,1.98-1.52,2.74ZM307.28,113.58v9.95s-4.93,0-4.93,0v-9.95s4.93,0,4.93,0ZM303.8,120.55v1.58s2.06,0,2.06,0v-1.58s-2.06,0-2.06,0ZM303.8,117.74v1.47s2.06,0,2.06,0v-1.47s-2.06,0-2.06,0ZM303.8,114.97v1.44s2.06,0,2.06,0v-1.44s-2.06,0-2.06,0ZM306.16,126.33c-.34-.7-.74-1.37-1.15-2.03l1.3-.48c.3.42.71,1.06.97,1.5.94-1.64,1.16-4.02,1.16-5.88v-5.87s7.48,0,7.48,0v1.46s-5.94,0-5.94,0v2.09s5.41,0,5.41,0v1.53c-.24,1.77-.73,3.62-1.74,5.11.75.8,1.53,1.35,2.49,1.88l-.76,1.44c-1.04-.61-1.86-1.24-2.68-2.13-.89.94-1.82,1.53-2.99,2.06l-.77-1.34c1.15-.42,2.03-1,2.84-1.91-.89-1.4-1.34-2.93-1.62-4.56l1.43-.34c.12,1.33.42,2.49,1.12,3.65.73-1.25,1.04-2.56,1.19-3.98h-3.9c0,3.28-.22,5.91-1.97,8.59l-1.34-.89c.06-.07.12-.15.16-.22l-.67.31Z" style="fill:#fff;"/><path d="M317.75,127.16l-.71-1.5c2.87-.67,4.18-1.41,4.17-4.62l1.65.12c-.25,3.77-1.59,4.93-5.11,6ZM330.87,119.09v2.92s-1.59,0-1.59,0v-1.58s-10.14,0-10.14,0v1.58s-1.58,0-1.58,0v-2.92s13.31,0,13.31,0ZM323.46,114.24v-1.12s1.58,0,1.58,0v1.12s6.24,0,6.24,0v1.47s-6.24,0-6.24,0v1.12s5.41,0,5.41,0v1.32s-12.38,0-12.38,0v-1.32s5.39,0,5.39,0v-1.12s-6.26,0-6.26,0v-1.47s6.26,0,6.26,0ZM330.92,125.97c-.24.51-.65.88-1.25.88h-3.11c-.77,0-1.36-.34-1.35-1.18v-4.6s1.53,0,1.53,0v3.95c0,.24.02.37.28.37h2.2c.19,0,.3-.27.34-.42.04-.19.18-1.37.18-1.61l1.56.37c-.06.58-.15,1.76-.39,2.23Z" style="fill:#fff;"/><path d="M337.2,113.91l-.3,7.56c-.02.15-.02.28-.02.42,0,.86.06,1.74.79,2.31.51.4,1.19.54,1.83.54,2.68,0,4.11-2.47,4.84-4.74l1.55.88c-1.09,2.99-2.89,5.53-6.39,5.53-1.4,0-2.95-.42-3.75-1.67-.54-.82-.63-1.73-.63-2.7,0-.15.01-.31.01-.46l.27-7.77,1.79.1Z" style="fill:#fff;"/><path d="M354.25,113.69h1.65s.02,1.95.02,1.95c1.58-.03,3.14-.07,4.72-.13v1.56c-1.56.06-3.14.09-4.72.12l.02,1.37c1.37-.03,2.74-.07,4.11-.15v1.58c-1.36.06-2.73.09-4.1.12v1.92c1.65.39,3.04,1.09,4.48,1.95l-.82,1.58c-1.19-.83-2.29-1.41-3.66-1.91-.01.78,0,1.43-.59,2.03-.61.6-1.68.76-2.52.76-1.45,0-3.23-.62-3.23-2.34,0-1.94,2.11-2.41,3.65-2.41.36,0,.72.03,1.06.06l-.02-1.61c-.78.02-1.56.03-2.35.03-.73,0-1.46-.01-2.19-.01v-1.61c.85.03,1.7.04,2.53.04.67,0,1.34,0,2.01,0v-1.38c-.82,0-1.61.02-2.4.01-.89,0-1.77-.01-2.65-.03v-1.59c1.67.04,3.35.06,5.02.06l-.02-1.97ZM353.15,123.13c-.64,0-1.98.1-1.98,1,0,.71,1.01.89,1.56.89,1.7,0,1.58-.86,1.58-1.79-.39-.06-.78-.1-1.16-.1Z" style="fill:#fff;"/><path d="M372.7,121.43c.03,2.84-1.44,4.54-4.04,5.51l-1.09-1.36c1.41-.49,2.56-1.13,3.23-2.55-.48.4-1,.6-1.62.6-1.65,0-2.73-1.37-2.73-2.95,0-1.7,1.21-2.98,2.92-2.98.67,0,1.19.16,1.71.58l-.03-1.39-4.36.12c-.92.03-1.83.06-2.75.12l-.03-1.64c.48.01.97.03,1.46.03.42,0,.85,0,1.28-.01l4.36-.09-.05-1.88h1.64s.01,1.85.01,1.85l1.3-.03c.89-.03,1.8-.06,2.7-.13l.03,1.62c-.45-.03-.89-.03-1.34-.03-.46,0-.91,0-1.37,0l-1.29.04.06,4.56ZM369.52,119.11c-.89,0-1.47.72-1.47,1.56,0,.86.55,1.56,1.44,1.56.89,0,1.5-.7,1.5-1.56,0-.88-.57-1.56-1.47-1.56Z" style="fill:#fff;"/><path d="M9.7,140.39c0,2.71-2.15,4.9-4.85,4.9-2.7,0-4.85-2.18-4.85-4.89,0-2.71,2.15-4.89,4.85-4.89,2.7,0,4.85,2.19,4.85,4.89Z" style="fill:#0068b7;"/><path d="M11.43,144.38c.9-1.07,1.53-2.12,2.08-3.41l.88.73c-.6,1.33-1.28,2.65-2.22,3.78l-.74-1.1ZM13.93,139.28l-.67,1.04c-.49-.4-1.2-.84-1.77-1.14l.57-.98c.52.25,1.39.75,1.87,1.08ZM14.47,136.33l-.69,1.03c-.56-.49-1.09-.84-1.76-1.18l.6-.92c.56.25,1.33.71,1.85,1.07ZM15,140.16h1.13s0,1.1,0,1.1h1.86s0,1.05,0,1.05h-1.86s0,1.64,0,1.64c.62-.08,1.25-.18,1.86-.29v1.05c-1.35.26-2.73.5-4.11.6l-.21-1.14c.45-.03.9-.06,1.33-.11v-3.9ZM21.42,135.61v4.24s-6.71,0-6.71,0v-4.24s6.71,0,6.71,0ZM15.79,138.11v.81s4.52,0,4.52,0v-.81s-4.52,0-4.52,0ZM15.79,136.55v.75s4.52,0,4.52,0v-.75s-4.52,0-4.52,0ZM19.44,141.61c.66-.27,1.13-.64,1.64-1.14l.72.82c-.72.59-1.51,1.05-2.36,1.42v1.3c0,.19.01.37.24.37h.8c.24,0,.27-.01.35-1.31l1.06.22c-.01.4-.06,1.22-.2,1.58-.17.43-.35.56-.74.56h-1.72c-.46,0-.9-.14-.9-.69v-4.58s1.1,0,1.1,0v1.44Z" style="fill:#fff;"/><path d="M22.87,141.58v-1.01s1.84,0,1.84,0v-.73s.98,0,.98,0v.73s1.75,0,1.75,0v1s-1.56,0-1.56,0c.45.66.99,1.2,1.65,1.65l-.6.88c-.51-.43-.85-.77-1.23-1.31v2.69s-.98,0-.98,0v-2.62c-.37.71-.83,1.3-1.37,1.89l-.66-.92c.77-.64,1.32-1.38,1.79-2.26h-1.61ZM26.35,136.23v2.18c0,.08.02.21.13.21h.2c.16,0,.19-.1.19-1.26l.78.1c0,.17,0,.36-.01.55.57-.84.93-1.82,1.09-2.83l1.13.17c-.14.65-.27,1.06-.52,1.67h1.13c.22-.49.5-1.25.68-1.76l1.1.16c-.2.55-.43,1.07-.67,1.6h1.41s0,.98,0,.98h-1.47s0,1.47,0,1.47h1.33s0,.94,0,.94h-1.33s0,1.47,0,1.47h1.33s0,.95,0,.95h-1.33s0,1.49,0,1.49h1.58s0,1,0,1h-5.11s0-5.94,0-5.94c-.08.11-.16.2-.26.29l-.23-.44c-.11.26-.29.44-.61.44h-.92c-.48,0-.5-.29-.5-.69v-1.76s-.52,0-.52,0c-.17,1.22-.6,2.11-1.53,2.93l-.7-.81c.68-.58,1.13-1.21,1.26-2.12h-1.08s0-1,0-1h1.16c.02-.32.02-.64.03-.96h1.02c-.02.32-.03.64-.05.96h1.33ZM29.02,142.85v1.49s1.45,0,1.45,0v-1.48s-1.45,0-1.45,0ZM29.02,140.43v1.47s1.45,0,1.45,0v-1.47s-1.45,0-1.45,0ZM29.02,138.01v1.47s1.45,0,1.45,0v-1.47s-1.45,0-1.45,0Z" style="fill:#fff;"/><path d="M37.79,135.7v9.1s-3.41,0-3.41,0v-9.1s3.41,0,3.41,0ZM35.43,140.68v3.05s1.32,0,1.32,0v-3.05s-1.32,0-1.32,0ZM35.43,136.8v2.85s1.32,0,1.32,0v-2.85s-1.32,0-1.32,0ZM43.26,144.37c0,.87-.33,1.11-1.17,1.11h-1.61s-.22-1.11-.22-1.11h1.55c.24,0,.32-.09.32-.33v-2.35s-3.92,0-3.92,0v-1.05s3.92,0,3.92,0v-1.08s-4.01,0-4.01,0v-1.06s2.56,0,2.56,0v-1.27s-2.17,0-2.17,0v-1.05s2.17,0,2.17,0v-.93s1.1,0,1.1,0v.93s2.25,0,2.25,0v1.05s-2.25,0-2.25,0v1.27s2.59,0,2.59,0v1.06s-1.11,0-1.11,0v1.08s1.03,0,1.03,0v1.05s-1.03,0-1.03,0v2.68ZM40.69,143.64l-.95.72c-.52-.81-.72-1.14-1.41-1.85l.88-.63c.66.6,1.01,1,1.48,1.76Z" style="fill:#fff;"/><path d="M48.01,136.03c-.38,1.68-.62,3.35-.62,5.08,0,1.28.13,2.33.43,3.57l-1.18.19c-.33-1.22-.44-2.49-.44-3.76,0-1.76.22-3.52.57-5.24l1.25.16ZM51.93,135.81h1.22s.03,1.91.03,1.91c.57-.05,1.13-.12,1.68-.2v1.21c-.55.06-1.1.12-1.65.16l.04,2.82c.81.34,1.35.6,2.08,1.1l-.5,1.11c-.58-.46-.92-.63-1.57-.96-.01.34-.03.64-.15.96-.3.78-1.22,1-1.98,1-1.14,0-2.36-.53-2.36-1.85,0-.74.46-1.41,1.16-1.65.36-.12.73-.18,1.1-.18.37,0,.67.07,1.03.13l-.05-2.44c-.49.02-.99.02-1.5.02-.55,0-1.09-.01-1.64-.03v-1.21c.67.03,1.32.05,1.98.06.38,0,.75-.01,1.14-.01l-.06-1.98ZM51,142.33c-.48,0-1.15.16-1.15.75,0,.6.69.8,1.18.8.91,0,1.06-.4,1.06-1.18,0-.07,0-.13,0-.2-.35-.11-.72-.17-1.09-.17Z" style="fill:#fff;"/><path d="M57.24,145.54l-.8-.7c.41-.46.82-1.14.95-1.75l.96.44c-.22.72-.61,1.45-1.12,2.01ZM60.54,135.61v7.3s-3.62,0-3.62,0v-7.3s3.62,0,3.62,0ZM57.99,140.72v1.16s1.51,0,1.51,0v-1.16s-1.51,0-1.51,0ZM57.99,138.66v1.08s1.51,0,1.51,0v-1.08s-1.51,0-1.51,0ZM57.99,136.62v1.06s1.51,0,1.51,0v-1.06s-1.51,0-1.51,0ZM59.72,144.96c-.25-.51-.55-1.01-.84-1.49l.95-.35c.22.31.52.78.71,1.1.69-1.2.85-2.95.85-4.31v-4.3s5.48,0,5.48,0v1.07s-4.36,0-4.36,0v1.53s3.97,0,3.97,0v1.13c-.18,1.3-.54,2.65-1.28,3.75.55.59,1.12.99,1.82,1.38l-.56,1.06c-.76-.45-1.37-.91-1.97-1.56-.65.69-1.33,1.13-2.19,1.51l-.57-.98c.84-.31,1.49-.73,2.09-1.4-.66-1.03-.98-2.15-1.19-3.34l1.05-.25c.09.97.31,1.82.82,2.68.54-.92.76-1.88.87-2.92h-2.86c0,2.4-.16,4.34-1.44,6.3l-.98-.66c.04-.05.09-.11.12-.16l-.49.23Z" style="fill:#fff;"/><path d="M68.22,145.57l-.52-1.1c2.11-.49,3.07-1.04,3.06-3.39l1.21.09c-.19,2.76-1.17,3.62-3.75,4.4ZM77.84,139.65v2.14s-1.17,0-1.17,0v-1.16s-7.44,0-7.44,0v1.16s-1.16,0-1.16,0v-2.14s9.77,0,9.77,0ZM72.4,136.09v-.82s1.16,0,1.16,0v.82s4.58,0,4.58,0v1.08s-4.58,0-4.58,0v.82s3.96,0,3.96,0v.97s-9.08,0-9.08,0v-.97s3.96,0,3.96,0v-.82s-4.59,0-4.59,0v-1.08s4.59,0,4.59,0ZM77.88,144.7c-.17.37-.48.64-.92.64h-2.28c-.57,0-.99-.25-.99-.86v-3.38s1.13,0,1.13,0v2.89c0,.17.01.27.21.27h1.62c.14,0,.22-.2.25-.31.03-.14.13-1.01.13-1.18l1.15.27c-.04.43-.11,1.29-.28,1.64Z" style="fill:#fff;"/><path d="M83.37,135.58l1.19.3c-.2.34-.39.67-.6.99,1.15-.07,2.3-.2,3.43-.43v1.12c-1.43.21-2.69.32-4.12.4-.22.34-.44.69-.66,1.03.38-.24.74-.37,1.2-.37.8,0,1.45.39,1.74,1.15.85-.37,1.72-.72,2.59-1.04l.44,1.08c-.95.33-1.89.69-2.83,1.07.01.17.01.36.01.55,0,.52-.01,1.04-.02,1.56h-1.16c.04-.55.07-1.08.08-1.63-.73.35-1.77.87-1.77,1.61,0,.8,1.34.84,2.16.84,1.02,0,1.94-.1,2.86-.25l-.12,1.19c-.82.1-1.66.16-2.49.16-1.31,0-3.53-.12-3.53-1.91,0-1.43,1.69-2.26,2.8-2.79-.16-.45-.46-.62-.93-.62-1.35,0-2.22,1.26-2.9,2.26l-.94-.66c.84-.99,1.57-2.08,2.24-3.19-.26,0-.52,0-.79,0-.36,0-.72,0-1.08-.01l.02-1.12c.58.02,1.15.04,1.73.04.25,0,.5-.01.75,0,.24-.45.47-.9.69-1.34Z" style="fill:#fff;"/><path d="M91.3,138.32l-.93-.55c.46-.73.75-1.53.85-2.38l1.07.13c-.07.31-.13.61-.22.91h.88s0-1.17,0-1.17h1.06s0,1.17,0,1.17h2.32s0,1.03,0,1.03h-2.32s0,1.03,0,1.03h2.5s0,1.05,0,1.05h-2.5s0,.92,0,.92h2.22s0,3.51,0,3.51c0,.56-.16.81-.74.81h-.98s-.2-1.1-.2-1.1h.63c.21,0,.24-.13.24-.31v-1.87s-1.17,0-1.17,0v4.04s-1.06,0-1.06,0v-4.04s-1.07,0-1.07,0v3.33s-1.07,0-1.07,0v-4.37s2.14,0,2.14,0v-.92s-2.56,0-2.56,0v-1.05s2.56,0,2.56,0v-1.03s-1.23,0-1.23,0c-.13.32-.26.57-.43.86ZM98.12,135.88v7.05s-1.1,0-1.1,0v-7.05s1.1,0,1.1,0ZM100.21,135.26v9.43c0,.6-.42.84-.96.84h-1.61s-.2-1.18-.2-1.18h1.32c.21,0,.27-.07.27-.28v-8.81s1.17,0,1.17,0Z" style="fill:#fff;"/><path d="M105.39,135.53v.97c-.28.9-.64,1.75-1.03,2.6.67.64,1.14,1.73,1.14,2.66,0,1.01-.6,1.58-1.61,1.58h-.69s-.16-1.1-.16-1.1h.67c.43,0,.67-.11.67-.58,0-1.06-.38-1.7-1.17-2.39.36-.78.75-1.9.97-2.72h-1.28s0,9,0,9h-1.13s0-10.02,0-10.02h3.62ZM105.97,135.53h5.46s0,5.07,0,5.07h-2.44c.16.51.32.9.56,1.36.56-.36,1.17-.84,1.62-1.31l.72.86c-.52.5-1.17.94-1.79,1.31.52.7,1.08,1.22,1.76,1.78l-.71.94c-1.62-1.19-2.79-2.96-3.17-4.95h-.92s0,3.41,0,3.41c.6-.13,1.2-.24,1.8-.4l.05,1.02c-.87.26-2.96.71-3.89.86l-.19-1.09c.4-.03.73-.09,1.13-.16v-8.7ZM107.06,138.5v1.11s3.27,0,3.27,0v-1.11s-3.27,0-3.27,0ZM107.06,136.53v1.08s3.27,0,3.27,0v-1.08s-3.27,0-3.27,0Z" style="fill:#fff;"/><path d="M121.75,141.28l-.64.74c-.89-.41-1.36-.59-2.33-.75l-.08-.94c.44.08.63.14,1.06.3-.48-.63-.94-1.29-1.38-1.96-1.29.21-2.59.28-3.9.28-.24,0-.49,0-.73-.01l-.1-1.2c.47.01.94.03,1.42.03.89,0,1.77-.07,2.65-.17-.34-.56-.64-1.14-.95-1.7l1.21-.39c.31.63.62,1.28.97,1.89,1.05-.22,2.01-.49,2.99-.93l.47,1.13c-.87.36-1.9.67-2.82.86.68,1.04,1.31,1.89,2.14,2.83ZM115.37,142.41c0,1.32,1.99,1.43,2.94,1.43,1.04,0,2.03-.13,3.04-.35l-.02,1.23c-1.01.16-1.97.27-2.99.27-1.13,0-2.65-.14-3.5-.98-.43-.41-.67-.96-.67-1.56,0-.87.45-1.44,1.18-1.86l.78.75c-.44.25-.75.51-.75,1.06Z" style="fill:#fff;"/><path d="M130.91,135.79h1.21s.03,2.33.03,2.33c.59-.06,1.18-.11,1.77-.21l.1,1.22c-.62.01-1.24.06-1.87.1-.02.73,0,1.79-.35,2.44-.15.27-.4.49-.7.58-.49.16-1.05.2-1.56.2-.04,0-.09,0-.13,0l-.32-1.15c.2.02.39.03.6.03,1.33,0,1.23-.31,1.27-2l-3.43.29v1.76c0,.8-.08,1.64.44,2.01.47.36,1.54.36,2.12.36.96,0,1.91-.08,2.86-.16l-.14,1.21c-.91.06-1.82.11-2.74.11-.97,0-2.3-.01-3.05-.72-.62-.6-.68-1.38-.68-2.2v-2.27c-.61.05-1.21.11-1.81.2l-.1-1.21c.63-.01,1.27-.05,1.89-.11v-2.56s1.22,0,1.22,0v2.46s3.42-.28,3.42-.28l-.06-2.43Z" style="fill:#fff;"/><path d="M137.43,136.82l7.55-.55.11,1.23c-1.32.07-2.35.26-3.46,1.01-.94.61-1.76,1.53-1.76,2.71,0,1.79,1.92,2.44,3.4,2.59l-.6,1.19c-2.06-.32-4.04-1.35-4.04-3.7,0-1.79,1.14-2.97,2.68-3.7l-5.41.6-.11-1.3c.54-.02,1.1-.04,1.65-.08Z" style="fill:#fff;"/><path d="M148.94,136.62c-.16.97-.27,1.96-.27,2.94,0,.91.1,2.02.44,2.87.12.29.39.88.77.88.63,0,1.19-1.77,1.34-2.28l1.02.65c-.22.68-.54,1.42-.92,2.01-.35.52-.79,1.01-1.46,1.01-.59,0-1.09-.41-1.4-.88-.83-1.21-1.01-2.9-1.01-4.33,0-1.03.1-2.05.27-3.07l1.22.21ZM156.47,142.54c0,.06,0,.11,0,.16l-1.25.34c0-.08,0-.15,0-.23,0-1.8-.47-3.66-1.63-5.09l.99-.6c1.3,1.5,1.89,3.46,1.89,5.42Z" style="fill:#fff;"/><path d="M159.55,144.81l-1.17-.47c.9-1.79,1.63-3.85,2.11-5.79-.45.02-.9.03-1.34.03-.16,0-.34,0-.5,0l-.02-1.2c.38.01.76.02,1.15.02.33,0,.65,0,.98-.02.13-.61.29-1.21.4-1.82l1.22.16c-.11.52-.23,1.04-.36,1.56.84-.1,1.38-.19,2.2-.37l.04,1.17c-.84.16-1.68.29-2.54.38-.58,2.08-1.27,4.4-2.17,6.35ZM163.39,142.11c-.23.23-.59.61-.59.95,0,.67,1.51.68,2.2.68.81,0,1.62-.1,2.41-.21v1.21c-.78.08-1.51.13-2.28.13-.71,0-1.5-.01-2.19-.21-.72-.21-1.31-.72-1.31-1.52,0-.63.39-1.15.81-1.58l.95.55ZM165.28,138.69c.67,0,1.33.06,2,.12l-.12,1.15c-.67-.07-1.33-.12-2-.12-.75,0-1.51.07-2.25.17l.13-1.17c.74-.1,1.48-.15,2.24-.15Z" style="fill:#fff;"/><path d="M172.25,140.94c-.39,1.26-.88,2.72-1.47,3.89l-1.19-.48c.92-1.82,1.65-3.9,2.14-5.88-.62.03-1.25.04-1.88.04v-1.21c.34.01.68.02,1.03.02.38,0,.75-.01,1.14-.03.13-.58.25-1.17.36-1.76l1.27.13c-.12.5-.23,1.02-.36,1.53.78-.1,1.47-.21,2.24-.37l.03,1.17c-.84.16-1.7.29-2.57.37-.23.86-.46,1.73-.73,2.58ZM174.69,141.98c-.26.26-.58.61-.58,1.01,0,.31.25.47.52.55.51.15,1.14.18,1.67.17.79,0,1.57-.08,2.35-.21v1.23c-.78.09-1.56.14-2.34.14-.81,0-1.67-.04-2.42-.35-.56-.23-.98-.71-.98-1.32,0-.67.39-1.19.82-1.65l.96.43ZM176.55,138.71c.67,0,1.31.03,1.97.1l-.11,1.16c-.68-.08-1.36-.12-2.03-.12-.75,0-1.51.05-2.25.14l.14-1.13c.76-.11,1.52-.15,2.28-.15ZM176.71,135.64c.5.61.87,1.3,1.21,2.02l-.81.48c-.35-.82-.62-1.34-1.16-2.05l.75-.45ZM178.27,135.05c.51.63.86,1.29,1.21,2.02l-.8.48c-.35-.81-.65-1.34-1.17-2.05l.75-.45Z" style="fill:#fff;"/><path d="M188.81,136.56c-1.36,1-3.12,2.09-4.58,2.96-.21.13-.92.55-1.07.67-.06.04-.1.11-.1.19,0,.12.1.18.19.22.31.18.8.43,1.13.59,1.66.87,3.26,1.88,4.73,3.04l-.9,1.02c-1.74-1.43-3.54-2.5-5.51-3.57-.5-.27-1.1-.61-1.1-1.27,0-.76.8-1.15,1.37-1.49,1.69-1.04,3.37-2.12,4.93-3.35l.92,1.01Z" style="fill:#fff;"/><path d="M194.37,143.13l-.26-.38c-.84.37-1.69.7-2.57.96l-.11-1.19c.43-.09.78-.21,1.18-.33v-3.6s-1.07,0-1.07,0v-1.08s1.07,0,1.07,0v-2.22s1.1,0,1.1,0v2.22s.82,0,.82,0v1.08s-.82,0-.82,0v3.26c.33-.1.5-.15.83-.28l.04.49c.79-.38,1.28-.79,1.79-1.5h-1.85s0-.86,0-.86h7.34s0,.86,0,.86h-4.41c-.14.24-.23.38-.4.6h4.51c0,.74-.09,3.14-.35,3.72-.12.28-.31.46-.59.58-.08.02-.18.04-.46.04h-1.47s-.23-1.07-.23-1.07h1.43c.33,0,.36-.14.41-.43.08-.41.13-1.51.15-1.98h-.52c-.73,1.63-1.88,2.78-3.49,3.55l-.67-.87c1.5-.62,2.29-1.28,3.14-2.68h-.78c-1.01,1.38-2.2,2.15-3.78,2.72l-.54-.8c1.28-.4,2.3-.94,3.23-1.92h-.87c-.6.51-1.1.82-1.83,1.12ZM201.16,135.61v3.55s-6.1,0-6.1,0v-3.55s6.1,0,6.1,0ZM196.09,137.76v.65s4.02,0,4.02,0v-.64s-4.02,0-4.02,0ZM196.09,136.43v.63s4.02,0,4.02,0v-.63s-4.02,0-4.02,0Z" style="fill:#fff;"/><path d="M210.87,139.42h-5.73s0-.88,0-.88c-.61.36-1.09.61-1.74.88l-.67-1.14c1.69-.56,3.51-1.66,4.69-3.03h1.07c1.38,1.51,2.82,2.27,4.7,3.03l-.68,1.14c-.6-.26-1.08-.52-1.65-.86v.86ZM212.02,140.53v4.76s-8.14,0-8.14,0v-4.76s8.14,0,8.14,0ZM205.02,141.55v2.71s5.83,0,5.83,0v-2.71s-5.83,0-5.83,0ZM210.58,138.38c-1.02-.66-1.82-1.26-2.64-2.16-.73.86-1.59,1.55-2.55,2.16h5.19Z" style="fill:#fff;"/><path d="M218.48,137.99c1.92,0,2.44,1.06,2.44,2.81,0,.98-.04,2.51-.58,3.34-.39.6-1.04.79-1.71.79-.36,0-.7-.03-1.05-.12v-1.21c.3.09.58.15.9.15.46,0,.81-.14,1-.58.23-.52.28-1.69.28-2.28,0-1.08-.07-1.76-1.35-1.76-.16,0-.32.01-.47.02-.52,2.07-1.27,4.09-2.38,5.91l-1.07-.69c1.05-1.68,1.66-3.17,2.19-5.08-.72.11-1.44.22-2.16.34l-.14-1.19,2.59-.33c.19-.82.32-1.58.43-2.43l1.26.21c-.13.71-.26,1.41-.43,2.11.09,0,.19-.01.27-.01ZM223.61,141.55l-1.16.44c-.22-1.65-.87-3.24-2.13-4.36l.85-.66c1.33,1.25,2.13,2.79,2.44,4.58ZM222.03,135.67c.59.59.99,1.14,1.43,1.84l-.68.57c-.45-.78-.79-1.23-1.4-1.89l.65-.51ZM223.26,134.85c.6.58.99,1.15,1.44,1.85l-.68.56c-.46-.78-.79-1.22-1.4-1.89l.63-.51Z" style="fill:#fff;"/><path d="M231.29,138.92c1.9,0,3.77.86,3.77,3.03,0,2.23-1.84,3.06-3.77,3.24l-.36-1.09c1.3-.11,2.92-.56,2.92-2.16,0-.88-.51-1.45-1.32-1.76-.79,1.89-2.63,4.54-4.92,4.54-.48,0-1-.22-1.33-.59-.32-.36-.45-.85-.45-1.32,0-1.72,1.48-2.93,2.96-3.48.02-.39.05-.79.1-1.18-.35.01-.7.01-1.04.01-.47,0-.94-.01-1.41-.02l.02-1.19c.69.05,1.39.08,2.08.08.16,0,.32,0,.48,0,.06-.49.14-.97.22-1.44l1.2.11c-.1.43-.19.85-.27,1.29,1.35-.09,2.63-.25,3.97-.53l.09,1.18c-1.4.22-2.81.39-4.23.47-.03.32-.07.63-.1.95.46-.09.93-.12,1.4-.12ZM226.94,142.76c0,.48.28.82.76.82.46,0,.85-.18,1.23-.41-.14-1.02-.19-1.67-.19-2.7-.87.44-1.8,1.24-1.8,2.29ZM229.82,140.62c0,.57.03,1.15.1,1.71.7-.74,1.11-1.45,1.52-2.38-.1-.01-.21-.01-.32-.01-.44,0-.86.06-1.29.14,0,.19-.01.36-.01.54Z" style="fill:#fff;"/><path d="M239.79,136.02c-.25,1.18-.4,2.38-.4,3.59,0,.33.02.66.03.99.25-.58.51-1.15.79-1.7l.74.67c-.49.94-1,2.03-1.28,3.06l-.98.11c-.34-1.13-.47-2.17-.47-3.34,0-1.18.14-2.36.37-3.52l1.2.14ZM244.96,135.87c.1,1.16.2,2.32.2,3.49,0,2.88-.73,4.56-3.4,5.88l-1.01-.85c1.03-.5,1.99-1.1,2.57-2.12.53-.92.58-2,.58-3.04,0-1.12-.1-2.24-.2-3.35h1.26Z" style="fill:#fff;"/><path d="M252.45,135.69h1.21s.01,1.43.01,1.43c1.16-.02,2.31-.05,3.46-.1v1.15c-1.15.04-2.31.07-3.46.09v1.01c1.02-.02,2.02-.05,3.03-.11v1.16c-.99.04-2,.07-3,.09v1.41c1.21.28,2.23.8,3.29,1.43l-.6,1.16c-.87-.61-1.68-1.04-2.69-1.4-.01.57,0,1.05-.44,1.49-.45.44-1.23.56-1.85.56-1.06,0-2.37-.46-2.37-1.72,0-1.42,1.55-1.77,2.68-1.77.26,0,.52.02.78.04v-1.18c-.58.01-1.16.02-1.74.02-.54,0-1.07-.01-1.61-.01v-1.18c.62.02,1.25.03,1.86.03.49,0,.98,0,1.48,0v-1.02c-.6,0-1.18.01-1.76.01-.66,0-1.3-.01-1.95-.02v-1.17c1.22.03,2.46.04,3.68.04v-1.44ZM251.64,142.61c-.47,0-1.45.08-1.45.73,0,.52.74.66,1.15.66,1.25,0,1.16-.63,1.16-1.31-.28-.04-.57-.08-.85-.08Z" style="fill:#fff;"/><path d="M265.98,141.37c.02,2.09-1.06,3.33-2.96,4.04l-.8-1c1.04-.36,1.88-.83,2.37-1.87-.35.3-.73.44-1.19.44-1.21,0-2-1-2-2.16,0-1.25.88-2.19,2.14-2.19.49,0,.87.12,1.26.43l-.02-1.02-3.2.09c-.68.02-1.34.04-2.02.09l-.02-1.2c.35.01.71.02,1.07.02.31,0,.62,0,.94-.01l3.2-.07-.03-1.38h1.2s.01,1.35.01,1.35l.95-.02c.65-.02,1.32-.04,1.98-.1l.02,1.19c-.33-.02-.66-.02-.98-.02-.34,0-.67,0-1,0l-.95.03.04,3.34ZM263.64,139.66c-.65,0-1.08.52-1.08,1.15,0,.63.41,1.15,1.06,1.15.66,0,1.1-.51,1.1-1.15,0-.64-.42-1.15-1.08-1.15Z" style="fill:#fff;"/><path d="M80.71,100.2l-4.36-4.35-4.32,4.39-.79-.78,4.35-4.36-4.39-4.32.78-.79,4.36,4.35,4.32-4.39.79.78-4.35,4.36,4.39,4.32-.78.79ZM72.32,96.33c-.67,0-1.21-.54-1.21-1.21,0-.67.53-1.22,1.2-1.22s1.22.54,1.23,1.21c0,.67-.54,1.22-1.21,1.23ZM76.37,100.33c-.67,0-1.22-.53-1.22-1.2,0-.67.54-1.22,1.21-1.22.67,0,1.22.54,1.22,1.21,0,.67-.54,1.21-1.21,1.21ZM76.34,92.28c-.67,0-1.22-.54-1.22-1.21,0-.67.54-1.21,1.21-1.21.67,0,1.22.53,1.22,1.2,0,.67-.54,1.22-1.21,1.22ZM80.39,96.3c-.67,0-1.22-.54-1.22-1.21,0-.67.54-1.22,1.21-1.22.67,0,1.21.54,1.21,1.21,0,.67-.53,1.22-1.2,1.22Z" style="fill:#fff100;"/><path d="M91.58,88.92c-.01.25-.01.5-.01.74.02,4.92,1.67,8.02,6.05,10.37l-1.03,1.48c-2.91-1.7-4.85-4-5.82-7.26-.43,1.4-.98,2.76-1.9,3.93-1.06,1.36-2.44,2.43-3.87,3.38l-1-1.38c1.97-1.07,3.52-2.45,4.65-4.42.97-1.71,1.34-3.35,1.36-5.31l-3.82.02v-1.51s5.39-.02,5.39-.02Z" style="fill:#fff100;"/><path d="M102.19,98.49l-.34-.49c-1.08.48-2.17.91-3.29,1.25l-.15-1.53c.55-.11.99-.27,1.51-.43l-.02-4.62h-1.37s0-1.38,0-1.38h1.37s-.01-2.85-.01-2.85h1.41s.01,2.84.01,2.84h1.05s0,1.38,0,1.38h-1.05s.02,4.18.02,4.18c.42-.13.64-.2,1.06-.37l.06.63c1.01-.5,1.63-1.02,2.29-1.93h-2.37s0-1.1,0-1.1l9.41-.04v1.11s-5.65.02-5.65.02c-.18.31-.29.49-.52.77l5.78-.02c0,.95-.09,4.02-.43,4.76-.15.37-.39.59-.75.75-.1.03-.22.06-.59.06h-1.89s-.3-1.36-.3-1.36h1.84c.42,0,.46-.19.53-.56.1-.53.16-1.93.19-2.54h-.67c-.93,2.09-2.39,3.57-4.45,4.57l-.86-1.12c1.92-.81,2.93-1.65,4.01-3.45h-.99c-1.28,1.78-2.81,2.78-4.83,3.51l-.69-1.02c1.64-.53,2.94-1.22,4.14-2.48h-1.12c-.77.67-1.41,1.06-2.33,1.44ZM110.86,88.81l.02,4.55-7.82.03-.02-4.55,7.82-.03ZM104.37,91.6v.83s5.16-.02,5.16-.02v-.83s-5.16.02-5.16.02ZM104.37,89.89v.81s5.16-.02,5.16-.02v-.81s-5.16.02-5.16.02Z" style="fill:#fff100;"/><path d="M113.38,99.32l-.54-1.59c1.06-1.1,1.84-2.21,2.49-3.58h-2.31s0-1.31,0-1.31h2.47s-.02-4.46-.02-4.46h1.39s.02,4.45.02,4.45h2.21s0,1.31,0,1.31h-2.13c.52,1,1.02,1.63,1.78,2.44l-.86,1.29c-.35-.52-.72-1.02-.99-1.58l.02,5.2h-1.39s-.02-5.23-.02-5.23c-.58,1.19-1.2,2.09-2.12,3.08ZM114.8,91.92l-1.23.31c-.02-.98-.23-1.93-.57-2.86l1.16-.24c.28.8.54,1.94.64,2.78ZM118.52,92.23l-1.16-.34c.37-.93.57-1.84.69-2.83l1.3.25c-.15.88-.48,2.1-.83,2.93ZM123.42,88.34h1.48s.03,7.44.03,7.44l1.15-.26.17,1.39-1.32.29.02,4.24h-1.48s-.02-3.92-.02-3.92l-4.74,1.06-.23-1.37,4.97-1.1-.03-7.77ZM122.62,94.37l-.92,1.1c-.76-.86-1.39-1.38-2.36-1.98l.82-1.04c.88.49,1.77,1.2,2.46,1.92ZM123.02,90.9l-.96,1.1c-.7-.81-1.49-1.48-2.4-2.06l.85-1c1,.57,1.7,1.14,2.52,1.96Z" style="fill:#fff100;"/><path d="M138.5,91.64l.48,1.57c-1.93.44-4.53,1.07-6.32,1.88-.89.41-2.25,1.17-2.24,2.31,0,.63.38.99.94,1.22.83.33,2.27.41,3.18.41,1.54,0,3.07-.21,4.58-.45l.13,1.63c-1.51.23-3.09.35-4.62.36-2.1,0-5.79-.2-5.8-3.07,0-1.95,1.73-3.06,3.3-3.78-.13-.49-.24-.99-.34-1.5l-.63-3.12,1.61-.32.57,3.07c.08.43.19.84.3,1.26,1.55-.57,3.26-1.02,4.85-1.44Z" style="fill:#fff100;"/><path d="M145.23,89.21c-.48,2.16-.78,4.3-.77,6.52,0,1.64.18,2.98.56,4.58l-1.51.24c-.43-1.57-.57-3.19-.58-4.82,0-2.25.26-4.51.7-6.73l1.6.2ZM150.26,88.9h1.57s.05,2.45.05,2.45c.73-.07,1.44-.16,2.16-.26l.02,1.55c-.71.09-1.43.16-2.13.22l.07,3.61c1.04.43,1.74.76,2.67,1.4l-.64,1.43c-.74-.59-1.18-.81-2.02-1.22-.01.43-.04.83-.19,1.23-.37,1-1.56,1.29-2.53,1.3-1.46,0-3.03-.67-3.04-2.35,0-.95.58-1.81,1.48-2.12.46-.16.94-.23,1.41-.23s.86.08,1.32.16l-.08-3.12c-.63.03-1.27.03-1.92.04-.7,0-1.4,0-2.1-.03v-1.56c.85.04,1.69.06,2.53.06.49,0,.97-.02,1.46-.02l-.08-2.54ZM149.1,97.26c-.62,0-1.47.22-1.47.97,0,.77.89,1.02,1.52,1.02,1.16,0,1.36-.52,1.35-1.52,0-.08,0-.17,0-.25-.45-.14-.93-.22-1.4-.22Z" style="fill:#fff100;"/><path d="M157.35,101.26l-1.1-1.16c1-.94,1.55-2.09,1.76-3.44.19-1.12.26-2.24.31-3.38h-1.64s-.02-4.6-.02-4.6l6.68-.03.02,4.61-3.61.02c-.03.45-.05.9-.08,1.34l3.56-.02c-.04,1.16-.14,3.27-.26,4.4-.05.5-.12,1.18-.39,1.63-.29.49-.96.61-1.48.61h-1.34s-.29-1.31-.29-1.31h1.33c.48,0,.6-.09.68-.5.12-.64.23-2.7.25-3.43h-2.2c-.26,2.18-.7,3.61-2.19,5.26ZM158.06,89.99v2.02s3.9-.02,3.9-.02v-2.02s-3.9.02-3.9.02ZM166.06,88.97l.04,8.99h-1.41s-.04-8.99-.04-8.99h1.41ZM168.92,88.1l.05,11.98c0,.85-.5,1.14-1.28,1.14h-2.1s-.3-1.49-.3-1.49h1.95c.32,0,.31-.22.31-.47l-.05-11.15h1.43Z" style="fill:#fff100;"/><path d="M174.2,89.3c-.5,2.12-.79,4.28-.79,6.46,0,1.51.17,2.93.49,4.41l-1.53.2c-.38-1.48-.49-3.05-.5-4.58,0-2.27.25-4.46.69-6.68l1.63.19ZM176.99,97.03c0,.42.26.71.65.87.55.22,1.44.25,2.03.24,1.15,0,2.19-.13,3.3-.35l-.02,1.64c-1.04.16-2.07.25-3.12.25-1.67,0-4.26-.11-4.27-2.36,0-.71.26-1.35.65-1.94l1.33.26c-.29.39-.56.87-.56,1.39ZM179.95,91.61c-1.3,0-2.59.12-3.88.3l.02-1.6c1.32-.13,2.63-.23,3.95-.24.78,0,1.57.02,2.34.09l-.02,1.56c-.8-.07-1.61-.11-2.41-.1Z" style="fill:#fff100;"/><path d="M190.04,100.64c-.13-.27-.24-.53-.37-.8-1.44.5-2.94.78-4.42,1.05l-.23-1.41c.29-.04.57-.09.87-.13l-.03-7.3c-.17.13-.35.25-.52.38l-.4-1.47c1.26-.72,2.16-1.7,2.93-2.91h1.6c.73.97,1.49,1.63,2.56,2.22l-.79,1.21c-.97-.61-1.87-1.38-2.5-2.34-.74,1.07-1.52,1.87-2.54,2.66h1.58s0-1.31,0-1.31h1.33s0,1.3,0,1.3h1.88s.02,4.99.02,4.99l-3.8.02v2.3c.63-.13,1.23-.27,1.84-.44-.18-.29-.37-.56-.56-.84l1.27-.47c.65.82,1.08,1.56,1.51,2.51.99-.78,1.77-1.79,2.21-2.98.4-1.09.44-2.17.43-3.34v-1.28s1.38,0,1.38,0v1.26c.01,1.35.16,2.24.76,3.44.61,1.2,1.38,2.08,2.44,2.9l-.95,1.31c-1.53-1.21-2.29-2.46-2.78-4.34-.48,1.89-1.21,3.1-2.7,4.37l-.93-1-1.1.44ZM187.2,94.72v.98s2.48-.01,2.48-.01v-.98s-2.48.01-2.48.01ZM187.19,92.9v.88s2.48-.01,2.48-.01v-.88s-2.48.01-2.48.01ZM198.27,90.25v1.34c-.21,1.16-.63,2.31-1.31,3.3l-1.15-.74c.63-.84.92-1.52,1.14-2.55h-3.04c-.44,1.05-.93,1.87-1.63,2.77l-1.08-.99c1.28-1.55,1.93-3.37,2.08-5.35l1.48.12c-.08.76-.19,1.39-.38,2.12l3.89-.02Z" style="fill:#fff100;"/><path d="M210.9,96.36c.17-.17.25-.24.4-.42l1.1.89c-.87.8-1.83,1.48-2.83,2.1,1.12.44,1.92.66,3.11.86l-.61,1.4c-3.06-.62-5.26-1.91-7.16-4.41h-2.2s.01,2.67.01,2.67c1.32-.13,2.63-.29,3.92-.52l.1,1.33c-2.22.39-4.49.62-6.75.86l-.22-1.44c.5-.02,1-.03,1.5-.08l-.03-7.3c-.46.2-.81.33-1.27.48l-.78-1.44c2.27-.49,4.46-1.73,6.06-3.37h1.79c1.7,1.89,3.46,2.78,5.91,3.39l-.77,1.38c-.43-.15-.88-.32-1.32-.5l.02,4.13ZM202.7,94.63v.95s6.78-.03,6.78-.03v-.95s-6.78.03-6.78.03ZM202.69,92.74v.87s6.78-.03,6.78-.03v-.87s-6.78.03-6.78.03ZM206.12,89.02c-1,.99-2.19,1.82-3.42,2.51h2.66s0-1.34,0-1.34h1.43s0,1.32,0,1.32h2.62c-1.19-.68-2.28-1.56-3.29-2.49ZM210.45,96.75l-3.99.02c.58.68,1.06,1.06,1.81,1.52.77-.45,1.49-.96,2.18-1.54Z" style="fill:#fff100;"/><path d="M214.37,95.5l-.61-1.78c1.44-1.69,2.04-3.65,2.43-5.8l1.53.23c-.23,1.18-.51,2.3-.95,3.44l.04,9.47h-1.44s-.03-6.73-.03-6.73c-.32.44-.59.77-.96,1.17ZM220.49,87.91h1.58c.05,1.24.14,2.5.27,3.75l4.71-.34.12,1.37-4.63.38c.27,1.65.86,4.63,2.06,5.83.15.15.35.36.58.36.25,0,.36-.14.45-.38.18-.53.3-1.15.4-1.71l1.37.69c-.15.85-.37,1.92-.87,2.64-.28.39-.64.56-1.09.57-.69,0-1.16-.27-1.66-.72-1.76-1.59-2.4-4.91-2.78-7.16l-3.08.25-.15-1.44,3.04-.22c-.16-1.29-.23-2.58-.31-3.87ZM226.38,90.06l-1.02,1.11c-.66-.74-1.59-1.59-2.4-2.13l.88-1.05c.93.57,1.81,1.25,2.54,2.08Z" style="fill:#fff100;"/><path d="M234.02,91.34c2.46-.01,3.13,1.35,3.14,3.59,0,1.26-.04,3.22-.72,4.29-.5.77-1.33,1.02-2.2,1.02-.46,0-.9-.04-1.35-.15v-1.56c.37.11.74.19,1.14.19.59,0,1.04-.19,1.29-.75.29-.67.35-2.17.35-2.93,0-1.39-.11-2.26-1.75-2.25-.21,0-.41.01-.6.03-.66,2.65-1.6,5.25-3.02,7.59l-1.38-.88c1.34-2.16,2.11-4.07,2.77-6.53-.92.14-1.85.29-2.77.45l-.19-1.53,3.32-.43c.23-1.05.4-2.03.53-3.11l1.61.26c-.16.91-.33,1.81-.54,2.71.11,0,.24-.02.35-.02ZM240.62,95.88l-1.48.57c-.29-2.11-1.14-4.16-2.75-5.58l1.09-.84c1.72,1.59,2.75,3.56,3.15,5.86ZM238.55,88.35c.76.75,1.28,1.45,1.85,2.35l-.87.73c-.58-.99-1.01-1.58-1.8-2.42l.82-.66ZM240.13,87.3c.77.74,1.28,1.47,1.86,2.36l-.87.72c-.59-.99-1.01-1.57-1.8-2.42l.81-.66Z" style="fill:#fff100;"/><path d="M246.68,91.15h1.46s.02,4.7.02,4.7c2.29-2.11,4.04-4.79,5.12-7.71l1.4.6c-1.48,3.54-3.57,6.63-6.52,9.12v.99c0,.35.09.38.37.38h2.37c.35-.01.52-.08.64-.38.19-.46.27-1.72.31-2.27l1.49.37c-.07.72-.31,2.45-.62,3.06-.29.53-.74.68-1.31.68h-3.63c-.43.02-1.07-.25-1.07-1.03v-.69c-1.08.72-2.06,1.24-3.29,1.65l-.68-1.37c1.5-.52,2.7-1.22,3.96-2.16l-.03-5.94ZM244.04,97.97l-1.36-.78c.75-1.45,1.16-3.17,1.34-4.77l1.51.23c-.19,1.57-.72,3.94-1.49,5.31ZM251.28,89.23l-.76,1.47c-1.4-.81-2.83-1.28-4.42-1.59l.64-1.36c1.43.26,3.23.85,4.54,1.48ZM256.04,98.55l-1.57.36c-.23-2.3-.72-4.2-1.47-6.38l1.44-.54c.78,2.11,1.41,4.31,1.6,6.56Z" style="fill:#fff100;"/><path d="M261.8,94.06l-3.91.02-.02-3.73h3.46s0-.95,0-.95l-4.1.02v-1.23s13.15-.06,13.15-.06v1.23s-4.27.02-4.27.02v.94s3.64-.02,3.64-.02l.02,3.73-6.36.03c-.18.38-.33.67-.54,1.04l7.54-.03v1.29s-2.54.01-2.54.01c-.35.84-.76,1.52-1.43,2.15,1.16.36,2.31.74,3.45,1.16l-1.14,1.25c-1.18-.54-2.37-1.03-3.59-1.47-1.82,1.02-4.98,1.28-7.07,1.35l-.54-1.38c.46.03.92.04,1.39.04,1.41,0,2.95-.17,4.33-.58-1.45-.41-2.93-.69-4.4-.96.52-.49.98-.96,1.44-1.52h-3.03s0-1.28,0-1.28l3.96-.02c.21-.35.4-.67.59-1.04ZM259.28,92.97h2.07s0-1.52,0-1.52h-2.07s0,1.52,0,1.52ZM266.3,96.36l-4.31.02c-.21.28-.43.56-.65.83,1.19.23,2.38.51,3.55.84.66-.48,1.06-.96,1.42-1.69ZM262.67,92.96h2.14s0-1.52,0-1.52h-2.14s0,1.52,0,1.52ZM262.65,90.33h2.14s0-.95,0-.95h-2.14s0,.95,0,.95ZM266.13,92.94h2.24s0-1.52,0-1.52h-2.24s0,1.52,0,1.52Z" style="fill:#fff100;"/><path d="M274.54,89.62l9.42-.71.15,1.6c-1.51.06-2.73.31-4.04,1.07-1.38.81-2.62,2.06-2.62,3.75,0,2.33,2.52,3.1,4.43,3.27l-.75,1.57c-2.61-.35-5.3-1.69-5.31-4.7,0-1.48.71-2.99,1.92-3.88.52-.39,1.09-.69,1.66-1l-7.07.83-.15-1.67c.78-.03,1.58-.06,2.37-.14ZM281.33,92.46c.7.81,1.17,1.63,1.65,2.57l-1.03.69c-.47-1.02-.89-1.75-1.59-2.63l.98-.64ZM283.24,91.37c.72.81,1.17,1.61,1.68,2.56l-1.05.68c-.49-1.05-.88-1.7-1.61-2.61l.98-.62Z" style="fill:#fff100;"/><path d="M294.93,95.41c.04,2.68-1.34,4.28-3.77,5.2l-1.03-1.27c1.33-.47,2.41-1.08,3.03-2.41-.45.38-.94.56-1.52.57-1.56,0-2.57-1.28-2.58-2.76,0-1.6,1.12-2.81,2.73-2.81.63,0,1.12.15,1.61.54l-.03-1.3-4.1.13c-.87.03-1.72.06-2.59.12l-.03-1.54c.45.01.91.02,1.37.02.39,0,.8,0,1.2-.02l4.1-.1-.05-1.76h1.54s.02,1.73.02,1.73l1.22-.03c.84-.03,1.69-.06,2.54-.14l.03,1.53c-.42-.03-.84-.02-1.26-.02-.43,0-.85,0-1.29,0l-1.22.05.07,4.29ZM291.93,93.24c-.84,0-1.38.68-1.38,1.48,0,.81.52,1.47,1.36,1.47.84,0,1.41-.67,1.41-1.48,0-.83-.54-1.47-1.39-1.46Z" style="fill:#fff100;"/><path d="M305.54,97.86c0,1.19-.94,2.15-2.13,2.15-1.18,0-2.15-.94-2.15-2.13,0-1.18.96-2.15,2.13-2.15,1.19,0,2.15.94,2.15,2.13ZM302.08,97.88c0,.73.59,1.31,1.32,1.31.74,0,1.33-.59,1.32-1.32s-.61-1.31-1.34-1.31c-.73,0-1.31.59-1.31,1.32Z" style="fill:#fff100;"/><path d="M116.84,35.64l-30.6.13v-1.89s23.63-.1,23.63-.1l-.03-7.44-22.48.1v-1.89s22.47-.1,22.47-.1l-.03-7.07-22.88.1v-1.89s11.19-.05,11.19-.05l-.05-12.84,6.96-.03.05,12.84,11.67-.05.09,20.17ZM92.57,13.66c-1.68-3.66-3.18-6.54-4.46-8.71l1.63-1.04c1.31,2.25,2.85,5.2,4.53,8.86l-1.7.9ZM110.33,13.8l-1.6-1.03c1.8-2.89,3.27-5.82,4.46-8.71l1.78.73c-1.22,3-2.77,6.01-4.64,9.01Z" style="fill:#008038;"/><path d="M151.43,35.2l-26.28.11-.13-30.64,26.28-.11.13,30.64ZM131.74,33.32l13.05-.06-.05-12.8-13.05.06.05,12.8ZM144.68,6.55l-13.05.06.05,11.95,13.05-.06-.05-11.95Z" style="fill:#008038;"/><path d="M180.36,23.94c-3.86,5.86-9.93,9.7-18.26,11.51l-.55-2.11c4.09-.87,7.6-2.29,10.5-4.23l-.05-11.1-13.31.06v-2.18s13.3-.06,13.3-.06l-.03-7.22c-3.66.5-7.36.81-11.05.97l-.12-2.15c4.28-.17,8.55-.59,12.79-1.24,5.33-.84,9.42-1.85,12.28-3.12l.99,2.07c-1.59.71-3.8,1.39-6.55,1.99l.04,8.66,9.9-.04v2.18s-9.89.04-9.89.04l.02,5.96Z" style="fill:#008038;"/><path d="M218.92,12.16l.05,10.69c-3.67,6.23-9.89,10.4-18.66,12.55l-.63-2.11c4.35-1.05,8-2.62,10.93-4.71l-.07-16.39-7.83.03c-1.55,3.11-3.71,6.12-6.56,9.06l-1.6-1.62c2.45-2.49,4.37-5.05,5.73-7.68,1.37-2.6,2.33-5.6,2.93-9.04l2.36.32c-.42,2.44-1.1,4.7-1.89,6.82l22.51-.1v2.15s-7.28.03-7.28.03Z" style="fill:#008038;"/><path d="M237.13,21.81l-2.06.49c-.67-3.51-1.48-6.58-2.4-9.24l1.99-.64c.88,2.59,1.73,5.73,2.47,9.39ZM256.89,21.25c-2.16,3.86-4.94,6.94-8.34,9.25-3.07,2.05-6.91,3.62-11.47,4.71l-.52-1.81c5.47-1.28,9.81-3.34,13.03-6.12l-.07-15.73,7.32-.03.04,9.73ZM242.64,20.9c-.49-3.48-1.19-6.58-2-9.35l1.99-.56c.85,2.74,1.51,5.88,2.07,9.5l-2.06.42Z" style="fill:#008038;"/><path d="M291.16,22.69c-4.4-2.42-9.45-4.51-15.18-6.34l.08,18.76-8.37.04-.14-32.45,8.37-.04.05,11.29c5.99,1.82,11.36,4.02,16.16,6.63l-.97,2.11Z" style="fill:#008038;"/><path d="M115.13,32.98l-30.6.13v-1.89s23.63-.1,23.63-.1l-.03-7.44-22.48.1v-1.89s22.47-.1,22.47-.1l-.03-7.07-22.88.1v-1.89s11.19-.05,11.19-.05l-.05-12.84,6.96-.03.05,12.84,11.67-.05.09,20.17ZM90.85,10.99c-1.68-3.66-3.18-6.54-4.46-8.71l1.63-1.04c1.31,2.25,2.85,5.2,4.53,8.86l-1.7.9ZM108.62,11.14l-1.6-1.03c1.8-2.89,3.27-5.82,4.46-8.71l1.78.73c-1.22,3-2.77,6.01-4.64,9.01Z" style="fill:#fff100;"/><path d="M149.72,32.54l-26.28.11-.13-30.64,26.28-.11.13,30.64ZM130.02,30.66l13.05-.06-.05-12.8-13.05.06.05,12.8ZM142.96,3.89l-13.05.06.05,11.95,13.05-.06-.05-11.95Z" style="fill:#fff100;"/><path d="M178.64,21.28c-3.86,5.86-9.93,9.7-18.26,11.51l-.55-2.11c4.09-.87,7.6-2.29,10.5-4.23l-.05-11.1-13.31.06v-2.18s13.3-.06,13.3-.06l-.03-7.22c-3.66.5-7.36.81-11.05.97l-.12-2.15c4.28-.17,8.55-.59,12.79-1.24,5.33-.84,9.42-1.85,12.28-3.12l.99,2.07c-1.59.71-3.8,1.39-6.55,1.99l.04,8.66,9.9-.04v2.18s-9.89.04-9.89.04l.02,5.96Z" style="fill:#fff100;"/><path d="M217.21,9.49l.05,10.69c-3.67,6.23-9.89,10.4-18.66,12.55l-.63-2.11c4.35-1.05,8-2.62,10.93-4.71l-.07-16.39-7.83.03c-1.55,3.11-3.71,6.12-6.56,9.06l-1.6-1.62c2.45-2.49,4.37-5.05,5.73-7.68,1.37-2.6,2.33-5.6,2.93-9.04l2.36.32c-.42,2.44-1.1,4.7-1.89,6.82l22.51-.1v2.15s-7.28.03-7.28.03Z" style="fill:#fff100;"/><path d="M235.42,19.15l-2.06.49c-.67-3.51-1.48-6.58-2.4-9.24l1.99-.64c.88,2.59,1.73,5.73,2.47,9.39ZM255.17,18.58c-2.16,3.86-4.94,6.94-8.34,9.25-3.07,2.05-6.91,3.62-11.47,4.71l-.52-1.81c5.47-1.28,9.81-3.34,13.03-6.12l-.07-15.73,7.32-.03.04,9.73ZM240.92,18.24c-.49-3.48-1.19-6.58-2-9.35l1.99-.56c.85,2.74,1.51,5.88,2.07,9.5l-2.06.42Z" style="fill:#fff100;"/><path d="M289.44,20.03c-4.4-2.42-9.45-4.51-15.18-6.34l.08,18.76-8.37.04-.14-32.45,8.37-.04.05,11.29c5.99,1.82,11.36,4.02,16.16,6.63l-.97,2.11Z" style="fill:#fff100;"/><path d="M187.64,79.51l-.48-1.37c.94-.34,1.59-.86,1.95-1.49-.25.08-.54.11-.83.11-.76,0-1.38-.25-1.92-.77-.51-.59-.8-1.22-.81-1.99,0-.78.28-1.44.79-2,.54-.52,1.16-.78,1.92-.79.87,0,1.56.25,2.1.77.47.55.73,1.29.74,2.22.01,2.7-1.14,4.48-3.46,5.31Z" style="fill:#008038;"/><path d="M187.64,76.84l-.48-1.37c.94-.34,1.59-.86,1.95-1.49-.25.08-.54.11-.83.11-.76,0-1.38-.25-1.92-.77-.51-.59-.8-1.22-.81-1.99,0-.78.28-1.44.79-2,.54-.52,1.16-.78,1.92-.79.87,0,1.56.25,2.1.77.47.55.73,1.29.74,2.22.01,2.7-1.14,4.48-3.46,5.31Z" style="fill:#fff;"/><path d="M125.45,76.08l-8.23.03-.11-26.9-4.35.02v-2.18s12.57-.05,12.57-.05l.12,29.08Z" style="fill:#008038;"/><path d="M153.79,62.25h-4.32s-.06-15.36-.06-15.36l19.9-.09v2.18s-11.7.05-11.7.05l.03,7.77c.91-.15,1.81-.23,2.72-.23,3.08-.01,5.59.83,7.48,2.52,2.04,1.73,3.03,4.21,3.04,7.28.01,3.26-1.1,5.74-3.3,7.49-2.02,1.6-4.63,2.39-7.89,2.4-2.9.01-5.33-.61-7.22-1.86-2.22-1.4-3.42-3.54-3.69-6.35h2.47c.19,2.06,1.18,3.65,2.92,4.71,1.49.88,3.31,1.36,5.52,1.35,2.65-.01,4.75-.61,6.26-1.8,1.73-1.34,2.56-3.34,2.55-5.93-.01-2.44-.78-4.33-2.31-5.73-1.45-1.33-3.38-1.95-5.81-1.94-.94,0-1.85.12-2.72.31-2.97.75-3.86,3.23-3.86,3.23Z" style="fill:#008038; stroke:#008038;"/><path d="M183.17,73.43c-2.84-2.54-4.27-6.57-4.29-12.12-.02-4.33.84-7.81,2.6-10.37,2.02-3.01,5.09-4.5,9.15-4.52,3.08-.01,5.62.86,7.59,2.63,2.84,2.5,4.27,6.57,4.29,12.16.02,5.55-1.37,9.59-4.19,12.15-1.99,1.82-4.48,2.72-7.56,2.73-3.05.01-5.55-.87-7.59-2.67ZM183.26,70.02c1.61,2.62,4.11,3.9,7.49,3.89,3.37-.01,5.87-1.32,7.45-3.99,1.3-2.15,1.94-5.04,1.92-8.7-.02-3.66-.68-6.58-1.99-8.73-1.61-2.66-4.11-3.94-7.48-3.93-3.37.01-5.87,1.32-7.45,3.99-1.3,2.15-1.94,5.08-1.92,8.74.02,3.66.68,6.58,1.99,8.72Z" style="fill:#008038; stroke:#008038;"/><path d="M215.07,73.29c-2.84-2.54-4.27-6.57-4.29-12.12-.02-4.33.84-7.81,2.6-10.37,2.02-3,5.09-4.5,9.15-4.52,3.08-.01,5.62.87,7.59,2.63,2.84,2.5,4.27,6.57,4.29,12.16.02,5.55-1.37,9.59-4.19,12.15-1.99,1.82-4.48,2.72-7.56,2.73-3.05.01-5.55-.87-7.59-2.67ZM215.17,69.89c1.61,2.62,4.11,3.9,7.49,3.89,3.37-.01,5.87-1.32,7.45-3.99,1.3-2.15,1.94-5.04,1.92-8.7s-.68-6.58-1.99-8.73c-1.61-2.66-4.11-3.94-7.48-3.93-3.37.01-5.87,1.32-7.45,3.99-1.3,2.15-1.94,5.08-1.92,8.74.02,3.66.68,6.58,1.99,8.72Z" style="fill:#008038; stroke:#008038;"/><path d="M265.62,75.44c-4.03.02-7-.03-9-.11l.08-1.56c1.74.08,3.18.11,4.29.1l-.04-10.47-15.2.06.05,12.06-4.56.02-.11-26.04,24.38-.1.11,26.04ZM245.74,61.87l5.26-.02-.05-10.8-5.26.02.05,10.8ZM260.95,61.81l-.05-10.8-5.38.02.05,10.8,5.38-.02Z" style="fill:#008038;"/><path d="M123.73,73.41l-8.23.03-.11-26.9-4.35.02v-2.18s12.57-.05,12.57-.05l.12,29.08Z" style="fill:#fff;"/><path d="M152.08,59.59h-4.32s-.06-15.36-.06-15.36l19.9-.09v2.18s-11.7.05-11.7.05l.03,7.77c.91-.15,1.81-.23,2.72-.23,3.08-.01,5.59.83,7.48,2.52,2.04,1.73,3.03,4.21,3.04,7.28.01,3.26-1.1,5.74-3.3,7.49-2.02,1.6-4.63,2.39-7.89,2.4-2.9.01-5.33-.61-7.22-1.86-2.22-1.4-3.42-3.54-3.69-6.35h2.47c.19,2.06,1.18,3.65,2.92,4.71,1.49.88,3.31,1.36,5.52,1.35,2.65-.01,4.75-.61,6.26-1.8,1.73-1.34,2.56-3.34,2.55-5.93-.01-2.44-.78-4.33-2.31-5.73-1.45-1.33-3.38-1.95-5.81-1.94-.94,0-1.85.12-2.72.31-2.97.75-3.86,3.23-3.86,3.23Z" style="fill:#fff; stroke:#fff;"/><path d="M181.45,70.76c-2.84-2.54-4.27-6.57-4.29-12.12-.02-4.33.84-7.81,2.6-10.37,2.02-3.01,5.09-4.5,9.15-4.52,3.08-.01,5.62.86,7.59,2.63,2.84,2.5,4.27,6.57,4.29,12.16.02,5.55-1.37,9.59-4.19,12.15-1.99,1.82-4.48,2.72-7.56,2.73-3.05.01-5.55-.87-7.59-2.67ZM181.54,67.36c1.61,2.62,4.11,3.9,7.49,3.89,3.37-.01,5.87-1.32,7.45-3.99,1.3-2.15,1.94-5.04,1.92-8.7s-.68-6.58-1.99-8.73c-1.61-2.66-4.11-3.94-7.48-3.93-3.37.01-5.87,1.32-7.45,3.99-1.3,2.15-1.94,5.08-1.92,8.74.02,3.66.68,6.58,1.99,8.72Z" style="fill:#fff; stroke:#fff;"/><path d="M213.36,70.63c-2.84-2.54-4.27-6.57-4.29-12.12-.02-4.33.84-7.81,2.6-10.37,2.02-3,5.09-4.5,9.15-4.52,3.08-.01,5.62.87,7.59,2.63,2.84,2.5,4.27,6.57,4.29,12.16.02,5.55-1.37,9.59-4.19,12.15-1.99,1.82-4.48,2.72-7.56,2.73-3.05.01-5.55-.87-7.59-2.67ZM213.45,67.22c1.61,2.62,4.11,3.9,7.49,3.89,3.37-.01,5.87-1.32,7.45-3.99,1.3-2.15,1.94-5.04,1.92-8.7s-.68-6.58-1.99-8.73c-1.61-2.66-4.11-3.94-7.48-3.93-3.37.01-5.87,1.32-7.45,3.99-1.3,2.15-1.94,5.08-1.92,8.74s.68,6.58,1.99,8.72Z" style="fill:#fff; stroke:#fff;"/><path d="M263.9,72.78c-4.03.02-7-.03-9-.11l.08-1.56c1.74.08,3.18.11,4.29.1l-.04-10.47-15.2.06.05,12.06-4.56.02-.11-26.04,24.38-.1.11,26.04ZM244.03,59.21l5.26-.02-.05-10.8-5.26.02.05,10.8ZM259.23,59.15l-.05-10.8-5.38.02.05,10.8,5.38-.02Z" style="fill:#fff;"/></g></svg>