<?xml version="1.0" encoding="UTF-8"?><svg id="_レイヤー_2" xmlns="http://www.w3.org/2000/svg" viewBox="0 0 339.33 119.98"><g id="_デザイン"><path d="M13.22,112.86c0,3.69-2.93,6.67-6.61,6.67C2.93,119.53,0,116.55,0,112.86c0-3.69,2.93-6.67,6.61-6.67,3.68,0,6.61,2.98,6.61,6.67Z" style="fill:#0068b7;"/><path d="M21.61,110.33v8.13c0,.51-.04.73-.16.92-.27.4-.76.45-1.12.45h-1.86s-.28-1.53-.28-1.53h1.58c.31,0,.36-.01.36-.3v-1.45s-2.73,0-2.73,0v3.28s-1.5,0-1.5,0v-9.5s5.72,0,5.72,0ZM18.6,107.63c-.22-.51-.51-1-.79-1.47l1.67-.33c.27.49.63,1.28.84,1.8h3.35c.27-.49.54-1.19.65-1.73l1.79.15c-.19.54-.45,1.06-.7,1.58h3.49s0,1.41,0,1.41h-13.92s0-1.41,0-1.41h3.63ZM17.39,114.08v1.19s2.73,0,2.73,0v-1.19s-2.73,0-2.73,0ZM17.39,111.68v1.19s2.73,0,2.73,0v-1.19s-2.73,0-2.73,0ZM22.96,110.46h1.53s0,6.51,0,6.51h-1.53s0-6.51,0-6.51ZM27.94,109.98v8.52c0,.36-.06.73-.31,1-.25.27-.66.33-1.06.33h-2.43s-.3-1.53-.3-1.53h2.26c.12,0,.28,0,.28-.16v-8.15s1.55,0,1.55,0Z" style="fill:#fff;"/><path d="M30.78,119.92l-.71-1.5c2.87-.67,4.18-1.41,4.17-4.62l1.65.12c-.25,3.77-1.59,4.93-5.11,6ZM43.9,111.85v2.92s-1.59,0-1.59,0v-1.58s-10.14,0-10.14,0v1.58s-1.58,0-1.58,0v-2.92s13.31,0,13.31,0ZM36.49,106.99v-1.12s1.58,0,1.58,0v1.12s6.24,0,6.24,0v1.47s-6.24,0-6.24,0v1.12s5.41,0,5.41,0v1.33s-12.38,0-12.38,0v-1.33s5.39,0,5.39,0v-1.12s-6.25,0-6.25,0v-1.47s6.25,0,6.25,0ZM43.95,118.73c-.24.51-.65.88-1.25.88h-3.11c-.77,0-1.35-.34-1.35-1.18v-4.6s1.53,0,1.53,0v3.95c0,.24.01.37.28.37h2.2c.19,0,.3-.27.34-.42.04-.19.18-1.37.18-1.61l1.56.37c-.06.58-.15,1.76-.39,2.23Z" style="fill:#fff;"/><path d="M50.02,106.9c-.34,1.61-.55,3.25-.55,4.9,0,.45.03.89.05,1.36.34-.79.7-1.56,1.07-2.32l1.01.91c-.67,1.28-1.37,2.77-1.74,4.17l-1.34.15c-.46-1.53-.64-2.96-.64-4.56,0-1.61.19-3.22.51-4.8l1.64.19ZM57.07,106.69c.13,1.58.27,3.16.27,4.75,0,3.93-1,6.21-4.63,8.01l-1.37-1.16c1.4-.69,2.71-1.5,3.5-2.89.73-1.25.79-2.73.79-4.14,0-1.53-.13-3.05-.27-4.57h1.71Z" style="fill:#fff;"/><path d="M69.23,111.31h4.99s0,1.64,0,1.64h-5c-.21,3.19-1.76,5.02-4.54,6.42l-1.16-1.39c2.28-1,3.81-2.46,4.02-5.03h-5.82s0-1.64,0-1.64h5.85s0-2.06,0-2.06c-1.42.3-2.86.51-4.3.69l-.58-1.61c2.62-.22,6.33-.76,8.68-1.88l1.24,1.25c-1.12.51-2.19.83-3.37,1.16v2.44Z" style="fill:#fff;"/><path d="M84.71,115.6c-.77,1.67-2.11,2.93-3.69,3.81l-1.35-1.16c1.35-.74,2.64-1.79,3.35-3.19.67-1.28.79-2.68.82-4.1h-3.48c-.63,1.09-1.34,2.07-2.19,2.99l-1.4-.94c1.79-1.98,2.95-4.11,3.84-6.61l1.61.51c-.31.86-.62,1.61-1.01,2.43h8.24s0,1.62,0,1.62h-3.87c-.05,1.59-.18,3.16-.85,4.63Z" style="fill:#fff;"/><path d="M94.55,109.88c.67,1.03,1.21,2,1.73,3.11l-1.31.68c-.51-1.12-1.01-2.04-1.68-3.07l1.27-.73ZM103.35,109.92c-.66,4.66-2.7,7.91-7.31,9.46l-1.13-1.21c4.38-1.33,6.35-4.08,6.91-8.53l1.54.28ZM97.67,109.21c.65,1.04,1.16,2.06,1.62,3.19l-1.33.65c-.48-1.19-.92-2.07-1.59-3.17l1.3-.67Z" style="fill:#fff;"/><path d="M117.92,114.14l-.98,1.47c-1.76-1.37-3.52-2.5-5.54-3.44v7.15s-1.74,0-1.74,0v-12.91s1.74,0,1.74,0v3.92c2.31,1.01,4.5,2.31,6.52,3.81Z" style="fill:#fff;"/><path d="M124.61,105.78l9.59,7.07-9.59,7.1v-14.18Z" style="fill:#0068b7;"/><path d="M142.24,109.45l-.11-1.35c.79.04,1.59.04,2.38.05.43-.74.83-1.52,1.19-2.31l1.64.21c-.31.71-.79,1.44-1.21,2.1,1.43,0,3.59,0,4.94-.09-.36-.33-.73-.64-1.12-.92l1.03-.97c1.12.8,2.31,1.82,3.2,2.86l-1.18,1.04c-.27-.36-.52-.62-.82-.95-1.33.12-2.65.19-3.98.25-.15.31-.31.63-.51.92h7.46s0,1.34,0,1.34h-3.57c1,.88,2.43,1.67,3.72,2l-.85,1.38c-1.76-.65-3.54-1.92-4.72-3.38h-3.07c-1.31,1.41-2.87,2.43-4.71,3.02l-.86-1.34c1.31-.34,2.41-.85,3.48-1.68h-3.31s0-1.34,0-1.34h4.66c.22-.28.42-.57.58-.88-1.43.03-2.86.05-4.3.04ZM143.35,119.89l-.57-1.37c3.74-.3,6.57-1,9.62-3.29l1.25.89c-2.72,2.46-6.75,3.46-10.31,3.77ZM143.7,117.7l-.64-1.31c2.58-.36,5.09-1.15,7.22-2.7l1.16.83c-1.97,1.64-5.24,2.74-7.74,3.17ZM143.92,115.58l-.67-1.19c1.76-.45,3.65-1.1,5.05-2.26l1.09.91c-1.49,1.27-3.59,2.08-5.47,2.55Z" style="fill:#fff;"/><path d="M158.93,105.87h1.52s0,2.58,0,2.58h3.11c0,2.16-.01,8.25-.42,10.07-.22,1.06-.8,1.31-1.82,1.31h-1.56s-.25-1.58-.25-1.58h1.62c.46,0,.55-.12.69-1.59.18-2.09.18-4.56.18-6.66h-1.55s0,.07,0,.07c0,1.47-.13,3.34-.43,4.78-.28,1.31-.79,2.71-1.56,3.81-.31.46-.63.79-1.03,1.16l-1.12-1.31c1.12-1.16,1.83-2.44,2.19-4.02.28-1.31.43-2.92.43-4.26v-.24s-2.29,0-2.29,0v-1.55s2.29,0,2.29,0v-2.58ZM169.98,106.69v12.84s-5.36,0-5.36,0v-12.84s5.36,0,5.36,0ZM166.12,108.15v9.87s2.34,0,2.34,0v-9.87s-2.34,0-2.34,0Z" style="fill:#fff;"/><path d="M185.74,108.61h-11.17s0,4.72,0,4.72c0,2.03-.36,4.77-1.61,6.42l-1.16-1.22c.94-1.56,1.24-3.38,1.24-5.17v-6.2s5.27,0,5.27,0v-1.36s1.59,0,1.59,0v1.36s5.84,0,5.84,0v1.44ZM178.78,113.59v-4.53s1.52,0,1.52,0v1.24s5.43,0,5.43,0v1.47s-5.44,0-5.44,0v1.82s4.56,0,4.56,0v5.94s-9.66,0-9.66,0v-5.94s3.59,0,3.59,0ZM176.7,115v3.07s6.66,0,6.66,0v-3.07s-6.66,0-6.66,0Z" style="fill:#fff;"/><path d="M192.53,114.88v4.68s-4.91,0-4.91,0v-4.68s4.91,0,4.91,0ZM189.39,112.78v-1.24s-1.85,0-1.85,0v-1.27s1.85,0,1.85,0v-1.22s1.4,0,1.4,0v1.22s1.89,0,1.89,0v1.27s-1.89,0-1.89,0v1.24s2.25,0,2.25,0v1.25s-5.79,0-5.79,0v-1.25s2.14,0,2.14,0ZM193.14,107.5h3.31s0-1.61,0-1.61h1.39s0,1.61,0,1.61h1.73c-.33-.31-.85-.74-1.22-1.01l1.12-.73c.45.24,1.16.77,1.5,1.15l-.88.6h1.15s0,1.34,0,1.34h-3.4s0,1.06,0,1.06h2.98s0,8.92,0,8.92c0,.6-.3,1.06-.94,1.06h-1.38s-.25-1.55-.25-1.55h.98c.15,0,.24-.03.24-.19v-1.79s-1.62,0-1.62,0v3.41s-1.39,0-1.39,0v-3.41s-1.52,0-1.52,0v3.53s-1.34,0-1.34,0v-9.98s2.86,0,2.86,0v-1.06s-3.16,0-3.16,0l-.61.91c-1.06-.89-1.71-1.59-2.44-2.77-.63,1.15-1.44,2.16-2.44,3.02l-.92-1.21c1.03-.86,1.73-1.71,2.35-2.9h1.91c.54.94,1.15,1.55,2.01,2.2v-.6ZM189,116.12v2.22s2.16,0,2.16,0v-2.22s-2.16,0-2.16,0ZM194.93,113.69v1.46s1.52,0,1.52,0v-1.46s-1.52,0-1.52,0ZM194.93,111.13v1.36s1.52,0,1.52,0v-1.36s-1.52,0-1.52,0ZM197.83,113.69v1.46s1.62,0,1.62,0v-1.46s-1.62,0-1.62,0ZM197.83,111.13v1.36s1.62,0,1.62,0v-1.36s-1.62,0-1.62,0Z" style="fill:#fff;"/><path d="M213.14,118.61l-1.36-1.41c-.79.89-1.82,1.64-3.48,1.64-2.34,0-3.66-1.4-3.66-3.22,0-1.62,1.04-2.56,2.52-3.34-1.06-1.18-1.46-1.92-1.46-2.89,0-1.67,1.19-2.8,3.11-2.8,1.8,0,3.04,1.01,3.04,2.68,0,1.37-.83,2.34-2.32,3.14l2.19,2.32c.51-.89.79-1.83,1.01-2.74l1.53.85c-.39,1.09-.95,2.16-1.49,2.99l2.64,2.77h-2.26ZM208.6,117.27c.95,0,1.59-.45,2.16-1.16l-2.76-2.9c-.94.55-1.56,1.18-1.56,2.16,0,1.21.88,1.91,2.16,1.91ZM208.67,111.53c.91-.5,1.47-1.21,1.47-2.1,0-.88-.55-1.38-1.39-1.38-.8,0-1.31.49-1.31,1.32,0,.63.3,1.16,1.22,2.16Z" style="fill:#fff;"/><path d="M231.86,113.59v1.37s-2.68,0-2.68,0c-.43.91-.89,1.59-1.58,2.32,1.34.43,2.4.84,3.63,1.52l-1.12,1.18c-1.27-.64-2.55-1.16-3.89-1.61-1.94,1.1-5.18,1.43-7.4,1.5l-.46-1.56c.34.02.69.03,1.04.03,1.58,0,3.16-.19,4.68-.64-1.59-.46-3.17-.79-4.81-.98.67-.55,1.31-1.13,1.92-1.76h-3.26s0-1.37,0-1.37h4.47c.37-.46.68-.92,1.01-1.41l1.44.52c-.21.31-.43.6-.66.89h7.66ZM219.08,107.71l-.27-1.3c3.31.12,8.25-.07,11.5-.76l.64,1.31c-1.76.36-3.56.51-5.35.61v.91s6.26,0,6.26,0v1.28s-4.36,0-4.36,0c1.41.86,2.98,1.46,4.59,1.85l-.69,1.4c-2.4-.73-3.9-1.49-5.79-3.13v2.4s-1.47,0-1.47,0v-2.47c-1.71,1.49-3.54,2.53-5.7,3.25l-.6-1.44c1.49-.39,3.08-.95,4.35-1.85h-4.24s0-1.28,0-1.28h6.2s0-.83,0-.83c-1.68.06-3.29.06-5.05.06ZM222.24,115.9c1.24.28,2.46.57,3.66.89.71-.52,1.18-1.04,1.62-1.83h-4.44c-.27.33-.55.64-.85.94Z" style="fill:#fff;"/><path d="M238.44,114.97v4.59s-4.77,0-4.77,0v-4.59s4.77,0,4.77,0ZM238.95,108.41v1.34s-5.73,0-5.73,0v-1.34s5.73,0,5.73,0ZM238.44,112.74v1.34s-4.77,0-4.77,0v-1.34s4.77,0,4.77,0ZM238.44,110.52v1.33s-4.77,0-4.77,0v-1.33s4.77,0,4.77,0ZM238.44,106.22v1.36s-4.77,0-4.77,0v-1.36s4.77,0,4.77,0ZM235.15,116.25v2.01s1.85,0,1.85,0v-2.01s-1.85,0-1.85,0ZM243.06,111.73l4.23-.27.06,1.43-4.29.28v4.62c0,.27.03.46.45.46h1.68c.21,0,.39-.03.46-.24.1-.27.16-1.67.16-2.01,0-.07,0-.15-.01-.21l1.55.43c-.01.66-.09,2.23-.36,2.8-.27.57-.74.7-1.33.7h-2.53c-.77,0-1.62-.18-1.62-1.15v-5.3s-2.49.16-2.49.16l-.07-1.44,2.56-.16v-3.48c-.71.07-1.43.13-2.14.18l-.34-1.42c2.49-.1,5-.36,7.34-1.3l.76,1.29c-1.37.52-2.6.85-4.07,1.04v3.57Z" style="fill:#fff;"/><path d="M262.44,108.61h-11.17s0,4.72,0,4.72c0,2.02-.36,4.77-1.61,6.42l-1.16-1.22c.94-1.56,1.24-3.38,1.24-5.17v-6.2s5.27,0,5.27,0v-1.36s1.59,0,1.59,0v1.36s5.84,0,5.84,0v1.44ZM255.48,113.59v-4.53s1.52,0,1.52,0v1.24s5.43,0,5.43,0v1.47s-5.44,0-5.44,0v1.82s4.56,0,4.56,0v5.94s-9.67,0-9.67,0v-5.94s3.59,0,3.59,0ZM253.4,115v3.07s6.66,0,6.66,0v-3.07s-6.66,0-6.66,0Z" style="fill:#fff;"/><path d="M269.23,114.88v4.68s-4.91,0-4.91,0v-4.68s4.91,0,4.91,0ZM266.09,112.78v-1.24s-1.85,0-1.85,0v-1.27s1.85,0,1.85,0v-1.22s1.4,0,1.4,0v1.22s1.89,0,1.89,0v1.27s-1.89,0-1.89,0v1.24s2.25,0,2.25,0v1.25s-5.79,0-5.79,0v-1.25s2.14,0,2.14,0ZM269.84,107.5h3.31s0-1.61,0-1.61h1.38s0,1.61,0,1.61h1.73c-.33-.31-.85-.75-1.22-1.01l1.12-.73c.45.24,1.16.77,1.5,1.15l-.88.6h1.15s0,1.34,0,1.34h-3.4s0,1.06,0,1.06h2.98s0,8.92,0,8.92c0,.6-.3,1.06-.94,1.06h-1.38s-.25-1.55-.25-1.55h.98c.15,0,.24-.03.24-.19v-1.79s-1.62,0-1.62,0v3.41s-1.38,0-1.38,0v-3.41s-1.52,0-1.52,0v3.53s-1.34,0-1.34,0v-9.98s2.86,0,2.86,0v-1.06s-3.16,0-3.16,0l-.61.91c-1.06-.89-1.71-1.59-2.44-2.77-.63,1.15-1.44,2.16-2.44,3.02l-.92-1.21c1.03-.86,1.73-1.71,2.35-2.9h1.91c.54.94,1.15,1.55,2.01,2.2v-.6ZM265.7,116.12v2.22s2.16,0,2.16,0v-2.22s-2.16,0-2.16,0ZM271.62,113.69v1.46s1.52,0,1.52,0v-1.46s-1.52,0-1.52,0ZM271.62,111.13v1.36s1.52,0,1.52,0v-1.36s-1.52,0-1.52,0ZM274.53,113.69v1.46s1.62,0,1.62,0v-1.46s-1.62,0-1.62,0ZM274.53,111.13v1.36s1.62,0,1.62,0v-1.36s-1.62,0-1.62,0Z" style="fill:#fff;"/><path d="M283,107.14c-.54,2.25-.86,4.54-.86,6.87,0,1.61.16,3.11.51,4.69l-1.62.21c-.4-1.58-.51-3.25-.51-4.87,0-2.41.28-4.74.76-7.1l1.73.21ZM285.94,115.38c0,.45.27.76.68.92.58.24,1.54.27,2.16.27,1.22,0,2.32-.13,3.51-.36l-.03,1.74c-1.1.16-2.2.25-3.32.25-1.77,0-4.53-.13-4.53-2.53,0-.76.28-1.43.7-2.06l1.41.28c-.31.42-.6.92-.6,1.47ZM289.11,109.63c-1.38,0-2.76.12-4.12.3l.03-1.7c1.4-.14,2.8-.24,4.2-.24.83,0,1.67.03,2.49.1l-.03,1.65c-.85-.07-1.71-.12-2.56-.12Z" style="fill:#fff;"/><path d="M297.45,107.99l10.29-.74.15,1.68c-1.8.09-3.2.36-4.72,1.37-1.28.83-2.4,2.09-2.4,3.69,0,2.44,2.62,3.32,4.63,3.53l-.82,1.62c-2.81-.43-5.51-1.85-5.51-5.05,0-2.44,1.55-4.05,3.65-5.05l-7.37.82-.15-1.77c.74-.03,1.5-.06,2.25-.1Z" style="fill:#fff;"/><path d="M310.81,119.87l-1.09-.95c.57-.63,1.12-1.55,1.29-2.38l1.31.6c-.3.98-.83,1.98-1.52,2.74ZM315.3,106.34v9.95s-4.93,0-4.93,0v-9.95s4.93,0,4.93,0ZM311.82,113.31v1.58s2.05,0,2.05,0v-1.58s-2.05,0-2.05,0ZM311.82,110.49v1.47s2.05,0,2.05,0v-1.47s-2.05,0-2.05,0ZM311.82,107.72v1.45s2.05,0,2.05,0v-1.45s-2.05,0-2.05,0ZM314.19,119.08c-.34-.7-.75-1.37-1.15-2.02l1.3-.48c.3.42.71,1.06.97,1.5.94-1.64,1.16-4.02,1.16-5.88v-5.87s7.48,0,7.48,0v1.46s-5.94,0-5.94,0v2.09s5.41,0,5.41,0v1.53c-.24,1.77-.73,3.62-1.74,5.11.75.8,1.53,1.35,2.49,1.88l-.76,1.44c-1.04-.61-1.86-1.24-2.68-2.13-.89.94-1.82,1.53-2.99,2.06l-.77-1.34c1.15-.42,2.03-1,2.84-1.91-.89-1.4-1.34-2.93-1.62-4.56l1.43-.34c.12,1.33.42,2.49,1.12,3.65.73-1.25,1.04-2.56,1.19-3.98h-3.9c0,3.28-.22,5.91-1.97,8.59l-1.34-.89c.06-.07.12-.15.16-.22l-.67.31Z" style="fill:#fff;"/><path d="M325.77,119.92l-.71-1.5c2.87-.67,4.18-1.41,4.17-4.62l1.65.12c-.25,3.77-1.59,4.93-5.11,6ZM338.89,111.85v2.92s-1.59,0-1.59,0v-1.58s-10.14,0-10.14,0v1.58s-1.58,0-1.58,0v-2.92s13.31,0,13.31,0ZM331.48,106.99v-1.12s1.58,0,1.58,0v1.12s6.24,0,6.24,0v1.47s-6.24,0-6.24,0v1.12s5.41,0,5.41,0v1.33s-12.38,0-12.38,0v-1.33s5.39,0,5.39,0v-1.12s-6.25,0-6.25,0v-1.47s6.25,0,6.25,0ZM338.94,118.73c-.24.51-.66.88-1.25.88h-3.11c-.77,0-1.35-.34-1.35-1.18v-4.6s1.53,0,1.53,0v3.95c0,.24.02.37.28.37h2.2c.19,0,.3-.27.34-.42.05-.19.18-1.37.18-1.61l1.56.37c-.06.58-.15,1.76-.39,2.23Z" style="fill:#fff;"/><path d="M42.81,43.81c-5.4,0-9.22-.09-11.51-.27l.18-2.29c1.41.14,2.5.18,3.29.18v-8.47s-5.8,0-5.8,0v10.84s-2.24,0-2.24,0V15.67s16.07,0,16.07,0v28.14ZM64.54,9.12v2.28s-40.4,0-40.4,0v-2.28s11.37,0,11.37,0c-1.32-2.64-2.33-4.39-2.9-5.24l1.93-1.21c.75,1.21,1.89,3.36,3.47,6.45h8.56c1.05-2.64,1.93-4.66,2.46-6.05h8.12c-1.23,2.96-2.15,4.93-2.68,6.05h10.06ZM34.77,30.68v-5.42s-5.8,0-5.8,0v5.42s5.8,0,5.8,0ZM34.77,17.95h-5.8s0,5.02,0,5.02h5.8s0-5.02,0-5.02ZM46.41,16.16h2.5s0,20.3,0,20.3h-2.5s0-20.3,0-20.3ZM53.52,14.86h8.52s0,28.95,0,28.95c-5.84,0-10.06-.09-12.6-.27l.13-2.29c1.63.14,2.99.18,3.95.18V14.86Z" style="fill:#008038;"/><path d="M77.33,35.7c1.58-2.6,2.37-6.09,2.37-10.58h2.28c0,5.02-.92,8.96-2.81,11.92-2.02,3.18-5.23,5.56-9.75,7.04l-.7-2.2c4.04-1.34,6.89-3.41,8.61-6.18ZM104.91,28.35v-5.42s-33.07,0-33.07,0v5.47s-2.24,0-2.24,0v-7.8s37.59,0,37.59,0v7.75s-2.28,0-2.28,0ZM108.38,6.97v2.29s-15.94,0-15.94,0v4.84s13.53,0,13.53,0v2.33s-35.04,0-35.04,0v-2.33s13.22,0,13.22,0v-4.84s-15.68,0-15.68,0v-2.28s15.68,0,15.68,0v-3.94s8.3,0,8.3,0v3.94s15.94,0,15.94,0ZM108.16,35.12c.04.76.09,1.34.09,1.88,0,1.93-.31,3.36-.88,4.35-.75,1.16-1.98,1.88-3.73,2.11-.88.13-2.77.18-5.62.18-3.47,0-6.32-.05-8.61-.13v-18.46s8.34,0,8.34,0v16.31s.26,0,.26,0c2.59,0,4.17-.04,4.74-.09,1.23-.13,2.06-.45,2.46-.89.57-.67.83-2.38.7-5.11l2.24-.13Z" style="fill:#008038;"/><path d="M128.67,28.08c-2.2,2.6-4.35,3.9-6.46,3.81-3.29-.13-4.96-3.63-4.96-10.49,0-3.94.57-9.19,1.67-15.78l2.85.4c-1.1,6.41-1.63,11.56-1.63,15.37,0,4.93.75,7.53,2.24,7.84,1.32.27,2.9-.9,4.79-3.59,1.23-1.79,2.33-3.67,3.16-5.65l2.41,1.26c-1.19,2.69-2.5,4.93-4.08,6.81ZM148,21.99c0,3.81-.22,6.72-.7,8.74-2.2,3.63-4.79,6.32-7.77,8.02-4.26,2.46-10.1,3.76-17.52,3.99l-.18-2.55c6.81-.14,12.12-1.26,15.94-3.45.66-4.08.92-9.01.92-14.74,0-6.72-.57-12.41-1.76-17.03l9.18-1.34c1.27,4.75,1.89,10.89,1.89,18.37Z" style="fill:#008038;"/><path d="M182.99,28.91c-4.65,7-11.94,11.57-21.93,13.7l-.65-2.53c4.91-1.02,9.12-2.7,12.59-5.01v-13.3s-15.94,0-15.94,0v-2.62s15.94,0,15.94,0v-8.64c-4.39.58-8.82.93-13.24,1.11l-.13-2.57c5.12-.18,10.25-.66,15.33-1.42,6.38-.97,11.29-2.17,14.72-3.68l1.17,2.48c-1.91.84-4.56,1.64-7.86,2.35v10.37s11.86,0,11.86,0v2.62s-11.86,0-11.86,0v7.14Z" style="fill:#008038;"/><path d="M228.37,15v12.81c-4.43,7.45-11.9,12.41-22.41,14.94l-.74-2.53c5.21-1.24,9.6-3.1,13.11-5.58V15s-9.38,0-9.38,0c-1.87,3.72-4.47,7.31-7.9,10.82l-1.91-1.95c2.95-2.97,5.26-6.03,6.91-9.18,1.65-3.1,2.82-6.69,3.56-10.82l2.82.4c-.52,2.92-1.35,5.63-2.3,8.16h26.97s0,2.57,0,2.57h-8.73Z" style="fill:#008038;"/><path d="M251,26.65l-2.48.58c-.78-4.21-1.74-7.89-2.82-11.08l2.39-.75c1.04,3.1,2.04,6.87,2.91,11.26ZM274.67,26.08c-2.61,4.61-5.95,8.29-10.03,11.04-3.69,2.44-8.29,4.3-13.77,5.58l-.61-2.17c6.56-1.51,11.77-3.95,15.63-7.27V14.42s8.77,0,8.77,0v11.66ZM257.61,25.59c-.56-4.17-1.39-7.89-2.34-11.21l2.39-.67c1,3.28,1.78,7.05,2.43,11.39l-2.48.49Z" style="fill:#008038;"/><path d="M315.72,27.98c-5.26-2.93-11.29-5.45-18.15-7.67v22.47s-10.03,0-10.03,0V3.91s10.03,0,10.03,0v13.52c7.17,2.22,13.59,4.88,19.32,8.02l-1.17,2.53Z" style="fill:#008038;"/><path d="M41.1,41.14c-5.4,0-9.22-.09-11.51-.27l.18-2.29c1.41.14,2.5.18,3.29.18v-8.47s-5.8,0-5.8,0v10.84s-2.24,0-2.24,0V13s16.07,0,16.07,0v28.14ZM62.84,6.45v2.28s-40.4,0-40.4,0v-2.28s11.37,0,11.37,0c-1.32-2.64-2.33-4.39-2.9-5.24l1.93-1.21c.75,1.21,1.89,3.36,3.47,6.45h8.56c1.05-2.64,1.93-4.66,2.46-6.05h8.12c-1.23,2.96-2.15,4.93-2.68,6.05h10.06ZM33.06,28.01v-5.42s-5.8,0-5.8,0v5.42s5.8,0,5.8,0ZM33.06,15.28h-5.8s0,5.02,0,5.02h5.8s0-5.02,0-5.02ZM44.7,13.49h2.5s0,20.3,0,20.3h-2.5s0-20.3,0-20.3ZM51.82,12.19h8.52s0,28.95,0,28.95c-5.84,0-10.06-.09-12.6-.27l.13-2.29c1.63.14,2.99.18,3.95.18V12.19Z" style="fill:#fff100;"/><path d="M75.62,33.03c1.58-2.6,2.37-6.09,2.37-10.58h2.28c0,5.02-.92,8.96-2.81,11.92-2.02,3.18-5.23,5.56-9.75,7.04l-.7-2.2c4.04-1.34,6.89-3.41,8.61-6.18ZM103.2,25.68v-5.42s-33.07,0-33.07,0v5.47s-2.24,0-2.24,0v-7.8s37.59,0,37.59,0v7.75s-2.28,0-2.28,0ZM106.67,4.3v2.29s-15.94,0-15.94,0v4.84s13.53,0,13.53,0v2.33s-35.04,0-35.04,0v-2.33s13.22,0,13.22,0v-4.84s-15.68,0-15.68,0v-2.28s15.68,0,15.68,0V.36s8.3,0,8.3,0v3.94s15.94,0,15.94,0ZM106.45,32.45c.04.76.09,1.34.09,1.88,0,1.93-.31,3.36-.88,4.35-.75,1.16-1.98,1.88-3.73,2.11-.88.13-2.77.18-5.62.18-3.47,0-6.32-.05-8.61-.13v-18.46s8.34,0,8.34,0v16.31s.26,0,.26,0c2.59,0,4.17-.04,4.74-.09,1.23-.13,2.06-.45,2.46-.89.57-.67.83-2.38.7-5.11l2.24-.13Z" style="fill:#fff100;"/><path d="M126.97,25.41c-2.2,2.6-4.35,3.9-6.46,3.81-3.29-.13-4.96-3.63-4.96-10.49,0-3.94.57-9.19,1.67-15.78l2.85.4c-1.1,6.41-1.63,11.56-1.63,15.37,0,4.93.75,7.53,2.24,7.84,1.32.27,2.9-.9,4.79-3.59,1.23-1.79,2.33-3.67,3.16-5.65l2.41,1.26c-1.19,2.69-2.5,4.93-4.08,6.81ZM146.29,19.31c0,3.81-.22,6.72-.7,8.74-2.2,3.63-4.79,6.32-7.77,8.02-4.26,2.46-10.1,3.76-17.52,3.99l-.18-2.55c6.81-.14,12.12-1.26,15.94-3.45.66-4.08.92-9.01.92-14.74,0-6.72-.57-12.41-1.76-17.03l9.18-1.34c1.27,4.75,1.89,10.89,1.89,18.37Z" style="fill:#fff100;"/><path d="M181.28,26.24c-4.65,7-11.94,11.57-21.93,13.7l-.65-2.53c4.91-1.02,9.12-2.7,12.59-5.01v-13.3s-15.94,0-15.94,0v-2.62s15.94,0,15.94,0V7.85c-4.39.58-8.82.93-13.24,1.11l-.13-2.57c5.12-.18,10.25-.66,15.33-1.42,6.38-.97,11.29-2.17,14.72-3.68l1.17,2.48c-1.91.84-4.56,1.64-7.86,2.35v10.37s11.86,0,11.86,0v2.62s-11.86,0-11.86,0v7.14Z" style="fill:#fff100;"/><path d="M226.67,12.33v12.81c-4.43,7.45-11.9,12.41-22.41,14.94l-.74-2.53c5.21-1.24,9.6-3.1,13.11-5.58V12.32s-9.38,0-9.38,0c-1.87,3.72-4.47,7.31-7.9,10.82l-1.91-1.95c2.95-2.97,5.26-6.03,6.91-9.18,1.65-3.1,2.82-6.69,3.56-10.82l2.82.4c-.52,2.92-1.35,5.63-2.3,8.16h26.97s0,2.57,0,2.57h-8.73Z" style="fill:#fff100;"/><path d="M249.3,23.98l-2.48.58c-.78-4.21-1.74-7.89-2.82-11.08l2.39-.75c1.04,3.1,2.04,6.87,2.91,11.26ZM272.97,23.41c-2.61,4.61-5.95,8.29-10.03,11.04-3.69,2.44-8.29,4.3-13.77,5.58l-.61-2.17c6.56-1.51,11.77-3.95,15.63-7.27V11.75s8.77,0,8.77,0v11.66ZM255.9,22.92c-.56-4.17-1.39-7.89-2.34-11.21l2.39-.67c1,3.28,1.78,7.05,2.43,11.39l-2.48.49Z" style="fill:#fff100;"/><path d="M314.01,25.31c-5.26-2.93-11.29-5.45-18.15-7.67v22.47s-10.03,0-10.03,0V1.24s10.03,0,10.03,0v13.52c7.17,2.22,13.59,4.88,19.32,8.02l-1.17,2.53Z" style="fill:#fff100;"/><path d="M88.06,92.24h-10.41s0-34.03,0-34.03h-5.5s0-2.76,0-2.76h15.92s0,36.8,0,36.8Z" style="fill:#008038;"/><path d="M102.38,94.65l-.6-1.73c1.19-.42,2.02-1.08,2.48-1.87-.32.09-.69.14-1.05.14-.96,0-1.74-.33-2.43-.98-.64-.75-1.01-1.54-1.01-2.53,0-.98.37-1.83,1.01-2.53.69-.66,1.47-.98,2.43-.98,1.1,0,1.97.33,2.66.98.6.7.92,1.64.92,2.81,0,3.42-1.47,5.66-4.4,6.69Z" style="fill:#008038;"/><path d="M123.48,89.2c-3.58-3.23-5.37-8.33-5.37-15.35,0-5.48,1.1-9.88,3.35-13.11,2.57-3.79,6.47-5.66,11.6-5.66,3.9,0,7.11,1.12,9.59,3.37,3.58,3.18,5.37,8.33,5.37,15.4,0,7.02-1.79,12.12-5.37,15.36-2.52,2.29-5.69,3.42-9.59,3.42-3.85,0-7.02-1.12-9.59-3.42ZM123.62,84.89c2.02,3.32,5.18,4.96,9.45,4.96,4.27,0,7.43-1.64,9.45-5.01,1.65-2.72,2.48-6.37,2.48-11s-.83-8.33-2.48-11.05c-2.02-3.37-5.18-5.01-9.45-5.01-4.27,0-7.43,1.64-9.45,5.01-1.65,2.71-2.48,6.41-2.48,11.05s.83,8.33,2.48,11.05Z" style="fill:#008038; stroke:#008038;"/><path d="M163.85,89.2c-3.58-3.23-5.37-8.33-5.37-15.35,0-5.48,1.1-9.88,3.35-13.11,2.57-3.79,6.47-5.66,11.6-5.66,3.9,0,7.11,1.12,9.59,3.37,3.58,3.18,5.37,8.33,5.37,15.4,0,7.02-1.79,12.12-5.37,15.35-2.52,2.29-5.69,3.42-9.59,3.42-3.85,0-7.02-1.12-9.59-3.42ZM163.98,84.89c2.02,3.32,5.18,4.96,9.45,4.96,4.27,0,7.43-1.64,9.45-5.01,1.65-2.71,2.48-6.37,2.48-11,0-4.63-.83-8.33-2.48-11.05-2.02-3.37-5.18-5.01-9.45-5.01-4.27,0-7.43,1.64-9.45,5.01-1.65,2.71-2.48,6.41-2.48,11.05,0,4.63.83,8.33,2.48,11.05Z" style="fill:#008038; stroke:#008038;"/><path d="M204.21,89.2c-3.58-3.23-5.37-8.33-5.37-15.35,0-5.48,1.1-9.88,3.35-13.11,2.57-3.79,6.47-5.66,11.6-5.66,3.9,0,7.11,1.12,9.59,3.37,3.58,3.18,5.37,8.33,5.37,15.4,0,7.02-1.79,12.12-5.37,15.35-2.52,2.29-5.69,3.42-9.59,3.42-3.85,0-7.02-1.12-9.59-3.42ZM204.35,84.89c2.02,3.32,5.18,4.96,9.45,4.96,4.27,0,7.43-1.64,9.45-5.01,1.65-2.72,2.48-6.37,2.48-11,0-4.63-.82-8.33-2.48-11.05-2.02-3.37-5.18-5.01-9.45-5.01-4.27,0-7.43,1.64-9.45,5.01-1.65,2.71-2.48,6.41-2.48,11.05,0,4.63.83,8.33,2.48,11.05Z" style="fill:#008038; stroke:#008038;"/><path d="M268.89,90.5c-4.97,0-8.63-.07-11.09-.19l.11-1.92c2.14.11,3.92.15,5.29.15v-12.91s-18.74,0-18.74,0v14.87s-5.62,0-5.62,0v-32.12s30.05,0,30.05,0v32.12ZM244.45,73.66h6.49s0-13.32,0-13.32h-6.49s0,13.32,0,13.32ZM263.19,73.66v-13.32s-6.63,0-6.63,0v13.32s6.63,0,6.63,0Z" style="fill:#008038;"/><path d="M86.36,89.57h-10.41s0-34.03,0-34.03h-5.5s0-2.76,0-2.76h15.92s0,36.8,0,36.8Z" style="fill:#fff;"/><path d="M100.67,91.98l-.6-1.73c1.19-.42,2.02-1.08,2.48-1.87-.32.09-.69.14-1.05.14-.96,0-1.74-.33-2.43-.98-.64-.75-1.01-1.54-1.01-2.53,0-.98.37-1.83,1.01-2.53.69-.66,1.47-.98,2.43-.98,1.1,0,1.97.33,2.66.98.6.7.92,1.64.92,2.81,0,3.42-1.47,5.66-4.4,6.69Z" style="fill:#fff;"/><path d="M121.77,86.53c-3.58-3.23-5.37-8.33-5.37-15.35,0-5.48,1.1-9.88,3.35-13.11,2.57-3.79,6.47-5.66,11.6-5.66,3.9,0,7.11,1.12,9.59,3.37,3.58,3.18,5.37,8.33,5.37,15.4,0,7.02-1.79,12.12-5.37,15.36-2.52,2.29-5.69,3.42-9.59,3.42-3.85,0-7.02-1.12-9.59-3.42ZM121.91,82.22c2.02,3.32,5.18,4.96,9.45,4.96,4.27,0,7.43-1.64,9.45-5.01,1.65-2.72,2.48-6.37,2.48-11s-.83-8.33-2.48-11.05c-2.02-3.37-5.18-5.01-9.45-5.01-4.27,0-7.43,1.64-9.45,5.01-1.65,2.71-2.48,6.41-2.48,11.05s.83,8.33,2.48,11.05Z" style="fill:#fff; stroke:#fff;"/><path d="M162.14,86.53c-3.58-3.23-5.37-8.33-5.37-15.35,0-5.48,1.1-9.88,3.35-13.11,2.57-3.79,6.47-5.66,11.6-5.66,3.9,0,7.11,1.12,9.59,3.37,3.58,3.18,5.37,8.33,5.37,15.4,0,7.02-1.79,12.12-5.37,15.35-2.52,2.29-5.69,3.42-9.59,3.42-3.85,0-7.02-1.12-9.59-3.42ZM162.28,82.22c2.02,3.32,5.18,4.96,9.45,4.96,4.27,0,7.43-1.64,9.45-5.01,1.65-2.71,2.48-6.37,2.48-11,0-4.63-.83-8.33-2.48-11.05-2.02-3.37-5.18-5.01-9.45-5.01-4.27,0-7.43,1.64-9.45,5.01-1.65,2.71-2.48,6.41-2.48,11.05,0,4.63.83,8.33,2.48,11.05Z" style="fill:#fff; stroke:#fff;"/><path d="M202.51,86.53c-3.58-3.23-5.37-8.33-5.37-15.35,0-5.48,1.1-9.88,3.35-13.11,2.57-3.79,6.47-5.66,11.6-5.66,3.9,0,7.11,1.12,9.59,3.37,3.58,3.18,5.37,8.33,5.37,15.4,0,7.02-1.79,12.12-5.37,15.35-2.52,2.29-5.69,3.42-9.59,3.42-3.85,0-7.02-1.12-9.59-3.42ZM202.65,82.22c2.02,3.32,5.18,4.96,9.45,4.96,4.27,0,7.43-1.64,9.45-5.01,1.65-2.72,2.48-6.37,2.48-11,0-4.63-.82-8.33-2.48-11.05-2.02-3.37-5.18-5.01-9.45-5.01-4.27,0-7.43,1.64-9.45,5.01-1.65,2.71-2.48,6.41-2.48,11.05,0,4.63.83,8.33,2.48,11.05Z" style="fill:#fff; stroke:#fff;"/><path d="M267.18,87.82c-4.97,0-8.63-.07-11.09-.19l.11-1.92c2.14.11,3.92.15,5.29.15v-12.91s-18.74,0-18.74,0v14.87s-5.62,0-5.62,0v-32.12s30.05,0,30.05,0v32.12ZM242.74,70.99h6.49s0-13.32,0-13.32h-6.49s0,13.32,0,13.32ZM261.49,70.99v-13.32s-6.63,0-6.63,0v13.32s6.63,0,6.63,0Z" style="fill:#fff;"/></g></svg>