<?xml version="1.0" encoding="UTF-8"?><svg id="_レイヤー_2" xmlns="http://www.w3.org/2000/svg" viewBox="0 0 43.98 42.82"><g id="_デザイン"><path d="M17.4,6.66c.57.74,1.53,1.13,2.75,1.24l-.16,2.21c0,.08.02.16.08.22.05.06.13.09.21.09h4.29c.08,0,.16-.03.21-.09.05-.06.08-.14.08-.22l-.16-2.21c1.22-.11,2.15-.52,2.76-1.24.83-.97.81-2,.82-2.34l.13-4.03c0-.16-.13-.29-.29-.29h-11.37c-.16,0-.29.13-.29.29l.2,4.03c0,.05,0,1.38.74,2.34Z" style="fill:#b0dcd9;"/><path d="M40.01,10.85c-.95,0-2.39.41-3.83,2.36-.93,1.26-1.54,2.46-1.94,3.55-3.24-1.75-7.7-2.94-13.82-2.71-3.83.14-6.98.98-9.56,2.21-.63-1.55-1.67-3.2-3.38-4.3-1.18-.76-2.31-1.14-3.37-1.14C1.72,10.82.32,12.76.04,14.55c-.4,2.48,2.48,3.94,4.5,4.32.35.07.88.34,1.46.71-3.13,3.02-4.56,6.71-4.67,9.52-.14,3.61,2.19,6.27,3.79,7.66.18.68.45,1.33.88,1.9,2.1,2.76,7.22,4.17,15.22,4.17,1.24,0,2.59-.03,3.99-.1,5.08-.24,11.58-1.32,13.71-5.05.17-.29.25-.62.35-.93,3.22-2.62,4.39-6.35,3.09-10.49-.4-1.26-1.44-3.79-3.8-6.23.98-1.3,2.08-1.85,3.02-2.3.99-.48,1.92-.93,2.28-2.09.28-.91,0-2.09-.74-3.07-.8-1.08-1.94-1.7-3.13-1.7ZM39.59,34.95c0-1.36-.37-2.85-1.24-4.5-4.48-8.5-14.38-8.83-14.8-8.84h-.71c-9.58,0-15.51,3.85-17.62,11.46-.19.67-.26,1.29-.29,1.9-1.26-1.36-2.56-3.35-2.47-5.83.15-3.85,1.98-6.76,4.51-8.9.15-.12.3-.24.45-.36.15-.12.3-.24.45-.36.76-.56,1.57-1.05,2.4-1.5.17-.09.33-.19.5-.27.17-.09.34-.16.51-.24,3.28-1.53,6.77-2.25,9.17-2.34,6.02-.23,10.34.98,13.45,2.7.17.1.33.2.49.3.16.1.33.2.49.3.84.54,1.58,1.12,2.23,1.72.14.13.29.26.43.38.14.14.26.28.39.42,2.07,2.2,3,4.44,3.36,5.58,1.21,3.85,0,6.56-1.71,8.37ZM37.96,37.12c-.21.37-.49.7-.8,1.01-2.45,2.49-7.74,3.28-12.01,3.48-10.01.48-16.09-.76-18.27-3.63-.01-.01-.01-.03-.02-.04-.22-.3-.4-.61-.54-.94-.12-.29-.19-.6-.24-.91-.14-.81-.08-1.71.2-2.72,1.99-7.17,7.41-10.65,16.56-10.65h.69c.1,0,9.66.33,13.84,8.26,1.04,1.97,1.35,3.67.99,5.09-.08.33-.19.65-.35.95-.02.04-.02.08-.04.11Z" style="fill:#2bb7b3;"/><path d="M37.55,20.58c-.13-.13-.29-.26-.43-.38-.65-.6-1.38-1.18-2.23-1.72-.16-.1-.32-.2-.49-.3-.17-.1-.32-.2-.49-.3-3.1-1.73-7.43-2.93-13.45-2.7-2.4.09-5.89.81-9.17,2.34-.17.08-.34.16-.51.24-.17.09-.34.18-.5.27-.83.44-1.64.94-2.4,1.5-.15.11-.3.24-.45.36-.15.12-.31.23-.45.36-2.53,2.15-4.37,5.06-4.51,8.9-.1,2.48,1.21,4.47,2.47,5.83.03-.61.1-1.23.29-1.9,2.11-7.61,8.04-11.47,17.62-11.47h.71c.42.02,10.32.35,14.8,8.85.87,1.65,1.25,3.14,1.24,4.5,1.71-1.81,2.92-4.51,1.71-8.37-.36-1.14-1.3-3.38-3.36-5.58-.13-.14-.25-.28-.39-.42ZM21.38,16.68c.4,0,.72.34.71.74,0,.4-.34.72-.74.71-.4,0-.72-.34-.71-.75,0-.4.34-.71.74-.71ZM23.7,19.42h-.63s.58.67.58.67c.14.16.12.4-.04.54-.07.06-.16.09-.25.09-.11,0-.21-.04-.29-.13l-.76-.89-.71.75c-.14.15-.38.16-.54.02-.15-.14-.16-.38-.02-.54l.51-.55h-.46c-.21-.01-.38-.19-.37-.4,0-.21.17-.37.38-.37h0l2.59.05c.21,0,.38.18.37.39,0,.21-.17.37-.38.37ZM23.54,18.17c-.4,0-.72-.34-.71-.74,0-.4.34-.72.74-.71.4,0,.72.34.71.75,0,.4-.34.71-.75.71Z" style="fill:#fff33f;"/><path d="M37.37,30.97c-4.18-7.93-13.75-8.25-13.84-8.25h-.69c-9.15,0-14.57,3.48-16.56,10.65-.28,1.01-.34,1.91-.2,2.72.05.32.12.62.24.91.14.33.32.65.54.94,0,.01.01.03.02.04,2.18,2.87,8.26,4.1,18.27,3.63,4.27-.2,9.55-1,12.01-3.48.31-.31.59-.64.8-1.01.02-.03.02-.08.04-.11.16-.3.27-.62.35-.95.36-1.42.05-3.12-.99-5.09ZM30.94,31.43c.31-.77.87-1.32,1.45-1.44,1.22-.23,2.58.68,2.99,1.91.28.85.04,1.64-.67,2.19-.36.27-.88.42-1.46.42-.95,0-1.82-.38-2.23-.97-.37-.52-.4-1.31-.08-2.1ZM9,30.9c.46-.81,1.58-1.18,2.42-1.18.47,0,.89.1,1.2.31.8.5,1.1,1.31.84,2.22-.29,1.02-1.33,2.07-2.57,2.07-.07,0-.14,0-.21-.01-.59-.06-1.2-.56-1.58-1.31-.39-.76-.43-1.54-.11-2.1ZM10.53,38.44c-.46,0-.87-.11-1.24-.26-.41-.16-.75-.38-.96-.66-.14-.18-.21-.38-.23-.59,0-.03-.03-.06-.03-.1,0-.86,1.13-1.56,2.5-1.54,1.37.01,2.47.73,2.46,1.6,0,.17-.08.33-.16.48-.1.2-.26.37-.47.52-.31.22-.72.38-1.19.46-.22.04-.44.08-.68.08ZM34.56,38.33c-.44,0-.82-.1-1.18-.23-.76-.28-1.29-.78-1.28-1.37.01-.86,1.13-1.56,2.5-1.54,1.37.01,2.47.73,2.46,1.6,0,.06-.05.11-.06.17-.15.78-1.17,1.38-2.44,1.37Z" style="fill:#fff;"/><path d="M33.25,34.5c.58,0,1.1-.15,1.46-.42.71-.54.96-1.34.67-2.19-.41-1.23-1.78-2.14-2.99-1.91-.58.12-1.14.67-1.45,1.44-.32.79-.29,1.58.08,2.1.41.59,1.29.97,2.23.97ZM31.74,31.68c0-.36.29-.65.65-.65s.65.29.65.65-.29.65-.65.65-.65-.29-.65-.65Z" style="fill:#2bb7b3;"/><path d="M10.69,34.31c.07,0,.14.01.21.01,1.24,0,2.28-1.05,2.57-2.07.26-.91-.04-1.72-.84-2.22-.32-.2-.73-.31-1.2-.31-.84,0-1.96.37-2.42,1.18-.32.56-.28,1.34.11,2.1.38.74.98,1.24,1.58,1.31ZM10.34,32.17c-.36,0-.65-.29-.65-.65s.29-.65.65-.65.65.29.65.65-.29.65-.65.65Z" style="fill:#2bb7b3;"/><path d="M21.35,18.13c.4,0,.74-.31.74-.71,0-.4-.31-.73-.71-.74-.4,0-.73.31-.74.71,0,.4.31.74.71.75Z" style="fill:#2bb7b3;"/><path d="M23.58,16.72c-.4,0-.73.32-.74.71,0,.4.31.73.71.74.4,0,.74-.31.75-.71,0-.41-.32-.74-.71-.75Z" style="fill:#2bb7b3;"/><path d="M23.71,18.66l-2.59-.05h0c-.21,0-.38.17-.38.37,0,.21.16.38.37.39h.46s-.51.56-.51.56c-.14.15-.14.39.02.54.16.14.39.13.54-.02l.71-.75.76.89c.07.09.18.13.29.13.09,0,.18-.03.25-.09.16-.14.18-.38.04-.54l-.58-.68h.63s0,.01,0,.01c.21,0,.38-.17.38-.37,0-.21-.16-.38-.37-.39Z" style="fill:#2bb7b3;"/><path d="M34.6,35.19c-1.37-.01-2.49.68-2.5,1.54,0,.59.53,1.09,1.28,1.37.35.13.74.22,1.18.23,1.27.02,2.29-.59,2.44-1.37.01-.06.06-.11.06-.17.01-.87-1.09-1.59-2.46-1.6Z" style="fill:#f3a078;"/><path d="M12.87,37.38c.08-.15.16-.31.16-.48,0-.87-1.09-1.59-2.46-1.6-1.37-.02-2.49.68-2.5,1.54,0,.03.03.06.03.1.02.21.1.41.23.59.21.28.55.5.96.66.37.14.78.25,1.24.26.24,0,.46-.04.68-.08.47-.08.87-.23,1.19-.46.21-.15.37-.33.47-.52Z" style="fill:#f3a078;"/><circle cx="10.34" cy="31.52" r=".65" style="fill:#fff;"/><circle cx="32.39" cy="31.68" r=".65" style="fill:#fff;"/><circle cx="20.82" cy="32.02" r=".5" style="fill:#2bb7b3;"/><circle cx="22.7" cy="32.02" r=".5" style="fill:#2bb7b3;"/><path d="M21.93,36.71c1.93,0,2.81-.22,3.56-.68,1.16-.72,1.28-1.4,1.28-1.4" style="fill:none; stroke:#2bb7b3; stroke-linecap:round; stroke-linejoin:round; stroke-width:1.19px;"/><path d="M21.93,36.71c-1.92-.02-2.81-.22-3.56-.68-1.16-.72-1.28-1.4-1.28-1.4" style="fill:none; stroke:#2bb7b3; stroke-linecap:round; stroke-linejoin:round; stroke-width:1.19px;"/></g></svg>